<?xml version="1.0" encoding="UTF-8" standalone="no"?>
<!DOCTYPE svg PUBLIC "-//W3C//DTD SVG 1.1//EN" "http://www.w3.org/Graphics/SVG/1.1/DTD/svg11.dtd">
<svg width="100%" height="100%" viewBox="0 0 400 400" version="1.1" xmlns="http://www.w3.org/2000/svg" xmlns:xlink="http://www.w3.org/1999/xlink" xml:space="preserve" xmlns:serif="http://www.serif.com/" style="fill-rule:evenodd;clip-rule:evenodd;stroke-linejoin:round;stroke-miterlimit:2;">
    <g id="Gauge">
        <g transform="matrix(0.52325,0,0,0.52325,83.8346,227.326)">
            <g id="Units">
                <g transform="matrix(54.4725,0,0,54.4725,163,168)">
                    <path d="M0.236,-0.239L0.032,-0.507L0.111,-0.507L0.277,-0.279L0.485,-0L0.407,-0L0.236,-0.239ZM0.233,-0.28L0.272,-0.222L0.108,-0L0.029,-0L0.233,-0.28ZM0.249,-0.286L0.398,-0.507L0.478,-0.507L0.286,-0.233L0.249,-0.286Z" style="fill:rgb(241,230,222);fill-rule:nonzero;"/>
                </g>
                <g transform="matrix(54.4725,0,0,54.4725,191.167,168)">
                    <path d="M0.245,-0L0.174,-0L0.174,-0.65L0.044,-0.569L0.044,-0.643L0.145,-0.71L0.245,-0.71L0.245,-0Z" style="fill:rgb(241,230,222);fill-rule:nonzero;"/>
                </g>
                <g transform="matrix(54.4725,0,0,54.4725,209.28,168)">
                    <path d="M0.276,0.007C0.209,0.007 0.159,-0.01 0.125,-0.046C0.09,-0.081 0.073,-0.131 0.073,-0.194L0.073,-0.517C0.073,-0.581 0.09,-0.63 0.125,-0.666C0.16,-0.701 0.21,-0.719 0.276,-0.719C0.342,-0.719 0.393,-0.701 0.427,-0.666C0.461,-0.631 0.479,-0.581 0.479,-0.517L0.479,-0.194C0.479,-0.131 0.461,-0.081 0.427,-0.046C0.392,-0.01 0.342,0.007 0.276,0.007ZM0.276,-0.058C0.321,-0.058 0.354,-0.07 0.376,-0.094C0.397,-0.117 0.408,-0.151 0.408,-0.194L0.408,-0.517C0.408,-0.561 0.397,-0.595 0.376,-0.618C0.354,-0.642 0.321,-0.653 0.276,-0.653C0.231,-0.653 0.197,-0.642 0.176,-0.618C0.154,-0.595 0.144,-0.561 0.144,-0.517L0.144,-0.194C0.144,-0.151 0.154,-0.117 0.176,-0.094C0.197,-0.07 0.231,-0.058 0.276,-0.058Z" style="fill:rgb(241,230,222);fill-rule:nonzero;"/>
                </g>
                <g transform="matrix(54.4725,0,0,54.4725,239.336,168)">
                    <path d="M0.495,-0.71L0.563,-0.71L0.182,-0L0.114,-0L0.495,-0.71ZM0.52,0.007C0.482,0.007 0.453,-0.004 0.433,-0.026C0.412,-0.048 0.402,-0.078 0.402,-0.118L0.402,-0.179C0.402,-0.218 0.412,-0.249 0.433,-0.271C0.453,-0.293 0.482,-0.304 0.52,-0.304C0.558,-0.304 0.587,-0.293 0.607,-0.271C0.628,-0.249 0.638,-0.218 0.638,-0.178L0.638,-0.118C0.638,-0.078 0.628,-0.047 0.607,-0.025C0.587,-0.004 0.557,0.007 0.52,0.007ZM0.52,-0.051C0.538,-0.051 0.551,-0.056 0.561,-0.067C0.57,-0.078 0.575,-0.093 0.575,-0.113L0.575,-0.185C0.575,-0.204 0.57,-0.219 0.561,-0.229C0.551,-0.24 0.538,-0.245 0.52,-0.245C0.502,-0.245 0.489,-0.24 0.479,-0.229C0.47,-0.219 0.465,-0.204 0.465,-0.184L0.465,-0.113C0.465,-0.093 0.47,-0.077 0.479,-0.067C0.489,-0.056 0.502,-0.051 0.52,-0.051ZM0.167,-0.406C0.129,-0.406 0.1,-0.417 0.08,-0.439C0.059,-0.461 0.049,-0.491 0.049,-0.531L0.049,-0.592C0.049,-0.631 0.059,-0.662 0.08,-0.684C0.1,-0.706 0.129,-0.717 0.167,-0.717C0.205,-0.717 0.234,-0.706 0.254,-0.684C0.275,-0.662 0.285,-0.631 0.285,-0.591L0.285,-0.531C0.285,-0.491 0.275,-0.46 0.254,-0.438C0.233,-0.417 0.204,-0.406 0.167,-0.406ZM0.167,-0.464C0.185,-0.464 0.198,-0.469 0.208,-0.48C0.217,-0.491 0.222,-0.506 0.222,-0.526L0.222,-0.598C0.222,-0.617 0.217,-0.632 0.208,-0.643C0.198,-0.653 0.185,-0.658 0.167,-0.658C0.149,-0.658 0.136,-0.653 0.126,-0.643C0.117,-0.632 0.112,-0.617 0.112,-0.597L0.112,-0.526C0.112,-0.506 0.117,-0.49 0.126,-0.48C0.136,-0.469 0.149,-0.464 0.167,-0.464Z" style="fill:rgb(241,230,222);fill-rule:nonzero;"/>
                </g>
            </g>
        </g>
        <g transform="matrix(1,0,0,1,-72.4524,-33.4989)">
            <g id="Lower-measurements" serif:id="Lower measurements">
                <g>
                    <g transform="matrix(0.908559,0.417757,-0.417757,0.908559,174.771,-47.9946)">
                        <g transform="matrix(30,0,0,30,197.019,375.231)">
                            <path d="M0.32,0.007C0.271,0.007 0.228,-0.004 0.191,-0.025C0.153,-0.047 0.125,-0.078 0.104,-0.118C0.083,-0.158 0.073,-0.205 0.073,-0.257L0.073,-0.452C0.073,-0.505 0.083,-0.551 0.104,-0.591C0.125,-0.631 0.153,-0.662 0.191,-0.684C0.228,-0.706 0.271,-0.717 0.32,-0.717C0.361,-0.717 0.398,-0.709 0.433,-0.692C0.467,-0.676 0.495,-0.652 0.518,-0.622C0.541,-0.591 0.557,-0.556 0.565,-0.516L0.495,-0.516C0.487,-0.543 0.474,-0.566 0.456,-0.587C0.439,-0.607 0.418,-0.623 0.394,-0.635C0.37,-0.646 0.346,-0.652 0.32,-0.652C0.285,-0.652 0.254,-0.644 0.228,-0.627C0.201,-0.61 0.18,-0.587 0.166,-0.557C0.151,-0.527 0.144,-0.492 0.144,-0.452L0.144,-0.257C0.144,-0.218 0.151,-0.183 0.166,-0.153C0.18,-0.122 0.201,-0.099 0.228,-0.083C0.254,-0.066 0.285,-0.058 0.32,-0.058C0.346,-0.058 0.37,-0.063 0.394,-0.074C0.418,-0.085 0.439,-0.101 0.456,-0.121C0.474,-0.142 0.487,-0.166 0.495,-0.194L0.565,-0.194C0.557,-0.154 0.541,-0.119 0.518,-0.088C0.495,-0.058 0.466,-0.034 0.432,-0.018C0.398,-0.001 0.361,0.007 0.32,0.007Z" style="fill:rgb(241,230,222);fill-rule:nonzero;"/>
                        </g>
                    </g>
                    <g transform="matrix(0.950085,0.31199,-0.31199,0.950085,130.08,-47.4475)">
                        <g transform="matrix(30,0,0,30,213.325,382.809)">
                            <path d="M0.323,0.007C0.27,0.007 0.225,-0.003 0.188,-0.023C0.15,-0.044 0.122,-0.074 0.103,-0.113C0.083,-0.152 0.073,-0.199 0.073,-0.254L0.073,-0.456C0.073,-0.511 0.083,-0.558 0.103,-0.597C0.122,-0.636 0.15,-0.666 0.188,-0.687C0.225,-0.707 0.27,-0.717 0.323,-0.717C0.375,-0.717 0.42,-0.707 0.458,-0.687C0.495,-0.666 0.523,-0.636 0.543,-0.597C0.563,-0.558 0.572,-0.511 0.572,-0.456L0.572,-0.254C0.572,-0.199 0.563,-0.152 0.543,-0.113C0.523,-0.074 0.495,-0.044 0.458,-0.023C0.42,-0.003 0.375,0.007 0.323,0.007ZM0.323,-0.058C0.361,-0.058 0.393,-0.066 0.42,-0.081C0.447,-0.096 0.467,-0.118 0.481,-0.147C0.495,-0.176 0.502,-0.21 0.502,-0.251L0.502,-0.459C0.502,-0.5 0.495,-0.534 0.481,-0.563C0.467,-0.592 0.447,-0.614 0.42,-0.629C0.393,-0.644 0.361,-0.652 0.323,-0.652C0.285,-0.652 0.253,-0.644 0.226,-0.629C0.199,-0.614 0.179,-0.592 0.165,-0.563C0.151,-0.534 0.144,-0.5 0.144,-0.459L0.144,-0.251C0.144,-0.21 0.151,-0.176 0.165,-0.147C0.179,-0.118 0.199,-0.096 0.226,-0.081C0.253,-0.066 0.285,-0.058 0.323,-0.058Z" style="fill:rgb(241,230,222);fill-rule:nonzero;"/>
                        </g>
                    </g>
                    <g transform="matrix(0.9815,0.191463,-0.191463,0.9815,78.7277,-37.1211)">
                        <g transform="matrix(30,0,0,30,231.452,388.826)">
                            <path d="M0.131,-0.366L0.374,-0.366C0.4,-0.366 0.423,-0.372 0.443,-0.383C0.463,-0.395 0.479,-0.411 0.49,-0.432C0.5,-0.453 0.506,-0.478 0.506,-0.505C0.506,-0.533 0.501,-0.557 0.49,-0.579C0.479,-0.6 0.464,-0.616 0.444,-0.628C0.424,-0.639 0.4,-0.645 0.374,-0.645L0.131,-0.645L0.131,-0.71L0.37,-0.71C0.411,-0.71 0.447,-0.702 0.478,-0.685C0.509,-0.668 0.533,-0.644 0.55,-0.613C0.567,-0.582 0.576,-0.546 0.576,-0.505C0.576,-0.465 0.567,-0.429 0.55,-0.398C0.533,-0.367 0.509,-0.343 0.478,-0.326C0.446,-0.309 0.41,-0.3 0.37,-0.3L0.131,-0.3L0.131,-0.366ZM0.088,-0.71L0.158,-0.71L0.158,-0L0.088,-0L0.088,-0.71ZM0.359,-0.322L0.424,-0.345L0.605,-0L0.521,-0L0.359,-0.322Z" style="fill:rgb(241,230,222);fill-rule:nonzero;"/>
                        </g>
                    </g>
                    <g transform="matrix(0.99711,0.0759706,-0.0759706,0.99711,30.5497,-17.9089)">
                        <g transform="matrix(30,0,0,30,250.669,392.59)">
                            <path d="M0.088,-0.71L0.158,-0.71L0.158,-0L0.088,-0L0.088,-0.71ZM0.136,-0.065L0.544,-0.065L0.544,-0L0.136,-0L0.136,-0.065ZM0.136,-0.385L0.49,-0.385L0.49,-0.32L0.136,-0.32L0.136,-0.385ZM0.136,-0.71L0.544,-0.71L0.544,-0.645L0.136,-0.645L0.136,-0.71Z" style="fill:rgb(241,230,222);fill-rule:nonzero;"/>
                        </g>
                    </g>
                    <g transform="matrix(0.996445,-0.0842475,0.0842475,0.996445,-32.2102,24.7046)">
                        <g transform="matrix(30,0,0,30,276.612,394.001)">
                            <path d="M0.088,-0.71L0.158,-0.71L0.158,-0L0.088,-0L0.088,-0.71ZM0.138,-0.065L0.544,-0.065L0.544,-0L0.138,-0L0.138,-0.065Z" style="fill:rgb(241,230,222);fill-rule:nonzero;"/>
                        </g>
                    </g>
                    <g transform="matrix(0.982059,-0.188576,0.188576,0.982059,-68.799,62.3395)">
                        <g transform="matrix(30,0,0,30,293.215,392.732)">
                            <path d="M0.323,0.007C0.27,0.007 0.225,-0.003 0.188,-0.023C0.15,-0.044 0.122,-0.074 0.103,-0.113C0.083,-0.152 0.073,-0.199 0.073,-0.254L0.073,-0.456C0.073,-0.511 0.083,-0.558 0.103,-0.597C0.122,-0.636 0.15,-0.666 0.188,-0.687C0.225,-0.707 0.27,-0.717 0.323,-0.717C0.375,-0.717 0.42,-0.707 0.458,-0.687C0.495,-0.666 0.523,-0.636 0.543,-0.597C0.563,-0.558 0.572,-0.511 0.572,-0.456L0.572,-0.254C0.572,-0.199 0.563,-0.152 0.543,-0.113C0.523,-0.074 0.495,-0.044 0.458,-0.023C0.42,-0.003 0.375,0.007 0.323,0.007ZM0.323,-0.058C0.361,-0.058 0.393,-0.066 0.42,-0.081C0.447,-0.096 0.467,-0.118 0.481,-0.147C0.495,-0.176 0.502,-0.21 0.502,-0.251L0.502,-0.459C0.502,-0.5 0.495,-0.534 0.481,-0.563C0.467,-0.592 0.447,-0.614 0.42,-0.629C0.393,-0.644 0.361,-0.652 0.323,-0.652C0.285,-0.652 0.253,-0.644 0.226,-0.629C0.199,-0.614 0.179,-0.592 0.165,-0.563C0.151,-0.534 0.144,-0.5 0.144,-0.459L0.144,-0.251C0.144,-0.21 0.151,-0.176 0.165,-0.147C0.179,-0.118 0.199,-0.096 0.226,-0.081C0.253,-0.066 0.285,-0.058 0.323,-0.058Z" style="fill:rgb(241,230,222);fill-rule:nonzero;"/>
                        </g>
                    </g>
                    <g transform="matrix(0.95341,-0.301677,0.301677,0.95341,-102.93,112.086)">
                        <g transform="matrix(30,0,0,30,311.423,389.287)">
                            <path d="M0.281,-0.71L0.366,-0.71L0.628,-0L0.55,-0L0.324,-0.636L0.098,-0L0.02,-0L0.281,-0.71ZM0.14,-0.238L0.514,-0.238L0.514,-0.172L0.14,-0.172L0.14,-0.238Z" style="fill:rgb(241,230,222);fill-rule:nonzero;"/>
                        </g>
                    </g>
                    <g transform="matrix(0.908718,-0.41741,0.41741,0.908718,-129.942,172.717)">
                        <g transform="matrix(30,0,0,30,329.926,383.456)">
                            <path d="M0.155,-0.065L0.316,-0.065C0.382,-0.065 0.431,-0.081 0.464,-0.112C0.496,-0.142 0.513,-0.189 0.513,-0.25L0.513,-0.459C0.513,-0.521 0.496,-0.568 0.464,-0.598C0.431,-0.629 0.382,-0.645 0.316,-0.645L0.155,-0.645L0.155,-0.71L0.313,-0.71C0.373,-0.71 0.423,-0.701 0.463,-0.682C0.503,-0.663 0.533,-0.635 0.553,-0.597C0.573,-0.559 0.583,-0.512 0.583,-0.456L0.583,-0.254C0.583,-0.198 0.573,-0.151 0.553,-0.113C0.533,-0.075 0.503,-0.047 0.463,-0.028C0.423,-0.009 0.373,-0 0.313,-0L0.155,-0L0.155,-0.065ZM0.088,-0.71L0.158,-0.71L0.158,-0L0.088,-0L0.088,-0.71Z" style="fill:rgb(241,230,222);fill-rule:nonzero;"/>
                        </g>
                    </g>
                </g>
            </g>
        </g>
        <g id="Bezel-shadow" serif:id="Bezel shadow" transform="matrix(1.21949,0,0,1.21949,-91.4175,-23.1672)">
            <circle cx="239" cy="183" r="147" style="fill:none;"/>
            <clipPath id="_clip1">
                <circle cx="239" cy="183" r="147"/>
            </clipPath>
            <g clip-path="url(#_clip1)">
                <g transform="matrix(0.820013,0,0,0.593898,74.9636,19.2235)">
                    <rect x="0" y="1" width="400" height="399"/>
                </g>
            </g>
        </g>
    </g>
</svg>
