<?xml version="1.0" encoding="UTF-8" standalone="no"?>
<!DOCTYPE svg PUBLIC "-//W3C//DTD SVG 1.1//EN" "http://www.w3.org/Graphics/SVG/1.1/DTD/svg11.dtd">
<svg width="100%" height="100%" viewBox="0 0 400 400" version="1.1" xmlns="http://www.w3.org/2000/svg" xmlns:xlink="http://www.w3.org/1999/xlink" xml:space="preserve" xmlns:serif="http://www.serif.com/" style="fill-rule:evenodd;clip-rule:evenodd;stroke-linejoin:round;stroke-miterlimit:2;">
    <g id="Gauge">
        <g transform="matrix(0.52325,0,0,0.52325,83.8346,227.326)">
            <g id="Units">
                <g transform="matrix(54.4725,0,0,54.4725,163,168)">
                    <path d="M0.02,-0.415L0.21,-0.415L0.21,-0.404C0.199,-0.403 0.19,-0.399 0.183,-0.394C0.177,-0.388 0.174,-0.382 0.174,-0.373C0.174,-0.367 0.175,-0.361 0.178,-0.354C0.182,-0.347 0.188,-0.336 0.198,-0.32L0.239,-0.251L0.298,-0.325C0.309,-0.339 0.316,-0.349 0.32,-0.356C0.324,-0.363 0.326,-0.37 0.326,-0.376C0.326,-0.392 0.316,-0.401 0.298,-0.404L0.298,-0.415L0.427,-0.415L0.427,-0.404C0.407,-0.4 0.389,-0.392 0.372,-0.379C0.355,-0.366 0.337,-0.347 0.316,-0.322L0.25,-0.237L0.348,-0.083C0.363,-0.06 0.378,-0.042 0.391,-0.031C0.398,-0.024 0.406,-0.02 0.412,-0.017C0.418,-0.014 0.426,-0.012 0.437,-0.01L0.437,-0L0.24,-0L0.24,-0.01C0.252,-0.012 0.26,-0.014 0.265,-0.017C0.275,-0.022 0.28,-0.029 0.28,-0.039C0.28,-0.049 0.274,-0.063 0.262,-0.081L0.251,-0.097L0.201,-0.176L0.137,-0.096C0.125,-0.082 0.118,-0.072 0.114,-0.065C0.11,-0.058 0.108,-0.051 0.108,-0.045C0.108,-0.027 0.121,-0.015 0.148,-0.01L0.148,-0L0.011,-0L0.011,-0.01C0.02,-0.012 0.028,-0.014 0.034,-0.017C0.04,-0.019 0.047,-0.023 0.055,-0.029C0.068,-0.04 0.085,-0.058 0.105,-0.083L0.192,-0.191L0.101,-0.329C0.083,-0.356 0.069,-0.374 0.059,-0.384C0.049,-0.393 0.036,-0.4 0.02,-0.404L0.02,-0.415Z" style="fill:rgb(241,230,222);fill-rule:nonzero;"/>
                </g>
                <g transform="matrix(54.4725,0,0,54.4725,187.284,168)">
                    <path d="M0.274,-0.667L0.286,-0.667L0.286,-0.131C0.286,-0.106 0.288,-0.086 0.292,-0.07C0.297,-0.054 0.303,-0.042 0.313,-0.035C0.328,-0.021 0.353,-0.013 0.387,-0.01L0.387,-0L0.105,-0L0.105,-0.01C0.127,-0.012 0.143,-0.015 0.154,-0.018C0.165,-0.022 0.175,-0.028 0.183,-0.038C0.192,-0.047 0.197,-0.058 0.2,-0.07C0.204,-0.083 0.205,-0.102 0.205,-0.128L0.205,-0.594C0.188,-0.592 0.175,-0.591 0.166,-0.591C0.142,-0.591 0.122,-0.593 0.107,-0.597L0.107,-0.606L0.119,-0.606C0.144,-0.606 0.167,-0.61 0.19,-0.618C0.212,-0.627 0.237,-0.64 0.264,-0.659L0.274,-0.667Z" style="fill:rgb(241,230,222);fill-rule:nonzero;"/>
                </g>
                <g transform="matrix(54.4725,0,0,54.4725,214.068,168)">
                    <path d="M0.246,-0.675C0.28,-0.675 0.312,-0.66 0.342,-0.629C0.356,-0.614 0.371,-0.594 0.385,-0.57C0.4,-0.546 0.412,-0.522 0.422,-0.497C0.444,-0.439 0.455,-0.385 0.455,-0.333C0.455,-0.282 0.444,-0.228 0.422,-0.17C0.412,-0.145 0.4,-0.12 0.385,-0.096C0.371,-0.072 0.356,-0.053 0.342,-0.038C0.312,-0.007 0.28,0.009 0.246,0.009C0.212,0.009 0.18,-0.007 0.15,-0.038C0.136,-0.053 0.121,-0.072 0.107,-0.096C0.092,-0.12 0.08,-0.145 0.07,-0.17C0.048,-0.228 0.037,-0.282 0.037,-0.333C0.037,-0.385 0.048,-0.439 0.07,-0.497C0.08,-0.522 0.092,-0.546 0.107,-0.57C0.121,-0.594 0.136,-0.614 0.15,-0.629C0.18,-0.66 0.212,-0.675 0.246,-0.675ZM0.246,-0.664C0.233,-0.664 0.22,-0.659 0.208,-0.649C0.195,-0.639 0.184,-0.625 0.174,-0.607C0.167,-0.594 0.159,-0.576 0.152,-0.553C0.144,-0.531 0.138,-0.508 0.133,-0.486C0.123,-0.435 0.118,-0.384 0.118,-0.333C0.118,-0.283 0.123,-0.232 0.133,-0.181C0.138,-0.158 0.144,-0.135 0.152,-0.113C0.159,-0.09 0.167,-0.073 0.174,-0.06C0.184,-0.041 0.196,-0.027 0.208,-0.018C0.221,-0.008 0.234,-0.003 0.247,-0.003C0.259,-0.003 0.272,-0.008 0.284,-0.018C0.297,-0.028 0.308,-0.042 0.318,-0.06C0.325,-0.073 0.333,-0.09 0.34,-0.113C0.348,-0.135 0.354,-0.158 0.358,-0.181C0.369,-0.232 0.375,-0.283 0.375,-0.333C0.375,-0.384 0.369,-0.435 0.358,-0.486C0.354,-0.508 0.348,-0.531 0.34,-0.553C0.333,-0.576 0.325,-0.594 0.318,-0.607C0.308,-0.625 0.297,-0.639 0.285,-0.649C0.272,-0.659 0.259,-0.664 0.246,-0.664Z" style="fill:rgb(241,230,222);fill-rule:nonzero;"/>
                </g>
                <g transform="matrix(54.4725,0,0,54.4725,240.852,168)">
                    <path d="M0.111,0.094L0.093,0.08L0.544,-0.536L0.527,-0.526C0.493,-0.509 0.465,-0.497 0.443,-0.49C0.421,-0.483 0.397,-0.48 0.372,-0.48C0.359,-0.48 0.345,-0.481 0.332,-0.484C0.343,-0.467 0.35,-0.452 0.354,-0.439C0.358,-0.427 0.36,-0.413 0.36,-0.398C0.36,-0.361 0.347,-0.327 0.32,-0.296C0.304,-0.276 0.284,-0.26 0.26,-0.25C0.237,-0.239 0.213,-0.233 0.188,-0.233C0.163,-0.233 0.14,-0.238 0.118,-0.248C0.096,-0.257 0.076,-0.271 0.058,-0.289C0.028,-0.319 0.013,-0.355 0.013,-0.394C0.013,-0.414 0.017,-0.433 0.025,-0.452C0.033,-0.472 0.044,-0.489 0.058,-0.505C0.074,-0.523 0.094,-0.537 0.116,-0.547C0.139,-0.557 0.162,-0.562 0.187,-0.562C0.203,-0.562 0.218,-0.56 0.233,-0.555C0.247,-0.551 0.263,-0.544 0.281,-0.534C0.303,-0.52 0.319,-0.512 0.33,-0.508C0.34,-0.505 0.354,-0.503 0.369,-0.503C0.408,-0.503 0.452,-0.515 0.501,-0.54C0.533,-0.556 0.567,-0.58 0.604,-0.612L0.633,-0.612L0.633,-0.605L0.111,0.094ZM0.083,-0.397C0.083,-0.374 0.087,-0.351 0.094,-0.33C0.101,-0.308 0.11,-0.291 0.122,-0.277C0.141,-0.255 0.164,-0.245 0.19,-0.245C0.212,-0.245 0.232,-0.254 0.249,-0.273C0.275,-0.303 0.288,-0.344 0.288,-0.396C0.288,-0.451 0.275,-0.492 0.249,-0.521C0.23,-0.541 0.209,-0.551 0.184,-0.551C0.16,-0.551 0.139,-0.54 0.12,-0.517C0.109,-0.503 0.1,-0.485 0.093,-0.464C0.087,-0.442 0.083,-0.42 0.083,-0.397ZM0.384,-0.152C0.384,-0.194 0.399,-0.231 0.429,-0.263C0.464,-0.3 0.507,-0.319 0.557,-0.319C0.606,-0.319 0.648,-0.3 0.683,-0.262C0.712,-0.231 0.726,-0.195 0.726,-0.156C0.726,-0.103 0.705,-0.06 0.662,-0.027C0.63,-0.003 0.594,0.01 0.553,0.01C0.531,0.01 0.509,0.006 0.488,-0.003C0.467,-0.011 0.448,-0.023 0.432,-0.039C0.4,-0.069 0.384,-0.107 0.384,-0.152ZM0.455,-0.153C0.455,-0.13 0.458,-0.108 0.465,-0.086C0.472,-0.065 0.481,-0.047 0.493,-0.033C0.513,-0.012 0.535,-0.001 0.561,-0.001C0.583,-0.001 0.603,-0.01 0.62,-0.029C0.646,-0.059 0.66,-0.101 0.66,-0.153C0.66,-0.207 0.646,-0.249 0.62,-0.278C0.601,-0.298 0.58,-0.308 0.555,-0.308C0.531,-0.308 0.51,-0.297 0.492,-0.274C0.48,-0.26 0.471,-0.242 0.465,-0.22C0.458,-0.199 0.455,-0.177 0.455,-0.153Z" style="fill:rgb(241,230,222);fill-rule:nonzero;"/>
                </g>
            </g>
        </g>
        <g transform="matrix(1,0,0,1,-72.4524,-33.4989)">
            <g id="Lower-measurements" serif:id="Lower measurements">
                <g>
                    <g transform="matrix(0.952942,0.303153,-0.303153,0.952942,123.995,-42.3848)">
                        <g transform="matrix(48,0,0,48,198.521,378.201)">
                            <path d="M0.936,-0.542C0.936,-0.521 0.921,-0.499 0.892,-0.476C0.919,-0.437 0.932,-0.4 0.932,-0.367C0.932,-0.359 0.93,-0.355 0.925,-0.355C0.921,-0.355 0.919,-0.36 0.919,-0.371C0.919,-0.404 0.908,-0.437 0.885,-0.47C0.838,-0.435 0.773,-0.405 0.692,-0.379C0.611,-0.354 0.539,-0.341 0.476,-0.341C0.467,-0.341 0.46,-0.341 0.453,-0.342C0.401,-0.269 0.375,-0.199 0.375,-0.132C0.375,-0.086 0.389,-0.05 0.418,-0.023C0.446,0.004 0.485,0.017 0.534,0.017C0.627,0.017 0.71,-0.027 0.782,-0.116C0.826,-0.17 0.848,-0.221 0.848,-0.269C0.848,-0.294 0.841,-0.315 0.825,-0.33C0.81,-0.345 0.79,-0.352 0.764,-0.352C0.724,-0.352 0.68,-0.331 0.633,-0.288C0.587,-0.245 0.563,-0.205 0.563,-0.168C0.563,-0.165 0.564,-0.163 0.566,-0.163C0.568,-0.163 0.569,-0.164 0.57,-0.165C0.579,-0.173 0.587,-0.177 0.594,-0.177C0.611,-0.177 0.619,-0.168 0.619,-0.15C0.619,-0.126 0.607,-0.114 0.584,-0.114C0.563,-0.114 0.552,-0.127 0.552,-0.153C0.552,-0.199 0.575,-0.246 0.623,-0.291C0.67,-0.337 0.718,-0.36 0.766,-0.36C0.829,-0.36 0.86,-0.326 0.86,-0.257C0.86,-0.186 0.826,-0.121 0.758,-0.063C0.69,-0.004 0.615,0.025 0.532,0.025C0.475,0.025 0.426,0.006 0.387,-0.033C0.348,-0.072 0.328,-0.12 0.328,-0.177C0.328,-0.232 0.347,-0.289 0.386,-0.347C0.245,-0.373 0.175,-0.429 0.175,-0.514C0.175,-0.565 0.201,-0.607 0.253,-0.642C0.306,-0.676 0.371,-0.693 0.449,-0.693C0.558,-0.693 0.668,-0.657 0.78,-0.584C0.799,-0.588 0.819,-0.59 0.839,-0.59C0.904,-0.59 0.936,-0.574 0.936,-0.542ZM0.928,-0.542C0.928,-0.569 0.902,-0.582 0.85,-0.582C0.834,-0.582 0.814,-0.58 0.792,-0.575C0.831,-0.549 0.863,-0.517 0.888,-0.482C0.915,-0.505 0.928,-0.525 0.928,-0.542ZM0.881,-0.477C0.856,-0.513 0.822,-0.545 0.78,-0.573C0.719,-0.557 0.66,-0.528 0.602,-0.488C0.544,-0.447 0.496,-0.401 0.459,-0.349C0.527,-0.349 0.602,-0.362 0.685,-0.386C0.767,-0.411 0.833,-0.442 0.881,-0.477ZM0.766,-0.582C0.667,-0.639 0.562,-0.668 0.45,-0.668C0.381,-0.668 0.321,-0.652 0.269,-0.619C0.218,-0.587 0.192,-0.549 0.192,-0.505C0.192,-0.427 0.258,-0.377 0.39,-0.354C0.472,-0.468 0.597,-0.544 0.766,-0.582Z" style="fill:rgb(241,230,222);fill-rule:nonzero;"/>
                        </g>
                    </g>
                    <g transform="matrix(0.985604,0.169073,-0.169073,0.985604,69.2724,-34.117)">
                        <g transform="matrix(48,0,0,48,234.973,389.712)">
                            <path d="M0.38,-0.154C0.38,-0.148 0.371,-0.136 0.351,-0.117C0.323,-0.088 0.296,-0.074 0.272,-0.074C0.262,-0.074 0.253,-0.076 0.245,-0.08C0.202,-0.019 0.162,0.011 0.124,0.011C0.105,0.011 0.088,0.003 0.074,-0.013C0.06,-0.029 0.053,-0.048 0.053,-0.071C0.053,-0.121 0.086,-0.169 0.152,-0.216C0.198,-0.249 0.236,-0.265 0.266,-0.265C0.294,-0.265 0.308,-0.25 0.308,-0.22C0.308,-0.183 0.288,-0.138 0.249,-0.085C0.256,-0.081 0.263,-0.079 0.271,-0.079C0.286,-0.079 0.303,-0.086 0.322,-0.1C0.342,-0.113 0.358,-0.13 0.37,-0.149C0.374,-0.153 0.377,-0.156 0.378,-0.156C0.379,-0.156 0.38,-0.155 0.38,-0.154ZM0.301,-0.219C0.301,-0.246 0.289,-0.259 0.265,-0.259C0.236,-0.259 0.199,-0.23 0.157,-0.174C0.114,-0.117 0.093,-0.069 0.093,-0.031C0.093,-0.008 0.104,0.003 0.125,0.003C0.16,0.003 0.199,-0.026 0.24,-0.084C0.231,-0.094 0.226,-0.105 0.226,-0.116C0.226,-0.132 0.232,-0.149 0.245,-0.166C0.258,-0.182 0.27,-0.191 0.282,-0.191C0.287,-0.191 0.291,-0.188 0.293,-0.181C0.298,-0.193 0.301,-0.205 0.301,-0.219Z" style="fill:rgb(241,230,222);fill-rule:nonzero;"/>
                        </g>
                    </g>
                    <g transform="matrix(0.996544,0.0830657,-0.0830657,0.996544,33.4509,-19.2991)">
                        <g transform="matrix(48,0,0,48,248.66,392.359)">
                            <path d="M0.369,-0.153C0.369,-0.15 0.36,-0.139 0.34,-0.117C0.315,-0.09 0.292,-0.076 0.27,-0.076C0.245,-0.076 0.233,-0.09 0.233,-0.119C0.233,-0.128 0.235,-0.14 0.239,-0.154C0.218,-0.136 0.202,-0.118 0.189,-0.101C0.176,-0.083 0.154,-0.047 0.122,0.007C0.105,0.006 0.095,0.005 0.092,0.005C0.09,0.005 0.081,0.006 0.062,0.007L0.142,-0.123C0.182,-0.188 0.202,-0.229 0.202,-0.244C0.202,-0.253 0.198,-0.258 0.191,-0.258C0.173,-0.258 0.14,-0.223 0.092,-0.153C0.089,-0.148 0.086,-0.146 0.084,-0.146C0.082,-0.146 0.082,-0.147 0.082,-0.149C0.082,-0.15 0.083,-0.152 0.084,-0.153L0.093,-0.165C0.143,-0.232 0.177,-0.265 0.195,-0.265C0.221,-0.265 0.234,-0.248 0.234,-0.215C0.234,-0.19 0.221,-0.157 0.194,-0.115C0.211,-0.135 0.227,-0.151 0.242,-0.163C0.255,-0.192 0.27,-0.216 0.288,-0.236C0.307,-0.255 0.323,-0.265 0.338,-0.265C0.348,-0.265 0.353,-0.261 0.353,-0.252C0.353,-0.236 0.33,-0.214 0.285,-0.185C0.278,-0.181 0.267,-0.174 0.253,-0.165L0.247,-0.16C0.243,-0.145 0.24,-0.133 0.24,-0.123C0.24,-0.096 0.251,-0.082 0.271,-0.082C0.296,-0.082 0.324,-0.103 0.354,-0.145C0.361,-0.152 0.365,-0.156 0.366,-0.156C0.368,-0.156 0.369,-0.155 0.369,-0.153Z" style="fill:rgb(241,230,222);fill-rule:nonzero;"/>
                        </g>
                    </g>
                    <g transform="matrix(0.99998,0.0063425,-0.0063425,0.99998,2.5024,-1.65393)">
                        <g transform="matrix(48,0,0,48,262.019,393.714)">
                            <path d="M0.337,-0.153C0.337,-0.152 0.334,-0.147 0.328,-0.14L0.307,-0.114C0.24,-0.03 0.182,0.011 0.134,0.011C0.111,0.011 0.092,0.003 0.076,-0.013C0.061,-0.03 0.053,-0.05 0.053,-0.075C0.053,-0.134 0.094,-0.185 0.176,-0.23C0.219,-0.253 0.254,-0.265 0.281,-0.265C0.292,-0.265 0.302,-0.262 0.311,-0.255C0.319,-0.248 0.323,-0.239 0.323,-0.229C0.323,-0.206 0.308,-0.186 0.277,-0.169C0.247,-0.153 0.196,-0.137 0.124,-0.123C0.102,-0.09 0.091,-0.062 0.091,-0.039C0.091,-0.011 0.106,0.003 0.136,0.003C0.188,0.003 0.251,-0.047 0.325,-0.148C0.329,-0.153 0.333,-0.156 0.335,-0.156C0.337,-0.155 0.337,-0.154 0.337,-0.153ZM0.296,-0.243C0.296,-0.254 0.29,-0.259 0.279,-0.259C0.262,-0.259 0.239,-0.247 0.211,-0.223C0.183,-0.199 0.155,-0.168 0.128,-0.13C0.175,-0.142 0.215,-0.159 0.247,-0.181C0.28,-0.203 0.296,-0.224 0.296,-0.243Z" style="fill:rgb(241,230,222);fill-rule:nonzero;"/>
                        </g>
                    </g>
                    <g transform="matrix(0.99487,-0.101165,0.101165,0.99487,-38.3707,30.5806)">
                        <g transform="matrix(48,0,0,48,282.324,393.606)">
                            <path d="M0.256,-0.343C0.256,-0.33 0.236,-0.304 0.195,-0.265C0.193,-0.255 0.192,-0.246 0.192,-0.239C0.192,-0.22 0.201,-0.19 0.218,-0.149C0.227,-0.128 0.231,-0.111 0.231,-0.097C0.231,-0.068 0.217,-0.042 0.188,-0.021C0.16,0 0.126,0.011 0.087,0.011C0.065,0.011 0.047,0.005 0.034,-0.008C0.021,-0.02 0.014,-0.037 0.014,-0.058C0.014,-0.083 0.023,-0.106 0.04,-0.129C0.058,-0.153 0.076,-0.164 0.094,-0.164C0.097,-0.164 0.1,-0.163 0.103,-0.162L0.142,-0.21C0.154,-0.224 0.169,-0.243 0.189,-0.268C0.194,-0.291 0.203,-0.31 0.214,-0.327C0.226,-0.343 0.237,-0.351 0.248,-0.351C0.253,-0.351 0.256,-0.348 0.256,-0.343ZM0.188,-0.15C0.188,-0.16 0.188,-0.169 0.187,-0.179C0.186,-0.189 0.186,-0.202 0.186,-0.22C0.186,-0.235 0.187,-0.247 0.188,-0.257C0.17,-0.234 0.143,-0.201 0.109,-0.159C0.115,-0.154 0.118,-0.148 0.118,-0.14C0.118,-0.121 0.102,-0.108 0.071,-0.101C0.058,-0.098 0.047,-0.091 0.038,-0.08C0.029,-0.069 0.024,-0.058 0.024,-0.046C0.024,-0.033 0.029,-0.022 0.038,-0.013C0.048,-0.004 0.059,-0 0.073,-0C0.101,-0 0.127,-0.016 0.151,-0.048C0.176,-0.079 0.188,-0.113 0.188,-0.15Z" style="fill:rgb(241,230,222);fill-rule:nonzero;"/>
                        </g>
                    </g>
                    <g transform="matrix(0.98639,-0.164423,0.164423,0.98639,-60.6197,53.2859)">
                        <g transform="matrix(48,0,0,48,291.562,392.815)">
                            <path d="M0.271,-0.265L0.267,-0.258L0.203,-0.258L0.094,-0.072C0.081,-0.049 0.074,-0.031 0.074,-0.018C0.074,-0.003 0.082,0.004 0.097,0.004C0.127,0.004 0.177,-0.048 0.247,-0.151C0.25,-0.154 0.252,-0.156 0.253,-0.156C0.255,-0.156 0.256,-0.155 0.256,-0.153C0.256,-0.152 0.254,-0.149 0.251,-0.145L0.23,-0.116C0.169,-0.031 0.123,0.011 0.092,0.011C0.077,0.011 0.064,0.006 0.053,-0.005C0.043,-0.016 0.038,-0.03 0.038,-0.047C0.038,-0.066 0.047,-0.091 0.064,-0.12L0.146,-0.258L0.096,-0.258L0.101,-0.265L0.15,-0.265L0.207,-0.36C0.217,-0.357 0.226,-0.356 0.235,-0.356C0.244,-0.356 0.253,-0.357 0.263,-0.36L0.207,-0.265L0.271,-0.265Z" style="fill:rgb(241,230,222);fill-rule:nonzero;"/>
                        </g>
                    </g>
                    <g transform="matrix(0.970877,-0.239577,0.239577,0.970877,-85.1718,83.1731)">
                        <g transform="matrix(48,0,0,48,299.525,391.918)">
                            <path d="M0.434,-0.153C0.434,-0.146 0.411,-0.115 0.363,-0.058C0.325,-0.012 0.294,0.011 0.272,0.011C0.257,0.011 0.245,0.006 0.235,-0.006C0.226,-0.017 0.221,-0.031 0.221,-0.048C0.221,-0.065 0.226,-0.084 0.237,-0.105C0.204,-0.059 0.179,-0.029 0.162,-0.013C0.145,0.003 0.128,0.011 0.112,0.011C0.095,0.011 0.08,0.004 0.068,-0.011C0.057,-0.026 0.051,-0.044 0.051,-0.067C0.051,-0.129 0.095,-0.185 0.183,-0.233C0.222,-0.254 0.253,-0.265 0.277,-0.265C0.297,-0.265 0.307,-0.255 0.307,-0.236C0.307,-0.23 0.306,-0.223 0.303,-0.214L0.328,-0.261C0.338,-0.259 0.347,-0.258 0.354,-0.258C0.363,-0.258 0.374,-0.259 0.388,-0.261L0.302,-0.118C0.272,-0.068 0.257,-0.035 0.257,-0.019C0.257,-0.004 0.263,0.004 0.276,0.004C0.289,0.004 0.31,-0.011 0.338,-0.041C0.367,-0.071 0.396,-0.107 0.426,-0.151C0.428,-0.154 0.43,-0.156 0.431,-0.156C0.433,-0.156 0.434,-0.155 0.434,-0.153ZM0.3,-0.234C0.3,-0.25 0.292,-0.258 0.278,-0.258C0.248,-0.258 0.209,-0.229 0.16,-0.17C0.111,-0.111 0.087,-0.064 0.087,-0.028C0.087,-0.007 0.096,0.004 0.115,0.004C0.138,0.004 0.177,-0.033 0.232,-0.108C0.277,-0.169 0.3,-0.211 0.3,-0.234Z" style="fill:rgb(241,230,222);fill-rule:nonzero;"/>
                        </g>
                    </g>
                    <g transform="matrix(0.949359,-0.314193,0.314193,0.949359,-105.938,118.819)">
                        <g transform="matrix(48,0,0,48,315.626,388.045)">
                            <path d="M0.271,-0.265L0.267,-0.258L0.203,-0.258L0.094,-0.072C0.081,-0.049 0.074,-0.031 0.074,-0.018C0.074,-0.003 0.082,0.004 0.097,0.004C0.127,0.004 0.177,-0.048 0.247,-0.151C0.25,-0.154 0.252,-0.156 0.253,-0.156C0.255,-0.156 0.256,-0.155 0.256,-0.153C0.256,-0.152 0.254,-0.149 0.251,-0.145L0.23,-0.116C0.169,-0.031 0.123,0.011 0.092,0.011C0.077,0.011 0.064,0.006 0.053,-0.005C0.043,-0.016 0.038,-0.03 0.038,-0.047C0.038,-0.066 0.047,-0.091 0.064,-0.12L0.146,-0.258L0.096,-0.258L0.101,-0.265L0.15,-0.265L0.207,-0.36C0.217,-0.357 0.226,-0.356 0.235,-0.356C0.244,-0.356 0.253,-0.357 0.263,-0.36L0.207,-0.265L0.271,-0.265Z" style="fill:rgb(241,230,222);fill-rule:nonzero;"/>
                        </g>
                    </g>
                    <g transform="matrix(0.925178,-0.379533,0.379533,0.925178,-122.278,151.549)">
                        <g transform="matrix(48,0,0,48,323.228,385.902)">
                            <path d="M0.404,-0.153C0.404,-0.146 0.38,-0.114 0.333,-0.058C0.294,-0.012 0.263,0.011 0.24,0.011C0.226,0.011 0.214,0.005 0.204,-0.006C0.194,-0.018 0.189,-0.032 0.189,-0.048C0.189,-0.061 0.195,-0.078 0.208,-0.101L0.198,-0.088C0.168,-0.049 0.146,-0.024 0.132,-0.011C0.117,0.004 0.103,0.011 0.089,0.011C0.075,0.011 0.063,0.006 0.053,-0.006C0.043,-0.017 0.038,-0.031 0.038,-0.047C0.038,-0.066 0.045,-0.087 0.06,-0.112L0.149,-0.261C0.16,-0.259 0.169,-0.258 0.175,-0.258C0.181,-0.258 0.192,-0.259 0.208,-0.261L0.092,-0.07C0.08,-0.05 0.074,-0.033 0.074,-0.018C0.074,-0.003 0.08,0.004 0.093,0.004C0.126,0.004 0.178,-0.057 0.251,-0.18L0.299,-0.261C0.309,-0.259 0.317,-0.258 0.324,-0.258C0.332,-0.258 0.344,-0.259 0.359,-0.261L0.281,-0.134C0.244,-0.073 0.225,-0.034 0.225,-0.017C0.225,-0.003 0.232,0.004 0.245,0.004C0.271,0.004 0.314,-0.037 0.372,-0.119L0.387,-0.14L0.396,-0.151C0.398,-0.154 0.399,-0.156 0.401,-0.156C0.403,-0.156 0.404,-0.155 0.404,-0.153Z" style="fill:rgb(241,230,222);fill-rule:nonzero;"/>
                        </g>
                    </g>
                    <g transform="matrix(0.897099,-0.441829,0.441829,0.897099,-133.32,188.092)">
                        <g transform="matrix(48,0,0,48,337.148,380.268)">
                            <path d="M0.256,-0.343C0.256,-0.33 0.236,-0.304 0.195,-0.265C0.193,-0.255 0.192,-0.246 0.192,-0.239C0.192,-0.22 0.201,-0.19 0.218,-0.149C0.227,-0.128 0.231,-0.111 0.231,-0.097C0.231,-0.068 0.217,-0.042 0.188,-0.021C0.16,0 0.126,0.011 0.087,0.011C0.065,0.011 0.047,0.005 0.034,-0.008C0.021,-0.02 0.014,-0.037 0.014,-0.058C0.014,-0.083 0.023,-0.106 0.04,-0.129C0.058,-0.153 0.076,-0.164 0.094,-0.164C0.097,-0.164 0.1,-0.163 0.103,-0.162L0.142,-0.21C0.154,-0.224 0.169,-0.243 0.189,-0.268C0.194,-0.291 0.203,-0.31 0.214,-0.327C0.226,-0.343 0.237,-0.351 0.248,-0.351C0.253,-0.351 0.256,-0.348 0.256,-0.343ZM0.188,-0.15C0.188,-0.16 0.188,-0.169 0.187,-0.179C0.186,-0.189 0.186,-0.202 0.186,-0.22C0.186,-0.235 0.187,-0.247 0.188,-0.257C0.17,-0.234 0.143,-0.201 0.109,-0.159C0.115,-0.154 0.118,-0.148 0.118,-0.14C0.118,-0.121 0.102,-0.108 0.071,-0.101C0.058,-0.098 0.047,-0.091 0.038,-0.08C0.029,-0.069 0.024,-0.058 0.024,-0.046C0.024,-0.033 0.029,-0.022 0.038,-0.013C0.048,-0.004 0.059,-0 0.073,-0C0.101,-0 0.127,-0.016 0.151,-0.048C0.176,-0.079 0.188,-0.113 0.188,-0.15Z" style="fill:rgb(241,230,222);fill-rule:nonzero;"/>
                        </g>
                    </g>
                </g>
            </g>
        </g>
        <g id="Bezel-shadow" serif:id="Bezel shadow" transform="matrix(1.21949,0,0,1.21949,-91.4175,-23.1672)">
            <circle cx="239" cy="183" r="147" style="fill:none;"/>
            <clipPath id="_clip1">
                <circle cx="239" cy="183" r="147"/>
            </clipPath>
            <g clip-path="url(#_clip1)">
                <g transform="matrix(0.820013,0,0,0.593898,74.9636,19.2235)">
                    <rect x="0" y="1" width="400" height="399"/>
                </g>
            </g>
        </g>
    </g>
</svg>
