<?xml version="1.0" encoding="UTF-8" standalone="no"?>
<!DOCTYPE svg PUBLIC "-//W3C//DTD SVG 1.1//EN" "http://www.w3.org/Graphics/SVG/1.1/DTD/svg11.dtd">
<svg width="100%" height="100%" viewBox="0 0 400 400" version="1.1" xmlns="http://www.w3.org/2000/svg" xmlns:xlink="http://www.w3.org/1999/xlink" xml:space="preserve" xmlns:serif="http://www.serif.com/" style="fill-rule:evenodd;clip-rule:evenodd;stroke-linejoin:round;stroke-miterlimit:2;">
    <g id="Needle" transform="matrix(9.25463e-17,-1.5114,11.5374,7.06461e-16,-1983.22,446.374)">
        <path d="M163.011,174.949L167.827,189.23L158.194,189.23L163.011,174.949Z"/>
    </g>
    <g id="Tail">
        <path id="Body" d="M251.622,182.745C253.749,181.606 255.702,180.385 257.461,179.09C258.63,178.218 259.974,177.722 261.404,177.722C265.289,177.722 268.543,181.386 269.361,186.286L269.361,186.286C270.234,190.724 270.691,195.309 270.691,200C270.691,204.691 270.234,209.276 269.361,213.714L269.361,213.714C268.543,218.614 265.289,222.278 261.404,222.278C259.974,222.278 258.63,221.782 257.461,220.91C255.702,219.615 253.749,218.394 251.622,217.255C251.636,217.213 251.65,217.171 251.664,217.128L251.622,217.255C242.484,212.361 230.13,208.982 216.1,207.774L216.1,192.226C230.13,191.018 242.484,187.639 251.622,182.745L251.622,182.745Z"/>
    </g>
    <g id="Body1" serif:id="Body" transform="matrix(1.10795,0,0,1.10795,-13.7269,32.7471)">
        <circle cx="192.902" cy="150.956" r="18.09"/>
    </g>
    <g id="Central-pin" serif:id="Central pin">
        <g transform="matrix(0.3609,0,0,0.3609,130.382,145.52)">
            <circle cx="192.902" cy="150.956" r="18.09" style="fill:rgb(219,218,177);"/>
        </g>
        <g transform="matrix(0.121098,0,0,0.121098,176.64,181.719)">
            <circle cx="192.902" cy="150.956" r="18.09"/>
        </g>
    </g>
</svg>
