<?xml version="1.0" encoding="UTF-8" standalone="no"?>
<!DOCTYPE svg PUBLIC "-//W3C//DTD SVG 1.1//EN" "http://www.w3.org/Graphics/SVG/1.1/DTD/svg11.dtd">
<svg width="100%" height="100%" viewBox="0 0 400 400" version="1.1" xmlns="http://www.w3.org/2000/svg" xmlns:xlink="http://www.w3.org/1999/xlink" xml:space="preserve" xmlns:serif="http://www.serif.com/" style="fill-rule:evenodd;clip-rule:evenodd;stroke-linejoin:round;stroke-miterlimit:2;">
    <g transform="matrix(1.26563,0,0,1.26563,-53.4259,17.4124)">
        <g id="Danger-zones" serif:id="Danger zones">
            <path d="M108.121,237.352C113.919,243.091 120.242,248.275 127.005,252.837L136.525,238.723C130.641,234.754 125.141,230.244 120.096,225.251L108.121,237.352Z" style="fill:rgb(240,56,19);"/>
        </g>
    </g>
    <g id="Labels">
        <g transform="matrix(1,0,0,1,-50.1023,4.90047)">
            <g transform="matrix(0.993866,0.110587,-0.110587,0.993866,41.0413,-22.3852)">
                <g transform="matrix(30,0,0,30,222.321,358.79)">
                    <path d="M0.088,-0.71L0.158,-0.71L0.158,-0L0.088,-0L0.088,-0.71ZM0.137,-0.379L0.481,-0.379L0.481,-0.313L0.137,-0.313L0.137,-0.379ZM0.137,-0.71L0.535,-0.71L0.535,-0.645L0.137,-0.645L0.137,-0.71Z" style="fill:rgb(241,230,222);fill-rule:nonzero;"/>
                </g>
            </g>
            <g transform="matrix(0.999855,0.0170434,-0.0170434,0.999855,6.18132,-3.99572)">
                <g transform="matrix(30,0,0,30,237.517,360.656)">
                    <path d="M0.281,-0.71L0.366,-0.71L0.628,-0L0.55,-0L0.324,-0.636L0.098,-0L0.02,-0L0.281,-0.71ZM0.14,-0.238L0.514,-0.238L0.514,-0.172L0.14,-0.172L0.14,-0.238Z" style="fill:rgb(241,230,222);fill-rule:nonzero;"/>
                </g>
            </g>
            <g transform="matrix(0.994627,-0.103522,0.103522,0.994627,-35.9945,28.5433)">
                <g transform="matrix(30,0,0,30,256.984,361.037)">
                    <path d="M0.088,-0.71L0.159,-0.71L0.571,-0.07L0.542,-0.09L0.542,-0.71L0.612,-0.71L0.612,-0L0.541,-0L0.12,-0.645L0.158,-0.617L0.158,-0L0.088,-0L0.088,-0.71Z" style="fill:rgb(241,230,222);fill-rule:nonzero;"/>
                </g>
            </g>
        </g>
        <g transform="matrix(0.588243,-0.808685,0.808685,0.588243,-245.804,162.746)">
            <g transform="matrix(30,0,0,30,87.7978,395.271)">
                <path d="M0.272,0.007C0.229,0.007 0.191,-0.001 0.16,-0.019C0.128,-0.036 0.105,-0.061 0.088,-0.094C0.072,-0.127 0.063,-0.167 0.063,-0.213L0.063,-0.296C0.063,-0.342 0.072,-0.381 0.088,-0.414C0.105,-0.447 0.128,-0.471 0.16,-0.489C0.191,-0.506 0.229,-0.514 0.272,-0.514C0.316,-0.514 0.354,-0.506 0.385,-0.489C0.417,-0.471 0.44,-0.447 0.457,-0.414C0.473,-0.381 0.481,-0.342 0.481,-0.296L0.481,-0.212C0.481,-0.166 0.473,-0.126 0.457,-0.094C0.44,-0.061 0.417,-0.036 0.385,-0.019C0.354,-0.001 0.316,0.007 0.272,0.007ZM0.272,-0.058C0.316,-0.058 0.351,-0.072 0.375,-0.098C0.399,-0.125 0.411,-0.163 0.411,-0.212L0.411,-0.296C0.411,-0.344 0.399,-0.382 0.375,-0.409C0.351,-0.435 0.316,-0.449 0.272,-0.449C0.228,-0.449 0.194,-0.435 0.17,-0.409C0.146,-0.382 0.134,-0.344 0.134,-0.296L0.134,-0.212C0.134,-0.163 0.146,-0.125 0.17,-0.098C0.194,-0.072 0.228,-0.058 0.272,-0.058Z" style="fill:rgb(241,230,222);fill-rule:nonzero;"/>
            </g>
            <g transform="matrix(30,0,0,30,104.146,395.271)">
                <path d="M0.093,-0.576C0.093,-0.621 0.102,-0.654 0.122,-0.677C0.141,-0.699 0.17,-0.71 0.209,-0.71L0.292,-0.71L0.292,-0.645L0.221,-0.645C0.202,-0.645 0.187,-0.639 0.177,-0.628C0.168,-0.616 0.163,-0.599 0.163,-0.577L0.163,-0L0.093,-0L0.093,-0.576ZM0.039,-0.507L0.292,-0.507L0.292,-0.446L0.039,-0.446L0.039,-0.507Z" style="fill:rgb(241,230,222);fill-rule:nonzero;"/>
            </g>
            <g transform="matrix(30,0,0,30,113.652,395.271)">
                <path d="M0.093,-0.576C0.093,-0.621 0.102,-0.654 0.122,-0.677C0.141,-0.699 0.17,-0.71 0.209,-0.71L0.292,-0.71L0.292,-0.645L0.221,-0.645C0.202,-0.645 0.187,-0.639 0.177,-0.628C0.168,-0.616 0.163,-0.599 0.163,-0.577L0.163,-0L0.093,-0L0.093,-0.576ZM0.039,-0.507L0.292,-0.507L0.292,-0.446L0.039,-0.446L0.039,-0.507Z" style="fill:rgb(241,230,222);fill-rule:nonzero;"/>
            </g>
        </g>
        <g transform="matrix(1,0,0,1,-4.68519,49.6426)">
            <g transform="matrix(20,0,0,20,166.902,202.862)">
                <path d="M0.236,-0.239L0.032,-0.507L0.111,-0.507L0.277,-0.279L0.485,-0L0.407,-0L0.236,-0.239ZM0.233,-0.28L0.272,-0.222L0.108,-0L0.029,-0L0.233,-0.28ZM0.249,-0.286L0.398,-0.507L0.478,-0.507L0.286,-0.233L0.249,-0.286Z" style="fill:rgb(241,230,222);fill-rule:nonzero;"/>
            </g>
            <g transform="matrix(20,0,0,20,177.244,202.862)">
                <path d="M0.245,-0L0.174,-0L0.174,-0.65L0.044,-0.569L0.044,-0.643L0.145,-0.71L0.245,-0.71L0.245,-0Z" style="fill:rgb(241,230,222);fill-rule:nonzero;"/>
            </g>
            <g transform="matrix(20,0,0,20,183.894,202.862)">
                <path d="M0.276,0.007C0.209,0.007 0.159,-0.01 0.125,-0.046C0.09,-0.081 0.073,-0.131 0.073,-0.194L0.073,-0.517C0.073,-0.581 0.09,-0.63 0.125,-0.666C0.16,-0.701 0.21,-0.719 0.276,-0.719C0.342,-0.719 0.393,-0.701 0.427,-0.666C0.461,-0.631 0.479,-0.581 0.479,-0.517L0.479,-0.194C0.479,-0.131 0.461,-0.081 0.427,-0.046C0.392,-0.01 0.342,0.007 0.276,0.007ZM0.276,-0.058C0.321,-0.058 0.354,-0.07 0.376,-0.094C0.397,-0.117 0.408,-0.151 0.408,-0.194L0.408,-0.517C0.408,-0.561 0.397,-0.595 0.376,-0.618C0.354,-0.642 0.321,-0.653 0.276,-0.653C0.231,-0.653 0.197,-0.642 0.176,-0.618C0.154,-0.595 0.144,-0.561 0.144,-0.517L0.144,-0.194C0.144,-0.151 0.154,-0.117 0.176,-0.094C0.197,-0.07 0.231,-0.058 0.276,-0.058Z" style="fill:rgb(241,230,222);fill-rule:nonzero;"/>
            </g>
            <g transform="matrix(20,0,0,20,194.539,202.862)">
                <path d="M0.276,0.007C0.209,0.007 0.159,-0.01 0.125,-0.046C0.09,-0.081 0.073,-0.131 0.073,-0.194L0.073,-0.517C0.073,-0.581 0.09,-0.63 0.125,-0.666C0.16,-0.701 0.21,-0.719 0.276,-0.719C0.342,-0.719 0.393,-0.701 0.427,-0.666C0.461,-0.631 0.479,-0.581 0.479,-0.517L0.479,-0.194C0.479,-0.131 0.461,-0.081 0.427,-0.046C0.392,-0.01 0.342,0.007 0.276,0.007ZM0.276,-0.058C0.321,-0.058 0.354,-0.07 0.376,-0.094C0.397,-0.117 0.408,-0.151 0.408,-0.194L0.408,-0.517C0.408,-0.561 0.397,-0.595 0.376,-0.618C0.354,-0.642 0.321,-0.653 0.276,-0.653C0.231,-0.653 0.197,-0.642 0.176,-0.618C0.154,-0.595 0.144,-0.561 0.144,-0.517L0.144,-0.194C0.144,-0.151 0.154,-0.117 0.176,-0.094C0.197,-0.07 0.231,-0.058 0.276,-0.058Z" style="fill:rgb(241,230,222);fill-rule:nonzero;"/>
            </g>
            <g transform="matrix(20,0,0,20,205.574,202.862)">
                <path d="M0.066,0.135L0,0.135L0.349,-0.794L0.415,-0.794L0.066,0.135Z" style="fill:rgb(241,230,222);fill-rule:nonzero;"/>
            </g>
            <g transform="matrix(20,0,0,20,213.142,202.862)">
                <path d="M0.713,-0.307C0.713,-0.352 0.702,-0.387 0.681,-0.412C0.659,-0.436 0.629,-0.449 0.59,-0.449C0.55,-0.449 0.52,-0.437 0.498,-0.413C0.477,-0.389 0.466,-0.355 0.466,-0.311L0.436,-0.384C0.452,-0.426 0.475,-0.458 0.504,-0.481C0.533,-0.503 0.568,-0.514 0.608,-0.514C0.645,-0.514 0.677,-0.506 0.703,-0.49C0.729,-0.474 0.749,-0.45 0.763,-0.419C0.776,-0.389 0.783,-0.351 0.783,-0.308L0.783,-0L0.713,-0L0.713,-0.307ZM0.078,-0.507L0.148,-0.507L0.148,-0L0.078,-0L0.078,-0.507ZM0.396,-0.307C0.396,-0.352 0.385,-0.387 0.364,-0.412C0.342,-0.436 0.312,-0.449 0.272,-0.449C0.233,-0.449 0.203,-0.438 0.181,-0.415C0.159,-0.393 0.148,-0.361 0.148,-0.321L0.138,-0.418C0.155,-0.452 0.177,-0.477 0.205,-0.492C0.232,-0.507 0.264,-0.514 0.3,-0.514C0.335,-0.514 0.365,-0.506 0.39,-0.49C0.415,-0.474 0.434,-0.45 0.447,-0.419C0.459,-0.389 0.466,-0.351 0.466,-0.308L0.466,-0L0.396,-0L0.396,-0.307Z" style="fill:rgb(241,230,222);fill-rule:nonzero;"/>
            </g>
            <g transform="matrix(20,0,0,20,230.271,202.862)">
                <path d="M0.093,-0.71L0.163,-0.71L0.163,-0.64L0.093,-0.64L0.093,-0.71ZM0.093,-0.507L0.163,-0.507L0.163,-0L0.093,-0L0.093,-0.507Z" style="fill:rgb(241,230,222);fill-rule:nonzero;"/>
            </g>
            <g transform="matrix(20,0,0,20,235.291,202.862)">
                <path d="M0.078,-0.507L0.148,-0.507L0.148,-0L0.078,-0L0.078,-0.507ZM0.415,-0.307C0.415,-0.352 0.403,-0.387 0.38,-0.412C0.356,-0.436 0.323,-0.449 0.28,-0.449C0.238,-0.449 0.206,-0.438 0.183,-0.416C0.16,-0.394 0.148,-0.363 0.148,-0.322L0.138,-0.42C0.156,-0.453 0.18,-0.477 0.209,-0.492C0.239,-0.507 0.273,-0.514 0.313,-0.514C0.368,-0.514 0.41,-0.496 0.44,-0.46C0.47,-0.424 0.485,-0.373 0.485,-0.308L0.485,-0L0.415,-0L0.415,-0.307Z" style="fill:rgb(241,230,222);fill-rule:nonzero;"/>
            </g>
            <g transform="matrix(20,0,0,20,192.346,222.862)">
                <path d="M0.078,-0.507L0.148,-0.507L0.148,-0L0.078,-0L0.078,-0.507ZM0.376,-0.416C0.366,-0.427 0.353,-0.435 0.337,-0.44C0.321,-0.446 0.303,-0.449 0.282,-0.449C0.24,-0.449 0.207,-0.437 0.184,-0.415C0.16,-0.392 0.148,-0.361 0.148,-0.321L0.138,-0.418C0.157,-0.449 0.181,-0.472 0.211,-0.489C0.241,-0.506 0.274,-0.514 0.31,-0.514C0.333,-0.514 0.354,-0.511 0.373,-0.504C0.392,-0.497 0.408,-0.488 0.422,-0.475L0.376,-0.416Z" style="fill:rgb(241,230,222);fill-rule:nonzero;"/>
            </g>
            <g transform="matrix(20,0,0,20,200.686,222.862)">
                <path d="M0.286,0.007C0.239,0.007 0.199,-0.002 0.166,-0.019C0.132,-0.037 0.107,-0.063 0.09,-0.097C0.072,-0.131 0.063,-0.172 0.063,-0.22L0.063,-0.277C0.063,-0.327 0.072,-0.37 0.089,-0.405C0.105,-0.441 0.13,-0.468 0.162,-0.486C0.194,-0.505 0.232,-0.514 0.277,-0.514C0.319,-0.514 0.355,-0.505 0.385,-0.487C0.415,-0.469 0.438,-0.442 0.454,-0.407C0.47,-0.372 0.478,-0.33 0.478,-0.281L0.478,-0.223L0.111,-0.223L0.111,-0.286L0.412,-0.286L0.412,-0.291C0.412,-0.341 0.4,-0.38 0.377,-0.407C0.353,-0.435 0.32,-0.449 0.277,-0.449C0.23,-0.449 0.193,-0.434 0.167,-0.405C0.142,-0.376 0.129,-0.335 0.129,-0.282L0.129,-0.218C0.129,-0.167 0.143,-0.128 0.17,-0.1C0.197,-0.072 0.236,-0.058 0.286,-0.058C0.309,-0.058 0.332,-0.063 0.355,-0.073C0.378,-0.083 0.399,-0.096 0.417,-0.114L0.464,-0.068C0.44,-0.044 0.412,-0.026 0.38,-0.012C0.349,0.001 0.318,0.007 0.286,0.007Z" style="fill:rgb(241,230,222);fill-rule:nonzero;"/>
            </g>
            <g transform="matrix(20,0,0,20,211.018,222.862)">
                <path d="M0.406,-0.507L0.48,-0.507L0.28,-0L0.225,-0L0.024,-0.507L0.099,-0.507L0.252,-0.091L0.406,-0.507Z" style="fill:rgb(241,230,222);fill-rule:nonzero;"/>
            </g>
        </g>
        <g transform="matrix(1,0,0,1,90.6566,-20.5571)">
            <g transform="matrix(40.355,0,0,40.355,19.1699,311.7)">
                <path d="M0.276,0.007C0.209,0.007 0.159,-0.01 0.125,-0.046C0.09,-0.081 0.073,-0.131 0.073,-0.194L0.073,-0.517C0.073,-0.581 0.09,-0.63 0.125,-0.666C0.16,-0.701 0.21,-0.719 0.276,-0.719C0.342,-0.719 0.393,-0.701 0.427,-0.666C0.461,-0.631 0.479,-0.581 0.479,-0.517L0.479,-0.194C0.479,-0.131 0.461,-0.081 0.427,-0.046C0.392,-0.01 0.342,0.007 0.276,0.007ZM0.276,-0.058C0.321,-0.058 0.354,-0.07 0.376,-0.094C0.397,-0.117 0.408,-0.151 0.408,-0.194L0.408,-0.517C0.408,-0.561 0.397,-0.595 0.376,-0.618C0.354,-0.642 0.321,-0.653 0.276,-0.653C0.231,-0.653 0.197,-0.642 0.176,-0.618C0.154,-0.595 0.144,-0.561 0.144,-0.517L0.144,-0.194C0.144,-0.151 0.154,-0.117 0.176,-0.094C0.197,-0.07 0.231,-0.058 0.276,-0.058Z" style="fill:rgb(241,230,222);fill-rule:nonzero;"/>
            </g>
        </g>
        <g transform="matrix(1,0,0,1,50.9908,-98.3892)">
            <g transform="matrix(40.355,0,0,40.355,19.3176,311.7)">
                <path d="M0.271,0.007C0.236,0.007 0.204,0 0.176,-0.014C0.148,-0.028 0.126,-0.048 0.108,-0.075C0.091,-0.101 0.079,-0.133 0.073,-0.171L0.073,-0.171L0.144,-0.171L0.144,-0.171C0.148,-0.135 0.161,-0.108 0.184,-0.088C0.206,-0.069 0.235,-0.059 0.271,-0.059C0.313,-0.059 0.344,-0.071 0.367,-0.094C0.39,-0.116 0.401,-0.149 0.401,-0.191L0.401,-0.294C0.401,-0.335 0.391,-0.366 0.372,-0.388C0.353,-0.41 0.326,-0.421 0.291,-0.421C0.263,-0.421 0.237,-0.414 0.214,-0.399C0.19,-0.385 0.169,-0.364 0.15,-0.336L0.089,-0.336L0.089,-0.71L0.451,-0.71L0.451,-0.645L0.159,-0.645L0.159,-0.431C0.178,-0.449 0.198,-0.463 0.22,-0.473C0.242,-0.483 0.266,-0.487 0.292,-0.487C0.329,-0.487 0.362,-0.48 0.389,-0.465C0.416,-0.449 0.436,-0.427 0.45,-0.399C0.464,-0.37 0.471,-0.335 0.471,-0.294L0.471,-0.191C0.471,-0.149 0.463,-0.114 0.448,-0.084C0.432,-0.054 0.409,-0.031 0.379,-0.016C0.349,-0 0.313,0.007 0.271,0.007Z" style="fill:rgb(241,230,222);fill-rule:nonzero;"/>
            </g>
        </g>
        <g transform="matrix(1,0,0,1,94.9511,-175.664)">
            <g transform="matrix(40.355,0,0,40.355,12.4604,311.7)">
                <path d="M0.245,-0L0.174,-0L0.174,-0.65L0.044,-0.569L0.044,-0.643L0.145,-0.71L0.245,-0.71L0.245,-0Z" style="fill:rgb(241,230,222);fill-rule:nonzero;"/>
            </g>
            <g transform="matrix(40.355,0,0,40.355,25.8793,311.7)">
                <path d="M0.276,0.007C0.209,0.007 0.159,-0.01 0.125,-0.046C0.09,-0.081 0.073,-0.131 0.073,-0.194L0.073,-0.517C0.073,-0.581 0.09,-0.63 0.125,-0.666C0.16,-0.701 0.21,-0.719 0.276,-0.719C0.342,-0.719 0.393,-0.701 0.427,-0.666C0.461,-0.631 0.479,-0.581 0.479,-0.517L0.479,-0.194C0.479,-0.131 0.461,-0.081 0.427,-0.046C0.392,-0.01 0.342,0.007 0.276,0.007ZM0.276,-0.058C0.321,-0.058 0.354,-0.07 0.376,-0.094C0.397,-0.117 0.408,-0.151 0.408,-0.194L0.408,-0.517C0.408,-0.561 0.397,-0.595 0.376,-0.618C0.354,-0.642 0.321,-0.653 0.276,-0.653C0.231,-0.653 0.197,-0.642 0.176,-0.618C0.154,-0.595 0.144,-0.561 0.144,-0.517L0.144,-0.194C0.144,-0.151 0.154,-0.117 0.176,-0.094C0.197,-0.07 0.231,-0.058 0.276,-0.058Z" style="fill:rgb(241,230,222);fill-rule:nonzero;"/>
            </g>
        </g>
        <g transform="matrix(1,0,0,1,169.628,-207.383)">
            <g transform="matrix(40.355,0,0,40.355,12.6082,311.7)">
                <path d="M0.245,-0L0.174,-0L0.174,-0.65L0.044,-0.569L0.044,-0.643L0.145,-0.71L0.245,-0.71L0.245,-0Z" style="fill:rgb(241,230,222);fill-rule:nonzero;"/>
            </g>
            <g transform="matrix(40.355,0,0,40.355,26.0271,311.7)">
                <path d="M0.271,0.007C0.236,0.007 0.204,0 0.176,-0.014C0.148,-0.028 0.126,-0.048 0.108,-0.075C0.091,-0.101 0.079,-0.133 0.073,-0.171L0.073,-0.171L0.144,-0.171L0.144,-0.171C0.148,-0.135 0.161,-0.108 0.184,-0.088C0.206,-0.069 0.235,-0.059 0.271,-0.059C0.313,-0.059 0.344,-0.071 0.367,-0.094C0.39,-0.116 0.401,-0.149 0.401,-0.191L0.401,-0.294C0.401,-0.335 0.391,-0.366 0.372,-0.388C0.353,-0.41 0.326,-0.421 0.291,-0.421C0.263,-0.421 0.237,-0.414 0.214,-0.399C0.19,-0.385 0.169,-0.364 0.15,-0.336L0.089,-0.336L0.089,-0.71L0.451,-0.71L0.451,-0.645L0.159,-0.645L0.159,-0.431C0.178,-0.449 0.198,-0.463 0.22,-0.473C0.242,-0.483 0.266,-0.487 0.292,-0.487C0.329,-0.487 0.362,-0.48 0.389,-0.465C0.416,-0.449 0.436,-0.427 0.45,-0.399C0.464,-0.37 0.471,-0.335 0.471,-0.294L0.471,-0.191C0.471,-0.149 0.463,-0.114 0.448,-0.084C0.432,-0.054 0.409,-0.031 0.379,-0.016C0.349,-0 0.313,0.007 0.271,0.007Z" style="fill:rgb(241,230,222);fill-rule:nonzero;"/>
            </g>
        </g>
        <g transform="matrix(1,0,0,1,242.936,-170.545)">
            <g transform="matrix(40.355,0,0,40.355,8.74612,311.7)">
                <path d="M0.063,-0.057L0.33,-0.407C0.347,-0.43 0.361,-0.452 0.37,-0.474C0.38,-0.496 0.385,-0.515 0.385,-0.532L0.385,-0.533C0.385,-0.571 0.374,-0.6 0.352,-0.621C0.33,-0.642 0.299,-0.652 0.26,-0.652C0.223,-0.652 0.193,-0.641 0.17,-0.619C0.147,-0.597 0.133,-0.565 0.127,-0.524L0.127,-0.524L0.054,-0.524L0.054,-0.524C0.06,-0.565 0.072,-0.6 0.09,-0.629C0.108,-0.657 0.131,-0.679 0.16,-0.695C0.188,-0.71 0.221,-0.717 0.259,-0.717C0.301,-0.717 0.337,-0.71 0.367,-0.696C0.397,-0.681 0.42,-0.66 0.436,-0.632C0.451,-0.605 0.459,-0.571 0.459,-0.532L0.459,-0.532C0.459,-0.51 0.453,-0.484 0.44,-0.456C0.427,-0.427 0.409,-0.398 0.386,-0.368L0.151,-0.065L0.463,-0.065L0.463,-0L0.063,-0L0.063,-0.057Z" style="fill:rgb(241,230,222);fill-rule:nonzero;"/>
            </g>
            <g transform="matrix(40.355,0,0,40.355,29.5936,311.7)">
                <path d="M0.276,0.007C0.209,0.007 0.159,-0.01 0.125,-0.046C0.09,-0.081 0.073,-0.131 0.073,-0.194L0.073,-0.517C0.073,-0.581 0.09,-0.63 0.125,-0.666C0.16,-0.701 0.21,-0.719 0.276,-0.719C0.342,-0.719 0.393,-0.701 0.427,-0.666C0.461,-0.631 0.479,-0.581 0.479,-0.517L0.479,-0.194C0.479,-0.131 0.461,-0.081 0.427,-0.046C0.392,-0.01 0.342,0.007 0.276,0.007ZM0.276,-0.058C0.321,-0.058 0.354,-0.07 0.376,-0.094C0.397,-0.117 0.408,-0.151 0.408,-0.194L0.408,-0.517C0.408,-0.561 0.397,-0.595 0.376,-0.618C0.354,-0.642 0.321,-0.653 0.276,-0.653C0.231,-0.653 0.197,-0.642 0.176,-0.618C0.154,-0.595 0.144,-0.561 0.144,-0.517L0.144,-0.194C0.144,-0.151 0.154,-0.117 0.176,-0.094C0.197,-0.07 0.231,-0.058 0.276,-0.058Z" style="fill:rgb(241,230,222);fill-rule:nonzero;"/>
            </g>
        </g>
        <g transform="matrix(1,0,0,1,273.837,-98.2512)">
            <g transform="matrix(40.355,0,0,40.355,8.8939,311.7)">
                <path d="M0.063,-0.057L0.33,-0.407C0.347,-0.43 0.361,-0.452 0.37,-0.474C0.38,-0.496 0.385,-0.515 0.385,-0.532L0.385,-0.533C0.385,-0.571 0.374,-0.6 0.352,-0.621C0.33,-0.642 0.299,-0.652 0.26,-0.652C0.223,-0.652 0.193,-0.641 0.17,-0.619C0.147,-0.597 0.133,-0.565 0.127,-0.524L0.127,-0.524L0.054,-0.524L0.054,-0.524C0.06,-0.565 0.072,-0.6 0.09,-0.629C0.108,-0.657 0.131,-0.679 0.16,-0.695C0.188,-0.71 0.221,-0.717 0.259,-0.717C0.301,-0.717 0.337,-0.71 0.367,-0.696C0.397,-0.681 0.42,-0.66 0.436,-0.632C0.451,-0.605 0.459,-0.571 0.459,-0.532L0.459,-0.532C0.459,-0.51 0.453,-0.484 0.44,-0.456C0.427,-0.427 0.409,-0.398 0.386,-0.368L0.151,-0.065L0.463,-0.065L0.463,-0L0.063,-0L0.063,-0.057Z" style="fill:rgb(241,230,222);fill-rule:nonzero;"/>
            </g>
            <g transform="matrix(40.355,0,0,40.355,29.7414,311.7)">
                <path d="M0.271,0.007C0.236,0.007 0.204,0 0.176,-0.014C0.148,-0.028 0.126,-0.048 0.108,-0.075C0.091,-0.101 0.079,-0.133 0.073,-0.171L0.073,-0.171L0.144,-0.171L0.144,-0.171C0.148,-0.135 0.161,-0.108 0.184,-0.088C0.206,-0.069 0.235,-0.059 0.271,-0.059C0.313,-0.059 0.344,-0.071 0.367,-0.094C0.39,-0.116 0.401,-0.149 0.401,-0.191L0.401,-0.294C0.401,-0.335 0.391,-0.366 0.372,-0.388C0.353,-0.41 0.326,-0.421 0.291,-0.421C0.263,-0.421 0.237,-0.414 0.214,-0.399C0.19,-0.385 0.169,-0.364 0.15,-0.336L0.089,-0.336L0.089,-0.71L0.451,-0.71L0.451,-0.645L0.159,-0.645L0.159,-0.431C0.178,-0.449 0.198,-0.463 0.22,-0.473C0.242,-0.483 0.266,-0.487 0.292,-0.487C0.329,-0.487 0.362,-0.48 0.389,-0.465C0.416,-0.449 0.436,-0.427 0.45,-0.399C0.464,-0.37 0.471,-0.335 0.471,-0.294L0.471,-0.191C0.471,-0.149 0.463,-0.114 0.448,-0.084C0.432,-0.054 0.409,-0.031 0.379,-0.016C0.349,-0 0.313,0.007 0.271,0.007Z" style="fill:rgb(241,230,222);fill-rule:nonzero;"/>
            </g>
        </g>
        <g transform="matrix(1,0,0,1,234.972,-23.3542)">
            <g transform="matrix(40.355,0,0,40.355,8.49981,311.7)">
                <path d="M0.257,0.007C0.217,0.007 0.182,0 0.152,-0.014C0.122,-0.028 0.097,-0.048 0.079,-0.075C0.06,-0.102 0.049,-0.134 0.044,-0.172L0.115,-0.172C0.119,-0.148 0.127,-0.128 0.139,-0.111C0.152,-0.094 0.168,-0.081 0.188,-0.072C0.208,-0.063 0.231,-0.059 0.257,-0.059C0.299,-0.059 0.332,-0.07 0.355,-0.093C0.378,-0.116 0.39,-0.148 0.39,-0.189L0.39,-0.21C0.39,-0.25 0.379,-0.281 0.356,-0.303C0.334,-0.325 0.302,-0.336 0.262,-0.336L0.211,-0.336L0.211,-0.402L0.262,-0.402C0.299,-0.402 0.328,-0.411 0.348,-0.431C0.368,-0.45 0.378,-0.477 0.378,-0.512L0.378,-0.534C0.378,-0.571 0.368,-0.6 0.346,-0.62C0.325,-0.641 0.295,-0.651 0.256,-0.651C0.235,-0.651 0.215,-0.647 0.197,-0.638C0.18,-0.63 0.165,-0.618 0.153,-0.602C0.14,-0.586 0.132,-0.566 0.126,-0.543L0.056,-0.543C0.062,-0.58 0.074,-0.611 0.093,-0.637C0.111,-0.663 0.134,-0.683 0.161,-0.697C0.189,-0.71 0.221,-0.717 0.256,-0.717C0.318,-0.717 0.365,-0.701 0.398,-0.669C0.432,-0.637 0.449,-0.591 0.449,-0.533L0.449,-0.511C0.449,-0.478 0.441,-0.449 0.425,-0.425C0.409,-0.4 0.387,-0.382 0.358,-0.371C0.39,-0.363 0.416,-0.345 0.434,-0.317C0.451,-0.289 0.46,-0.253 0.46,-0.21L0.46,-0.188C0.46,-0.147 0.452,-0.112 0.437,-0.083C0.421,-0.053 0.397,-0.031 0.367,-0.016C0.337,-0 0.3,0.007 0.257,0.007Z" style="fill:rgb(241,230,222);fill-rule:nonzero;"/>
            </g>
            <g transform="matrix(40.355,0,0,40.355,29.8399,311.7)">
                <path d="M0.276,0.007C0.209,0.007 0.159,-0.01 0.125,-0.046C0.09,-0.081 0.073,-0.131 0.073,-0.194L0.073,-0.517C0.073,-0.581 0.09,-0.63 0.125,-0.666C0.16,-0.701 0.21,-0.719 0.276,-0.719C0.342,-0.719 0.393,-0.701 0.427,-0.666C0.461,-0.631 0.479,-0.581 0.479,-0.517L0.479,-0.194C0.479,-0.131 0.461,-0.081 0.427,-0.046C0.392,-0.01 0.342,0.007 0.276,0.007ZM0.276,-0.058C0.321,-0.058 0.354,-0.07 0.376,-0.094C0.397,-0.117 0.408,-0.151 0.408,-0.194L0.408,-0.517C0.408,-0.561 0.397,-0.595 0.376,-0.618C0.354,-0.642 0.321,-0.653 0.276,-0.653C0.231,-0.653 0.197,-0.642 0.176,-0.618C0.154,-0.595 0.144,-0.561 0.144,-0.517L0.144,-0.194C0.144,-0.151 0.154,-0.117 0.176,-0.094C0.197,-0.07 0.231,-0.058 0.276,-0.058Z" style="fill:rgb(241,230,222);fill-rule:nonzero;"/>
            </g>
        </g>
        <g transform="matrix(0.528723,0,0,0.528723,106.777,60.8131)">
            <g transform="matrix(56.7405,0,0,56.7405,123.206,172.565)">
                <path d="M0.32,0.007C0.271,0.007 0.228,-0.004 0.191,-0.025C0.153,-0.047 0.125,-0.078 0.104,-0.118C0.083,-0.158 0.073,-0.205 0.073,-0.257L0.073,-0.452C0.073,-0.505 0.083,-0.551 0.104,-0.591C0.125,-0.631 0.153,-0.662 0.191,-0.684C0.228,-0.706 0.271,-0.717 0.32,-0.717C0.361,-0.717 0.398,-0.709 0.433,-0.692C0.467,-0.676 0.495,-0.652 0.518,-0.622C0.541,-0.591 0.557,-0.556 0.565,-0.516L0.495,-0.516C0.487,-0.543 0.474,-0.566 0.456,-0.587C0.439,-0.607 0.418,-0.623 0.394,-0.635C0.37,-0.646 0.346,-0.652 0.32,-0.652C0.285,-0.652 0.254,-0.644 0.228,-0.627C0.201,-0.61 0.18,-0.587 0.166,-0.557C0.151,-0.527 0.144,-0.492 0.144,-0.452L0.144,-0.257C0.144,-0.218 0.151,-0.183 0.166,-0.153C0.18,-0.122 0.201,-0.099 0.228,-0.083C0.254,-0.066 0.285,-0.058 0.32,-0.058C0.346,-0.058 0.37,-0.063 0.394,-0.074C0.418,-0.085 0.439,-0.101 0.456,-0.121C0.474,-0.142 0.487,-0.166 0.495,-0.194L0.565,-0.194C0.557,-0.154 0.541,-0.119 0.518,-0.088C0.495,-0.058 0.466,-0.034 0.432,-0.018C0.398,-0.001 0.361,0.007 0.32,0.007Z" style="fill:rgb(241,230,222);fill-rule:nonzero;"/>
            </g>
            <g transform="matrix(56.7405,0,0,56.7405,157.755,172.565)">
                <path d="M0.139,-0.341L0.366,-0.341C0.394,-0.341 0.418,-0.347 0.439,-0.36C0.461,-0.373 0.477,-0.39 0.489,-0.413C0.5,-0.436 0.506,-0.462 0.506,-0.492C0.506,-0.522 0.5,-0.549 0.489,-0.572C0.477,-0.595 0.461,-0.613 0.439,-0.625C0.418,-0.638 0.394,-0.645 0.366,-0.645L0.139,-0.645L0.139,-0.71L0.363,-0.71C0.405,-0.71 0.442,-0.701 0.475,-0.683C0.507,-0.665 0.532,-0.639 0.55,-0.606C0.567,-0.574 0.576,-0.535 0.576,-0.492C0.576,-0.449 0.567,-0.411 0.55,-0.379C0.532,-0.346 0.507,-0.321 0.475,-0.302C0.442,-0.284 0.405,-0.275 0.363,-0.275L0.139,-0.275L0.139,-0.341ZM0.088,-0.71L0.158,-0.71L0.158,-0L0.088,-0L0.088,-0.71Z" style="fill:rgb(241,230,222);fill-rule:nonzero;"/>
            </g>
            <g transform="matrix(56.7405,0,0,56.7405,192.525,172.565)">
                <path d="M0.327,0.007C0.271,0.007 0.225,-0.002 0.188,-0.021C0.152,-0.041 0.124,-0.069 0.106,-0.108C0.087,-0.146 0.078,-0.194 0.078,-0.252L0.078,-0.71L0.148,-0.71L0.148,-0.249C0.148,-0.186 0.163,-0.14 0.193,-0.109C0.222,-0.078 0.267,-0.062 0.327,-0.062C0.387,-0.062 0.432,-0.078 0.462,-0.109C0.492,-0.14 0.507,-0.186 0.507,-0.249L0.507,-0.71L0.577,-0.71L0.577,-0.252C0.577,-0.194 0.568,-0.146 0.55,-0.108C0.531,-0.069 0.503,-0.041 0.466,-0.021C0.429,-0.002 0.383,0.007 0.327,0.007Z" style="fill:rgb(241,230,222);fill-rule:nonzero;"/>
            </g>
        </g>
    </g>
    <g id="Small-lines" serif:id="Small lines" transform="matrix(1.26563,0,0,1.26563,-53.4259,17.4124)">
        <path d="M291.18,238.499C316.753,213.819 331.197,179.806 331.197,144.266C331.197,71.988 272.516,13.307 200.237,13.307C127.958,13.307 69.277,71.988 69.277,144.266C69.277,191.945 95.19,235.856 136.926,258.906L145.157,244.003C108.846,223.95 86.302,185.747 86.302,144.266C86.302,81.384 137.355,30.331 200.237,30.331C263.119,30.331 314.172,81.384 314.172,144.266C314.172,175.186 301.606,204.777 279.357,226.249L291.18,238.499Z" style="fill:none;"/>
        <clipPath id="_clip1">
            <path d="M291.18,238.499C316.753,213.819 331.197,179.806 331.197,144.266C331.197,71.988 272.516,13.307 200.237,13.307C127.958,13.307 69.277,71.988 69.277,144.266C69.277,191.945 95.19,235.856 136.926,258.906L145.157,244.003C108.846,223.95 86.302,185.747 86.302,144.266C86.302,81.384 137.355,30.331 200.237,30.331C263.119,30.331 314.172,81.384 314.172,144.266C314.172,175.186 301.606,204.777 279.357,226.249L291.18,238.499Z"/>
        </clipPath>
        <g clip-path="url(#_clip1)">
            <g transform="matrix(0.790121,0,0,0.790121,42.2129,-13.7579)">
                <g transform="matrix(0.206673,0,0,1.02927,159.693,-11.7077)">
                    <rect x="190.187" y="11.375" width="19.448" height="388.625" style="fill:rgb(241,230,222);"/>
                </g>
                <g transform="matrix(0.14614,0.14614,-0.727803,0.727803,321.495,21.0851)">
                    <rect x="190.187" y="11.375" width="19.448" height="388.625" style="fill:rgb(241,230,222);"/>
                </g>
                <g transform="matrix(-0.14614,0.14614,-0.727803,-0.727803,379.925,320.485)">
                    <rect x="190.187" y="11.375" width="19.448" height="388.625" style="fill:rgb(241,230,222);"/>
                </g>
                <g transform="matrix(0,0.206673,-1.02927,0,412.717,158.684)">
                    <rect x="190.187" y="11.375" width="19.448" height="388.625" style="fill:rgb(241,230,222);"/>
                </g>
                <g transform="matrix(0.206033,0.0162602,-0.0809787,1.02608,176.478,-14.302)">
                    <rect x="190.187" y="11.375" width="19.448" height="388.625" style="fill:rgb(241,230,222);"/>
                </g>
                <g transform="matrix(0.134189,0.157185,-0.782808,0.668287,335.197,31.119)">
                    <rect x="190.187" y="11.375" width="19.448" height="388.625" style="fill:rgb(241,230,222);"/>
                </g>
                <g transform="matrix(-0.157185,0.134189,-0.668287,-0.782808,369.891,334.188)">
                    <rect x="190.187" y="11.375" width="19.448" height="388.625" style="fill:rgb(241,230,222);"/>
                </g>
                <g transform="matrix(-0.0162602,0.206033,-1.02608,-0.0809787,415.312,175.468)">
                    <rect x="190.187" y="11.375" width="19.448" height="388.625" style="fill:rgb(241,230,222);"/>
                </g>
                <g transform="matrix(0.204115,0.0324196,-0.161455,1.01653,193.414,-15.5678)">
                    <rect x="190.187" y="11.375" width="19.448" height="388.625" style="fill:rgb(241,230,222);"/>
                </g>
                <g transform="matrix(0.121407,0.167255,-0.832959,0.604627,348.068,42.1998)">
                    <rect x="190.187" y="11.375" width="19.448" height="388.625" style="fill:rgb(241,230,222);"/>
                </g>
                <g transform="matrix(-0.167255,0.121407,-0.604627,-0.832959,358.81,347.059)">
                    <rect x="190.187" y="11.375" width="19.448" height="388.625" style="fill:rgb(241,230,222);"/>
                </g>
                <g transform="matrix(-0.0324196,0.204115,-1.01653,-0.161455,416.577,192.405)">
                    <rect x="190.187" y="11.375" width="19.448" height="388.625" style="fill:rgb(241,230,222);"/>
                </g>
                <g transform="matrix(0.200932,0.0483781,-0.240931,1.00067,210.398,-15.4971)">
                    <rect x="190.187" y="11.375" width="19.448" height="388.625" style="fill:rgb(241,230,222);"/>
                </g>
                <g transform="matrix(0.107872,0.176289,-0.877947,0.537219,360.028,54.2589)">
                    <rect x="190.187" y="11.375" width="19.448" height="388.625" style="fill:rgb(241,230,222);"/>
                </g>
                <g transform="matrix(-0.176289,0.107872,-0.537219,-0.877947,346.751,359.018)">
                    <rect x="190.187" y="11.375" width="19.448" height="388.625" style="fill:rgb(241,230,222);"/>
                </g>
                <g transform="matrix(-0.0483781,0.200932,-1.00067,-0.240931,416.507,209.388)">
                    <rect x="190.187" y="11.375" width="19.448" height="388.625" style="fill:rgb(241,230,222);"/>
                </g>
                <g transform="matrix(0.196503,0.0640366,-0.318913,0.978616,227.323,-14.0905)">
                    <rect x="190.187" y="11.375" width="19.448" height="388.625" style="fill:rgb(241,230,222);"/>
                </g>
                <g transform="matrix(0.0936676,0.184229,-0.917492,0.46648,371.001,67.2216)">
                    <rect x="190.187" y="11.375" width="19.448" height="388.625" style="fill:rgb(241,230,222);"/>
                </g>
                <g transform="matrix(-0.184229,0.0936676,-0.46648,-0.917492,333.788,369.991)">
                    <rect x="190.187" y="11.375" width="19.448" height="388.625" style="fill:rgb(241,230,222);"/>
                </g>
                <g transform="matrix(-0.0640366,0.196503,-0.978616,-0.318913,415.1,226.313)">
                    <rect x="190.187" y="11.375" width="19.448" height="388.625" style="fill:rgb(241,230,222);"/>
                </g>
                <g transform="matrix(0.190855,0.0792981,-0.394918,0.950492,244.085,-11.3567)">
                    <rect x="190.187" y="11.375" width="19.448" height="388.625" style="fill:rgb(241,230,222);"/>
                </g>
                <g transform="matrix(0.0788828,0.191027,-0.951348,0.39285,380.921,81.0074)">
                    <rect x="190.187" y="11.375" width="19.448" height="388.625" style="fill:rgb(241,230,222);"/>
                </g>
                <g transform="matrix(-0.191027,0.0788828,-0.39285,-0.951348,320.002,379.911)">
                    <rect x="190.187" y="11.375" width="19.448" height="388.625" style="fill:rgb(241,230,222);"/>
                </g>
                <g transform="matrix(-0.0792981,0.190855,-0.950492,-0.394918,412.366,243.076)">
                    <rect x="190.187" y="11.375" width="19.448" height="388.625" style="fill:rgb(241,230,222);"/>
                </g>
                <g transform="matrix(0.184025,0.094068,-0.468475,0.916475,260.581,-7.31251)">
                    <rect x="190.187" y="11.375" width="19.448" height="388.625" style="fill:rgb(241,230,222);"/>
                </g>
                <g transform="matrix(0.0636091,0.196641,-0.979307,0.316784,389.725,95.5309)">
                    <rect x="190.187" y="11.375" width="19.448" height="388.625" style="fill:rgb(241,230,222);"/>
                </g>
                <g transform="matrix(-0.196641,0.0636091,-0.316784,-0.979307,305.479,388.715)">
                    <rect x="190.187" y="11.375" width="19.448" height="388.625" style="fill:rgb(241,230,222);"/>
                </g>
                <g transform="matrix(-0.094068,0.184025,-0.916475,-0.468475,408.322,259.571)">
                    <rect x="190.187" y="11.375" width="19.448" height="388.625" style="fill:rgb(241,230,222);"/>
                </g>
                <path id="off_line" d="M270.034,93.59C270.881,94.71 271.792,95.762 272.76,96.741L91.193,367.165L87.856,364.925L270.034,93.59ZM304.554,42.177L310.827,32.835L314.164,35.075L307.867,44.453C306.812,43.612 305.705,42.852 304.554,42.177Z" style="fill:rgb(241,230,222);"/>
                <g transform="matrix(0.047941,0.201036,-1.00119,0.238754,397.359,110.702)">
                    <rect x="190.187" y="11.375" width="19.448" height="388.625" style="fill:rgb(241,230,222);"/>
                </g>
                <g transform="matrix(-0.201036,0.047941,-0.238754,-1.00119,290.308,396.349)">
                    <rect x="190.187" y="11.375" width="19.448" height="388.625" style="fill:rgb(241,230,222);"/>
                </g>
                <g transform="matrix(-0.108255,0.176054,-0.876777,-0.539127,402.993,275.697)">
                    <rect x="190.187" y="11.375" width="19.448" height="388.625" style="fill:rgb(241,230,222);"/>
                </g>
                <g transform="matrix(0.0319757,0.204185,-1.01688,0.159244,403.776,126.427)">
                    <rect x="190.187" y="11.375" width="19.448" height="388.625" style="fill:rgb(241,230,222);"/>
                </g>
                <g transform="matrix(-0.204185,0.0319757,-0.159244,-1.01688,274.583,402.766)">
                    <rect x="190.187" y="11.375" width="19.448" height="388.625" style="fill:rgb(241,230,222);"/>
                </g>
                <g transform="matrix(-0.12177,0.166991,-0.831642,-0.606437,396.411,291.353)">
                    <rect x="190.187" y="11.375" width="19.448" height="388.625" style="fill:rgb(241,230,222);"/>
                </g>
                <g transform="matrix(0.0158121,0.206068,-1.02625,0.0787471,408.936,142.608)">
                    <rect x="190.187" y="11.375" width="19.448" height="388.625" style="fill:rgb(241,230,222);"/>
                </g>
                <g transform="matrix(-0.206068,0.0158121,-0.0787471,-1.02625,258.402,407.926)">
                    <rect x="190.187" y="11.375" width="19.448" height="388.625" style="fill:rgb(241,230,222);"/>
                </g>
                <g transform="matrix(-0.134531,0.156893,-0.781353,-0.669987,388.618,306.443)">
                    <rect x="190.187" y="11.375" width="19.448" height="388.625" style="fill:rgb(241,230,222);"/>
                </g>
                <path d="M90.629,347.961C91.232,349.348 91.925,350.679 92.699,351.944L84.795,362.783L81.548,360.415L90.629,347.961ZM122.691,303.992L317.224,37.217L320.472,39.585L126.662,305.368C125.381,304.807 124.055,304.345 122.691,303.992Z" style="fill:rgb(241,230,222);"/>
                <path d="M100.129,360.225C101.199,361.041 102.323,361.777 103.493,362.427L97.962,371.421L94.539,369.316L100.129,360.225ZM131.965,308.45L304.057,28.579L307.481,30.684L135.057,311.094C134.084,310.138 133.052,309.254 131.965,308.45Z" style="fill:rgb(241,230,222);"/>
                <path d="M88.421,328.216C88.05,330.232 87.856,332.32 87.856,334.458C87.856,334.653 87.857,334.847 87.861,335.044L72.348,353.135L69.297,350.519L88.421,328.216ZM109.029,304.182L329.671,46.865L332.722,49.481L115.175,303.189C113.059,303.273 111.001,303.613 109.029,304.182Z" style="fill:rgb(241,230,222);"/>
            </g>
        </g>
    </g>
    <g id="Medium-lines" serif:id="Medium lines" transform="matrix(1.26563,0,0,1.26563,-53.4259,17.4124)">
        <path d="M287.866,241.588C315.448,216.753 331.197,181.381 331.197,144.266C331.197,71.988 272.516,13.307 200.237,13.307C127.958,13.307 69.277,71.988 69.277,144.266C69.277,181.381 85.026,216.753 112.608,241.588L128.381,224.07C105.764,203.706 92.85,174.701 92.85,144.266C92.85,84.998 140.969,36.879 200.237,36.879C259.506,36.879 307.624,84.998 307.624,144.266C307.624,174.701 294.71,203.706 272.093,224.07L287.866,241.588Z" style="fill:none;"/>
        <clipPath id="_clip2">
            <path d="M287.866,241.588C315.448,216.753 331.197,181.381 331.197,144.266C331.197,71.988 272.516,13.307 200.237,13.307C127.958,13.307 69.277,71.988 69.277,144.266C69.277,181.381 85.026,216.753 112.608,241.588L128.381,224.07C105.764,203.706 92.85,174.701 92.85,144.266C92.85,84.998 140.969,36.879 200.237,36.879C259.506,36.879 307.624,84.998 307.624,144.266C307.624,174.701 294.71,203.706 272.093,224.07L287.866,241.588Z"/>
        </clipPath>
        <g clip-path="url(#_clip2)">
            <g transform="matrix(0.790121,0,0,0.790121,42.2129,-13.7579)">
                <g transform="matrix(0.206673,0,0,1.02927,159.693,-11.7077)">
                    <rect x="190.187" y="11.375" width="19.448" height="388.625" style="fill:rgb(241,230,222);"/>
                </g>
                <g transform="matrix(0.14614,0.14614,-0.727803,0.727803,321.495,21.0851)">
                    <rect x="190.187" y="11.375" width="19.448" height="388.625" style="fill:rgb(241,230,222);"/>
                </g>
                <g transform="matrix(-0.14614,0.14614,-0.727803,-0.727803,379.925,320.485)">
                    <rect x="190.187" y="11.375" width="19.448" height="388.625" style="fill:rgb(241,230,222);"/>
                </g>
                <g transform="matrix(0,0.206673,-1.02927,0,412.717,158.684)">
                    <rect x="190.187" y="11.375" width="19.448" height="388.625" style="fill:rgb(241,230,222);"/>
                </g>
                <g transform="matrix(0.204115,0.0324196,-0.161455,1.01653,193.414,-15.5678)">
                    <rect x="190.187" y="11.375" width="19.448" height="388.625" style="fill:rgb(241,230,222);"/>
                </g>
                <g transform="matrix(0.121407,0.167255,-0.832959,0.604627,348.068,42.1998)">
                    <rect x="190.187" y="11.375" width="19.448" height="388.625" style="fill:rgb(241,230,222);"/>
                </g>
                <g transform="matrix(-0.167255,0.121407,-0.604627,-0.832959,358.81,347.059)">
                    <rect x="190.187" y="11.375" width="19.448" height="388.625" style="fill:rgb(241,230,222);"/>
                </g>
                <g transform="matrix(-0.0324196,0.204115,-1.01653,-0.161455,416.577,192.405)">
                    <rect x="190.187" y="11.375" width="19.448" height="388.625" style="fill:rgb(241,230,222);"/>
                </g>
                <g transform="matrix(0.196503,0.0640366,-0.318913,0.978616,227.323,-14.0905)">
                    <rect x="190.187" y="11.375" width="19.448" height="388.625" style="fill:rgb(241,230,222);"/>
                </g>
                <g transform="matrix(0.0936676,0.184229,-0.917492,0.46648,371.001,67.2216)">
                    <rect x="190.187" y="11.375" width="19.448" height="388.625" style="fill:rgb(241,230,222);"/>
                </g>
                <g transform="matrix(-0.184229,0.0936676,-0.46648,-0.917492,333.788,369.991)">
                    <rect x="190.187" y="11.375" width="19.448" height="388.625" style="fill:rgb(241,230,222);"/>
                </g>
                <g transform="matrix(-0.0640366,0.196503,-0.978616,-0.318913,415.1,226.313)">
                    <rect x="190.187" y="11.375" width="19.448" height="388.625" style="fill:rgb(241,230,222);"/>
                </g>
                <g transform="matrix(0.184025,0.094068,-0.468475,0.916475,260.581,-7.31251)">
                    <rect x="190.187" y="11.375" width="19.448" height="388.625" style="fill:rgb(241,230,222);"/>
                </g>
                <g transform="matrix(0.0636091,0.196641,-0.979307,0.316784,389.725,95.5309)">
                    <rect x="190.187" y="11.375" width="19.448" height="388.625" style="fill:rgb(241,230,222);"/>
                </g>
                <g transform="matrix(-0.196641,0.0636091,-0.316784,-0.979307,305.479,388.715)">
                    <rect x="190.187" y="11.375" width="19.448" height="388.625" style="fill:rgb(241,230,222);"/>
                </g>
                <g transform="matrix(-0.094068,0.184025,-0.916475,-0.468475,408.322,259.571)">
                    <rect x="190.187" y="11.375" width="19.448" height="388.625" style="fill:rgb(241,230,222);"/>
                </g>
                <g transform="matrix(0.166991,0.12177,-0.606437,0.831642,292.363,4.5985)">
                    <rect x="190.187" y="11.375" width="19.448" height="388.625" style="fill:rgb(241,230,222);"/>
                </g>
                <g transform="matrix(0.0319757,0.204185,-1.01688,0.159244,403.776,126.427)">
                    <rect x="190.187" y="11.375" width="19.448" height="388.625" style="fill:rgb(241,230,222);"/>
                </g>
                <g transform="matrix(-0.204185,0.0319757,-0.159244,-1.01688,274.583,402.766)">
                    <rect x="190.187" y="11.375" width="19.448" height="388.625" style="fill:rgb(241,230,222);"/>
                </g>
                <g transform="matrix(-0.12177,0.166991,-0.831642,-0.606437,396.411,291.353)">
                    <rect x="190.187" y="11.375" width="19.448" height="388.625" style="fill:rgb(241,230,222);"/>
                </g>
            </g>
        </g>
    </g>
    <g id="Big-lines" serif:id="Big lines" transform="matrix(1.13268,0,0,1.13268,-26.8051,36.592)">
        <path d="M284.416,244.587C314.07,219.704 331.197,182.977 331.197,144.266C331.197,71.988 272.516,13.307 200.237,13.307C127.958,13.307 69.277,71.988 69.277,144.266C69.277,184.579 87.843,222.645 119.61,247.464L129.285,235.08C101.331,213.24 84.992,179.741 84.992,144.266C84.992,80.661 136.632,29.022 200.237,29.022C263.842,29.022 315.482,80.661 315.482,144.266C315.482,178.332 300.41,210.652 274.315,232.549L284.416,244.587Z" style="fill:none;"/>
        <clipPath id="_clip3">
            <path d="M284.416,244.587C314.07,219.704 331.197,182.977 331.197,144.266C331.197,71.988 272.516,13.307 200.237,13.307C127.958,13.307 69.277,71.988 69.277,144.266C69.277,184.579 87.843,222.645 119.61,247.464L129.285,235.08C101.331,213.24 84.992,179.741 84.992,144.266C84.992,80.661 136.632,29.022 200.237,29.022C263.842,29.022 315.482,80.661 315.482,144.266C315.482,178.332 300.41,210.652 274.315,232.549L284.416,244.587Z"/>
        </clipPath>
        <g clip-path="url(#_clip3)">
            <g transform="matrix(0.790121,0,0,0.790121,42.2129,-13.7579)">
                <g transform="matrix(0.668488,0,0,1.15008,67.4905,-36.5563)">
                    <rect x="190.187" y="11.375" width="19.448" height="388.625" style="fill:rgb(241,230,222);"/>
                </g>
                <g transform="matrix(0.472692,0.472692,-0.813227,0.813227,273.903,-61.7667)">
                    <rect x="190.187" y="11.375" width="19.448" height="388.625" style="fill:rgb(241,230,222);"/>
                </g>
                <g transform="matrix(0,0.668488,-1.15008,0,437.685,66.3623)">
                    <rect x="190.187" y="11.375" width="19.448" height="388.625" style="fill:rgb(241,230,222);"/>
                </g>
                <g transform="matrix(-0.472692,0.472692,-0.813227,-0.813227,462.895,272.774)">
                    <rect x="190.187" y="11.375" width="19.448" height="388.625" style="fill:rgb(241,230,222);"/>
                </g>
            </g>
        </g>
    </g>
</svg>
