<?xml version="1.0" encoding="UTF-8" standalone="no"?>
<!DOCTYPE svg PUBLIC "-//W3C//DTD SVG 1.1//EN" "http://www.w3.org/Graphics/SVG/1.1/DTD/svg11.dtd">
<svg width="100%" height="100%" viewBox="0 0 400 400" version="1.1" xmlns="http://www.w3.org/2000/svg" xmlns:xlink="http://www.w3.org/1999/xlink" xml:space="preserve" xmlns:serif="http://www.serif.com/" style="fill-rule:evenodd;clip-rule:evenodd;stroke-linejoin:round;stroke-miterlimit:2;">
    <g transform="matrix(1.26563,0,0,1.26563,-53.4259,17.4124)">
        <g id="Danger-zones" serif:id="Danger zones">
            <path d="M108.121,237.352C113.919,243.091 120.242,248.275 127.005,252.837L136.525,238.723C130.641,234.754 125.141,230.244 120.096,225.251L108.121,237.352Z" style="fill:rgb(240,56,19);"/>
        </g>
    </g>
    <g id="Labels">
        <g transform="matrix(1,0,0,1,-50.1023,4.90047)">
            <g transform="matrix(0.986325,0.164811,-0.164811,0.986325,61.7563,-30.2692)">
                <g transform="matrix(30,0,0,30,213.283,357.014)">
                    <path d="M0.088,-0.71L0.158,-0.71L0.158,-0L0.088,-0L0.088,-0.71ZM0.138,-0.065L0.544,-0.065L0.544,-0L0.138,-0L0.138,-0.065Z" style="fill:rgb(241,230,222);fill-rule:nonzero;"/>
                </g>
            </g>
            <g transform="matrix(0.997929,0.0643289,-0.0643289,0.997929,23.6261,-14.0269)">
                <g transform="matrix(30,0,0,30,229.637,359.876)">
                    <path d="M0.323,0.007C0.27,0.007 0.225,-0.003 0.188,-0.023C0.15,-0.044 0.122,-0.074 0.103,-0.113C0.083,-0.152 0.073,-0.199 0.073,-0.254L0.073,-0.456C0.073,-0.511 0.083,-0.558 0.103,-0.597C0.122,-0.636 0.15,-0.666 0.188,-0.687C0.225,-0.707 0.27,-0.717 0.323,-0.717C0.375,-0.717 0.42,-0.707 0.458,-0.687C0.495,-0.666 0.523,-0.636 0.543,-0.597C0.563,-0.558 0.572,-0.511 0.572,-0.456L0.572,-0.254C0.572,-0.199 0.563,-0.152 0.543,-0.113C0.523,-0.074 0.495,-0.044 0.458,-0.023C0.42,-0.003 0.375,0.007 0.323,0.007ZM0.323,-0.058C0.361,-0.058 0.393,-0.066 0.42,-0.081C0.447,-0.096 0.467,-0.118 0.481,-0.147C0.495,-0.176 0.502,-0.21 0.502,-0.251L0.502,-0.459C0.502,-0.5 0.495,-0.534 0.481,-0.563C0.467,-0.592 0.447,-0.614 0.42,-0.629C0.393,-0.644 0.361,-0.652 0.323,-0.652C0.285,-0.652 0.253,-0.644 0.226,-0.629C0.199,-0.614 0.179,-0.592 0.165,-0.563C0.151,-0.534 0.144,-0.5 0.144,-0.459L0.144,-0.251C0.144,-0.21 0.151,-0.176 0.165,-0.147C0.179,-0.118 0.199,-0.096 0.226,-0.081C0.253,-0.066 0.285,-0.058 0.323,-0.058Z" style="fill:rgb(241,230,222);fill-rule:nonzero;"/>
                </g>
            </g>
            <g transform="matrix(0.998944,-0.0459493,0.0459493,0.998944,-16.3309,11.7828)">
                <g transform="matrix(30,0,0,30,248.13,361.115)">
                    <path d="M0.281,-0.71L0.366,-0.71L0.628,-0L0.55,-0L0.324,-0.636L0.098,-0L0.02,-0L0.281,-0.71ZM0.14,-0.238L0.514,-0.238L0.514,-0.172L0.14,-0.172L0.14,-0.238Z" style="fill:rgb(241,230,222);fill-rule:nonzero;"/>
                </g>
            </g>
            <g transform="matrix(0.986454,-0.164036,0.164036,0.986454,-55.4697,48.7624)">
                <g transform="matrix(30,0,0,30,267.519,360.248)">
                    <path d="M0.155,-0.065L0.316,-0.065C0.382,-0.065 0.431,-0.081 0.464,-0.112C0.496,-0.142 0.513,-0.189 0.513,-0.25L0.513,-0.459C0.513,-0.521 0.496,-0.568 0.464,-0.598C0.431,-0.629 0.382,-0.645 0.316,-0.645L0.155,-0.645L0.155,-0.71L0.313,-0.71C0.373,-0.71 0.423,-0.701 0.463,-0.682C0.503,-0.663 0.533,-0.635 0.553,-0.597C0.573,-0.559 0.583,-0.512 0.583,-0.456L0.583,-0.254C0.583,-0.198 0.573,-0.151 0.553,-0.113C0.533,-0.075 0.503,-0.047 0.463,-0.028C0.423,-0.009 0.373,-0 0.313,-0L0.155,-0L0.155,-0.065ZM0.088,-0.71L0.158,-0.71L0.158,-0L0.088,-0L0.088,-0.71Z" style="fill:rgb(241,230,222);fill-rule:nonzero;"/>
                </g>
            </g>
        </g>
        <g transform="matrix(0.588243,-0.808685,0.808685,0.588243,-245.804,162.746)">
            <g transform="matrix(30,0,0,30,87.7978,395.271)">
                <path d="M0.272,0.007C0.229,0.007 0.191,-0.001 0.16,-0.019C0.128,-0.036 0.105,-0.061 0.088,-0.094C0.072,-0.127 0.063,-0.167 0.063,-0.213L0.063,-0.296C0.063,-0.342 0.072,-0.381 0.088,-0.414C0.105,-0.447 0.128,-0.471 0.16,-0.489C0.191,-0.506 0.229,-0.514 0.272,-0.514C0.316,-0.514 0.354,-0.506 0.385,-0.489C0.417,-0.471 0.44,-0.447 0.457,-0.414C0.473,-0.381 0.481,-0.342 0.481,-0.296L0.481,-0.212C0.481,-0.166 0.473,-0.126 0.457,-0.094C0.44,-0.061 0.417,-0.036 0.385,-0.019C0.354,-0.001 0.316,0.007 0.272,0.007ZM0.272,-0.058C0.316,-0.058 0.351,-0.072 0.375,-0.098C0.399,-0.125 0.411,-0.163 0.411,-0.212L0.411,-0.296C0.411,-0.344 0.399,-0.382 0.375,-0.409C0.351,-0.435 0.316,-0.449 0.272,-0.449C0.228,-0.449 0.194,-0.435 0.17,-0.409C0.146,-0.382 0.134,-0.344 0.134,-0.296L0.134,-0.212C0.134,-0.163 0.146,-0.125 0.17,-0.098C0.194,-0.072 0.228,-0.058 0.272,-0.058Z" style="fill:rgb(241,230,222);fill-rule:nonzero;"/>
            </g>
            <g transform="matrix(30,0,0,30,104.146,395.271)">
                <path d="M0.093,-0.576C0.093,-0.621 0.102,-0.654 0.122,-0.677C0.141,-0.699 0.17,-0.71 0.209,-0.71L0.292,-0.71L0.292,-0.645L0.221,-0.645C0.202,-0.645 0.187,-0.639 0.177,-0.628C0.168,-0.616 0.163,-0.599 0.163,-0.577L0.163,-0L0.093,-0L0.093,-0.576ZM0.039,-0.507L0.292,-0.507L0.292,-0.446L0.039,-0.446L0.039,-0.507Z" style="fill:rgb(241,230,222);fill-rule:nonzero;"/>
            </g>
            <g transform="matrix(30,0,0,30,113.652,395.271)">
                <path d="M0.093,-0.576C0.093,-0.621 0.102,-0.654 0.122,-0.677C0.141,-0.699 0.17,-0.71 0.209,-0.71L0.292,-0.71L0.292,-0.645L0.221,-0.645C0.202,-0.645 0.187,-0.639 0.177,-0.628C0.168,-0.616 0.163,-0.599 0.163,-0.577L0.163,-0L0.093,-0L0.093,-0.576ZM0.039,-0.507L0.292,-0.507L0.292,-0.446L0.039,-0.446L0.039,-0.507Z" style="fill:rgb(241,230,222);fill-rule:nonzero;"/>
            </g>
        </g>
        <g transform="matrix(1,0,0,1,21.4338,65.4602)">
            <g transform="matrix(48,0,0,48,162.09,202.862)">
                <path d="M0.495,-0.71L0.563,-0.71L0.182,-0L0.114,-0L0.495,-0.71ZM0.52,0.007C0.482,0.007 0.453,-0.004 0.433,-0.026C0.412,-0.048 0.402,-0.078 0.402,-0.118L0.402,-0.179C0.402,-0.218 0.412,-0.249 0.433,-0.271C0.453,-0.293 0.482,-0.304 0.52,-0.304C0.558,-0.304 0.587,-0.293 0.607,-0.271C0.628,-0.249 0.638,-0.218 0.638,-0.178L0.638,-0.118C0.638,-0.078 0.628,-0.047 0.607,-0.025C0.587,-0.004 0.557,0.007 0.52,0.007ZM0.52,-0.051C0.538,-0.051 0.551,-0.056 0.561,-0.067C0.57,-0.078 0.575,-0.093 0.575,-0.113L0.575,-0.185C0.575,-0.204 0.57,-0.219 0.561,-0.229C0.551,-0.24 0.538,-0.245 0.52,-0.245C0.502,-0.245 0.489,-0.24 0.479,-0.229C0.47,-0.219 0.465,-0.204 0.465,-0.184L0.465,-0.113C0.465,-0.093 0.47,-0.077 0.479,-0.067C0.489,-0.056 0.502,-0.051 0.52,-0.051ZM0.167,-0.406C0.129,-0.406 0.1,-0.417 0.08,-0.439C0.059,-0.461 0.049,-0.491 0.049,-0.531L0.049,-0.592C0.049,-0.631 0.059,-0.662 0.08,-0.684C0.1,-0.706 0.129,-0.717 0.167,-0.717C0.205,-0.717 0.234,-0.706 0.254,-0.684C0.275,-0.662 0.285,-0.631 0.285,-0.591L0.285,-0.531C0.285,-0.491 0.275,-0.46 0.254,-0.438C0.233,-0.417 0.204,-0.406 0.167,-0.406ZM0.167,-0.464C0.185,-0.464 0.198,-0.469 0.208,-0.48C0.217,-0.491 0.222,-0.506 0.222,-0.526L0.222,-0.598C0.222,-0.617 0.217,-0.632 0.208,-0.643C0.198,-0.653 0.185,-0.658 0.167,-0.658C0.149,-0.658 0.136,-0.653 0.126,-0.643C0.117,-0.632 0.112,-0.617 0.112,-0.597L0.112,-0.526C0.112,-0.506 0.117,-0.49 0.126,-0.48C0.136,-0.469 0.149,-0.464 0.167,-0.464Z" style="fill:rgb(241,230,222);fill-rule:nonzero;"/>
            </g>
        </g>
        <g transform="matrix(1,0,0,1,90.3996,-20.5571)">
            <g transform="matrix(40.355,0,0,40.355,19.1699,311.7)">
                <path d="M0.276,0.007C0.209,0.007 0.159,-0.01 0.125,-0.046C0.09,-0.081 0.073,-0.131 0.073,-0.194L0.073,-0.517C0.073,-0.581 0.09,-0.63 0.125,-0.666C0.16,-0.701 0.21,-0.719 0.276,-0.719C0.342,-0.719 0.393,-0.701 0.427,-0.666C0.461,-0.631 0.479,-0.581 0.479,-0.517L0.479,-0.194C0.479,-0.131 0.461,-0.081 0.427,-0.046C0.392,-0.01 0.342,0.007 0.276,0.007ZM0.276,-0.058C0.321,-0.058 0.354,-0.07 0.376,-0.094C0.397,-0.117 0.408,-0.151 0.408,-0.194L0.408,-0.517C0.408,-0.561 0.397,-0.595 0.376,-0.618C0.354,-0.642 0.321,-0.653 0.276,-0.653C0.231,-0.653 0.197,-0.642 0.176,-0.618C0.154,-0.595 0.144,-0.561 0.144,-0.517L0.144,-0.194C0.144,-0.151 0.154,-0.117 0.176,-0.094C0.197,-0.07 0.231,-0.058 0.276,-0.058Z" style="fill:rgb(241,230,222);fill-rule:nonzero;"/>
            </g>
        </g>
        <g transform="matrix(1,0,0,1,61.774,-98.0542)">
            <g transform="matrix(40.355,0,0,40.355,13.4358,311.7)">
                <path d="M0.245,-0L0.174,-0L0.174,-0.65L0.044,-0.569L0.044,-0.643L0.145,-0.71L0.245,-0.71L0.245,-0Z" style="fill:rgb(241,230,222);fill-rule:nonzero;"/>
            </g>
            <g transform="matrix(40.355,0,0,40.355,26.8546,311.7)">
                <path d="M0.44,-0.65L0.256,-0L0.18,-0L0.367,-0.645L0.124,-0.645L0.124,-0.513L0.054,-0.513L0.054,-0.71L0.44,-0.71L0.44,-0.65Z" style="fill:rgb(241,230,222);fill-rule:nonzero;"/>
            </g>
        </g>
        <g transform="matrix(1,0,0,1,95.4975,-175.394)">
            <g transform="matrix(40.355,0,0,40.355,8.15498,311.7)">
                <path d="M0.257,0.007C0.217,0.007 0.182,0 0.152,-0.014C0.122,-0.028 0.097,-0.048 0.079,-0.075C0.06,-0.102 0.049,-0.134 0.044,-0.172L0.115,-0.172C0.119,-0.148 0.127,-0.128 0.139,-0.111C0.152,-0.094 0.168,-0.081 0.188,-0.072C0.208,-0.063 0.231,-0.059 0.257,-0.059C0.299,-0.059 0.332,-0.07 0.355,-0.093C0.378,-0.116 0.39,-0.148 0.39,-0.189L0.39,-0.21C0.39,-0.25 0.379,-0.281 0.356,-0.303C0.334,-0.325 0.302,-0.336 0.262,-0.336L0.211,-0.336L0.211,-0.402L0.262,-0.402C0.299,-0.402 0.328,-0.411 0.348,-0.431C0.368,-0.45 0.378,-0.477 0.378,-0.512L0.378,-0.534C0.378,-0.571 0.368,-0.6 0.346,-0.62C0.325,-0.641 0.295,-0.651 0.256,-0.651C0.235,-0.651 0.215,-0.647 0.197,-0.638C0.18,-0.63 0.165,-0.618 0.153,-0.602C0.14,-0.586 0.132,-0.566 0.126,-0.543L0.056,-0.543C0.062,-0.58 0.074,-0.611 0.093,-0.637C0.111,-0.663 0.134,-0.683 0.161,-0.697C0.189,-0.71 0.221,-0.717 0.256,-0.717C0.318,-0.717 0.365,-0.701 0.398,-0.669C0.432,-0.637 0.449,-0.591 0.449,-0.533L0.449,-0.511C0.449,-0.478 0.441,-0.449 0.425,-0.425C0.409,-0.4 0.387,-0.382 0.358,-0.371C0.39,-0.363 0.416,-0.345 0.434,-0.317C0.451,-0.289 0.46,-0.253 0.46,-0.21L0.46,-0.188C0.46,-0.147 0.452,-0.112 0.437,-0.083C0.421,-0.053 0.397,-0.031 0.367,-0.016C0.337,-0 0.3,0.007 0.257,0.007Z" style="fill:rgb(241,230,222);fill-rule:nonzero;"/>
            </g>
            <g transform="matrix(40.355,0,0,40.355,29.4951,311.7)">
                <path d="M0.063,-0.166L0.302,-0.709L0.375,-0.709L0.143,-0.172L0.52,-0.172L0.52,-0.109L0.063,-0.109L0.063,-0.166ZM0.384,-0.417L0.452,-0.417L0.452,0L0.384,0L0.384,-0.417Z" style="fill:rgb(241,230,222);fill-rule:nonzero;"/>
            </g>
        </g>
        <g transform="matrix(1,0,0,1,169.993,-206.435)">
            <g transform="matrix(40.355,0,0,40.355,8.18454,311.7)">
                <path d="M0.271,0.007C0.236,0.007 0.204,0 0.176,-0.014C0.148,-0.028 0.126,-0.048 0.108,-0.075C0.091,-0.101 0.079,-0.133 0.073,-0.171L0.073,-0.171L0.144,-0.171L0.144,-0.171C0.148,-0.135 0.161,-0.108 0.184,-0.088C0.206,-0.069 0.235,-0.059 0.271,-0.059C0.313,-0.059 0.344,-0.071 0.367,-0.094C0.39,-0.116 0.401,-0.149 0.401,-0.191L0.401,-0.294C0.401,-0.335 0.391,-0.366 0.372,-0.388C0.353,-0.41 0.326,-0.421 0.291,-0.421C0.263,-0.421 0.237,-0.414 0.214,-0.399C0.19,-0.385 0.169,-0.364 0.15,-0.336L0.089,-0.336L0.089,-0.71L0.451,-0.71L0.451,-0.645L0.159,-0.645L0.159,-0.431C0.178,-0.449 0.198,-0.463 0.22,-0.473C0.242,-0.483 0.266,-0.487 0.292,-0.487C0.329,-0.487 0.362,-0.48 0.389,-0.465C0.416,-0.449 0.436,-0.427 0.45,-0.399C0.464,-0.37 0.471,-0.335 0.471,-0.294L0.471,-0.191C0.471,-0.149 0.463,-0.114 0.448,-0.084C0.432,-0.054 0.409,-0.031 0.379,-0.016C0.349,-0 0.313,0.007 0.271,0.007Z" style="fill:rgb(241,230,222);fill-rule:nonzero;"/>
            </g>
            <g transform="matrix(40.355,0,0,40.355,30.1552,311.7)">
                <path d="M0.276,0.007C0.209,0.007 0.159,-0.01 0.125,-0.046C0.09,-0.081 0.073,-0.131 0.073,-0.194L0.073,-0.517C0.073,-0.581 0.09,-0.63 0.125,-0.666C0.16,-0.701 0.21,-0.719 0.276,-0.719C0.342,-0.719 0.393,-0.701 0.427,-0.666C0.461,-0.631 0.479,-0.581 0.479,-0.517L0.479,-0.194C0.479,-0.131 0.461,-0.081 0.427,-0.046C0.392,-0.01 0.342,0.007 0.276,0.007ZM0.276,-0.058C0.321,-0.058 0.354,-0.07 0.376,-0.094C0.397,-0.117 0.408,-0.151 0.408,-0.194L0.408,-0.517C0.408,-0.561 0.397,-0.595 0.376,-0.618C0.354,-0.642 0.321,-0.653 0.276,-0.653C0.231,-0.653 0.197,-0.642 0.176,-0.618C0.154,-0.595 0.144,-0.561 0.144,-0.517L0.144,-0.194C0.144,-0.151 0.154,-0.117 0.176,-0.094C0.197,-0.07 0.231,-0.058 0.276,-0.058Z" style="fill:rgb(241,230,222);fill-rule:nonzero;"/>
            </g>
        </g>
        <g transform="matrix(1,0,0,1,242.151,-170.274)">
            <g transform="matrix(40.355,0,0,40.355,9.59342,311.7)">
                <path d="M0.256,0.007C0.215,0.007 0.179,-0.001 0.149,-0.018C0.12,-0.035 0.097,-0.059 0.082,-0.091C0.066,-0.123 0.059,-0.162 0.059,-0.207L0.059,-0.208C0.059,-0.234 0.062,-0.261 0.068,-0.29C0.074,-0.319 0.083,-0.348 0.095,-0.376C0.097,-0.381 0.099,-0.386 0.101,-0.39C0.103,-0.395 0.106,-0.4 0.108,-0.404L0.262,-0.71L0.34,-0.71L0.159,-0.356L0.16,-0.374C0.169,-0.389 0.183,-0.401 0.201,-0.409C0.22,-0.418 0.241,-0.422 0.265,-0.422C0.305,-0.422 0.339,-0.414 0.367,-0.397C0.396,-0.38 0.418,-0.356 0.432,-0.324C0.447,-0.293 0.455,-0.255 0.455,-0.21L0.455,-0.209C0.455,-0.164 0.447,-0.125 0.431,-0.092C0.416,-0.06 0.393,-0.035 0.364,-0.018C0.334,-0.001 0.298,0.007 0.256,0.007ZM0.256,-0.059C0.297,-0.059 0.329,-0.071 0.351,-0.096C0.373,-0.121 0.384,-0.156 0.384,-0.201L0.384,-0.202C0.384,-0.25 0.373,-0.288 0.35,-0.315C0.326,-0.342 0.294,-0.355 0.251,-0.355C0.212,-0.355 0.182,-0.342 0.161,-0.315C0.14,-0.288 0.129,-0.25 0.129,-0.201L0.129,-0.201C0.129,-0.156 0.14,-0.121 0.162,-0.096C0.185,-0.071 0.216,-0.059 0.256,-0.059Z" style="fill:rgb(241,230,222);fill-rule:nonzero;"/>
            </g>
            <g transform="matrix(40.355,0,0,40.355,30.303,311.7)">
                <path d="M0.256,0.007C0.215,0.007 0.179,-0.001 0.149,-0.018C0.12,-0.035 0.097,-0.059 0.082,-0.091C0.066,-0.123 0.059,-0.162 0.059,-0.207L0.059,-0.208C0.059,-0.234 0.062,-0.261 0.068,-0.29C0.074,-0.319 0.083,-0.348 0.095,-0.376C0.097,-0.381 0.099,-0.386 0.101,-0.39C0.103,-0.395 0.106,-0.4 0.108,-0.404L0.262,-0.71L0.34,-0.71L0.159,-0.356L0.16,-0.374C0.169,-0.389 0.183,-0.401 0.201,-0.409C0.22,-0.418 0.241,-0.422 0.265,-0.422C0.305,-0.422 0.339,-0.414 0.367,-0.397C0.396,-0.38 0.418,-0.356 0.432,-0.324C0.447,-0.293 0.455,-0.255 0.455,-0.21L0.455,-0.209C0.455,-0.164 0.447,-0.125 0.431,-0.092C0.416,-0.06 0.393,-0.035 0.364,-0.018C0.334,-0.001 0.298,0.007 0.256,0.007ZM0.256,-0.059C0.297,-0.059 0.329,-0.071 0.351,-0.096C0.373,-0.121 0.384,-0.156 0.384,-0.201L0.384,-0.202C0.384,-0.25 0.373,-0.288 0.35,-0.315C0.326,-0.342 0.294,-0.355 0.251,-0.355C0.212,-0.355 0.182,-0.342 0.161,-0.315C0.14,-0.288 0.129,-0.25 0.129,-0.201L0.129,-0.201C0.129,-0.156 0.14,-0.121 0.162,-0.096C0.185,-0.071 0.216,-0.059 0.256,-0.059Z" style="fill:rgb(241,230,222);fill-rule:nonzero;"/>
            </g>
        </g>
        <g transform="matrix(1,0,0,1,274.066,-98.2512)">
            <g transform="matrix(40.355,0,0,40.355,8.28306,311.7)">
                <path d="M0.281,0.007C0.236,0.007 0.197,-0 0.165,-0.016C0.133,-0.031 0.108,-0.053 0.091,-0.082C0.074,-0.111 0.066,-0.146 0.066,-0.188L0.066,-0.194C0.066,-0.232 0.074,-0.266 0.092,-0.296C0.109,-0.326 0.133,-0.349 0.164,-0.366C0.137,-0.382 0.117,-0.404 0.102,-0.431C0.088,-0.458 0.081,-0.488 0.081,-0.521L0.081,-0.528C0.081,-0.568 0.088,-0.602 0.104,-0.63C0.12,-0.659 0.143,-0.68 0.173,-0.695C0.203,-0.71 0.239,-0.717 0.281,-0.717C0.324,-0.717 0.36,-0.71 0.39,-0.695C0.42,-0.68 0.442,-0.659 0.458,-0.63C0.474,-0.602 0.482,-0.568 0.482,-0.528L0.482,-0.521C0.482,-0.487 0.475,-0.456 0.46,-0.429C0.445,-0.403 0.424,-0.382 0.397,-0.366C0.429,-0.349 0.453,-0.325 0.471,-0.295C0.488,-0.265 0.497,-0.232 0.497,-0.194L0.497,-0.188C0.497,-0.146 0.488,-0.111 0.471,-0.082C0.454,-0.053 0.43,-0.031 0.397,-0.016C0.365,-0 0.326,0.007 0.281,0.007ZM0.281,-0.057C0.312,-0.057 0.337,-0.062 0.359,-0.073C0.38,-0.083 0.396,-0.099 0.407,-0.119C0.419,-0.139 0.424,-0.164 0.424,-0.192L0.424,-0.194C0.424,-0.223 0.419,-0.247 0.407,-0.268C0.396,-0.288 0.38,-0.304 0.359,-0.314C0.337,-0.325 0.312,-0.331 0.281,-0.331C0.251,-0.331 0.225,-0.325 0.204,-0.314C0.183,-0.304 0.166,-0.288 0.155,-0.268C0.144,-0.247 0.138,-0.223 0.138,-0.194L0.138,-0.191C0.138,-0.163 0.144,-0.139 0.155,-0.119C0.166,-0.098 0.183,-0.083 0.204,-0.073C0.225,-0.062 0.251,-0.057 0.281,-0.057ZM0.281,-0.392C0.309,-0.392 0.333,-0.397 0.353,-0.407C0.373,-0.418 0.388,-0.433 0.398,-0.452C0.409,-0.472 0.414,-0.496 0.414,-0.524L0.414,-0.531C0.414,-0.557 0.409,-0.579 0.398,-0.597C0.388,-0.615 0.373,-0.629 0.353,-0.639C0.333,-0.649 0.309,-0.653 0.281,-0.653C0.253,-0.653 0.229,-0.649 0.209,-0.639C0.19,-0.629 0.174,-0.615 0.164,-0.597C0.154,-0.579 0.148,-0.556 0.148,-0.53L0.148,-0.523C0.148,-0.495 0.154,-0.472 0.164,-0.452C0.174,-0.433 0.19,-0.418 0.209,-0.407C0.229,-0.397 0.253,-0.392 0.281,-0.392Z" style="fill:rgb(241,230,222);fill-rule:nonzero;"/>
            </g>
            <g transform="matrix(40.355,0,0,40.355,30.9828,311.7)">
                <path d="M0.257,0.007C0.217,0.007 0.182,0 0.152,-0.014C0.122,-0.028 0.097,-0.048 0.079,-0.075C0.06,-0.102 0.049,-0.134 0.044,-0.172L0.115,-0.172C0.119,-0.148 0.127,-0.128 0.139,-0.111C0.152,-0.094 0.168,-0.081 0.188,-0.072C0.208,-0.063 0.231,-0.059 0.257,-0.059C0.299,-0.059 0.332,-0.07 0.355,-0.093C0.378,-0.116 0.39,-0.148 0.39,-0.189L0.39,-0.21C0.39,-0.25 0.379,-0.281 0.356,-0.303C0.334,-0.325 0.302,-0.336 0.262,-0.336L0.211,-0.336L0.211,-0.402L0.262,-0.402C0.299,-0.402 0.328,-0.411 0.348,-0.431C0.368,-0.45 0.378,-0.477 0.378,-0.512L0.378,-0.534C0.378,-0.571 0.368,-0.6 0.346,-0.62C0.325,-0.641 0.295,-0.651 0.256,-0.651C0.235,-0.651 0.215,-0.647 0.197,-0.638C0.18,-0.63 0.165,-0.618 0.153,-0.602C0.14,-0.586 0.132,-0.566 0.126,-0.543L0.056,-0.543C0.062,-0.58 0.074,-0.611 0.093,-0.637C0.111,-0.663 0.134,-0.683 0.161,-0.697C0.189,-0.71 0.221,-0.717 0.256,-0.717C0.318,-0.717 0.365,-0.701 0.398,-0.669C0.432,-0.637 0.449,-0.591 0.449,-0.533L0.449,-0.511C0.449,-0.478 0.441,-0.449 0.425,-0.425C0.409,-0.4 0.387,-0.382 0.358,-0.371C0.39,-0.363 0.416,-0.345 0.434,-0.317C0.451,-0.289 0.46,-0.253 0.46,-0.21L0.46,-0.188C0.46,-0.147 0.452,-0.112 0.437,-0.083C0.421,-0.053 0.397,-0.031 0.367,-0.016C0.337,-0 0.3,0.007 0.257,0.007Z" style="fill:rgb(241,230,222);fill-rule:nonzero;"/>
            </g>
        </g>
        <g transform="matrix(1,0,0,1,234.347,-23.0356)">
            <g transform="matrix(40.355,0,0,40.355,1.72143,311.7)">
                <path d="M0.245,-0L0.174,-0L0.174,-0.65L0.044,-0.569L0.044,-0.643L0.145,-0.71L0.245,-0.71L0.245,-0Z" style="fill:rgb(240,56,19);fill-rule:nonzero;"/>
            </g>
            <g transform="matrix(40.355,0,0,40.355,15.1403,311.7)">
                <path d="M0.276,0.007C0.209,0.007 0.159,-0.01 0.125,-0.046C0.09,-0.081 0.073,-0.131 0.073,-0.194L0.073,-0.517C0.073,-0.581 0.09,-0.63 0.125,-0.666C0.16,-0.701 0.21,-0.719 0.276,-0.719C0.342,-0.719 0.393,-0.701 0.427,-0.666C0.461,-0.631 0.479,-0.581 0.479,-0.517L0.479,-0.194C0.479,-0.131 0.461,-0.081 0.427,-0.046C0.392,-0.01 0.342,0.007 0.276,0.007ZM0.276,-0.058C0.321,-0.058 0.354,-0.07 0.376,-0.094C0.397,-0.117 0.408,-0.151 0.408,-0.194L0.408,-0.517C0.408,-0.561 0.397,-0.595 0.376,-0.618C0.354,-0.642 0.321,-0.653 0.276,-0.653C0.231,-0.653 0.197,-0.642 0.176,-0.618C0.154,-0.595 0.144,-0.561 0.144,-0.517L0.144,-0.194C0.144,-0.151 0.154,-0.117 0.176,-0.094C0.197,-0.07 0.231,-0.058 0.276,-0.058Z" style="fill:rgb(240,56,19);fill-rule:nonzero;"/>
            </g>
            <g transform="matrix(40.355,0,0,40.355,36.6183,311.7)">
                <path d="M0.276,0.007C0.209,0.007 0.159,-0.01 0.125,-0.046C0.09,-0.081 0.073,-0.131 0.073,-0.194L0.073,-0.517C0.073,-0.581 0.09,-0.63 0.125,-0.666C0.16,-0.701 0.21,-0.719 0.276,-0.719C0.342,-0.719 0.393,-0.701 0.427,-0.666C0.461,-0.631 0.479,-0.581 0.479,-0.517L0.479,-0.194C0.479,-0.131 0.461,-0.081 0.427,-0.046C0.392,-0.01 0.342,0.007 0.276,0.007ZM0.276,-0.058C0.321,-0.058 0.354,-0.07 0.376,-0.094C0.397,-0.117 0.408,-0.151 0.408,-0.194L0.408,-0.517C0.408,-0.561 0.397,-0.595 0.376,-0.618C0.354,-0.642 0.321,-0.653 0.276,-0.653C0.231,-0.653 0.197,-0.642 0.176,-0.618C0.154,-0.595 0.144,-0.561 0.144,-0.517L0.144,-0.194C0.144,-0.151 0.154,-0.117 0.176,-0.094C0.197,-0.07 0.231,-0.058 0.276,-0.058Z" style="fill:rgb(240,56,19);fill-rule:nonzero;"/>
            </g>
        </g>
    </g>
    <g id="Small-lines" serif:id="Small lines" transform="matrix(1.26563,0,0,1.26563,-53.4259,17.4124)">
        <path d="M291.18,238.499C316.753,213.819 331.197,179.806 331.197,144.266C331.197,71.988 272.516,13.307 200.237,13.307C127.958,13.307 69.277,71.988 69.277,144.266C69.277,191.945 95.19,235.856 136.926,258.906L145.157,244.003C108.846,223.95 86.302,185.747 86.302,144.266C86.302,81.384 137.355,30.331 200.237,30.331C263.119,30.331 314.172,81.384 314.172,144.266C314.172,175.186 301.606,204.777 279.357,226.249L291.18,238.499Z" style="fill:none;"/>
        <clipPath id="_clip1">
            <path d="M291.18,238.499C316.753,213.819 331.197,179.806 331.197,144.266C331.197,71.988 272.516,13.307 200.237,13.307C127.958,13.307 69.277,71.988 69.277,144.266C69.277,191.945 95.19,235.856 136.926,258.906L145.157,244.003C108.846,223.95 86.302,185.747 86.302,144.266C86.302,81.384 137.355,30.331 200.237,30.331C263.119,30.331 314.172,81.384 314.172,144.266C314.172,175.186 301.606,204.777 279.357,226.249L291.18,238.499Z"/>
        </clipPath>
        <g clip-path="url(#_clip1)">
            <g transform="matrix(0.790121,0,0,0.790121,42.2129,-13.7579)">
                <g transform="matrix(0.206673,0,0,1.02927,159.693,-11.7077)">
                    <rect x="190.187" y="11.375" width="19.448" height="388.625" style="fill:rgb(241,230,222);"/>
                </g>
                <g transform="matrix(0.14614,0.14614,-0.727803,0.727803,321.495,21.0851)">
                    <rect x="190.187" y="11.375" width="19.448" height="388.625" style="fill:rgb(241,230,222);"/>
                </g>
                <g transform="matrix(-0.14614,0.14614,-0.727803,-0.727803,379.925,320.485)">
                    <rect x="190.187" y="11.375" width="19.448" height="388.625" style="fill:rgb(241,230,222);"/>
                </g>
                <g transform="matrix(0,0.206673,-1.02927,0,412.717,158.684)">
                    <rect x="190.187" y="11.375" width="19.448" height="388.625" style="fill:rgb(241,230,222);"/>
                </g>
                <g transform="matrix(0.206033,0.0162602,-0.0809787,1.02608,176.478,-14.302)">
                    <rect x="190.187" y="11.375" width="19.448" height="388.625" style="fill:rgb(241,230,222);"/>
                </g>
                <g transform="matrix(0.134189,0.157185,-0.782808,0.668287,335.197,31.119)">
                    <rect x="190.187" y="11.375" width="19.448" height="388.625" style="fill:rgb(241,230,222);"/>
                </g>
                <g transform="matrix(-0.157185,0.134189,-0.668287,-0.782808,369.891,334.188)">
                    <rect x="190.187" y="11.375" width="19.448" height="388.625" style="fill:rgb(241,230,222);"/>
                </g>
                <g transform="matrix(-0.0162602,0.206033,-1.02608,-0.0809787,415.312,175.468)">
                    <rect x="190.187" y="11.375" width="19.448" height="388.625" style="fill:rgb(241,230,222);"/>
                </g>
                <g transform="matrix(0.204115,0.0324196,-0.161455,1.01653,193.414,-15.5678)">
                    <rect x="190.187" y="11.375" width="19.448" height="388.625" style="fill:rgb(241,230,222);"/>
                </g>
                <g transform="matrix(0.121407,0.167255,-0.832959,0.604627,348.068,42.1998)">
                    <rect x="190.187" y="11.375" width="19.448" height="388.625" style="fill:rgb(241,230,222);"/>
                </g>
                <g transform="matrix(-0.167255,0.121407,-0.604627,-0.832959,358.81,347.059)">
                    <rect x="190.187" y="11.375" width="19.448" height="388.625" style="fill:rgb(241,230,222);"/>
                </g>
                <g transform="matrix(-0.0324196,0.204115,-1.01653,-0.161455,416.577,192.405)">
                    <rect x="190.187" y="11.375" width="19.448" height="388.625" style="fill:rgb(241,230,222);"/>
                </g>
                <g transform="matrix(0.200932,0.0483781,-0.240931,1.00067,210.398,-15.4971)">
                    <rect x="190.187" y="11.375" width="19.448" height="388.625" style="fill:rgb(241,230,222);"/>
                </g>
                <g transform="matrix(0.107872,0.176289,-0.877947,0.537219,360.028,54.2589)">
                    <rect x="190.187" y="11.375" width="19.448" height="388.625" style="fill:rgb(241,230,222);"/>
                </g>
                <g transform="matrix(-0.176289,0.107872,-0.537219,-0.877947,346.751,359.018)">
                    <rect x="190.187" y="11.375" width="19.448" height="388.625" style="fill:rgb(241,230,222);"/>
                </g>
                <g transform="matrix(-0.0483781,0.200932,-1.00067,-0.240931,416.507,209.388)">
                    <rect x="190.187" y="11.375" width="19.448" height="388.625" style="fill:rgb(241,230,222);"/>
                </g>
                <g transform="matrix(0.196503,0.0640366,-0.318913,0.978616,227.323,-14.0905)">
                    <rect x="190.187" y="11.375" width="19.448" height="388.625" style="fill:rgb(241,230,222);"/>
                </g>
                <g transform="matrix(0.0936676,0.184229,-0.917492,0.46648,371.001,67.2216)">
                    <rect x="190.187" y="11.375" width="19.448" height="388.625" style="fill:rgb(241,230,222);"/>
                </g>
                <g transform="matrix(-0.184229,0.0936676,-0.46648,-0.917492,333.788,369.991)">
                    <rect x="190.187" y="11.375" width="19.448" height="388.625" style="fill:rgb(241,230,222);"/>
                </g>
                <g transform="matrix(-0.0640366,0.196503,-0.978616,-0.318913,415.1,226.313)">
                    <rect x="190.187" y="11.375" width="19.448" height="388.625" style="fill:rgb(241,230,222);"/>
                </g>
                <g transform="matrix(0.190855,0.0792981,-0.394918,0.950492,244.085,-11.3567)">
                    <rect x="190.187" y="11.375" width="19.448" height="388.625" style="fill:rgb(241,230,222);"/>
                </g>
                <g transform="matrix(0.0788828,0.191027,-0.951348,0.39285,380.921,81.0074)">
                    <rect x="190.187" y="11.375" width="19.448" height="388.625" style="fill:rgb(241,230,222);"/>
                </g>
                <g transform="matrix(-0.191027,0.0788828,-0.39285,-0.951348,320.002,379.911)">
                    <rect x="190.187" y="11.375" width="19.448" height="388.625" style="fill:rgb(241,230,222);"/>
                </g>
                <g transform="matrix(-0.0792981,0.190855,-0.950492,-0.394918,412.366,243.076)">
                    <rect x="190.187" y="11.375" width="19.448" height="388.625" style="fill:rgb(241,230,222);"/>
                </g>
                <g transform="matrix(0.184025,0.094068,-0.468475,0.916475,260.581,-7.31251)">
                    <rect x="190.187" y="11.375" width="19.448" height="388.625" style="fill:rgb(241,230,222);"/>
                </g>
                <g transform="matrix(0.0636091,0.196641,-0.979307,0.316784,389.725,95.5309)">
                    <rect x="190.187" y="11.375" width="19.448" height="388.625" style="fill:rgb(241,230,222);"/>
                </g>
                <g transform="matrix(-0.196641,0.0636091,-0.316784,-0.979307,305.479,388.715)">
                    <rect x="190.187" y="11.375" width="19.448" height="388.625" style="fill:rgb(241,230,222);"/>
                </g>
                <g transform="matrix(-0.094068,0.184025,-0.916475,-0.468475,408.322,259.571)">
                    <rect x="190.187" y="11.375" width="19.448" height="388.625" style="fill:rgb(241,230,222);"/>
                </g>
                <path id="off_line" d="M270.034,93.59C270.881,94.71 271.792,95.762 272.76,96.741L91.193,367.165L87.856,364.925L270.034,93.59ZM304.554,42.177L310.827,32.835L314.164,35.075L307.867,44.453C306.812,43.612 305.705,42.852 304.554,42.177Z" style="fill:rgb(241,230,222);"/>
                <g transform="matrix(0.047941,0.201036,-1.00119,0.238754,397.359,110.702)">
                    <rect x="190.187" y="11.375" width="19.448" height="388.625" style="fill:rgb(241,230,222);"/>
                </g>
                <g transform="matrix(-0.201036,0.047941,-0.238754,-1.00119,290.308,396.349)">
                    <rect x="190.187" y="11.375" width="19.448" height="388.625" style="fill:rgb(241,230,222);"/>
                </g>
                <g transform="matrix(-0.108255,0.176054,-0.876777,-0.539127,402.993,275.697)">
                    <rect x="190.187" y="11.375" width="19.448" height="388.625" style="fill:rgb(241,230,222);"/>
                </g>
                <g transform="matrix(0.0319757,0.204185,-1.01688,0.159244,403.776,126.427)">
                    <rect x="190.187" y="11.375" width="19.448" height="388.625" style="fill:rgb(241,230,222);"/>
                </g>
                <g transform="matrix(-0.204185,0.0319757,-0.159244,-1.01688,274.583,402.766)">
                    <rect x="190.187" y="11.375" width="19.448" height="388.625" style="fill:rgb(241,230,222);"/>
                </g>
                <g transform="matrix(-0.12177,0.166991,-0.831642,-0.606437,396.411,291.353)">
                    <rect x="190.187" y="11.375" width="19.448" height="388.625" style="fill:rgb(241,230,222);"/>
                </g>
                <g transform="matrix(0.0158121,0.206068,-1.02625,0.0787471,408.936,142.608)">
                    <rect x="190.187" y="11.375" width="19.448" height="388.625" style="fill:rgb(241,230,222);"/>
                </g>
                <g transform="matrix(-0.206068,0.0158121,-0.0787471,-1.02625,258.402,407.926)">
                    <rect x="190.187" y="11.375" width="19.448" height="388.625" style="fill:rgb(241,230,222);"/>
                </g>
                <g transform="matrix(-0.134531,0.156893,-0.781353,-0.669987,388.618,306.443)">
                    <rect x="190.187" y="11.375" width="19.448" height="388.625" style="fill:rgb(241,230,222);"/>
                </g>
                <path d="M90.629,347.961C91.232,349.348 91.925,350.679 92.699,351.944L84.795,362.783L81.548,360.415L90.629,347.961ZM122.691,303.992L317.224,37.217L320.472,39.585L126.662,305.368C125.381,304.807 124.055,304.345 122.691,303.992Z" style="fill:rgb(241,230,222);"/>
                <path d="M100.129,360.225C101.199,361.041 102.323,361.777 103.493,362.427L97.962,371.421L94.539,369.316L100.129,360.225ZM131.965,308.45L304.057,28.579L307.481,30.684L135.057,311.094C134.084,310.138 133.052,309.254 131.965,308.45Z" style="fill:rgb(241,230,222);"/>
                <path d="M88.421,328.216C88.05,330.232 87.856,332.32 87.856,334.458C87.856,334.653 87.857,334.847 87.861,335.044L72.348,353.135L69.297,350.519L88.421,328.216ZM109.029,304.182L329.671,46.865L332.722,49.481L115.175,303.189C113.059,303.273 111.001,303.613 109.029,304.182Z" style="fill:rgb(241,230,222);"/>
            </g>
        </g>
    </g>
    <g id="Medium-lines" serif:id="Medium lines" transform="matrix(1.26563,0,0,1.26563,-53.4259,17.4124)">
        <path d="M287.866,241.588C315.448,216.753 331.197,181.381 331.197,144.266C331.197,71.988 272.516,13.307 200.237,13.307C127.958,13.307 69.277,71.988 69.277,144.266C69.277,181.381 85.026,216.753 112.608,241.588L128.381,224.07C105.764,203.706 92.85,174.701 92.85,144.266C92.85,84.998 140.969,36.879 200.237,36.879C259.506,36.879 307.624,84.998 307.624,144.266C307.624,174.701 294.71,203.706 272.093,224.07L287.866,241.588Z" style="fill:none;"/>
        <clipPath id="_clip2">
            <path d="M287.866,241.588C315.448,216.753 331.197,181.381 331.197,144.266C331.197,71.988 272.516,13.307 200.237,13.307C127.958,13.307 69.277,71.988 69.277,144.266C69.277,181.381 85.026,216.753 112.608,241.588L128.381,224.07C105.764,203.706 92.85,174.701 92.85,144.266C92.85,84.998 140.969,36.879 200.237,36.879C259.506,36.879 307.624,84.998 307.624,144.266C307.624,174.701 294.71,203.706 272.093,224.07L287.866,241.588Z"/>
        </clipPath>
        <g clip-path="url(#_clip2)">
            <g transform="matrix(0.790121,0,0,0.790121,42.2129,-13.7579)">
                <g transform="matrix(0.206673,0,0,1.02927,159.693,-11.7077)">
                    <rect x="190.187" y="11.375" width="19.448" height="388.625" style="fill:rgb(241,230,222);"/>
                </g>
                <g transform="matrix(0.14614,0.14614,-0.727803,0.727803,321.495,21.0851)">
                    <rect x="190.187" y="11.375" width="19.448" height="388.625" style="fill:rgb(241,230,222);"/>
                </g>
                <g transform="matrix(0,0.206673,-1.02927,0,412.717,158.684)">
                    <rect x="190.187" y="11.375" width="19.448" height="388.625" style="fill:rgb(241,230,222);"/>
                </g>
                <g transform="matrix(0.204115,0.0324196,-0.161455,1.01653,193.414,-15.5678)">
                    <rect x="190.187" y="11.375" width="19.448" height="388.625" style="fill:rgb(241,230,222);"/>
                </g>
                <g transform="matrix(0.121407,0.167255,-0.832959,0.604627,348.068,42.1998)">
                    <rect x="190.187" y="11.375" width="19.448" height="388.625" style="fill:rgb(241,230,222);"/>
                </g>
                <g transform="matrix(-0.167255,0.121407,-0.604627,-0.832959,358.81,347.059)">
                    <rect x="190.187" y="11.375" width="19.448" height="388.625" style="fill:rgb(241,230,222);"/>
                </g>
                <g transform="matrix(-0.0324196,0.204115,-1.01653,-0.161455,416.577,192.405)">
                    <rect x="190.187" y="11.375" width="19.448" height="388.625" style="fill:rgb(241,230,222);"/>
                </g>
                <g transform="matrix(0.196503,0.0640366,-0.318913,0.978616,227.323,-14.0905)">
                    <rect x="190.187" y="11.375" width="19.448" height="388.625" style="fill:rgb(241,230,222);"/>
                </g>
                <g transform="matrix(0.0936676,0.184229,-0.917492,0.46648,371.001,67.2216)">
                    <rect x="190.187" y="11.375" width="19.448" height="388.625" style="fill:rgb(241,230,222);"/>
                </g>
                <g transform="matrix(-0.184229,0.0936676,-0.46648,-0.917492,333.788,369.991)">
                    <rect x="190.187" y="11.375" width="19.448" height="388.625" style="fill:rgb(241,230,222);"/>
                </g>
                <g transform="matrix(-0.0640366,0.196503,-0.978616,-0.318913,415.1,226.313)">
                    <rect x="190.187" y="11.375" width="19.448" height="388.625" style="fill:rgb(241,230,222);"/>
                </g>
                <g transform="matrix(0.184025,0.094068,-0.468475,0.916475,260.581,-7.31251)">
                    <rect x="190.187" y="11.375" width="19.448" height="388.625" style="fill:rgb(241,230,222);"/>
                </g>
                <g transform="matrix(0.0636091,0.196641,-0.979307,0.316784,389.725,95.5309)">
                    <rect x="190.187" y="11.375" width="19.448" height="388.625" style="fill:rgb(241,230,222);"/>
                </g>
                <g transform="matrix(-0.196641,0.0636091,-0.316784,-0.979307,305.479,388.715)">
                    <rect x="190.187" y="11.375" width="19.448" height="388.625" style="fill:rgb(241,230,222);"/>
                </g>
                <g transform="matrix(-0.094068,0.184025,-0.916475,-0.468475,408.322,259.571)">
                    <rect x="190.187" y="11.375" width="19.448" height="388.625" style="fill:rgb(241,230,222);"/>
                </g>
                <g transform="matrix(0.166991,0.12177,-0.606437,0.831642,292.363,4.5985)">
                    <rect x="190.187" y="11.375" width="19.448" height="388.625" style="fill:rgb(241,230,222);"/>
                </g>
                <g transform="matrix(0.0319757,0.204185,-1.01688,0.159244,403.776,126.427)">
                    <rect x="190.187" y="11.375" width="19.448" height="388.625" style="fill:rgb(241,230,222);"/>
                </g>
                <g transform="matrix(-0.204185,0.0319757,-0.159244,-1.01688,274.583,402.766)">
                    <rect x="190.187" y="11.375" width="19.448" height="388.625" style="fill:rgb(241,230,222);"/>
                </g>
                <g transform="matrix(-0.12177,0.166991,-0.831642,-0.606437,396.411,291.353)">
                    <rect x="190.187" y="11.375" width="19.448" height="388.625" style="fill:rgb(241,230,222);"/>
                </g>
                <g transform="matrix(-0.14614,0.14614,-0.727803,-0.727803,379.925,320.485)">
                    <rect x="190.187" y="11.375" width="19.448" height="388.625" style="fill:rgb(241,230,222);"/>
                </g>
                <path d="M143.839,139.987L343.852,340L341.01,342.842L138.155,139.987L143.839,139.987Z" style="fill:rgb(240,56,19);"/>
            </g>
        </g>
    </g>
    <g id="Big-lines" serif:id="Big lines" transform="matrix(1.13268,0,0,1.13268,-26.8051,36.592)">
        <path d="M284.416,244.587C314.07,219.704 331.197,182.977 331.197,144.266C331.197,71.988 272.516,13.307 200.237,13.307C127.958,13.307 69.277,71.988 69.277,144.266C69.277,184.579 87.843,222.645 119.61,247.464L129.285,235.08C101.331,213.24 84.992,179.741 84.992,144.266C84.992,80.661 136.632,29.022 200.237,29.022C263.842,29.022 315.482,80.661 315.482,144.266C315.482,178.332 300.41,210.652 274.315,232.549L284.416,244.587Z" style="fill:none;"/>
        <clipPath id="_clip3">
            <path d="M284.416,244.587C314.07,219.704 331.197,182.977 331.197,144.266C331.197,71.988 272.516,13.307 200.237,13.307C127.958,13.307 69.277,71.988 69.277,144.266C69.277,184.579 87.843,222.645 119.61,247.464L129.285,235.08C101.331,213.24 84.992,179.741 84.992,144.266C84.992,80.661 136.632,29.022 200.237,29.022C263.842,29.022 315.482,80.661 315.482,144.266C315.482,178.332 300.41,210.652 274.315,232.549L284.416,244.587Z"/>
        </clipPath>
        <g clip-path="url(#_clip3)">
            <g transform="matrix(0.790121,0,0,0.790121,42.2129,-13.7579)">
                <g transform="matrix(0.668488,0,0,1.15008,67.4905,-36.5563)">
                    <rect x="190.187" y="11.375" width="19.448" height="388.625" style="fill:rgb(241,230,222);"/>
                </g>
                <g transform="matrix(-0.472692,0.472692,-0.813227,-0.813227,462.895,272.774)">
                    <rect x="190.187" y="11.375" width="19.448" height="388.625" style="fill:rgb(241,230,222);"/>
                </g>
                <g transform="matrix(-1.11737,1.36839e-16,-1.36839e-16,-1.11737,425.731,423.475)">
                    <path d="M328.065,318.828L346.545,337.308L338.317,345.535L318.72,325.937C322.382,324.216 325.572,321.778 328.065,318.828ZM291.174,281.937C287.688,283.915 284.717,286.572 282.487,289.704L55.475,62.692L63.702,54.465L291.174,281.937Z" style="fill:rgb(240,56,19);"/>
                </g>
                <g transform="matrix(0.472692,0.472692,-0.813227,0.813227,273.903,-61.7667)">
                    <rect x="190.187" y="11.375" width="19.448" height="388.625" style="fill:rgb(241,230,222);"/>
                </g>
                <g transform="matrix(0,0.668488,-1.15008,0,437.685,66.3623)">
                    <rect x="190.187" y="11.375" width="19.448" height="388.625" style="fill:rgb(241,230,222);"/>
                </g>
            </g>
        </g>
    </g>
</svg>
