<?xml version="1.0" encoding="UTF-8" standalone="no"?>
<!DOCTYPE svg PUBLIC "-//W3C//DTD SVG 1.1//EN" "http://www.w3.org/Graphics/SVG/1.1/DTD/svg11.dtd">
<svg width="100%" height="100%" viewBox="0 0 400 400" version="1.1" xmlns="http://www.w3.org/2000/svg" xmlns:xlink="http://www.w3.org/1999/xlink" xml:space="preserve" xmlns:serif="http://www.serif.com/" style="fill-rule:evenodd;clip-rule:evenodd;stroke-linejoin:round;stroke-miterlimit:2;">
    <g id="Danger-zones" serif:id="Danger zones">
        <g transform="matrix(1.26563,0,0,1.26563,-53.4259,17.4124)">
            <path d="M108.121,237.352C113.919,243.091 120.242,248.275 127.005,252.837L136.525,238.723C130.641,234.754 125.141,230.244 120.096,225.251L108.121,237.352Z" style="fill:rgb(240,56,19);"/>
        </g>
        <g transform="matrix(1.26563,0,0,1.26563,-53.4259,17.4124)">
            <path d="M292.678,237.03C317.336,212.458 331.197,179.078 331.197,144.266L314.172,144.266C314.172,174.553 302.113,203.593 280.66,224.971L292.678,237.03Z" style="fill:rgb(240,56,19);"/>
        </g>
    </g>
    <g id="Labels">
        <g transform="matrix(1,0,0,1,-50.1023,4.90047)">
            <g transform="matrix(0.970502,0.241092,-0.241092,0.970502,91.1538,-37.8854)">
                <g transform="matrix(30,0,0,30,200.4,353.568)">
                    <path d="M0.139,-0.341L0.366,-0.341C0.394,-0.341 0.418,-0.347 0.439,-0.36C0.461,-0.373 0.477,-0.39 0.489,-0.413C0.5,-0.436 0.506,-0.462 0.506,-0.492C0.506,-0.522 0.5,-0.549 0.489,-0.572C0.477,-0.595 0.461,-0.613 0.439,-0.625C0.418,-0.638 0.394,-0.645 0.366,-0.645L0.139,-0.645L0.139,-0.71L0.363,-0.71C0.405,-0.71 0.442,-0.701 0.475,-0.683C0.507,-0.665 0.532,-0.639 0.55,-0.606C0.567,-0.574 0.576,-0.535 0.576,-0.492C0.576,-0.449 0.567,-0.411 0.55,-0.379C0.532,-0.346 0.507,-0.321 0.475,-0.302C0.442,-0.284 0.405,-0.275 0.363,-0.275L0.139,-0.275L0.139,-0.341ZM0.088,-0.71L0.158,-0.71L0.158,-0L0.088,-0L0.088,-0.71Z" style="fill:rgb(241,230,222);fill-rule:nonzero;"/>
                </g>
            </g>
            <g transform="matrix(0.991077,0.13329,-0.13329,0.991077,49.6747,-25.8947)">
                <g transform="matrix(30,0,0,30,218.244,358.07)">
                    <path d="M0.323,0.007C0.27,0.007 0.225,-0.003 0.188,-0.023C0.15,-0.044 0.122,-0.074 0.103,-0.113C0.083,-0.152 0.073,-0.199 0.073,-0.254L0.073,-0.456C0.073,-0.511 0.083,-0.558 0.103,-0.597C0.122,-0.636 0.15,-0.666 0.188,-0.687C0.225,-0.707 0.27,-0.717 0.323,-0.717C0.375,-0.717 0.42,-0.707 0.458,-0.687C0.495,-0.666 0.523,-0.636 0.543,-0.597C0.563,-0.558 0.572,-0.511 0.572,-0.456L0.572,-0.254C0.572,-0.199 0.563,-0.152 0.543,-0.113C0.523,-0.074 0.495,-0.044 0.458,-0.023C0.42,-0.003 0.375,0.007 0.323,0.007ZM0.323,-0.058C0.361,-0.058 0.393,-0.066 0.42,-0.081C0.447,-0.096 0.467,-0.118 0.481,-0.147C0.495,-0.176 0.502,-0.21 0.502,-0.251L0.502,-0.459C0.502,-0.5 0.495,-0.534 0.481,-0.563C0.467,-0.592 0.447,-0.614 0.42,-0.629C0.393,-0.644 0.361,-0.652 0.323,-0.652C0.285,-0.652 0.253,-0.644 0.226,-0.629C0.199,-0.614 0.179,-0.592 0.165,-0.563C0.151,-0.534 0.144,-0.5 0.144,-0.459L0.144,-0.251C0.144,-0.21 0.151,-0.176 0.165,-0.147C0.179,-0.118 0.199,-0.096 0.226,-0.081C0.253,-0.066 0.285,-0.058 0.323,-0.058Z" style="fill:rgb(241,230,222);fill-rule:nonzero;"/>
                </g>
            </g>
            <g transform="matrix(1,-0.000396422,0.000396422,1,-0.143031,0.0941663)">
                <g transform="matrix(30,0,0,30,237.469,360.851)">
                    <path d="M0.399,-0.71L0.448,-0.71L0.603,-0.1L0.753,-0.71L0.832,-0.71L0.639,-0L0.567,-0L0.426,-0.56L0.28,-0L0.208,-0L0.015,-0.71L0.094,-0.71L0.244,-0.1L0.399,-0.71Z" style="fill:rgb(241,230,222);fill-rule:nonzero;"/>
                </g>
            </g>
            <g transform="matrix(0.991024,-0.133681,0.133681,0.991024,-45.847,38.3998)">
                <g transform="matrix(30,0,0,30,263.037,360.619)">
                    <path d="M0.088,-0.71L0.158,-0.71L0.158,-0L0.088,-0L0.088,-0.71ZM0.136,-0.065L0.544,-0.065L0.544,-0L0.136,-0L0.136,-0.065ZM0.136,-0.385L0.49,-0.385L0.49,-0.32L0.136,-0.32L0.136,-0.385ZM0.136,-0.71L0.544,-0.71L0.544,-0.645L0.136,-0.645L0.136,-0.71Z" style="fill:rgb(241,230,222);fill-rule:nonzero;"/>
                </g>
            </g>
            <g transform="matrix(0.969268,-0.246008,0.246008,0.969268,-79.5194,80.1072)">
                <g transform="matrix(30,0,0,30,280.865,358.326)">
                    <path d="M0.131,-0.366L0.374,-0.366C0.4,-0.366 0.423,-0.372 0.443,-0.383C0.463,-0.395 0.479,-0.411 0.49,-0.432C0.5,-0.453 0.506,-0.478 0.506,-0.505C0.506,-0.533 0.501,-0.557 0.49,-0.579C0.479,-0.6 0.464,-0.616 0.444,-0.628C0.424,-0.639 0.4,-0.645 0.374,-0.645L0.131,-0.645L0.131,-0.71L0.37,-0.71C0.411,-0.71 0.447,-0.702 0.478,-0.685C0.509,-0.668 0.533,-0.644 0.55,-0.613C0.567,-0.582 0.576,-0.546 0.576,-0.505C0.576,-0.465 0.567,-0.429 0.55,-0.398C0.533,-0.367 0.509,-0.343 0.478,-0.326C0.446,-0.309 0.41,-0.3 0.37,-0.3L0.131,-0.3L0.131,-0.366ZM0.088,-0.71L0.158,-0.71L0.158,-0L0.088,-0L0.088,-0.71ZM0.359,-0.322L0.424,-0.345L0.605,-0L0.521,-0L0.359,-0.322Z" style="fill:rgb(241,230,222);fill-rule:nonzero;"/>
                </g>
            </g>
        </g>
        <g transform="matrix(0.588243,-0.808685,0.808685,0.588243,-245.804,162.746)">
            <g transform="matrix(30,0,0,30,87.7978,395.271)">
                <path d="M0.272,0.007C0.229,0.007 0.191,-0.001 0.16,-0.019C0.128,-0.036 0.105,-0.061 0.088,-0.094C0.072,-0.127 0.063,-0.167 0.063,-0.213L0.063,-0.296C0.063,-0.342 0.072,-0.381 0.088,-0.414C0.105,-0.447 0.128,-0.471 0.16,-0.489C0.191,-0.506 0.229,-0.514 0.272,-0.514C0.316,-0.514 0.354,-0.506 0.385,-0.489C0.417,-0.471 0.44,-0.447 0.457,-0.414C0.473,-0.381 0.481,-0.342 0.481,-0.296L0.481,-0.212C0.481,-0.166 0.473,-0.126 0.457,-0.094C0.44,-0.061 0.417,-0.036 0.385,-0.019C0.354,-0.001 0.316,0.007 0.272,0.007ZM0.272,-0.058C0.316,-0.058 0.351,-0.072 0.375,-0.098C0.399,-0.125 0.411,-0.163 0.411,-0.212L0.411,-0.296C0.411,-0.344 0.399,-0.382 0.375,-0.409C0.351,-0.435 0.316,-0.449 0.272,-0.449C0.228,-0.449 0.194,-0.435 0.17,-0.409C0.146,-0.382 0.134,-0.344 0.134,-0.296L0.134,-0.212C0.134,-0.163 0.146,-0.125 0.17,-0.098C0.194,-0.072 0.228,-0.058 0.272,-0.058Z" style="fill:rgb(241,230,222);fill-rule:nonzero;"/>
            </g>
            <g transform="matrix(30,0,0,30,104.146,395.271)">
                <path d="M0.093,-0.576C0.093,-0.621 0.102,-0.654 0.122,-0.677C0.141,-0.699 0.17,-0.71 0.209,-0.71L0.292,-0.71L0.292,-0.645L0.221,-0.645C0.202,-0.645 0.187,-0.639 0.177,-0.628C0.168,-0.616 0.163,-0.599 0.163,-0.577L0.163,-0L0.093,-0L0.093,-0.576ZM0.039,-0.507L0.292,-0.507L0.292,-0.446L0.039,-0.446L0.039,-0.507Z" style="fill:rgb(241,230,222);fill-rule:nonzero;"/>
            </g>
            <g transform="matrix(30,0,0,30,113.652,395.271)">
                <path d="M0.093,-0.576C0.093,-0.621 0.102,-0.654 0.122,-0.677C0.141,-0.699 0.17,-0.71 0.209,-0.71L0.292,-0.71L0.292,-0.645L0.221,-0.645C0.202,-0.645 0.187,-0.639 0.177,-0.628C0.168,-0.616 0.163,-0.599 0.163,-0.577L0.163,-0L0.093,-0L0.093,-0.576ZM0.039,-0.507L0.292,-0.507L0.292,-0.446L0.039,-0.446L0.039,-0.507Z" style="fill:rgb(241,230,222);fill-rule:nonzero;"/>
            </g>
        </g>
        <g transform="matrix(1,0,0,1,22.0616,49.3164)">
            <g transform="matrix(31,0,0,31,148.607,202.862)">
                <path d="M0.236,-0.239L0.032,-0.507L0.111,-0.507L0.277,-0.279L0.485,-0L0.407,-0L0.236,-0.239ZM0.233,-0.28L0.272,-0.222L0.108,-0L0.029,-0L0.233,-0.28ZM0.249,-0.286L0.398,-0.507L0.478,-0.507L0.286,-0.233L0.249,-0.286Z" style="fill:rgb(241,230,222);fill-rule:nonzero;"/>
            </g>
            <g transform="matrix(31,0,0,31,164.637,202.862)">
                <path d="M0.245,-0L0.174,-0L0.174,-0.65L0.044,-0.569L0.044,-0.643L0.145,-0.71L0.245,-0.71L0.245,-0Z" style="fill:rgb(241,230,222);fill-rule:nonzero;"/>
            </g>
            <g transform="matrix(31,0,0,31,174.945,202.862)">
                <path d="M0.276,0.007C0.209,0.007 0.159,-0.01 0.125,-0.046C0.09,-0.081 0.073,-0.131 0.073,-0.194L0.073,-0.517C0.073,-0.581 0.09,-0.63 0.125,-0.666C0.16,-0.701 0.21,-0.719 0.276,-0.719C0.342,-0.719 0.393,-0.701 0.427,-0.666C0.461,-0.631 0.479,-0.581 0.479,-0.517L0.479,-0.194C0.479,-0.131 0.461,-0.081 0.427,-0.046C0.392,-0.01 0.342,0.007 0.276,0.007ZM0.276,-0.058C0.321,-0.058 0.354,-0.07 0.376,-0.094C0.397,-0.117 0.408,-0.151 0.408,-0.194L0.408,-0.517C0.408,-0.561 0.397,-0.595 0.376,-0.618C0.354,-0.642 0.321,-0.653 0.276,-0.653C0.231,-0.653 0.197,-0.642 0.176,-0.618C0.154,-0.595 0.144,-0.561 0.144,-0.517L0.144,-0.194C0.144,-0.151 0.154,-0.117 0.176,-0.094C0.197,-0.07 0.231,-0.058 0.276,-0.058Z" style="fill:rgb(241,230,222);fill-rule:nonzero;"/>
            </g>
            <g transform="matrix(31,0,0,31,191.444,202.862)">
                <path d="M0.276,0.007C0.209,0.007 0.159,-0.01 0.125,-0.046C0.09,-0.081 0.073,-0.131 0.073,-0.194L0.073,-0.517C0.073,-0.581 0.09,-0.63 0.125,-0.666C0.16,-0.701 0.21,-0.719 0.276,-0.719C0.342,-0.719 0.393,-0.701 0.427,-0.666C0.461,-0.631 0.479,-0.581 0.479,-0.517L0.479,-0.194C0.479,-0.131 0.461,-0.081 0.427,-0.046C0.392,-0.01 0.342,0.007 0.276,0.007ZM0.276,-0.058C0.321,-0.058 0.354,-0.07 0.376,-0.094C0.397,-0.117 0.408,-0.151 0.408,-0.194L0.408,-0.517C0.408,-0.561 0.397,-0.595 0.376,-0.618C0.354,-0.642 0.321,-0.653 0.276,-0.653C0.231,-0.653 0.197,-0.642 0.176,-0.618C0.154,-0.595 0.144,-0.561 0.144,-0.517L0.144,-0.194C0.144,-0.151 0.154,-0.117 0.176,-0.094C0.197,-0.07 0.231,-0.058 0.276,-0.058Z" style="fill:rgb(241,230,222);fill-rule:nonzero;"/>
            </g>
            <g transform="matrix(31,0,0,31,140.191,233.862)">
                <path d="M0.034,-0.507L0.109,-0.507L0.228,-0.096L0.369,-0.507L0.409,-0.507L0.55,-0.096L0.669,-0.507L0.744,-0.507L0.583,-0L0.522,-0L0.389,-0.379L0.256,-0L0.195,-0L0.034,-0.507Z" style="fill:rgb(241,230,222);fill-rule:nonzero;"/>
            </g>
            <g transform="matrix(31,0,0,31,164.168,233.862)">
                <path d="M0.389,-0.321C0.389,-0.362 0.378,-0.394 0.356,-0.417C0.334,-0.439 0.303,-0.451 0.262,-0.451C0.238,-0.451 0.215,-0.447 0.191,-0.439C0.168,-0.431 0.148,-0.42 0.13,-0.406L0.079,-0.441C0.098,-0.464 0.123,-0.482 0.155,-0.495C0.186,-0.508 0.221,-0.514 0.259,-0.514C0.301,-0.514 0.337,-0.507 0.367,-0.492C0.397,-0.477 0.42,-0.456 0.436,-0.427C0.451,-0.399 0.459,-0.365 0.459,-0.326L0.459,-0L0.389,-0L0.389,-0.321ZM0.24,0.007C0.181,0.007 0.135,-0.006 0.103,-0.034C0.07,-0.061 0.054,-0.1 0.054,-0.149C0.054,-0.197 0.069,-0.234 0.098,-0.26C0.128,-0.287 0.17,-0.3 0.225,-0.3L0.393,-0.3L0.4,-0.234L0.225,-0.234C0.193,-0.234 0.167,-0.227 0.15,-0.212C0.132,-0.197 0.123,-0.176 0.123,-0.149C0.123,-0.121 0.134,-0.099 0.156,-0.083C0.179,-0.067 0.21,-0.059 0.251,-0.059C0.295,-0.059 0.328,-0.063 0.353,-0.072C0.377,-0.081 0.389,-0.093 0.389,-0.109L0.399,-0.043C0.389,-0.033 0.376,-0.024 0.36,-0.016C0.344,-0.008 0.326,-0.002 0.306,0.001C0.286,0.005 0.264,0.007 0.24,0.007Z" style="fill:rgb(241,230,222);fill-rule:nonzero;"/>
            </g>
            <g transform="matrix(31,0,0,31,180.667,233.862)">
                <path d="M0.21,0.002C0.169,0.002 0.139,-0.009 0.12,-0.031C0.101,-0.054 0.091,-0.088 0.091,-0.132L0.091,-0.654L0.162,-0.654L0.162,-0.131C0.162,-0.109 0.167,-0.092 0.176,-0.081C0.186,-0.069 0.201,-0.063 0.22,-0.063L0.268,-0.063L0.268,0.002L0.21,0.002ZM0.039,-0.507L0.268,-0.507L0.268,-0.446L0.039,-0.446L0.039,-0.507Z" style="fill:rgb(241,230,222);fill-rule:nonzero;"/>
            </g>
            <g transform="matrix(31,0,0,31,190.778,233.862)">
                <path d="M0.21,0.002C0.169,0.002 0.139,-0.009 0.12,-0.031C0.101,-0.054 0.091,-0.088 0.091,-0.132L0.091,-0.654L0.162,-0.654L0.162,-0.131C0.162,-0.109 0.167,-0.092 0.176,-0.081C0.186,-0.069 0.201,-0.063 0.22,-0.063L0.268,-0.063L0.268,0.002L0.21,0.002ZM0.039,-0.507L0.268,-0.507L0.268,-0.446L0.039,-0.446L0.039,-0.507Z" style="fill:rgb(241,230,222);fill-rule:nonzero;"/>
            </g>
            <g transform="matrix(31,0,0,31,200.889,233.862)">
                <path d="M0.252,0.007C0.225,0.007 0.199,0.005 0.173,-0.001C0.147,-0.006 0.123,-0.014 0.101,-0.024C0.079,-0.035 0.059,-0.047 0.042,-0.062L0.082,-0.111C0.11,-0.093 0.138,-0.078 0.168,-0.068C0.198,-0.058 0.226,-0.053 0.252,-0.053C0.301,-0.053 0.338,-0.061 0.365,-0.078C0.392,-0.094 0.405,-0.118 0.405,-0.148C0.405,-0.17 0.398,-0.187 0.385,-0.198C0.373,-0.209 0.356,-0.216 0.337,-0.22C0.317,-0.224 0.29,-0.227 0.255,-0.23L0.228,-0.232C0.194,-0.235 0.166,-0.24 0.144,-0.247C0.121,-0.253 0.102,-0.265 0.087,-0.283C0.072,-0.301 0.064,-0.327 0.064,-0.361C0.064,-0.393 0.072,-0.421 0.088,-0.444C0.104,-0.467 0.127,-0.484 0.157,-0.496C0.188,-0.508 0.224,-0.514 0.267,-0.514C0.289,-0.514 0.311,-0.512 0.333,-0.508C0.356,-0.503 0.377,-0.497 0.397,-0.489C0.418,-0.48 0.436,-0.47 0.453,-0.458L0.413,-0.41C0.389,-0.424 0.363,-0.435 0.337,-0.443C0.311,-0.45 0.287,-0.454 0.264,-0.454C0.222,-0.454 0.188,-0.446 0.165,-0.43C0.142,-0.414 0.13,-0.392 0.13,-0.363C0.13,-0.343 0.136,-0.328 0.149,-0.318C0.162,-0.308 0.178,-0.301 0.197,-0.298C0.216,-0.295 0.243,-0.292 0.277,-0.29L0.288,-0.29C0.289,-0.29 0.29,-0.289 0.291,-0.289C0.326,-0.287 0.357,-0.283 0.382,-0.276C0.406,-0.269 0.427,-0.256 0.444,-0.235C0.461,-0.215 0.47,-0.186 0.47,-0.148C0.47,-0.115 0.461,-0.087 0.444,-0.064C0.427,-0.041 0.403,-0.023 0.37,-0.011C0.338,0.001 0.298,0.007 0.252,0.007Z" style="fill:rgb(241,230,222);fill-rule:nonzero;"/>
            </g>
        </g>
        <g transform="matrix(1,0,0,1,90.6566,-20.5571)">
            <g transform="matrix(40.355,0,0,40.355,23.5935,311.7)">
                <path d="M0.245,-0L0.174,-0L0.174,-0.65L0.044,-0.569L0.044,-0.643L0.145,-0.71L0.245,-0.71L0.245,-0Z" style="fill:rgb(241,230,222);fill-rule:nonzero;"/>
            </g>
        </g>
        <g transform="matrix(1,0,0,1,50.9815,-98.0739)">
            <g transform="matrix(40.355,0,0,40.355,19.8792,311.7)">
                <path d="M0.063,-0.057L0.33,-0.407C0.347,-0.43 0.361,-0.452 0.37,-0.474C0.38,-0.496 0.385,-0.515 0.385,-0.532L0.385,-0.533C0.385,-0.571 0.374,-0.6 0.352,-0.621C0.33,-0.642 0.299,-0.652 0.26,-0.652C0.223,-0.652 0.193,-0.641 0.17,-0.619C0.147,-0.597 0.133,-0.565 0.127,-0.524L0.127,-0.524L0.054,-0.524L0.054,-0.524C0.06,-0.565 0.072,-0.6 0.09,-0.629C0.108,-0.657 0.131,-0.679 0.16,-0.695C0.188,-0.71 0.221,-0.717 0.259,-0.717C0.301,-0.717 0.337,-0.71 0.367,-0.696C0.397,-0.681 0.42,-0.66 0.436,-0.632C0.451,-0.605 0.459,-0.571 0.459,-0.532L0.459,-0.532C0.459,-0.51 0.453,-0.484 0.44,-0.456C0.427,-0.427 0.409,-0.398 0.386,-0.368L0.151,-0.065L0.463,-0.065L0.463,-0L0.063,-0L0.063,-0.057Z" style="fill:rgb(241,230,222);fill-rule:nonzero;"/>
            </g>
        </g>
        <g transform="matrix(1,0,0,1,84.962,-175.137)">
            <g transform="matrix(40.355,0,0,40.355,19.6329,311.7)">
                <path d="M0.257,0.007C0.217,0.007 0.182,0 0.152,-0.014C0.122,-0.028 0.097,-0.048 0.079,-0.075C0.06,-0.102 0.049,-0.134 0.044,-0.172L0.115,-0.172C0.119,-0.148 0.127,-0.128 0.139,-0.111C0.152,-0.094 0.168,-0.081 0.188,-0.072C0.208,-0.063 0.231,-0.059 0.257,-0.059C0.299,-0.059 0.332,-0.07 0.355,-0.093C0.378,-0.116 0.39,-0.148 0.39,-0.189L0.39,-0.21C0.39,-0.25 0.379,-0.281 0.356,-0.303C0.334,-0.325 0.302,-0.336 0.262,-0.336L0.211,-0.336L0.211,-0.402L0.262,-0.402C0.299,-0.402 0.328,-0.411 0.348,-0.431C0.368,-0.45 0.378,-0.477 0.378,-0.512L0.378,-0.534C0.378,-0.571 0.368,-0.6 0.346,-0.62C0.325,-0.641 0.295,-0.651 0.256,-0.651C0.235,-0.651 0.215,-0.647 0.197,-0.638C0.18,-0.63 0.165,-0.618 0.153,-0.602C0.14,-0.586 0.132,-0.566 0.126,-0.543L0.056,-0.543C0.062,-0.58 0.074,-0.611 0.093,-0.637C0.111,-0.663 0.134,-0.683 0.161,-0.697C0.189,-0.71 0.221,-0.717 0.256,-0.717C0.318,-0.717 0.365,-0.701 0.398,-0.669C0.432,-0.637 0.449,-0.591 0.449,-0.533L0.449,-0.511C0.449,-0.478 0.441,-0.449 0.425,-0.425C0.409,-0.4 0.387,-0.382 0.358,-0.371C0.39,-0.363 0.416,-0.345 0.434,-0.317C0.451,-0.289 0.46,-0.253 0.46,-0.21L0.46,-0.188C0.46,-0.147 0.452,-0.112 0.437,-0.083C0.421,-0.053 0.397,-0.031 0.367,-0.016C0.337,-0 0.3,0.007 0.257,0.007Z" style="fill:rgb(241,230,222);fill-rule:nonzero;"/>
            </g>
        </g>
        <g transform="matrix(1,0,0,1,169.687,-206.178)">
            <g transform="matrix(40.355,0,0,40.355,18.825,311.7)">
                <path d="M0.063,-0.166L0.302,-0.709L0.375,-0.709L0.143,-0.172L0.52,-0.172L0.52,-0.109L0.063,-0.109L0.063,-0.166ZM0.384,-0.417L0.452,-0.417L0.452,0L0.384,0L0.384,-0.417Z" style="fill:rgb(241,230,222);fill-rule:nonzero;"/>
            </g>
        </g>
        <g transform="matrix(1,0,0,1,247.804,-175.413)">
            <g transform="matrix(40.355,0,0,40.355,19.3176,311.7)">
                <path d="M0.271,0.007C0.236,0.007 0.204,0 0.176,-0.014C0.148,-0.028 0.126,-0.048 0.108,-0.075C0.091,-0.101 0.079,-0.133 0.073,-0.171L0.073,-0.171L0.144,-0.171L0.144,-0.171C0.148,-0.135 0.161,-0.108 0.184,-0.088C0.206,-0.069 0.235,-0.059 0.271,-0.059C0.313,-0.059 0.344,-0.071 0.367,-0.094C0.39,-0.116 0.401,-0.149 0.401,-0.191L0.401,-0.294C0.401,-0.335 0.391,-0.366 0.372,-0.388C0.353,-0.41 0.326,-0.421 0.291,-0.421C0.263,-0.421 0.237,-0.414 0.214,-0.399C0.19,-0.385 0.169,-0.364 0.15,-0.336L0.089,-0.336L0.089,-0.71L0.451,-0.71L0.451,-0.645L0.159,-0.645L0.159,-0.431C0.178,-0.449 0.198,-0.463 0.22,-0.473C0.242,-0.483 0.266,-0.487 0.292,-0.487C0.329,-0.487 0.362,-0.48 0.389,-0.465C0.416,-0.449 0.436,-0.427 0.45,-0.399C0.464,-0.37 0.471,-0.335 0.471,-0.294L0.471,-0.191C0.471,-0.149 0.463,-0.114 0.448,-0.084C0.432,-0.054 0.409,-0.031 0.379,-0.016C0.349,-0 0.313,0.007 0.271,0.007Z" style="fill:rgb(241,230,222);fill-rule:nonzero;"/>
            </g>
        </g>
        <g transform="matrix(1,0,0,1,283.573,-98.4286)">
            <g transform="matrix(40.355,0,0,40.355,19.9482,311.7)">
                <path d="M0.256,0.007C0.215,0.007 0.179,-0.001 0.149,-0.018C0.12,-0.035 0.097,-0.059 0.082,-0.091C0.066,-0.123 0.059,-0.162 0.059,-0.207L0.059,-0.208C0.059,-0.234 0.062,-0.261 0.068,-0.29C0.074,-0.319 0.083,-0.348 0.095,-0.376C0.097,-0.381 0.099,-0.386 0.101,-0.39C0.103,-0.395 0.106,-0.4 0.108,-0.404L0.262,-0.71L0.34,-0.71L0.159,-0.356L0.16,-0.374C0.169,-0.389 0.183,-0.401 0.201,-0.409C0.22,-0.418 0.241,-0.422 0.265,-0.422C0.305,-0.422 0.339,-0.414 0.367,-0.397C0.396,-0.38 0.418,-0.356 0.432,-0.324C0.447,-0.293 0.455,-0.255 0.455,-0.21L0.455,-0.209C0.455,-0.164 0.447,-0.125 0.431,-0.092C0.416,-0.06 0.393,-0.035 0.364,-0.018C0.334,-0.001 0.298,0.007 0.256,0.007ZM0.256,-0.059C0.297,-0.059 0.329,-0.071 0.351,-0.096C0.373,-0.121 0.384,-0.156 0.384,-0.201L0.384,-0.202C0.384,-0.25 0.373,-0.288 0.35,-0.315C0.326,-0.342 0.294,-0.355 0.251,-0.355C0.212,-0.355 0.182,-0.342 0.161,-0.315C0.14,-0.288 0.129,-0.25 0.129,-0.201L0.129,-0.201C0.129,-0.156 0.14,-0.121 0.162,-0.096C0.185,-0.071 0.216,-0.059 0.256,-0.059Z" style="fill:rgb(240,56,19);fill-rule:nonzero;"/>
            </g>
        </g>
        <g transform="matrix(1,0,0,1,246.681,-20.7229)">
            <g transform="matrix(40.355,0,0,40.355,20.1452,311.7)">
                <path d="M0.44,-0.65L0.256,-0L0.18,-0L0.367,-0.645L0.124,-0.645L0.124,-0.513L0.054,-0.513L0.054,-0.71L0.44,-0.71L0.44,-0.65Z" style="fill:rgb(240,56,19);fill-rule:nonzero;"/>
            </g>
        </g>
    </g>
    <g id="Small-lines" serif:id="Small lines" transform="matrix(1.26563,0,0,1.26563,-53.4259,17.4124)">
        <path d="M291.18,238.499C316.753,213.819 331.197,179.806 331.197,144.266C331.197,71.988 272.516,13.307 200.237,13.307C127.958,13.307 69.277,71.988 69.277,144.266C69.277,191.945 95.19,235.856 136.926,258.906L145.157,244.003C108.846,223.95 86.302,185.747 86.302,144.266C86.302,81.384 137.355,30.331 200.237,30.331C263.119,30.331 314.172,81.384 314.172,144.266C314.172,175.186 301.606,204.777 279.357,226.249L291.18,238.499Z" style="fill:none;"/>
        <clipPath id="_clip1">
            <path d="M291.18,238.499C316.753,213.819 331.197,179.806 331.197,144.266C331.197,71.988 272.516,13.307 200.237,13.307C127.958,13.307 69.277,71.988 69.277,144.266C69.277,191.945 95.19,235.856 136.926,258.906L145.157,244.003C108.846,223.95 86.302,185.747 86.302,144.266C86.302,81.384 137.355,30.331 200.237,30.331C263.119,30.331 314.172,81.384 314.172,144.266C314.172,175.186 301.606,204.777 279.357,226.249L291.18,238.499Z"/>
        </clipPath>
        <g clip-path="url(#_clip1)">
            <g transform="matrix(0.790121,0,0,0.790121,42.2129,-13.7579)">
                <g transform="matrix(0.206673,0,0,1.02927,159.693,-11.7077)">
                    <rect x="190.187" y="11.375" width="19.448" height="388.625" style="fill:rgb(241,230,222);"/>
                </g>
                <g transform="matrix(0.14614,0.14614,-0.727803,0.727803,321.495,21.0851)">
                    <rect x="190.187" y="11.375" width="19.448" height="388.625" style="fill:rgb(241,230,222);"/>
                </g>
                <g transform="matrix(-0.14614,0.14614,-0.727803,-0.727803,379.925,320.485)">
                    <rect x="190.187" y="11.375" width="19.448" height="388.625" style="fill:rgb(241,230,222);"/>
                </g>
                <g transform="matrix(0,0.206673,-1.02927,0,412.717,158.684)">
                    <rect x="190.187" y="11.375" width="19.448" height="388.625" style="fill:rgb(241,230,222);"/>
                </g>
                <g transform="matrix(0.206033,0.0162602,-0.0809787,1.02608,176.478,-14.302)">
                    <rect x="190.187" y="11.375" width="19.448" height="388.625" style="fill:rgb(241,230,222);"/>
                </g>
                <g transform="matrix(0.134189,0.157185,-0.782808,0.668287,335.197,31.119)">
                    <rect x="190.187" y="11.375" width="19.448" height="388.625" style="fill:rgb(241,230,222);"/>
                </g>
                <g transform="matrix(-0.157185,0.134189,-0.668287,-0.782808,369.891,334.188)">
                    <rect x="190.187" y="11.375" width="19.448" height="388.625" style="fill:rgb(241,230,222);"/>
                </g>
                <g transform="matrix(-0.0162602,0.206033,-1.02608,-0.0809787,415.312,175.468)">
                    <rect x="190.187" y="11.375" width="19.448" height="388.625" style="fill:rgb(241,230,222);"/>
                </g>
                <g transform="matrix(0.204115,0.0324196,-0.161455,1.01653,193.414,-15.5678)">
                    <rect x="190.187" y="11.375" width="19.448" height="388.625" style="fill:rgb(241,230,222);"/>
                </g>
                <g transform="matrix(0.121407,0.167255,-0.832959,0.604627,348.068,42.1998)">
                    <rect x="190.187" y="11.375" width="19.448" height="388.625" style="fill:rgb(241,230,222);"/>
                </g>
                <g transform="matrix(-0.167255,0.121407,-0.604627,-0.832959,358.81,347.059)">
                    <rect x="190.187" y="11.375" width="19.448" height="388.625" style="fill:rgb(241,230,222);"/>
                </g>
                <g transform="matrix(-0.0324196,0.204115,-1.01653,-0.161455,416.577,192.405)">
                    <rect x="190.187" y="11.375" width="19.448" height="388.625" style="fill:rgb(241,230,222);"/>
                </g>
                <g transform="matrix(0.200932,0.0483781,-0.240931,1.00067,210.398,-15.4971)">
                    <rect x="190.187" y="11.375" width="19.448" height="388.625" style="fill:rgb(241,230,222);"/>
                </g>
                <g transform="matrix(0.107872,0.176289,-0.877947,0.537219,360.028,54.2589)">
                    <rect x="190.187" y="11.375" width="19.448" height="388.625" style="fill:rgb(241,230,222);"/>
                </g>
                <g transform="matrix(-0.176289,0.107872,-0.537219,-0.877947,346.751,359.018)">
                    <rect x="190.187" y="11.375" width="19.448" height="388.625" style="fill:rgb(241,230,222);"/>
                </g>
                <g transform="matrix(-0.0483781,0.200932,-1.00067,-0.240931,416.507,209.388)">
                    <rect x="190.187" y="11.375" width="19.448" height="388.625" style="fill:rgb(241,230,222);"/>
                </g>
                <g transform="matrix(0.196503,0.0640366,-0.318913,0.978616,227.323,-14.0905)">
                    <rect x="190.187" y="11.375" width="19.448" height="388.625" style="fill:rgb(241,230,222);"/>
                </g>
                <g transform="matrix(0.0936676,0.184229,-0.917492,0.46648,371.001,67.2216)">
                    <rect x="190.187" y="11.375" width="19.448" height="388.625" style="fill:rgb(241,230,222);"/>
                </g>
                <g transform="matrix(-0.184229,0.0936676,-0.46648,-0.917492,333.788,369.991)">
                    <rect x="190.187" y="11.375" width="19.448" height="388.625" style="fill:rgb(241,230,222);"/>
                </g>
                <g transform="matrix(-0.0640366,0.196503,-0.978616,-0.318913,415.1,226.313)">
                    <rect x="190.187" y="11.375" width="19.448" height="388.625" style="fill:rgb(241,230,222);"/>
                </g>
                <g transform="matrix(0.190855,0.0792981,-0.394918,0.950492,244.085,-11.3567)">
                    <rect x="190.187" y="11.375" width="19.448" height="388.625" style="fill:rgb(241,230,222);"/>
                </g>
                <g transform="matrix(0.0788828,0.191027,-0.951348,0.39285,380.921,81.0074)">
                    <rect x="190.187" y="11.375" width="19.448" height="388.625" style="fill:rgb(241,230,222);"/>
                </g>
                <g transform="matrix(-0.191027,0.0788828,-0.39285,-0.951348,320.002,379.911)">
                    <rect x="190.187" y="11.375" width="19.448" height="388.625" style="fill:rgb(241,230,222);"/>
                </g>
                <g transform="matrix(-0.0792981,0.190855,-0.950492,-0.394918,412.366,243.076)">
                    <rect x="190.187" y="11.375" width="19.448" height="388.625" style="fill:rgb(241,230,222);"/>
                </g>
                <g transform="matrix(0.184025,0.094068,-0.468475,0.916475,260.581,-7.31251)">
                    <rect x="190.187" y="11.375" width="19.448" height="388.625" style="fill:rgb(241,230,222);"/>
                </g>
                <g transform="matrix(0.0636091,0.196641,-0.979307,0.316784,389.725,95.5309)">
                    <rect x="190.187" y="11.375" width="19.448" height="388.625" style="fill:rgb(241,230,222);"/>
                </g>
                <g transform="matrix(-0.196641,0.0636091,-0.316784,-0.979307,305.479,388.715)">
                    <rect x="190.187" y="11.375" width="19.448" height="388.625" style="fill:rgb(241,230,222);"/>
                </g>
                <g transform="matrix(-0.094068,0.184025,-0.916475,-0.468475,408.322,259.571)">
                    <rect x="190.187" y="11.375" width="19.448" height="388.625" style="fill:rgb(241,230,222);"/>
                </g>
                <path id="off_line" d="M270.034,93.59C270.881,94.71 271.792,95.762 272.76,96.741L91.193,367.165L87.856,364.925L270.034,93.59ZM304.554,42.177L310.827,32.835L314.164,35.075L307.867,44.453C306.812,43.612 305.705,42.852 304.554,42.177Z" style="fill:rgb(241,230,222);"/>
                <g transform="matrix(0.047941,0.201036,-1.00119,0.238754,397.359,110.702)">
                    <rect x="190.187" y="11.375" width="19.448" height="388.625" style="fill:rgb(241,230,222);"/>
                </g>
                <g transform="matrix(-0.201036,0.047941,-0.238754,-1.00119,290.308,396.349)">
                    <rect x="190.187" y="11.375" width="19.448" height="388.625" style="fill:rgb(241,230,222);"/>
                </g>
                <g transform="matrix(-0.108255,0.176054,-0.876777,-0.539127,402.993,275.697)">
                    <rect x="190.187" y="11.375" width="19.448" height="388.625" style="fill:rgb(241,230,222);"/>
                </g>
                <g transform="matrix(0.0319757,0.204185,-1.01688,0.159244,403.776,126.427)">
                    <rect x="190.187" y="11.375" width="19.448" height="388.625" style="fill:rgb(241,230,222);"/>
                </g>
                <g transform="matrix(-0.204185,0.0319757,-0.159244,-1.01688,274.583,402.766)">
                    <rect x="190.187" y="11.375" width="19.448" height="388.625" style="fill:rgb(241,230,222);"/>
                </g>
                <g transform="matrix(-0.12177,0.166991,-0.831642,-0.606437,396.411,291.353)">
                    <rect x="190.187" y="11.375" width="19.448" height="388.625" style="fill:rgb(241,230,222);"/>
                </g>
                <g transform="matrix(0.0158121,0.206068,-1.02625,0.0787471,408.936,142.608)">
                    <rect x="190.187" y="11.375" width="19.448" height="388.625" style="fill:rgb(241,230,222);"/>
                </g>
                <g transform="matrix(-0.206068,0.0158121,-0.0787471,-1.02625,258.402,407.926)">
                    <rect x="190.187" y="11.375" width="19.448" height="388.625" style="fill:rgb(241,230,222);"/>
                </g>
                <g transform="matrix(-0.134531,0.156893,-0.781353,-0.669987,388.618,306.443)">
                    <rect x="190.187" y="11.375" width="19.448" height="388.625" style="fill:rgb(241,230,222);"/>
                </g>
                <path d="M90.629,347.961C91.232,349.348 91.925,350.679 92.699,351.944L84.795,362.783L81.548,360.415L90.629,347.961ZM122.691,303.992L317.224,37.217L320.472,39.585L126.662,305.368C125.381,304.807 124.055,304.345 122.691,303.992Z" style="fill:rgb(241,230,222);"/>
                <path d="M100.129,360.225C101.199,361.041 102.323,361.777 103.493,362.427L97.962,371.421L94.539,369.316L100.129,360.225ZM131.965,308.45L304.057,28.579L307.481,30.684L135.057,311.094C134.084,310.138 133.052,309.254 131.965,308.45Z" style="fill:rgb(241,230,222);"/>
                <path d="M88.421,328.216C88.05,330.232 87.856,332.32 87.856,334.458C87.856,334.653 87.857,334.847 87.861,335.044L72.348,353.135L69.297,350.519L88.421,328.216ZM109.029,304.182L329.671,46.865L332.722,49.481L115.175,303.189C113.059,303.273 111.001,303.613 109.029,304.182Z" style="fill:rgb(241,230,222);"/>
            </g>
        </g>
    </g>
    <g id="Medium-lines" serif:id="Medium lines" transform="matrix(1.26563,0,0,1.26563,-53.4259,17.4124)">
        <path d="M287.866,241.588C315.448,216.753 331.197,181.381 331.197,144.266C331.197,71.988 272.516,13.307 200.237,13.307C127.958,13.307 69.277,71.988 69.277,144.266C69.277,181.381 85.026,216.753 112.608,241.588L128.381,224.07C105.764,203.706 92.85,174.701 92.85,144.266C92.85,84.998 140.969,36.879 200.237,36.879C259.506,36.879 307.624,84.998 307.624,144.266C307.624,174.701 294.71,203.706 272.093,224.07L287.866,241.588Z" style="fill:none;"/>
        <clipPath id="_clip2">
            <path d="M287.866,241.588C315.448,216.753 331.197,181.381 331.197,144.266C331.197,71.988 272.516,13.307 200.237,13.307C127.958,13.307 69.277,71.988 69.277,144.266C69.277,181.381 85.026,216.753 112.608,241.588L128.381,224.07C105.764,203.706 92.85,174.701 92.85,144.266C92.85,84.998 140.969,36.879 200.237,36.879C259.506,36.879 307.624,84.998 307.624,144.266C307.624,174.701 294.71,203.706 272.093,224.07L287.866,241.588Z"/>
        </clipPath>
        <g clip-path="url(#_clip2)">
            <g transform="matrix(0.790121,0,0,0.790121,42.2129,-13.7579)">
                <g transform="matrix(0.206673,0,0,1.02927,159.693,-11.7077)">
                    <rect x="190.187" y="11.375" width="19.448" height="388.625" style="fill:rgb(241,230,222);"/>
                </g>
                <g transform="matrix(0.14614,0.14614,-0.727803,0.727803,321.495,21.0851)">
                    <rect x="190.187" y="11.375" width="19.448" height="388.625" style="fill:rgb(241,230,222);"/>
                </g>
                <g transform="matrix(-0.14614,0.14614,-0.727803,-0.727803,379.925,320.485)">
                    <rect x="190.187" y="11.375" width="19.448" height="388.625" style="fill:rgb(241,230,222);"/>
                </g>
                <g transform="matrix(0,0.206673,-1.02927,0,412.717,158.684)">
                    <rect x="190.187" y="11.375" width="19.448" height="388.625" style="fill:rgb(241,230,222);"/>
                </g>
                <g transform="matrix(0.204115,0.0324196,-0.161455,1.01653,193.414,-15.5678)">
                    <rect x="190.187" y="11.375" width="19.448" height="388.625" style="fill:rgb(241,230,222);"/>
                </g>
                <g transform="matrix(0.121407,0.167255,-0.832959,0.604627,348.068,42.1998)">
                    <rect x="190.187" y="11.375" width="19.448" height="388.625" style="fill:rgb(241,230,222);"/>
                </g>
                <g transform="matrix(-0.167255,0.121407,-0.604627,-0.832959,358.81,347.059)">
                    <rect x="190.187" y="11.375" width="19.448" height="388.625" style="fill:rgb(241,230,222);"/>
                </g>
                <g transform="matrix(-0.0324196,0.204115,-1.01653,-0.161455,416.577,192.405)">
                    <rect x="190.187" y="11.375" width="19.448" height="388.625" style="fill:rgb(241,230,222);"/>
                </g>
                <g transform="matrix(0.196503,0.0640366,-0.318913,0.978616,227.323,-14.0905)">
                    <rect x="190.187" y="11.375" width="19.448" height="388.625" style="fill:rgb(241,230,222);"/>
                </g>
                <g transform="matrix(0.0936676,0.184229,-0.917492,0.46648,371.001,67.2216)">
                    <rect x="190.187" y="11.375" width="19.448" height="388.625" style="fill:rgb(241,230,222);"/>
                </g>
                <g transform="matrix(-0.184229,0.0936676,-0.46648,-0.917492,333.788,369.991)">
                    <rect x="190.187" y="11.375" width="19.448" height="388.625" style="fill:rgb(241,230,222);"/>
                </g>
                <g transform="matrix(-0.0640366,0.196503,-0.978616,-0.318913,415.1,226.313)">
                    <rect x="190.187" y="11.375" width="19.448" height="388.625" style="fill:rgb(241,230,222);"/>
                </g>
                <g transform="matrix(0.184025,0.094068,-0.468475,0.916475,260.581,-7.31251)">
                    <rect x="190.187" y="11.375" width="19.448" height="388.625" style="fill:rgb(241,230,222);"/>
                </g>
                <g transform="matrix(0.0636091,0.196641,-0.979307,0.316784,389.725,95.5309)">
                    <rect x="190.187" y="11.375" width="19.448" height="388.625" style="fill:rgb(241,230,222);"/>
                </g>
                <g transform="matrix(-0.196641,0.0636091,-0.316784,-0.979307,305.479,388.715)">
                    <rect x="190.187" y="11.375" width="19.448" height="388.625" style="fill:rgb(241,230,222);"/>
                </g>
                <g transform="matrix(-0.094068,0.184025,-0.916475,-0.468475,408.322,259.571)">
                    <rect x="190.187" y="11.375" width="19.448" height="388.625" style="fill:rgb(241,230,222);"/>
                </g>
                <g transform="matrix(0.166991,0.12177,-0.606437,0.831642,292.363,4.5985)">
                    <rect x="190.187" y="11.375" width="19.448" height="388.625" style="fill:rgb(241,230,222);"/>
                </g>
                <g transform="matrix(0.0319757,0.204185,-1.01688,0.159244,403.776,126.427)">
                    <rect x="190.187" y="11.375" width="19.448" height="388.625" style="fill:rgb(241,230,222);"/>
                </g>
                <g transform="matrix(-0.204185,0.0319757,-0.159244,-1.01688,274.583,402.766)">
                    <rect x="190.187" y="11.375" width="19.448" height="388.625" style="fill:rgb(241,230,222);"/>
                </g>
                <g transform="matrix(-0.12177,0.166991,-0.831642,-0.606437,396.411,291.353)">
                    <rect x="190.187" y="11.375" width="19.448" height="388.625" style="fill:rgb(241,230,222);"/>
                </g>
            </g>
        </g>
    </g>
    <g id="Big-lines" serif:id="Big lines" transform="matrix(1.13268,0,0,1.13268,-26.8051,36.592)">
        <path d="M284.416,244.587C314.07,219.704 331.197,182.977 331.197,144.266C331.197,71.988 272.516,13.307 200.237,13.307C127.958,13.307 69.277,71.988 69.277,144.266C69.277,184.579 87.843,222.645 119.61,247.464L129.285,235.08C101.331,213.24 84.992,179.741 84.992,144.266C84.992,80.661 136.632,29.022 200.237,29.022C263.842,29.022 315.482,80.661 315.482,144.266C315.482,178.332 300.41,210.652 274.315,232.549L284.416,244.587Z" style="fill:none;"/>
        <clipPath id="_clip3">
            <path d="M284.416,244.587C314.07,219.704 331.197,182.977 331.197,144.266C331.197,71.988 272.516,13.307 200.237,13.307C127.958,13.307 69.277,71.988 69.277,144.266C69.277,184.579 87.843,222.645 119.61,247.464L129.285,235.08C101.331,213.24 84.992,179.741 84.992,144.266C84.992,80.661 136.632,29.022 200.237,29.022C263.842,29.022 315.482,80.661 315.482,144.266C315.482,178.332 300.41,210.652 274.315,232.549L284.416,244.587Z"/>
        </clipPath>
        <g clip-path="url(#_clip3)">
            <g transform="matrix(0.790121,0,0,0.790121,42.2129,-13.7579)">
                <g transform="matrix(0.668488,0,0,1.15008,67.4905,-36.5563)">
                    <rect x="190.187" y="11.375" width="19.448" height="388.625" style="fill:rgb(241,230,222);"/>
                </g>
                <g transform="matrix(0.472692,0.472692,-0.813227,0.813227,273.903,-61.7667)">
                    <rect x="190.187" y="11.375" width="19.448" height="388.625" style="fill:rgb(241,230,222);"/>
                </g>
                <g transform="matrix(0,0.668488,-1.15008,0,437.685,66.3623)">
                    <rect x="190.187" y="11.375" width="19.448" height="388.625" style="fill:rgb(241,230,222);"/>
                </g>
                <g transform="matrix(-0.472692,0.472692,-0.813227,-0.813227,462.895,272.774)">
                    <rect x="190.187" y="11.375" width="19.448" height="388.625" style="fill:rgb(241,230,222);"/>
                </g>
            </g>
        </g>
    </g>
</svg>
