<?xml version="1.0" encoding="UTF-8" standalone="no"?>
<!DOCTYPE svg PUBLIC "-//W3C//DTD SVG 1.1//EN" "http://www.w3.org/Graphics/SVG/1.1/DTD/svg11.dtd">
<svg width="100%" height="100%" viewBox="0 0 400 400" version="1.1" xmlns="http://www.w3.org/2000/svg" xmlns:xlink="http://www.w3.org/1999/xlink" xml:space="preserve" xmlns:serif="http://www.serif.com/" style="fill-rule:evenodd;clip-rule:evenodd;stroke-linejoin:round;stroke-miterlimit:2;">
    <g transform="matrix(1.26563,0,0,1.26563,-53.4259,17.4124)">
        <g id="Danger-zones" serif:id="Danger zones">
            <path d="M108.121,237.352C113.919,243.091 120.242,248.275 127.005,252.837L136.525,238.723C130.641,234.754 125.141,230.244 120.096,225.251L108.121,237.352Z" style="fill:rgb(179,0,0);"/>
        </g>
    </g>
    <g id="Labels">
        <g transform="matrix(1,0,0,1,-50.1023,4.90047)">
            <g transform="matrix(0.962523,0.271199,-0.271199,0.962523,100.451,-34.5103)">
                <g transform="matrix(48,0,0,48,175.091,346.198)">
                    <path d="M1.154,-0.604C0.928,-0.294 0.815,-0.094 0.815,-0.004C0.815,0.018 0.822,0.036 0.837,0.051C0.851,0.065 0.87,0.072 0.892,0.072C0.931,0.072 0.969,0.051 1.006,0.01C1.009,0.007 1.012,0.005 1.013,0.005C1.015,0.005 1.016,0.006 1.016,0.009C1.016,0.013 1.011,0.019 0.999,0.029C0.961,0.063 0.925,0.08 0.892,0.08C0.861,0.08 0.836,0.068 0.815,0.044C0.794,0.02 0.784,-0.01 0.784,-0.047C0.784,-0.109 0.816,-0.192 0.88,-0.293L0.842,-0.241C0.783,-0.159 0.726,-0.094 0.672,-0.048C0.618,-0.001 0.573,0.022 0.537,0.022C0.514,0.022 0.495,0.013 0.48,-0.003C0.466,-0.02 0.459,-0.043 0.459,-0.071C0.459,-0.101 0.467,-0.13 0.483,-0.159C0.499,-0.188 0.534,-0.239 0.589,-0.311C0.647,-0.386 0.684,-0.439 0.699,-0.468C0.715,-0.498 0.723,-0.529 0.723,-0.562C0.723,-0.593 0.711,-0.618 0.688,-0.636C0.665,-0.654 0.634,-0.663 0.595,-0.663C0.495,-0.663 0.399,-0.618 0.307,-0.527C0.215,-0.436 0.169,-0.342 0.169,-0.244C0.169,-0.207 0.179,-0.178 0.2,-0.156C0.221,-0.133 0.248,-0.122 0.282,-0.122C0.347,-0.122 0.409,-0.159 0.469,-0.233C0.532,-0.31 0.563,-0.381 0.563,-0.445C0.563,-0.499 0.54,-0.526 0.494,-0.526C0.483,-0.526 0.472,-0.523 0.462,-0.518C0.452,-0.513 0.447,-0.507 0.447,-0.501C0.447,-0.498 0.448,-0.497 0.451,-0.497C0.453,-0.497 0.456,-0.498 0.46,-0.5C0.462,-0.501 0.464,-0.501 0.467,-0.501C0.484,-0.501 0.492,-0.493 0.492,-0.477C0.492,-0.467 0.488,-0.458 0.481,-0.45C0.473,-0.442 0.464,-0.438 0.453,-0.438C0.433,-0.438 0.423,-0.449 0.423,-0.47C0.423,-0.488 0.43,-0.503 0.445,-0.516C0.459,-0.529 0.476,-0.535 0.496,-0.535C0.519,-0.535 0.538,-0.527 0.551,-0.511C0.565,-0.494 0.572,-0.472 0.572,-0.445C0.572,-0.381 0.541,-0.31 0.48,-0.232C0.418,-0.153 0.352,-0.113 0.282,-0.113C0.241,-0.113 0.208,-0.127 0.183,-0.155C0.158,-0.183 0.146,-0.221 0.146,-0.267C0.146,-0.374 0.202,-0.471 0.314,-0.559C0.358,-0.593 0.405,-0.621 0.456,-0.641C0.506,-0.662 0.552,-0.672 0.593,-0.672C0.642,-0.672 0.681,-0.659 0.708,-0.632C0.735,-0.606 0.749,-0.569 0.749,-0.521C0.749,-0.481 0.739,-0.443 0.719,-0.406C0.699,-0.37 0.65,-0.299 0.571,-0.195C0.536,-0.149 0.514,-0.117 0.503,-0.097C0.492,-0.077 0.487,-0.059 0.487,-0.041C0.487,-0.025 0.492,-0.012 0.502,-0.001C0.512,0.009 0.524,0.014 0.539,0.014C0.588,0.014 0.655,-0.035 0.742,-0.133C0.828,-0.232 0.94,-0.388 1.078,-0.601C1.095,-0.6 1.105,-0.599 1.107,-0.599C1.119,-0.599 1.135,-0.601 1.154,-0.604Z" style="fill-rule:nonzero;"/>
                </g>
            </g>
            <g transform="matrix(0.987775,0.155885,-0.155885,0.987775,58.4035,-29.4199)">
                <g transform="matrix(48,0,0,48,216.777,357.659)">
                    <path d="M0.271,-0.265L0.267,-0.258L0.203,-0.258L0.094,-0.072C0.081,-0.049 0.074,-0.031 0.074,-0.018C0.074,-0.003 0.082,0.004 0.097,0.004C0.127,0.004 0.177,-0.048 0.247,-0.151C0.25,-0.154 0.252,-0.156 0.253,-0.156C0.255,-0.156 0.256,-0.155 0.256,-0.153C0.256,-0.152 0.254,-0.149 0.251,-0.145L0.23,-0.116C0.169,-0.031 0.123,0.011 0.092,0.011C0.077,0.011 0.064,0.006 0.053,-0.005C0.043,-0.016 0.038,-0.03 0.038,-0.047C0.038,-0.066 0.047,-0.091 0.064,-0.12L0.146,-0.258L0.096,-0.258L0.101,-0.265L0.15,-0.265L0.207,-0.36C0.217,-0.357 0.226,-0.356 0.235,-0.356C0.244,-0.356 0.253,-0.357 0.263,-0.36L0.207,-0.265L0.271,-0.265Z" style="fill-rule:nonzero;"/>
                </g>
            </g>
            <g transform="matrix(0.993866,0.110587,-0.110587,0.993866,41.0822,-22.6288)">
                <g transform="matrix(48,0,0,48,224.538,359.037)">
                    <path d="M0.251,-0.355C0.251,-0.344 0.246,-0.333 0.237,-0.323C0.227,-0.313 0.216,-0.308 0.205,-0.308C0.19,-0.308 0.183,-0.315 0.183,-0.33C0.183,-0.341 0.188,-0.351 0.198,-0.361C0.208,-0.371 0.219,-0.376 0.23,-0.376C0.244,-0.376 0.251,-0.369 0.251,-0.355ZM0.258,-0.153C0.258,-0.152 0.256,-0.149 0.253,-0.145L0.232,-0.116C0.171,-0.031 0.124,0.011 0.092,0.011C0.077,0.011 0.064,0.006 0.053,-0.005C0.043,-0.016 0.038,-0.03 0.038,-0.046C0.038,-0.065 0.049,-0.093 0.072,-0.132L0.148,-0.261C0.158,-0.259 0.166,-0.258 0.172,-0.258C0.181,-0.258 0.193,-0.259 0.209,-0.261L0.098,-0.079C0.082,-0.053 0.074,-0.032 0.074,-0.018C0.074,-0.003 0.082,0.004 0.097,0.004C0.126,0.004 0.177,-0.048 0.25,-0.151C0.252,-0.154 0.253,-0.156 0.255,-0.156C0.257,-0.156 0.258,-0.155 0.258,-0.153Z" style="fill-rule:nonzero;"/>
                </g>
            </g>
            <g transform="matrix(0.998793,0.0491136,-0.0491136,0.998793,17.9707,-10.9861)">
                <g transform="matrix(48,0,0,48,232.538,360.186)">
                    <path d="M0.347,-0.499C0.21,-0.271 0.131,-0.138 0.108,-0.098C0.086,-0.058 0.074,-0.031 0.074,-0.018C0.074,-0.003 0.08,0.004 0.093,0.004C0.12,0.004 0.17,-0.048 0.243,-0.151C0.245,-0.154 0.247,-0.156 0.249,-0.156C0.251,-0.156 0.251,-0.155 0.251,-0.153C0.251,-0.151 0.25,-0.149 0.246,-0.145L0.225,-0.116C0.164,-0.031 0.118,0.011 0.089,0.011C0.075,0.011 0.063,0.006 0.054,-0.005C0.045,-0.015 0.041,-0.029 0.041,-0.045C0.041,-0.063 0.045,-0.08 0.053,-0.097C0.062,-0.114 0.09,-0.162 0.138,-0.242C0.197,-0.34 0.247,-0.425 0.287,-0.497C0.297,-0.494 0.306,-0.493 0.313,-0.493C0.325,-0.493 0.337,-0.495 0.347,-0.499Z" style="fill-rule:nonzero;"/>
                </g>
            </g>
            <g transform="matrix(0.999868,0.0162509,-0.0162509,0.999868,5.89356,-3.85671)">
                <g transform="matrix(48,0,0,48,240.254,360.708)">
                    <path d="M0.251,-0.355C0.251,-0.344 0.246,-0.333 0.237,-0.323C0.227,-0.313 0.216,-0.308 0.205,-0.308C0.19,-0.308 0.183,-0.315 0.183,-0.33C0.183,-0.341 0.188,-0.351 0.198,-0.361C0.208,-0.371 0.219,-0.376 0.23,-0.376C0.244,-0.376 0.251,-0.369 0.251,-0.355ZM0.258,-0.153C0.258,-0.152 0.256,-0.149 0.253,-0.145L0.232,-0.116C0.171,-0.031 0.124,0.011 0.092,0.011C0.077,0.011 0.064,0.006 0.053,-0.005C0.043,-0.016 0.038,-0.03 0.038,-0.046C0.038,-0.065 0.049,-0.093 0.072,-0.132L0.148,-0.261C0.158,-0.259 0.166,-0.258 0.172,-0.258C0.181,-0.258 0.193,-0.259 0.209,-0.261L0.098,-0.079C0.082,-0.053 0.074,-0.032 0.074,-0.018C0.074,-0.003 0.082,0.004 0.097,0.004C0.126,0.004 0.177,-0.048 0.25,-0.151C0.252,-0.154 0.253,-0.156 0.255,-0.156C0.257,-0.156 0.258,-0.155 0.258,-0.153Z" style="fill-rule:nonzero;"/>
                </g>
            </g>
            <g transform="matrix(0.999834,-0.0182322,0.0182322,0.999834,-6.53887,4.5869)">
                <g transform="matrix(48,0,0,48,248.292,360.907)">
                    <path d="M0.384,-0.26C0.384,-0.249 0.369,-0.235 0.339,-0.218C0.306,-0.19 0.249,-0.146 0.17,-0.086C0.16,-0.078 0.146,-0.068 0.129,-0.055L0.143,-0.056C0.159,-0.057 0.173,-0.052 0.185,-0.04C0.197,-0.028 0.204,-0.013 0.208,0.005C0.227,-0.006 0.252,-0.027 0.285,-0.06C0.318,-0.094 0.342,-0.122 0.359,-0.147C0.363,-0.153 0.366,-0.156 0.368,-0.156C0.369,-0.156 0.37,-0.155 0.37,-0.154C0.37,-0.147 0.352,-0.124 0.317,-0.085C0.28,-0.044 0.244,-0.012 0.209,0.013L0.209,0.026C0.209,0.062 0.196,0.101 0.17,0.142C0.145,0.183 0.113,0.216 0.075,0.241C-0.008,0.296 -0.074,0.323 -0.123,0.323C-0.161,0.323 -0.18,0.308 -0.18,0.277C-0.18,0.241 -0.154,0.203 -0.102,0.164C-0.075,0.144 -0.005,0.109 0.108,0.059C0.13,0.049 0.151,0.039 0.17,0.028C0.175,0.013 0.178,-0.001 0.178,-0.013C0.178,-0.038 0.165,-0.05 0.139,-0.05C0.132,-0.05 0.126,-0.049 0.122,-0.049L0.115,-0.043L0.097,-0.026C0.067,0.003 0.047,0.017 0.038,0.017C0.03,0.017 0.026,0.013 0.026,0.006C0.026,-0.015 0.056,-0.035 0.116,-0.053C0.207,-0.122 0.276,-0.175 0.324,-0.214L0.314,-0.207C0.296,-0.194 0.279,-0.188 0.264,-0.188C0.253,-0.188 0.24,-0.195 0.223,-0.209C0.208,-0.222 0.195,-0.228 0.185,-0.228C0.165,-0.228 0.134,-0.203 0.094,-0.152C0.09,-0.148 0.087,-0.146 0.086,-0.146C0.084,-0.146 0.084,-0.147 0.084,-0.149C0.084,-0.154 0.099,-0.173 0.129,-0.205C0.165,-0.244 0.196,-0.263 0.221,-0.263C0.231,-0.263 0.253,-0.252 0.286,-0.231C0.297,-0.224 0.308,-0.22 0.317,-0.22C0.322,-0.22 0.327,-0.222 0.332,-0.224L0.338,-0.232L0.354,-0.252C0.361,-0.261 0.369,-0.266 0.376,-0.266C0.381,-0.266 0.384,-0.264 0.384,-0.26ZM0.167,0.036C0.159,0.04 0.112,0.062 0.028,0.102C-0.035,0.131 -0.084,0.161 -0.12,0.193C-0.156,0.224 -0.174,0.253 -0.174,0.279C-0.174,0.304 -0.157,0.317 -0.124,0.317C-0.077,0.317 -0.024,0.288 0.037,0.229C0.098,0.171 0.141,0.106 0.167,0.036Z" style="fill-rule:nonzero;"/>
                </g>
            </g>
            <g transform="matrix(0.990327,-0.138755,0.138755,0.990327,-47.5381,39.8081)">
                <g transform="matrix(48,0,0,48,261.739,360.852)">
                    <path d="M0.434,-0.153C0.434,-0.146 0.411,-0.115 0.363,-0.058C0.325,-0.012 0.294,0.011 0.272,0.011C0.257,0.011 0.245,0.006 0.235,-0.006C0.226,-0.017 0.221,-0.031 0.221,-0.048C0.221,-0.065 0.226,-0.084 0.237,-0.105C0.204,-0.059 0.179,-0.029 0.162,-0.013C0.145,0.003 0.128,0.011 0.112,0.011C0.095,0.011 0.08,0.004 0.068,-0.011C0.057,-0.026 0.051,-0.044 0.051,-0.067C0.051,-0.129 0.095,-0.185 0.183,-0.233C0.222,-0.254 0.253,-0.265 0.277,-0.265C0.297,-0.265 0.307,-0.255 0.307,-0.236C0.307,-0.23 0.306,-0.223 0.303,-0.214L0.328,-0.261C0.338,-0.259 0.347,-0.258 0.354,-0.258C0.363,-0.258 0.374,-0.259 0.388,-0.261L0.302,-0.118C0.272,-0.068 0.257,-0.035 0.257,-0.019C0.257,-0.004 0.263,0.004 0.276,0.004C0.289,0.004 0.31,-0.011 0.338,-0.041C0.367,-0.071 0.396,-0.107 0.426,-0.151C0.428,-0.154 0.43,-0.156 0.431,-0.156C0.433,-0.156 0.434,-0.155 0.434,-0.153ZM0.3,-0.234C0.3,-0.25 0.292,-0.258 0.278,-0.258C0.248,-0.258 0.209,-0.229 0.16,-0.17C0.111,-0.111 0.087,-0.064 0.087,-0.028C0.087,-0.007 0.096,0.004 0.115,0.004C0.138,0.004 0.177,-0.033 0.232,-0.108C0.277,-0.169 0.3,-0.211 0.3,-0.234Z" style="fill-rule:nonzero;"/>
                </g>
            </g>
            <g transform="matrix(0.977231,-0.212177,0.212177,0.977231,-69.7648,67.1791)">
                <g transform="matrix(48,0,0,48,278.131,358.651)">
                    <path d="M0.271,-0.265L0.267,-0.258L0.203,-0.258L0.094,-0.072C0.081,-0.049 0.074,-0.031 0.074,-0.018C0.074,-0.003 0.082,0.004 0.097,0.004C0.127,0.004 0.177,-0.048 0.247,-0.151C0.25,-0.154 0.252,-0.156 0.253,-0.156C0.255,-0.156 0.256,-0.155 0.256,-0.153C0.256,-0.152 0.254,-0.149 0.251,-0.145L0.23,-0.116C0.169,-0.031 0.123,0.011 0.092,0.011C0.077,0.011 0.064,0.006 0.053,-0.005C0.043,-0.016 0.038,-0.03 0.038,-0.047C0.038,-0.066 0.047,-0.091 0.064,-0.12L0.146,-0.258L0.096,-0.258L0.101,-0.265L0.15,-0.265L0.207,-0.36C0.217,-0.357 0.226,-0.356 0.235,-0.356C0.244,-0.356 0.253,-0.357 0.263,-0.36L0.207,-0.265L0.271,-0.265Z" style="fill-rule:nonzero;"/>
                </g>
            </g>
            <g transform="matrix(0.966427,-0.256942,0.256942,0.966427,-82.1631,85.4432)">
                <g transform="matrix(48,0,0,48,285.875,357.126)">
                    <path d="M0.251,-0.355C0.251,-0.344 0.246,-0.333 0.237,-0.323C0.227,-0.313 0.216,-0.308 0.205,-0.308C0.19,-0.308 0.183,-0.315 0.183,-0.33C0.183,-0.341 0.188,-0.351 0.198,-0.361C0.208,-0.371 0.219,-0.376 0.23,-0.376C0.244,-0.376 0.251,-0.369 0.251,-0.355ZM0.258,-0.153C0.258,-0.152 0.256,-0.149 0.253,-0.145L0.232,-0.116C0.171,-0.031 0.124,0.011 0.092,0.011C0.077,0.011 0.064,0.006 0.053,-0.005C0.043,-0.016 0.038,-0.03 0.038,-0.046C0.038,-0.065 0.049,-0.093 0.072,-0.132L0.148,-0.261C0.158,-0.259 0.166,-0.258 0.172,-0.258C0.181,-0.258 0.193,-0.259 0.209,-0.261L0.098,-0.079C0.082,-0.053 0.074,-0.032 0.074,-0.018C0.074,-0.003 0.082,0.004 0.097,0.004C0.126,0.004 0.177,-0.048 0.25,-0.151C0.252,-0.154 0.253,-0.156 0.255,-0.156C0.257,-0.156 0.258,-0.155 0.258,-0.153Z" style="fill-rule:nonzero;"/>
                </g>
            </g>
            <g transform="matrix(0.946405,-0.322984,0.322984,0.946405,-99.034,113.925)">
                <g transform="matrix(48,0,0,48,293.756,355.368)">
                    <path d="M0.38,-0.154C0.38,-0.148 0.371,-0.136 0.351,-0.117C0.323,-0.088 0.296,-0.074 0.272,-0.074C0.262,-0.074 0.253,-0.076 0.245,-0.08C0.202,-0.019 0.162,0.011 0.124,0.011C0.105,0.011 0.088,0.003 0.074,-0.013C0.06,-0.029 0.053,-0.048 0.053,-0.071C0.053,-0.121 0.086,-0.169 0.152,-0.216C0.198,-0.249 0.236,-0.265 0.266,-0.265C0.294,-0.265 0.308,-0.25 0.308,-0.22C0.308,-0.183 0.288,-0.138 0.249,-0.085C0.256,-0.081 0.263,-0.079 0.271,-0.079C0.286,-0.079 0.303,-0.086 0.322,-0.1C0.342,-0.113 0.358,-0.13 0.37,-0.149C0.374,-0.153 0.377,-0.156 0.378,-0.156C0.379,-0.156 0.38,-0.155 0.38,-0.154ZM0.301,-0.219C0.301,-0.246 0.289,-0.259 0.265,-0.259C0.236,-0.259 0.199,-0.23 0.157,-0.174C0.114,-0.117 0.093,-0.069 0.093,-0.031C0.093,-0.008 0.104,0.003 0.125,0.003C0.16,0.003 0.199,-0.026 0.24,-0.084C0.231,-0.094 0.226,-0.105 0.226,-0.116C0.226,-0.132 0.232,-0.149 0.245,-0.166C0.258,-0.182 0.27,-0.191 0.282,-0.191C0.287,-0.191 0.291,-0.188 0.293,-0.181C0.298,-0.193 0.301,-0.205 0.301,-0.219Z" style="fill-rule:nonzero;"/>
                </g>
            </g>
            <g transform="matrix(0.909195,-0.41637,0.41637,0.909195,-118.393,159.769)">
                <g transform="matrix(48,0,0,48,307.1,351.32)">
                    <path d="M0.482,-0.153C0.482,-0.146 0.459,-0.115 0.411,-0.058C0.373,-0.012 0.342,0.011 0.32,0.011C0.305,0.011 0.293,0.006 0.283,-0.006C0.273,-0.017 0.268,-0.031 0.268,-0.048C0.268,-0.063 0.271,-0.076 0.277,-0.089C0.283,-0.101 0.299,-0.126 0.324,-0.163C0.351,-0.202 0.364,-0.227 0.364,-0.238C0.364,-0.251 0.357,-0.258 0.343,-0.258C0.295,-0.258 0.222,-0.17 0.123,0.007C0.107,0.006 0.097,0.005 0.094,0.005C0.083,0.005 0.072,0.006 0.062,0.007L0.138,-0.114C0.181,-0.183 0.203,-0.226 0.203,-0.243C0.203,-0.253 0.199,-0.258 0.191,-0.258C0.174,-0.258 0.141,-0.223 0.093,-0.153C0.09,-0.148 0.087,-0.146 0.086,-0.146C0.084,-0.146 0.083,-0.147 0.083,-0.149C0.083,-0.15 0.084,-0.152 0.085,-0.153L0.094,-0.165C0.144,-0.232 0.177,-0.265 0.195,-0.265C0.206,-0.265 0.215,-0.26 0.223,-0.25C0.231,-0.24 0.235,-0.228 0.235,-0.214C0.235,-0.193 0.223,-0.164 0.198,-0.127C0.237,-0.18 0.266,-0.216 0.287,-0.236C0.308,-0.255 0.327,-0.265 0.344,-0.265C0.359,-0.265 0.371,-0.259 0.38,-0.248C0.39,-0.236 0.395,-0.221 0.395,-0.204C0.395,-0.182 0.38,-0.149 0.35,-0.104C0.319,-0.058 0.304,-0.029 0.304,-0.016C0.304,-0.003 0.311,0.004 0.324,0.004C0.353,0.004 0.403,-0.048 0.474,-0.151C0.476,-0.154 0.478,-0.156 0.479,-0.156C0.481,-0.156 0.482,-0.155 0.482,-0.153Z" style="fill-rule:nonzero;"/>
                </g>
            </g>
        </g>
        <g transform="matrix(0.588243,-0.808685,0.808685,0.588243,-245.804,162.746)">
            <g transform="matrix(30,0,0,30,89.3213,395.271)">
                <path d="M0.03,-0.206C0.03,-0.259 0.049,-0.306 0.088,-0.347C0.136,-0.397 0.193,-0.422 0.259,-0.422C0.325,-0.422 0.382,-0.397 0.429,-0.347C0.468,-0.306 0.487,-0.258 0.487,-0.206C0.487,-0.153 0.469,-0.107 0.432,-0.066C0.386,-0.016 0.328,0.009 0.259,0.009C0.189,0.009 0.131,-0.016 0.085,-0.066C0.068,-0.086 0.054,-0.108 0.044,-0.132C0.035,-0.156 0.03,-0.181 0.03,-0.206ZM0.119,-0.212C0.119,-0.155 0.131,-0.107 0.157,-0.068C0.185,-0.024 0.22,-0.002 0.262,-0.002C0.279,-0.002 0.296,-0.007 0.313,-0.017C0.33,-0.026 0.344,-0.04 0.356,-0.058C0.369,-0.076 0.379,-0.099 0.387,-0.126C0.395,-0.154 0.398,-0.18 0.398,-0.206C0.398,-0.232 0.394,-0.259 0.386,-0.287C0.378,-0.314 0.367,-0.337 0.353,-0.357C0.326,-0.393 0.293,-0.412 0.254,-0.412C0.218,-0.412 0.186,-0.392 0.159,-0.354C0.132,-0.315 0.119,-0.268 0.119,-0.212Z" style="fill-rule:nonzero;"/>
            </g>
            <g transform="matrix(30,0,0,30,104.849,395.271)">
                <path d="M0.159,-0.396L0.159,-0.141L0.16,-0.104C0.16,-0.082 0.161,-0.066 0.164,-0.056C0.166,-0.046 0.171,-0.037 0.179,-0.03C0.188,-0.021 0.205,-0.015 0.229,-0.01L0.229,-0L0.013,-0L0.013,-0.01C0.033,-0.013 0.047,-0.017 0.055,-0.021C0.064,-0.026 0.07,-0.034 0.076,-0.045C0.079,-0.053 0.082,-0.064 0.083,-0.079C0.085,-0.094 0.085,-0.116 0.085,-0.145L0.085,-0.396L0.015,-0.396L0.015,-0.415L0.085,-0.415L0.085,-0.534C0.085,-0.563 0.089,-0.585 0.097,-0.602C0.104,-0.619 0.117,-0.634 0.136,-0.648C0.153,-0.66 0.174,-0.67 0.198,-0.677C0.223,-0.684 0.249,-0.688 0.276,-0.688C0.302,-0.688 0.322,-0.683 0.337,-0.674C0.353,-0.666 0.36,-0.654 0.36,-0.639C0.36,-0.629 0.357,-0.621 0.351,-0.615C0.344,-0.608 0.337,-0.605 0.328,-0.605C0.319,-0.605 0.311,-0.607 0.305,-0.612C0.298,-0.617 0.292,-0.625 0.285,-0.635C0.276,-0.65 0.269,-0.66 0.263,-0.665C0.257,-0.67 0.249,-0.672 0.239,-0.672C0.226,-0.672 0.215,-0.669 0.204,-0.664C0.193,-0.659 0.184,-0.653 0.178,-0.645C0.171,-0.635 0.166,-0.623 0.164,-0.609C0.161,-0.594 0.16,-0.572 0.16,-0.544L0.16,-0.415L0.256,-0.415L0.256,-0.396L0.159,-0.396Z" style="fill-rule:nonzero;"/>
            </g>
            <g transform="matrix(30,0,0,30,113.242,395.271)">
                <path d="M0.159,-0.396L0.159,-0.141L0.16,-0.104C0.16,-0.082 0.161,-0.066 0.164,-0.056C0.166,-0.046 0.171,-0.037 0.179,-0.03C0.188,-0.021 0.205,-0.015 0.229,-0.01L0.229,-0L0.013,-0L0.013,-0.01C0.033,-0.013 0.047,-0.017 0.055,-0.021C0.064,-0.026 0.07,-0.034 0.076,-0.045C0.079,-0.053 0.082,-0.064 0.083,-0.079C0.085,-0.094 0.085,-0.116 0.085,-0.145L0.085,-0.396L0.015,-0.396L0.015,-0.415L0.085,-0.415L0.085,-0.534C0.085,-0.563 0.089,-0.585 0.097,-0.602C0.104,-0.619 0.117,-0.634 0.136,-0.648C0.153,-0.66 0.174,-0.67 0.198,-0.677C0.223,-0.684 0.249,-0.688 0.276,-0.688C0.302,-0.688 0.322,-0.683 0.337,-0.674C0.353,-0.666 0.36,-0.654 0.36,-0.639C0.36,-0.629 0.357,-0.621 0.351,-0.615C0.344,-0.608 0.337,-0.605 0.328,-0.605C0.319,-0.605 0.311,-0.607 0.305,-0.612C0.298,-0.617 0.292,-0.625 0.285,-0.635C0.276,-0.65 0.269,-0.66 0.263,-0.665C0.257,-0.67 0.249,-0.672 0.239,-0.672C0.226,-0.672 0.215,-0.669 0.204,-0.664C0.193,-0.659 0.184,-0.653 0.178,-0.645C0.171,-0.635 0.166,-0.623 0.164,-0.609C0.161,-0.594 0.16,-0.572 0.16,-0.544L0.16,-0.415L0.256,-0.415L0.256,-0.396L0.159,-0.396Z" style="fill-rule:nonzero;"/>
            </g>
        </g>
        <g transform="matrix(1,0,0,1,21.4338,65.4602)">
            <g transform="matrix(48,0,0,48,160.824,202.862)">
                <path d="M0.111,0.094L0.093,0.08L0.544,-0.536L0.527,-0.526C0.493,-0.509 0.465,-0.497 0.443,-0.49C0.421,-0.483 0.397,-0.48 0.372,-0.48C0.359,-0.48 0.345,-0.481 0.332,-0.484C0.343,-0.467 0.35,-0.452 0.354,-0.439C0.358,-0.427 0.36,-0.413 0.36,-0.398C0.36,-0.361 0.347,-0.327 0.32,-0.296C0.304,-0.276 0.284,-0.26 0.26,-0.25C0.237,-0.239 0.213,-0.233 0.188,-0.233C0.163,-0.233 0.14,-0.238 0.118,-0.248C0.096,-0.257 0.076,-0.271 0.058,-0.289C0.028,-0.319 0.013,-0.355 0.013,-0.394C0.013,-0.414 0.017,-0.433 0.025,-0.452C0.033,-0.472 0.044,-0.489 0.058,-0.505C0.074,-0.523 0.094,-0.537 0.116,-0.547C0.139,-0.557 0.162,-0.562 0.187,-0.562C0.203,-0.562 0.218,-0.56 0.233,-0.555C0.247,-0.551 0.263,-0.544 0.281,-0.534C0.303,-0.52 0.319,-0.512 0.33,-0.508C0.34,-0.505 0.354,-0.503 0.369,-0.503C0.408,-0.503 0.452,-0.515 0.501,-0.54C0.533,-0.556 0.567,-0.58 0.604,-0.612L0.633,-0.612L0.633,-0.605L0.111,0.094ZM0.083,-0.397C0.083,-0.374 0.087,-0.351 0.094,-0.33C0.101,-0.308 0.11,-0.291 0.122,-0.277C0.141,-0.255 0.164,-0.245 0.19,-0.245C0.212,-0.245 0.232,-0.254 0.249,-0.273C0.275,-0.303 0.288,-0.344 0.288,-0.396C0.288,-0.451 0.275,-0.492 0.249,-0.521C0.23,-0.541 0.209,-0.551 0.184,-0.551C0.16,-0.551 0.139,-0.54 0.12,-0.517C0.109,-0.503 0.1,-0.485 0.093,-0.464C0.087,-0.442 0.083,-0.42 0.083,-0.397ZM0.384,-0.152C0.384,-0.194 0.399,-0.231 0.429,-0.263C0.464,-0.3 0.507,-0.319 0.557,-0.319C0.606,-0.319 0.648,-0.3 0.683,-0.262C0.712,-0.231 0.726,-0.195 0.726,-0.156C0.726,-0.103 0.705,-0.06 0.662,-0.027C0.63,-0.003 0.594,0.01 0.553,0.01C0.531,0.01 0.509,0.006 0.488,-0.003C0.467,-0.011 0.448,-0.023 0.432,-0.039C0.4,-0.069 0.384,-0.107 0.384,-0.152ZM0.455,-0.153C0.455,-0.13 0.458,-0.108 0.465,-0.086C0.472,-0.065 0.481,-0.047 0.493,-0.033C0.513,-0.012 0.535,-0.001 0.561,-0.001C0.583,-0.001 0.603,-0.01 0.62,-0.029C0.646,-0.059 0.66,-0.101 0.66,-0.153C0.66,-0.207 0.646,-0.249 0.62,-0.278C0.601,-0.298 0.58,-0.308 0.555,-0.308C0.531,-0.308 0.51,-0.297 0.492,-0.274C0.48,-0.26 0.471,-0.242 0.465,-0.22C0.458,-0.199 0.455,-0.177 0.455,-0.153Z" style="fill-rule:nonzero;"/>
            </g>
        </g>
        <g transform="matrix(1,0,0,1,20.0815,-14.133)">
            <g transform="matrix(48,0,0,48,151.108,172.565)">
                <path d="M0.333,-0.153C0.333,-0.149 0.31,-0.121 0.264,-0.071C0.214,-0.016 0.171,0.011 0.136,0.011C0.113,0.011 0.094,0.003 0.078,-0.015C0.061,-0.032 0.053,-0.053 0.053,-0.077C0.053,-0.104 0.064,-0.133 0.086,-0.162C0.109,-0.191 0.138,-0.217 0.176,-0.238C0.207,-0.256 0.233,-0.265 0.253,-0.265C0.277,-0.265 0.289,-0.251 0.289,-0.222C0.289,-0.2 0.281,-0.177 0.266,-0.155C0.251,-0.132 0.236,-0.121 0.221,-0.121C0.207,-0.121 0.199,-0.128 0.199,-0.143C0.199,-0.16 0.214,-0.176 0.244,-0.191C0.267,-0.202 0.279,-0.217 0.279,-0.236C0.279,-0.25 0.271,-0.258 0.255,-0.258C0.228,-0.258 0.195,-0.231 0.155,-0.177C0.116,-0.124 0.096,-0.078 0.096,-0.042C0.096,-0.011 0.111,0.004 0.139,0.004C0.184,0.004 0.245,-0.047 0.322,-0.148C0.326,-0.153 0.329,-0.156 0.331,-0.156C0.333,-0.156 0.333,-0.155 0.333,-0.153Z" style="fill-rule:nonzero;"/>
            </g>
            <g transform="matrix(48,0,0,48,162.733,172.565)">
                <path d="M0.38,-0.154C0.38,-0.148 0.371,-0.136 0.351,-0.117C0.323,-0.088 0.296,-0.074 0.272,-0.074C0.262,-0.074 0.253,-0.076 0.245,-0.08C0.202,-0.019 0.162,0.011 0.124,0.011C0.105,0.011 0.088,0.003 0.074,-0.013C0.06,-0.029 0.053,-0.048 0.053,-0.071C0.053,-0.121 0.086,-0.169 0.152,-0.216C0.198,-0.249 0.236,-0.265 0.266,-0.265C0.294,-0.265 0.308,-0.25 0.308,-0.22C0.308,-0.183 0.288,-0.138 0.249,-0.085C0.256,-0.081 0.263,-0.079 0.271,-0.079C0.286,-0.079 0.303,-0.086 0.322,-0.1C0.342,-0.113 0.358,-0.13 0.37,-0.149C0.374,-0.153 0.377,-0.156 0.378,-0.156C0.379,-0.156 0.38,-0.155 0.38,-0.154ZM0.301,-0.219C0.301,-0.246 0.289,-0.259 0.265,-0.259C0.236,-0.259 0.199,-0.23 0.157,-0.174C0.114,-0.117 0.093,-0.069 0.093,-0.031C0.093,-0.008 0.104,0.003 0.125,0.003C0.16,0.003 0.199,-0.026 0.24,-0.084C0.231,-0.094 0.226,-0.105 0.226,-0.116C0.226,-0.132 0.232,-0.149 0.245,-0.166C0.258,-0.182 0.27,-0.191 0.282,-0.191C0.287,-0.191 0.291,-0.188 0.293,-0.181C0.298,-0.193 0.301,-0.205 0.301,-0.219Z" style="fill-rule:nonzero;"/>
            </g>
            <g transform="matrix(48,0,0,48,176.655,172.565)">
                <path d="M0.369,-0.153C0.369,-0.15 0.36,-0.139 0.34,-0.117C0.315,-0.09 0.292,-0.076 0.27,-0.076C0.245,-0.076 0.233,-0.09 0.233,-0.119C0.233,-0.128 0.235,-0.14 0.239,-0.154C0.218,-0.136 0.202,-0.118 0.189,-0.101C0.176,-0.083 0.154,-0.047 0.122,0.007C0.105,0.006 0.095,0.005 0.092,0.005C0.09,0.005 0.081,0.006 0.062,0.007L0.142,-0.123C0.182,-0.188 0.202,-0.229 0.202,-0.244C0.202,-0.253 0.198,-0.258 0.191,-0.258C0.173,-0.258 0.14,-0.223 0.092,-0.153C0.089,-0.148 0.086,-0.146 0.084,-0.146C0.082,-0.146 0.082,-0.147 0.082,-0.149C0.082,-0.15 0.083,-0.152 0.084,-0.153L0.093,-0.165C0.143,-0.232 0.177,-0.265 0.195,-0.265C0.221,-0.265 0.234,-0.248 0.234,-0.215C0.234,-0.19 0.221,-0.157 0.194,-0.115C0.211,-0.135 0.227,-0.151 0.242,-0.163C0.255,-0.192 0.27,-0.216 0.288,-0.236C0.307,-0.255 0.323,-0.265 0.338,-0.265C0.348,-0.265 0.353,-0.261 0.353,-0.252C0.353,-0.236 0.33,-0.214 0.285,-0.185C0.278,-0.181 0.267,-0.174 0.253,-0.165L0.247,-0.16C0.243,-0.145 0.24,-0.133 0.24,-0.123C0.24,-0.096 0.251,-0.082 0.271,-0.082C0.296,-0.082 0.324,-0.103 0.354,-0.145C0.361,-0.152 0.365,-0.156 0.366,-0.156C0.368,-0.156 0.369,-0.155 0.369,-0.153Z" style="fill-rule:nonzero;"/>
            </g>
            <g transform="matrix(48,0,0,48,189.991,172.565)">
                <path d="M0.337,-0.153C0.337,-0.152 0.334,-0.147 0.328,-0.14L0.307,-0.114C0.24,-0.03 0.182,0.011 0.134,0.011C0.111,0.011 0.092,0.003 0.076,-0.013C0.061,-0.03 0.053,-0.05 0.053,-0.075C0.053,-0.134 0.094,-0.185 0.176,-0.23C0.219,-0.253 0.254,-0.265 0.281,-0.265C0.292,-0.265 0.302,-0.262 0.311,-0.255C0.319,-0.248 0.323,-0.239 0.323,-0.229C0.323,-0.206 0.308,-0.186 0.277,-0.169C0.247,-0.153 0.196,-0.137 0.124,-0.123C0.102,-0.09 0.091,-0.062 0.091,-0.039C0.091,-0.011 0.106,0.003 0.136,0.003C0.188,0.003 0.251,-0.047 0.325,-0.148C0.329,-0.153 0.333,-0.156 0.335,-0.156C0.337,-0.155 0.337,-0.154 0.337,-0.153ZM0.296,-0.243C0.296,-0.254 0.29,-0.259 0.279,-0.259C0.262,-0.259 0.239,-0.247 0.211,-0.223C0.183,-0.199 0.155,-0.168 0.128,-0.13C0.175,-0.142 0.215,-0.159 0.247,-0.181C0.28,-0.203 0.296,-0.224 0.296,-0.243Z" style="fill-rule:nonzero;"/>
            </g>
        </g>
        <g transform="matrix(1,0,0,1,90.3996,-20.5571)">
            <g transform="matrix(40.355,0,0,40.355,20.3817,311.7)">
                <path d="M0.246,-0.675C0.28,-0.675 0.312,-0.66 0.342,-0.629C0.356,-0.614 0.371,-0.594 0.385,-0.57C0.4,-0.546 0.412,-0.522 0.422,-0.497C0.444,-0.439 0.455,-0.385 0.455,-0.333C0.455,-0.282 0.444,-0.228 0.422,-0.17C0.412,-0.145 0.4,-0.12 0.385,-0.096C0.371,-0.072 0.356,-0.053 0.342,-0.038C0.312,-0.007 0.28,0.009 0.246,0.009C0.212,0.009 0.18,-0.007 0.15,-0.038C0.136,-0.053 0.121,-0.072 0.107,-0.096C0.092,-0.12 0.08,-0.145 0.07,-0.17C0.048,-0.228 0.037,-0.282 0.037,-0.333C0.037,-0.385 0.048,-0.439 0.07,-0.497C0.08,-0.522 0.092,-0.546 0.107,-0.57C0.121,-0.594 0.136,-0.614 0.15,-0.629C0.18,-0.66 0.212,-0.675 0.246,-0.675ZM0.246,-0.664C0.233,-0.664 0.22,-0.659 0.208,-0.649C0.195,-0.639 0.184,-0.625 0.174,-0.607C0.167,-0.594 0.159,-0.576 0.152,-0.553C0.144,-0.531 0.138,-0.508 0.133,-0.486C0.123,-0.435 0.118,-0.384 0.118,-0.333C0.118,-0.283 0.123,-0.232 0.133,-0.181C0.138,-0.158 0.144,-0.135 0.152,-0.113C0.159,-0.09 0.167,-0.073 0.174,-0.06C0.184,-0.041 0.196,-0.027 0.208,-0.018C0.221,-0.008 0.234,-0.003 0.247,-0.003C0.259,-0.003 0.272,-0.008 0.284,-0.018C0.297,-0.028 0.308,-0.042 0.318,-0.06C0.325,-0.073 0.333,-0.09 0.34,-0.113C0.348,-0.135 0.354,-0.158 0.358,-0.181C0.369,-0.232 0.375,-0.283 0.375,-0.333C0.375,-0.384 0.369,-0.435 0.358,-0.486C0.354,-0.508 0.348,-0.531 0.34,-0.553C0.333,-0.576 0.325,-0.594 0.318,-0.607C0.308,-0.625 0.297,-0.639 0.285,-0.649C0.272,-0.659 0.259,-0.664 0.246,-0.664Z" style="fill-rule:nonzero;"/>
            </g>
        </g>
        <g transform="matrix(1,0,0,1,61.774,-98.0542)">
            <g transform="matrix(40.355,0,0,40.355,10.4604,311.7)">
                <path d="M0.274,-0.667L0.286,-0.667L0.286,-0.131C0.286,-0.106 0.288,-0.086 0.292,-0.07C0.297,-0.054 0.303,-0.042 0.313,-0.035C0.328,-0.021 0.353,-0.013 0.387,-0.01L0.387,-0L0.105,-0L0.105,-0.01C0.127,-0.012 0.143,-0.015 0.154,-0.018C0.165,-0.022 0.175,-0.028 0.183,-0.038C0.192,-0.047 0.197,-0.058 0.2,-0.07C0.204,-0.083 0.205,-0.102 0.205,-0.128L0.205,-0.594C0.188,-0.592 0.175,-0.591 0.166,-0.591C0.142,-0.591 0.122,-0.593 0.107,-0.597L0.107,-0.606L0.119,-0.606C0.144,-0.606 0.167,-0.61 0.19,-0.618C0.212,-0.627 0.237,-0.64 0.264,-0.659L0.274,-0.667Z" style="fill-rule:nonzero;"/>
            </g>
            <g transform="matrix(40.355,0,0,40.355,30.303,311.7)">
                <path d="M0.441,-0.657L0.204,-0.054L0.194,-0.029C0.188,-0.016 0.182,-0.006 0.175,-0C0.168,0.006 0.159,0.009 0.149,0.009C0.138,0.009 0.128,0.005 0.12,-0.002C0.111,-0.009 0.107,-0.018 0.107,-0.028C0.107,-0.037 0.111,-0.049 0.12,-0.065L0.13,-0.084L0.39,-0.579L0.177,-0.579C0.16,-0.579 0.146,-0.578 0.137,-0.576C0.127,-0.575 0.119,-0.571 0.112,-0.567C0.102,-0.56 0.094,-0.552 0.087,-0.542C0.081,-0.532 0.072,-0.515 0.062,-0.491L0.06,-0.485L0.05,-0.485L0.094,-0.68L0.104,-0.68C0.106,-0.669 0.11,-0.663 0.115,-0.66C0.12,-0.657 0.13,-0.656 0.146,-0.656L0.441,-0.657Z" style="fill-rule:nonzero;"/>
            </g>
        </g>
        <g transform="matrix(1,0,0,1,95.4975,-175.394)">
            <g transform="matrix(40.355,0,0,40.355,10.4604,311.7)">
                <path d="M0.307,-0.358C0.404,-0.332 0.453,-0.277 0.453,-0.193C0.453,-0.164 0.446,-0.137 0.434,-0.11C0.416,-0.073 0.389,-0.044 0.352,-0.023C0.315,-0.002 0.272,0.009 0.223,0.009C0.194,0.009 0.167,0.005 0.141,-0.004C0.116,-0.012 0.095,-0.023 0.079,-0.038C0.067,-0.049 0.057,-0.063 0.05,-0.079C0.043,-0.094 0.04,-0.11 0.04,-0.126C0.04,-0.154 0.049,-0.177 0.067,-0.196C0.086,-0.215 0.109,-0.225 0.136,-0.225L0.138,-0.216C0.123,-0.204 0.112,-0.191 0.106,-0.178C0.099,-0.166 0.096,-0.15 0.096,-0.132C0.096,-0.104 0.104,-0.079 0.12,-0.057C0.132,-0.04 0.148,-0.027 0.167,-0.017C0.186,-0.008 0.207,-0.003 0.229,-0.003C0.273,-0.003 0.308,-0.021 0.335,-0.055C0.347,-0.071 0.357,-0.091 0.365,-0.114C0.372,-0.136 0.375,-0.16 0.375,-0.183C0.375,-0.209 0.371,-0.234 0.362,-0.259C0.353,-0.283 0.341,-0.303 0.327,-0.317C0.309,-0.334 0.29,-0.342 0.27,-0.342C0.264,-0.342 0.258,-0.341 0.253,-0.339C0.248,-0.337 0.241,-0.333 0.232,-0.326C0.215,-0.314 0.201,-0.308 0.188,-0.308C0.179,-0.308 0.171,-0.311 0.165,-0.316C0.158,-0.322 0.155,-0.329 0.155,-0.337C0.155,-0.347 0.159,-0.355 0.167,-0.362C0.175,-0.368 0.185,-0.371 0.198,-0.371C0.204,-0.371 0.209,-0.37 0.214,-0.369L0.233,-0.364C0.239,-0.363 0.245,-0.362 0.252,-0.362C0.274,-0.362 0.296,-0.372 0.316,-0.392C0.344,-0.42 0.358,-0.457 0.358,-0.504C0.358,-0.526 0.355,-0.548 0.348,-0.569C0.341,-0.59 0.331,-0.608 0.318,-0.624C0.295,-0.65 0.268,-0.664 0.235,-0.664C0.208,-0.664 0.185,-0.655 0.168,-0.638C0.15,-0.621 0.142,-0.599 0.142,-0.573C0.142,-0.553 0.146,-0.536 0.156,-0.522C0.165,-0.508 0.178,-0.499 0.194,-0.495L0.196,-0.486C0.184,-0.481 0.172,-0.479 0.161,-0.479C0.138,-0.479 0.119,-0.486 0.104,-0.5C0.09,-0.514 0.083,-0.532 0.083,-0.555C0.083,-0.588 0.098,-0.616 0.129,-0.64C0.16,-0.663 0.198,-0.675 0.242,-0.675C0.268,-0.675 0.294,-0.671 0.318,-0.663C0.343,-0.655 0.364,-0.643 0.381,-0.628C0.397,-0.614 0.41,-0.597 0.419,-0.577C0.428,-0.557 0.433,-0.536 0.433,-0.514C0.433,-0.467 0.415,-0.429 0.379,-0.398C0.362,-0.384 0.338,-0.371 0.307,-0.358Z" style="fill-rule:nonzero;"/>
            </g>
            <g transform="matrix(40.355,0,0,40.355,30.303,311.7)">
                <path d="M0.279,-0.159L0.035,-0.159L0.035,-0.169L0.338,-0.668L0.36,-0.668L0.36,-0.176C0.382,-0.176 0.397,-0.178 0.406,-0.18C0.415,-0.183 0.423,-0.188 0.43,-0.197C0.435,-0.204 0.439,-0.211 0.442,-0.219C0.444,-0.227 0.446,-0.237 0.447,-0.25L0.447,-0.262L0.458,-0.262L0.458,-0.076L0.447,-0.076C0.446,-0.096 0.444,-0.11 0.441,-0.119C0.439,-0.129 0.435,-0.136 0.429,-0.142C0.422,-0.149 0.415,-0.153 0.407,-0.155C0.399,-0.158 0.387,-0.159 0.371,-0.159L0.36,-0.159L0.36,-0.109C0.36,-0.091 0.361,-0.076 0.365,-0.065C0.368,-0.053 0.373,-0.043 0.38,-0.036C0.387,-0.027 0.394,-0.022 0.403,-0.019C0.411,-0.015 0.425,-0.013 0.443,-0.01L0.443,-0L0.198,-0L0.198,-0.01C0.23,-0.013 0.251,-0.02 0.261,-0.03C0.268,-0.037 0.272,-0.047 0.275,-0.059C0.278,-0.072 0.279,-0.089 0.279,-0.112L0.279,-0.159ZM0.279,-0.176L0.279,-0.535L0.059,-0.176L0.279,-0.176Z" style="fill-rule:nonzero;"/>
            </g>
        </g>
        <g transform="matrix(1,0,0,1,169.993,-206.435)">
            <g transform="matrix(40.355,0,0,40.355,10.4604,311.7)">
                <path d="M0.132,-0.309L0.22,-0.668C0.266,-0.657 0.309,-0.651 0.348,-0.651C0.371,-0.651 0.39,-0.653 0.404,-0.655C0.418,-0.658 0.431,-0.662 0.443,-0.668C0.44,-0.653 0.436,-0.639 0.431,-0.629C0.426,-0.619 0.419,-0.61 0.409,-0.602C0.392,-0.587 0.365,-0.58 0.33,-0.58C0.303,-0.58 0.266,-0.584 0.221,-0.593L0.167,-0.379C0.184,-0.392 0.2,-0.401 0.214,-0.406C0.228,-0.412 0.244,-0.414 0.264,-0.414C0.314,-0.414 0.357,-0.396 0.39,-0.36C0.405,-0.344 0.417,-0.325 0.426,-0.303C0.434,-0.282 0.438,-0.26 0.438,-0.238C0.438,-0.204 0.43,-0.169 0.415,-0.135C0.393,-0.089 0.364,-0.053 0.326,-0.029C0.289,-0.004 0.245,0.009 0.196,0.009C0.17,0.009 0.145,0.005 0.121,-0.003C0.097,-0.01 0.077,-0.021 0.062,-0.034C0.049,-0.044 0.039,-0.057 0.032,-0.071C0.025,-0.085 0.022,-0.1 0.022,-0.115C0.022,-0.13 0.026,-0.142 0.035,-0.152C0.043,-0.161 0.053,-0.166 0.066,-0.166C0.077,-0.166 0.085,-0.162 0.092,-0.155C0.099,-0.147 0.102,-0.138 0.102,-0.126C0.102,-0.121 0.102,-0.115 0.101,-0.106C0.1,-0.099 0.1,-0.093 0.1,-0.086C0.1,-0.061 0.108,-0.041 0.125,-0.026C0.141,-0.011 0.163,-0.003 0.191,-0.003C0.236,-0.003 0.273,-0.024 0.303,-0.064C0.318,-0.086 0.33,-0.112 0.339,-0.144C0.348,-0.175 0.353,-0.207 0.353,-0.239C0.353,-0.289 0.343,-0.328 0.324,-0.358C0.305,-0.388 0.279,-0.402 0.247,-0.402C0.225,-0.402 0.206,-0.394 0.189,-0.379C0.172,-0.363 0.159,-0.34 0.148,-0.309L0.132,-0.309Z" style="fill-rule:nonzero;"/>
            </g>
            <g transform="matrix(40.355,0,0,40.355,30.303,311.7)">
                <path d="M0.246,-0.675C0.28,-0.675 0.312,-0.66 0.342,-0.629C0.356,-0.614 0.371,-0.594 0.385,-0.57C0.4,-0.546 0.412,-0.522 0.422,-0.497C0.444,-0.439 0.455,-0.385 0.455,-0.333C0.455,-0.282 0.444,-0.228 0.422,-0.17C0.412,-0.145 0.4,-0.12 0.385,-0.096C0.371,-0.072 0.356,-0.053 0.342,-0.038C0.312,-0.007 0.28,0.009 0.246,0.009C0.212,0.009 0.18,-0.007 0.15,-0.038C0.136,-0.053 0.121,-0.072 0.107,-0.096C0.092,-0.12 0.08,-0.145 0.07,-0.17C0.048,-0.228 0.037,-0.282 0.037,-0.333C0.037,-0.385 0.048,-0.439 0.07,-0.497C0.08,-0.522 0.092,-0.546 0.107,-0.57C0.121,-0.594 0.136,-0.614 0.15,-0.629C0.18,-0.66 0.212,-0.675 0.246,-0.675ZM0.246,-0.664C0.233,-0.664 0.22,-0.659 0.208,-0.649C0.195,-0.639 0.184,-0.625 0.174,-0.607C0.167,-0.594 0.159,-0.576 0.152,-0.553C0.144,-0.531 0.138,-0.508 0.133,-0.486C0.123,-0.435 0.118,-0.384 0.118,-0.333C0.118,-0.283 0.123,-0.232 0.133,-0.181C0.138,-0.158 0.144,-0.135 0.152,-0.113C0.159,-0.09 0.167,-0.073 0.174,-0.06C0.184,-0.041 0.196,-0.027 0.208,-0.018C0.221,-0.008 0.234,-0.003 0.247,-0.003C0.259,-0.003 0.272,-0.008 0.284,-0.018C0.297,-0.028 0.308,-0.042 0.318,-0.06C0.325,-0.073 0.333,-0.09 0.34,-0.113C0.348,-0.135 0.354,-0.158 0.358,-0.181C0.369,-0.232 0.375,-0.283 0.375,-0.333C0.375,-0.384 0.369,-0.435 0.358,-0.486C0.354,-0.508 0.348,-0.531 0.34,-0.553C0.333,-0.576 0.325,-0.594 0.318,-0.607C0.308,-0.625 0.297,-0.639 0.285,-0.649C0.272,-0.659 0.259,-0.664 0.246,-0.664Z" style="fill-rule:nonzero;"/>
            </g>
        </g>
        <g transform="matrix(1,0,0,1,242.151,-170.274)">
            <g transform="matrix(40.355,0,0,40.355,10.4604,311.7)">
                <path d="M0.129,-0.379C0.151,-0.397 0.172,-0.41 0.192,-0.418C0.212,-0.426 0.233,-0.43 0.256,-0.43C0.281,-0.43 0.306,-0.424 0.331,-0.413C0.369,-0.396 0.399,-0.37 0.42,-0.335C0.442,-0.301 0.453,-0.261 0.453,-0.217C0.453,-0.185 0.447,-0.155 0.436,-0.126C0.425,-0.097 0.408,-0.072 0.388,-0.051C0.349,-0.011 0.302,0.009 0.247,0.009C0.182,0.009 0.13,-0.019 0.092,-0.073C0.057,-0.123 0.04,-0.187 0.04,-0.267C0.04,-0.331 0.051,-0.392 0.072,-0.448C0.093,-0.505 0.122,-0.554 0.161,-0.595C0.187,-0.623 0.214,-0.643 0.241,-0.656C0.269,-0.669 0.298,-0.675 0.329,-0.675C0.363,-0.675 0.392,-0.669 0.414,-0.655C0.436,-0.642 0.448,-0.625 0.448,-0.605C0.448,-0.594 0.445,-0.585 0.438,-0.578C0.432,-0.571 0.424,-0.568 0.414,-0.568C0.407,-0.568 0.401,-0.569 0.395,-0.572C0.39,-0.576 0.385,-0.58 0.381,-0.586C0.377,-0.591 0.373,-0.602 0.367,-0.617C0.361,-0.633 0.353,-0.645 0.344,-0.651C0.336,-0.658 0.323,-0.662 0.308,-0.662C0.266,-0.662 0.228,-0.634 0.194,-0.58C0.159,-0.524 0.138,-0.457 0.129,-0.379ZM0.121,-0.209C0.121,-0.148 0.132,-0.098 0.155,-0.061C0.178,-0.023 0.208,-0.003 0.243,-0.003C0.261,-0.003 0.278,-0.009 0.294,-0.019C0.31,-0.029 0.323,-0.044 0.335,-0.064C0.347,-0.083 0.356,-0.108 0.363,-0.136C0.37,-0.165 0.374,-0.194 0.374,-0.222C0.374,-0.251 0.37,-0.279 0.363,-0.306C0.356,-0.334 0.346,-0.356 0.333,-0.374C0.311,-0.403 0.283,-0.418 0.247,-0.418C0.217,-0.418 0.191,-0.406 0.169,-0.38C0.154,-0.361 0.142,-0.337 0.133,-0.307C0.125,-0.278 0.121,-0.245 0.121,-0.209Z" style="fill-rule:nonzero;"/>
            </g>
            <g transform="matrix(40.355,0,0,40.355,30.303,311.7)">
                <path d="M0.129,-0.379C0.151,-0.397 0.172,-0.41 0.192,-0.418C0.212,-0.426 0.233,-0.43 0.256,-0.43C0.281,-0.43 0.306,-0.424 0.331,-0.413C0.369,-0.396 0.399,-0.37 0.42,-0.335C0.442,-0.301 0.453,-0.261 0.453,-0.217C0.453,-0.185 0.447,-0.155 0.436,-0.126C0.425,-0.097 0.408,-0.072 0.388,-0.051C0.349,-0.011 0.302,0.009 0.247,0.009C0.182,0.009 0.13,-0.019 0.092,-0.073C0.057,-0.123 0.04,-0.187 0.04,-0.267C0.04,-0.331 0.051,-0.392 0.072,-0.448C0.093,-0.505 0.122,-0.554 0.161,-0.595C0.187,-0.623 0.214,-0.643 0.241,-0.656C0.269,-0.669 0.298,-0.675 0.329,-0.675C0.363,-0.675 0.392,-0.669 0.414,-0.655C0.436,-0.642 0.448,-0.625 0.448,-0.605C0.448,-0.594 0.445,-0.585 0.438,-0.578C0.432,-0.571 0.424,-0.568 0.414,-0.568C0.407,-0.568 0.401,-0.569 0.395,-0.572C0.39,-0.576 0.385,-0.58 0.381,-0.586C0.377,-0.591 0.373,-0.602 0.367,-0.617C0.361,-0.633 0.353,-0.645 0.344,-0.651C0.336,-0.658 0.323,-0.662 0.308,-0.662C0.266,-0.662 0.228,-0.634 0.194,-0.58C0.159,-0.524 0.138,-0.457 0.129,-0.379ZM0.121,-0.209C0.121,-0.148 0.132,-0.098 0.155,-0.061C0.178,-0.023 0.208,-0.003 0.243,-0.003C0.261,-0.003 0.278,-0.009 0.294,-0.019C0.31,-0.029 0.323,-0.044 0.335,-0.064C0.347,-0.083 0.356,-0.108 0.363,-0.136C0.37,-0.165 0.374,-0.194 0.374,-0.222C0.374,-0.251 0.37,-0.279 0.363,-0.306C0.356,-0.334 0.346,-0.356 0.333,-0.374C0.311,-0.403 0.283,-0.418 0.247,-0.418C0.217,-0.418 0.191,-0.406 0.169,-0.38C0.154,-0.361 0.142,-0.337 0.133,-0.307C0.125,-0.278 0.121,-0.245 0.121,-0.209Z" style="fill-rule:nonzero;"/>
            </g>
        </g>
        <g transform="matrix(1,0,0,1,274.066,-98.2512)">
            <g transform="matrix(40.355,0,0,40.355,10.4604,311.7)">
                <path d="M0.301,-0.368C0.326,-0.354 0.346,-0.342 0.361,-0.331C0.375,-0.32 0.388,-0.309 0.399,-0.296C0.431,-0.261 0.446,-0.22 0.446,-0.173C0.446,-0.122 0.429,-0.079 0.395,-0.045C0.359,-0.009 0.312,0.009 0.253,0.009C0.189,0.009 0.136,-0.011 0.096,-0.049C0.063,-0.082 0.046,-0.12 0.046,-0.165C0.046,-0.213 0.065,-0.253 0.102,-0.284C0.118,-0.298 0.146,-0.315 0.187,-0.336C0.149,-0.355 0.12,-0.377 0.1,-0.401C0.074,-0.433 0.061,-0.469 0.061,-0.51C0.061,-0.553 0.076,-0.59 0.105,-0.621C0.122,-0.638 0.142,-0.652 0.165,-0.661C0.189,-0.671 0.214,-0.675 0.241,-0.675C0.266,-0.675 0.289,-0.671 0.312,-0.664C0.334,-0.656 0.354,-0.646 0.37,-0.632C0.402,-0.604 0.418,-0.569 0.418,-0.527C0.418,-0.487 0.404,-0.453 0.376,-0.424C0.363,-0.41 0.338,-0.391 0.301,-0.368ZM0.279,-0.377C0.301,-0.394 0.317,-0.415 0.328,-0.439C0.339,-0.463 0.344,-0.49 0.344,-0.52C0.344,-0.562 0.334,-0.596 0.312,-0.623C0.291,-0.65 0.264,-0.664 0.231,-0.664C0.199,-0.664 0.173,-0.652 0.153,-0.629C0.133,-0.607 0.123,-0.577 0.123,-0.542C0.123,-0.495 0.142,-0.457 0.182,-0.426C0.203,-0.41 0.236,-0.393 0.279,-0.377ZM0.206,-0.327C0.176,-0.304 0.153,-0.278 0.138,-0.25C0.123,-0.222 0.115,-0.191 0.115,-0.155C0.115,-0.112 0.127,-0.076 0.151,-0.048C0.177,-0.018 0.21,-0.003 0.253,-0.003C0.289,-0.003 0.317,-0.015 0.339,-0.038C0.351,-0.05 0.36,-0.066 0.366,-0.083C0.373,-0.101 0.376,-0.12 0.376,-0.14C0.376,-0.185 0.359,-0.224 0.326,-0.256C0.301,-0.281 0.261,-0.304 0.206,-0.327Z" style="fill-rule:nonzero;"/>
            </g>
            <g transform="matrix(40.355,0,0,40.355,30.303,311.7)">
                <path d="M0.307,-0.358C0.404,-0.332 0.453,-0.277 0.453,-0.193C0.453,-0.164 0.446,-0.137 0.434,-0.11C0.416,-0.073 0.389,-0.044 0.352,-0.023C0.315,-0.002 0.272,0.009 0.223,0.009C0.194,0.009 0.167,0.005 0.141,-0.004C0.116,-0.012 0.095,-0.023 0.079,-0.038C0.067,-0.049 0.057,-0.063 0.05,-0.079C0.043,-0.094 0.04,-0.11 0.04,-0.126C0.04,-0.154 0.049,-0.177 0.067,-0.196C0.086,-0.215 0.109,-0.225 0.136,-0.225L0.138,-0.216C0.123,-0.204 0.112,-0.191 0.106,-0.178C0.099,-0.166 0.096,-0.15 0.096,-0.132C0.096,-0.104 0.104,-0.079 0.12,-0.057C0.132,-0.04 0.148,-0.027 0.167,-0.017C0.186,-0.008 0.207,-0.003 0.229,-0.003C0.273,-0.003 0.308,-0.021 0.335,-0.055C0.347,-0.071 0.357,-0.091 0.365,-0.114C0.372,-0.136 0.375,-0.16 0.375,-0.183C0.375,-0.209 0.371,-0.234 0.362,-0.259C0.353,-0.283 0.341,-0.303 0.327,-0.317C0.309,-0.334 0.29,-0.342 0.27,-0.342C0.264,-0.342 0.258,-0.341 0.253,-0.339C0.248,-0.337 0.241,-0.333 0.232,-0.326C0.215,-0.314 0.201,-0.308 0.188,-0.308C0.179,-0.308 0.171,-0.311 0.165,-0.316C0.158,-0.322 0.155,-0.329 0.155,-0.337C0.155,-0.347 0.159,-0.355 0.167,-0.362C0.175,-0.368 0.185,-0.371 0.198,-0.371C0.204,-0.371 0.209,-0.37 0.214,-0.369L0.233,-0.364C0.239,-0.363 0.245,-0.362 0.252,-0.362C0.274,-0.362 0.296,-0.372 0.316,-0.392C0.344,-0.42 0.358,-0.457 0.358,-0.504C0.358,-0.526 0.355,-0.548 0.348,-0.569C0.341,-0.59 0.331,-0.608 0.318,-0.624C0.295,-0.65 0.268,-0.664 0.235,-0.664C0.208,-0.664 0.185,-0.655 0.168,-0.638C0.15,-0.621 0.142,-0.599 0.142,-0.573C0.142,-0.553 0.146,-0.536 0.156,-0.522C0.165,-0.508 0.178,-0.499 0.194,-0.495L0.196,-0.486C0.184,-0.481 0.172,-0.479 0.161,-0.479C0.138,-0.479 0.119,-0.486 0.104,-0.5C0.09,-0.514 0.083,-0.532 0.083,-0.555C0.083,-0.588 0.098,-0.616 0.129,-0.64C0.16,-0.663 0.198,-0.675 0.242,-0.675C0.268,-0.675 0.294,-0.671 0.318,-0.663C0.343,-0.655 0.364,-0.643 0.381,-0.628C0.397,-0.614 0.41,-0.597 0.419,-0.577C0.428,-0.557 0.433,-0.536 0.433,-0.514C0.433,-0.467 0.415,-0.429 0.379,-0.398C0.362,-0.384 0.338,-0.371 0.307,-0.358Z" style="fill-rule:nonzero;"/>
            </g>
        </g>
        <g transform="matrix(1,0,0,1,234.347,-23.0356)">
            <g transform="matrix(40.355,0,0,40.355,0.539152,311.7)">
                <path d="M0.274,-0.667L0.286,-0.667L0.286,-0.131C0.286,-0.106 0.288,-0.086 0.292,-0.07C0.297,-0.054 0.303,-0.042 0.313,-0.035C0.328,-0.021 0.353,-0.013 0.387,-0.01L0.387,-0L0.105,-0L0.105,-0.01C0.127,-0.012 0.143,-0.015 0.154,-0.018C0.165,-0.022 0.175,-0.028 0.183,-0.038C0.192,-0.047 0.197,-0.058 0.2,-0.07C0.204,-0.083 0.205,-0.102 0.205,-0.128L0.205,-0.594C0.188,-0.592 0.175,-0.591 0.166,-0.591C0.142,-0.591 0.122,-0.593 0.107,-0.597L0.107,-0.606L0.119,-0.606C0.144,-0.606 0.167,-0.61 0.19,-0.618C0.212,-0.627 0.237,-0.64 0.264,-0.659L0.274,-0.667Z" style="fill:rgb(179,0,0);fill-rule:nonzero;"/>
            </g>
            <g transform="matrix(40.355,0,0,40.355,20.3817,311.7)">
                <path d="M0.246,-0.675C0.28,-0.675 0.312,-0.66 0.342,-0.629C0.356,-0.614 0.371,-0.594 0.385,-0.57C0.4,-0.546 0.412,-0.522 0.422,-0.497C0.444,-0.439 0.455,-0.385 0.455,-0.333C0.455,-0.282 0.444,-0.228 0.422,-0.17C0.412,-0.145 0.4,-0.12 0.385,-0.096C0.371,-0.072 0.356,-0.053 0.342,-0.038C0.312,-0.007 0.28,0.009 0.246,0.009C0.212,0.009 0.18,-0.007 0.15,-0.038C0.136,-0.053 0.121,-0.072 0.107,-0.096C0.092,-0.12 0.08,-0.145 0.07,-0.17C0.048,-0.228 0.037,-0.282 0.037,-0.333C0.037,-0.385 0.048,-0.439 0.07,-0.497C0.08,-0.522 0.092,-0.546 0.107,-0.57C0.121,-0.594 0.136,-0.614 0.15,-0.629C0.18,-0.66 0.212,-0.675 0.246,-0.675ZM0.246,-0.664C0.233,-0.664 0.22,-0.659 0.208,-0.649C0.195,-0.639 0.184,-0.625 0.174,-0.607C0.167,-0.594 0.159,-0.576 0.152,-0.553C0.144,-0.531 0.138,-0.508 0.133,-0.486C0.123,-0.435 0.118,-0.384 0.118,-0.333C0.118,-0.283 0.123,-0.232 0.133,-0.181C0.138,-0.158 0.144,-0.135 0.152,-0.113C0.159,-0.09 0.167,-0.073 0.174,-0.06C0.184,-0.041 0.196,-0.027 0.208,-0.018C0.221,-0.008 0.234,-0.003 0.247,-0.003C0.259,-0.003 0.272,-0.008 0.284,-0.018C0.297,-0.028 0.308,-0.042 0.318,-0.06C0.325,-0.073 0.333,-0.09 0.34,-0.113C0.348,-0.135 0.354,-0.158 0.358,-0.181C0.369,-0.232 0.375,-0.283 0.375,-0.333C0.375,-0.384 0.369,-0.435 0.358,-0.486C0.354,-0.508 0.348,-0.531 0.34,-0.553C0.333,-0.576 0.325,-0.594 0.318,-0.607C0.308,-0.625 0.297,-0.639 0.285,-0.649C0.272,-0.659 0.259,-0.664 0.246,-0.664Z" style="fill:rgb(179,0,0);fill-rule:nonzero;"/>
            </g>
            <g transform="matrix(40.355,0,0,40.355,40.2242,311.7)">
                <path d="M0.246,-0.675C0.28,-0.675 0.312,-0.66 0.342,-0.629C0.356,-0.614 0.371,-0.594 0.385,-0.57C0.4,-0.546 0.412,-0.522 0.422,-0.497C0.444,-0.439 0.455,-0.385 0.455,-0.333C0.455,-0.282 0.444,-0.228 0.422,-0.17C0.412,-0.145 0.4,-0.12 0.385,-0.096C0.371,-0.072 0.356,-0.053 0.342,-0.038C0.312,-0.007 0.28,0.009 0.246,0.009C0.212,0.009 0.18,-0.007 0.15,-0.038C0.136,-0.053 0.121,-0.072 0.107,-0.096C0.092,-0.12 0.08,-0.145 0.07,-0.17C0.048,-0.228 0.037,-0.282 0.037,-0.333C0.037,-0.385 0.048,-0.439 0.07,-0.497C0.08,-0.522 0.092,-0.546 0.107,-0.57C0.121,-0.594 0.136,-0.614 0.15,-0.629C0.18,-0.66 0.212,-0.675 0.246,-0.675ZM0.246,-0.664C0.233,-0.664 0.22,-0.659 0.208,-0.649C0.195,-0.639 0.184,-0.625 0.174,-0.607C0.167,-0.594 0.159,-0.576 0.152,-0.553C0.144,-0.531 0.138,-0.508 0.133,-0.486C0.123,-0.435 0.118,-0.384 0.118,-0.333C0.118,-0.283 0.123,-0.232 0.133,-0.181C0.138,-0.158 0.144,-0.135 0.152,-0.113C0.159,-0.09 0.167,-0.073 0.174,-0.06C0.184,-0.041 0.196,-0.027 0.208,-0.018C0.221,-0.008 0.234,-0.003 0.247,-0.003C0.259,-0.003 0.272,-0.008 0.284,-0.018C0.297,-0.028 0.308,-0.042 0.318,-0.06C0.325,-0.073 0.333,-0.09 0.34,-0.113C0.348,-0.135 0.354,-0.158 0.358,-0.181C0.369,-0.232 0.375,-0.283 0.375,-0.333C0.375,-0.384 0.369,-0.435 0.358,-0.486C0.354,-0.508 0.348,-0.531 0.34,-0.553C0.333,-0.576 0.325,-0.594 0.318,-0.607C0.308,-0.625 0.297,-0.639 0.285,-0.649C0.272,-0.659 0.259,-0.664 0.246,-0.664Z" style="fill:rgb(179,0,0);fill-rule:nonzero;"/>
            </g>
        </g>
    </g>
    <g id="Small-lines" serif:id="Small lines" transform="matrix(1.26563,0,0,1.26563,-53.4259,17.4124)">
        <path d="M291.18,238.499C316.753,213.819 331.197,179.806 331.197,144.266C331.197,71.988 272.516,13.307 200.237,13.307C127.958,13.307 69.277,71.988 69.277,144.266C69.277,191.945 95.19,235.856 136.926,258.906L145.157,244.003C108.846,223.95 86.302,185.747 86.302,144.266C86.302,81.384 137.355,30.331 200.237,30.331C263.119,30.331 314.172,81.384 314.172,144.266C314.172,175.186 301.606,204.777 279.357,226.249L291.18,238.499Z" style="fill:none;"/>
        <clipPath id="_clip1">
            <path d="M291.18,238.499C316.753,213.819 331.197,179.806 331.197,144.266C331.197,71.988 272.516,13.307 200.237,13.307C127.958,13.307 69.277,71.988 69.277,144.266C69.277,191.945 95.19,235.856 136.926,258.906L145.157,244.003C108.846,223.95 86.302,185.747 86.302,144.266C86.302,81.384 137.355,30.331 200.237,30.331C263.119,30.331 314.172,81.384 314.172,144.266C314.172,175.186 301.606,204.777 279.357,226.249L291.18,238.499Z"/>
        </clipPath>
        <g clip-path="url(#_clip1)">
            <g transform="matrix(0.790121,0,0,0.790121,42.2129,-13.7579)">
                <g transform="matrix(0.206673,0,0,1.02927,159.693,-11.7077)">
                    <rect x="190.187" y="11.375" width="19.448" height="388.625"/>
                </g>
                <g transform="matrix(0.14614,0.14614,-0.727803,0.727803,321.495,21.0851)">
                    <rect x="190.187" y="11.375" width="19.448" height="388.625"/>
                </g>
                <g transform="matrix(-0.14614,0.14614,-0.727803,-0.727803,379.925,320.485)">
                    <rect x="190.187" y="11.375" width="19.448" height="388.625"/>
                </g>
                <g transform="matrix(0,0.206673,-1.02927,0,412.717,158.684)">
                    <rect x="190.187" y="11.375" width="19.448" height="388.625"/>
                </g>
                <g transform="matrix(0.206033,0.0162602,-0.0809787,1.02608,176.478,-14.302)">
                    <rect x="190.187" y="11.375" width="19.448" height="388.625"/>
                </g>
                <g transform="matrix(0.134189,0.157185,-0.782808,0.668287,335.197,31.119)">
                    <rect x="190.187" y="11.375" width="19.448" height="388.625"/>
                </g>
                <g transform="matrix(-0.157185,0.134189,-0.668287,-0.782808,369.891,334.188)">
                    <rect x="190.187" y="11.375" width="19.448" height="388.625"/>
                </g>
                <g transform="matrix(-0.0162602,0.206033,-1.02608,-0.0809787,415.312,175.468)">
                    <rect x="190.187" y="11.375" width="19.448" height="388.625"/>
                </g>
                <g transform="matrix(0.204115,0.0324196,-0.161455,1.01653,193.414,-15.5678)">
                    <rect x="190.187" y="11.375" width="19.448" height="388.625"/>
                </g>
                <g transform="matrix(0.121407,0.167255,-0.832959,0.604627,348.068,42.1998)">
                    <rect x="190.187" y="11.375" width="19.448" height="388.625"/>
                </g>
                <g transform="matrix(-0.167255,0.121407,-0.604627,-0.832959,358.81,347.059)">
                    <rect x="190.187" y="11.375" width="19.448" height="388.625"/>
                </g>
                <g transform="matrix(-0.0324196,0.204115,-1.01653,-0.161455,416.577,192.405)">
                    <rect x="190.187" y="11.375" width="19.448" height="388.625"/>
                </g>
                <g transform="matrix(0.200932,0.0483781,-0.240931,1.00067,210.398,-15.4971)">
                    <rect x="190.187" y="11.375" width="19.448" height="388.625"/>
                </g>
                <g transform="matrix(0.107872,0.176289,-0.877947,0.537219,360.028,54.2589)">
                    <rect x="190.187" y="11.375" width="19.448" height="388.625"/>
                </g>
                <g transform="matrix(-0.176289,0.107872,-0.537219,-0.877947,346.751,359.018)">
                    <rect x="190.187" y="11.375" width="19.448" height="388.625"/>
                </g>
                <g transform="matrix(-0.0483781,0.200932,-1.00067,-0.240931,416.507,209.388)">
                    <rect x="190.187" y="11.375" width="19.448" height="388.625"/>
                </g>
                <g transform="matrix(0.196503,0.0640366,-0.318913,0.978616,227.323,-14.0905)">
                    <rect x="190.187" y="11.375" width="19.448" height="388.625"/>
                </g>
                <g transform="matrix(0.0936676,0.184229,-0.917492,0.46648,371.001,67.2216)">
                    <rect x="190.187" y="11.375" width="19.448" height="388.625"/>
                </g>
                <g transform="matrix(-0.184229,0.0936676,-0.46648,-0.917492,333.788,369.991)">
                    <rect x="190.187" y="11.375" width="19.448" height="388.625"/>
                </g>
                <g transform="matrix(-0.0640366,0.196503,-0.978616,-0.318913,415.1,226.313)">
                    <rect x="190.187" y="11.375" width="19.448" height="388.625"/>
                </g>
                <g transform="matrix(0.190855,0.0792981,-0.394918,0.950492,244.085,-11.3567)">
                    <rect x="190.187" y="11.375" width="19.448" height="388.625"/>
                </g>
                <g transform="matrix(0.0788828,0.191027,-0.951348,0.39285,380.921,81.0074)">
                    <rect x="190.187" y="11.375" width="19.448" height="388.625"/>
                </g>
                <g transform="matrix(-0.191027,0.0788828,-0.39285,-0.951348,320.002,379.911)">
                    <rect x="190.187" y="11.375" width="19.448" height="388.625"/>
                </g>
                <g transform="matrix(-0.0792981,0.190855,-0.950492,-0.394918,412.366,243.076)">
                    <rect x="190.187" y="11.375" width="19.448" height="388.625"/>
                </g>
                <g transform="matrix(0.184025,0.094068,-0.468475,0.916475,260.581,-7.31251)">
                    <rect x="190.187" y="11.375" width="19.448" height="388.625"/>
                </g>
                <g transform="matrix(0.0636091,0.196641,-0.979307,0.316784,389.725,95.5309)">
                    <rect x="190.187" y="11.375" width="19.448" height="388.625"/>
                </g>
                <g transform="matrix(-0.196641,0.0636091,-0.316784,-0.979307,305.479,388.715)">
                    <rect x="190.187" y="11.375" width="19.448" height="388.625"/>
                </g>
                <g transform="matrix(-0.094068,0.184025,-0.916475,-0.468475,408.322,259.571)">
                    <rect x="190.187" y="11.375" width="19.448" height="388.625"/>
                </g>
                <path id="off_line" d="M270.034,93.59C270.881,94.71 271.792,95.762 272.76,96.741L91.193,367.165L87.856,364.925L270.034,93.59ZM304.554,42.177L310.827,32.835L314.164,35.075L307.867,44.453C306.812,43.612 305.705,42.852 304.554,42.177Z"/>
                <g transform="matrix(0.047941,0.201036,-1.00119,0.238754,397.359,110.702)">
                    <rect x="190.187" y="11.375" width="19.448" height="388.625"/>
                </g>
                <g transform="matrix(-0.201036,0.047941,-0.238754,-1.00119,290.308,396.349)">
                    <rect x="190.187" y="11.375" width="19.448" height="388.625"/>
                </g>
                <g transform="matrix(-0.108255,0.176054,-0.876777,-0.539127,402.993,275.697)">
                    <rect x="190.187" y="11.375" width="19.448" height="388.625"/>
                </g>
                <g transform="matrix(0.0319757,0.204185,-1.01688,0.159244,403.776,126.427)">
                    <rect x="190.187" y="11.375" width="19.448" height="388.625"/>
                </g>
                <g transform="matrix(-0.204185,0.0319757,-0.159244,-1.01688,274.583,402.766)">
                    <rect x="190.187" y="11.375" width="19.448" height="388.625"/>
                </g>
                <g transform="matrix(-0.12177,0.166991,-0.831642,-0.606437,396.411,291.353)">
                    <rect x="190.187" y="11.375" width="19.448" height="388.625"/>
                </g>
                <g transform="matrix(0.0158121,0.206068,-1.02625,0.0787471,408.936,142.608)">
                    <rect x="190.187" y="11.375" width="19.448" height="388.625"/>
                </g>
                <g transform="matrix(-0.206068,0.0158121,-0.0787471,-1.02625,258.402,407.926)">
                    <rect x="190.187" y="11.375" width="19.448" height="388.625"/>
                </g>
                <g transform="matrix(-0.134531,0.156893,-0.781353,-0.669987,388.618,306.443)">
                    <rect x="190.187" y="11.375" width="19.448" height="388.625"/>
                </g>
                <path d="M90.629,347.961C91.232,349.348 91.925,350.679 92.699,351.944L84.795,362.783L81.548,360.415L90.629,347.961ZM122.691,303.992L317.224,37.217L320.472,39.585L126.662,305.368C125.381,304.807 124.055,304.345 122.691,303.992Z"/>
                <path d="M100.129,360.225C101.199,361.041 102.323,361.777 103.493,362.427L97.962,371.421L94.539,369.316L100.129,360.225ZM131.965,308.45L304.057,28.579L307.481,30.684L135.057,311.094C134.084,310.138 133.052,309.254 131.965,308.45Z"/>
                <path d="M88.421,328.216C88.05,330.232 87.856,332.32 87.856,334.458C87.856,334.653 87.857,334.847 87.861,335.044L72.348,353.135L69.297,350.519L88.421,328.216ZM109.029,304.182L329.671,46.865L332.722,49.481L115.175,303.189C113.059,303.273 111.001,303.613 109.029,304.182Z"/>
            </g>
        </g>
    </g>
    <g id="Medium-lines" serif:id="Medium lines" transform="matrix(1.26563,0,0,1.26563,-53.4259,17.4124)">
        <path d="M287.866,241.588C315.448,216.753 331.197,181.381 331.197,144.266C331.197,71.988 272.516,13.307 200.237,13.307C127.958,13.307 69.277,71.988 69.277,144.266C69.277,181.381 85.026,216.753 112.608,241.588L128.381,224.07C105.764,203.706 92.85,174.701 92.85,144.266C92.85,84.998 140.969,36.879 200.237,36.879C259.506,36.879 307.624,84.998 307.624,144.266C307.624,174.701 294.71,203.706 272.093,224.07L287.866,241.588Z" style="fill:none;"/>
        <clipPath id="_clip2">
            <path d="M287.866,241.588C315.448,216.753 331.197,181.381 331.197,144.266C331.197,71.988 272.516,13.307 200.237,13.307C127.958,13.307 69.277,71.988 69.277,144.266C69.277,181.381 85.026,216.753 112.608,241.588L128.381,224.07C105.764,203.706 92.85,174.701 92.85,144.266C92.85,84.998 140.969,36.879 200.237,36.879C259.506,36.879 307.624,84.998 307.624,144.266C307.624,174.701 294.71,203.706 272.093,224.07L287.866,241.588Z"/>
        </clipPath>
        <g clip-path="url(#_clip2)">
            <g transform="matrix(0.790121,0,0,0.790121,42.2129,-13.7579)">
                <g transform="matrix(0.206673,0,0,1.02927,159.693,-11.7077)">
                    <rect x="190.187" y="11.375" width="19.448" height="388.625"/>
                </g>
                <g transform="matrix(0.14614,0.14614,-0.727803,0.727803,321.495,21.0851)">
                    <rect x="190.187" y="11.375" width="19.448" height="388.625"/>
                </g>
                <g transform="matrix(0,0.206673,-1.02927,0,412.717,158.684)">
                    <rect x="190.187" y="11.375" width="19.448" height="388.625"/>
                </g>
                <g transform="matrix(0.204115,0.0324196,-0.161455,1.01653,193.414,-15.5678)">
                    <rect x="190.187" y="11.375" width="19.448" height="388.625"/>
                </g>
                <g transform="matrix(0.121407,0.167255,-0.832959,0.604627,348.068,42.1998)">
                    <rect x="190.187" y="11.375" width="19.448" height="388.625"/>
                </g>
                <g transform="matrix(-0.167255,0.121407,-0.604627,-0.832959,358.81,347.059)">
                    <rect x="190.187" y="11.375" width="19.448" height="388.625"/>
                </g>
                <g transform="matrix(-0.0324196,0.204115,-1.01653,-0.161455,416.577,192.405)">
                    <rect x="190.187" y="11.375" width="19.448" height="388.625"/>
                </g>
                <g transform="matrix(0.196503,0.0640366,-0.318913,0.978616,227.323,-14.0905)">
                    <rect x="190.187" y="11.375" width="19.448" height="388.625"/>
                </g>
                <g transform="matrix(0.0936676,0.184229,-0.917492,0.46648,371.001,67.2216)">
                    <rect x="190.187" y="11.375" width="19.448" height="388.625"/>
                </g>
                <g transform="matrix(-0.184229,0.0936676,-0.46648,-0.917492,333.788,369.991)">
                    <rect x="190.187" y="11.375" width="19.448" height="388.625"/>
                </g>
                <g transform="matrix(-0.0640366,0.196503,-0.978616,-0.318913,415.1,226.313)">
                    <rect x="190.187" y="11.375" width="19.448" height="388.625"/>
                </g>
                <g transform="matrix(0.184025,0.094068,-0.468475,0.916475,260.581,-7.31251)">
                    <rect x="190.187" y="11.375" width="19.448" height="388.625"/>
                </g>
                <g transform="matrix(0.0636091,0.196641,-0.979307,0.316784,389.725,95.5309)">
                    <rect x="190.187" y="11.375" width="19.448" height="388.625"/>
                </g>
                <g transform="matrix(-0.196641,0.0636091,-0.316784,-0.979307,305.479,388.715)">
                    <rect x="190.187" y="11.375" width="19.448" height="388.625"/>
                </g>
                <g transform="matrix(-0.094068,0.184025,-0.916475,-0.468475,408.322,259.571)">
                    <rect x="190.187" y="11.375" width="19.448" height="388.625"/>
                </g>
                <g transform="matrix(0.166991,0.12177,-0.606437,0.831642,292.363,4.5985)">
                    <rect x="190.187" y="11.375" width="19.448" height="388.625"/>
                </g>
                <g transform="matrix(0.0319757,0.204185,-1.01688,0.159244,403.776,126.427)">
                    <rect x="190.187" y="11.375" width="19.448" height="388.625"/>
                </g>
                <g transform="matrix(-0.204185,0.0319757,-0.159244,-1.01688,274.583,402.766)">
                    <rect x="190.187" y="11.375" width="19.448" height="388.625"/>
                </g>
                <g transform="matrix(-0.12177,0.166991,-0.831642,-0.606437,396.411,291.353)">
                    <rect x="190.187" y="11.375" width="19.448" height="388.625"/>
                </g>
                <g transform="matrix(-0.14614,0.14614,-0.727803,-0.727803,379.925,320.485)">
                    <rect x="190.187" y="11.375" width="19.448" height="388.625"/>
                </g>
                <path d="M143.839,139.987L343.852,340L341.01,342.842L138.155,139.987L143.839,139.987Z" style="fill:rgb(179,0,0);"/>
            </g>
        </g>
    </g>
    <g id="Big-lines" serif:id="Big lines" transform="matrix(1.13268,0,0,1.13268,-26.8051,36.592)">
        <path d="M284.416,244.587C314.07,219.704 331.197,182.977 331.197,144.266C331.197,71.988 272.516,13.307 200.237,13.307C127.958,13.307 69.277,71.988 69.277,144.266C69.277,184.579 87.843,222.645 119.61,247.464L129.285,235.08C101.331,213.24 84.992,179.741 84.992,144.266C84.992,80.661 136.632,29.022 200.237,29.022C263.842,29.022 315.482,80.661 315.482,144.266C315.482,178.332 300.41,210.652 274.315,232.549L284.416,244.587Z" style="fill:none;"/>
        <clipPath id="_clip3">
            <path d="M284.416,244.587C314.07,219.704 331.197,182.977 331.197,144.266C331.197,71.988 272.516,13.307 200.237,13.307C127.958,13.307 69.277,71.988 69.277,144.266C69.277,184.579 87.843,222.645 119.61,247.464L129.285,235.08C101.331,213.24 84.992,179.741 84.992,144.266C84.992,80.661 136.632,29.022 200.237,29.022C263.842,29.022 315.482,80.661 315.482,144.266C315.482,178.332 300.41,210.652 274.315,232.549L284.416,244.587Z"/>
        </clipPath>
        <g clip-path="url(#_clip3)">
            <g transform="matrix(0.790121,0,0,0.790121,42.2129,-13.7579)">
                <g transform="matrix(0.668488,0,0,1.15008,67.4905,-36.5563)">
                    <rect x="190.187" y="11.375" width="19.448" height="388.625"/>
                </g>
                <g transform="matrix(-0.472692,0.472692,-0.813227,-0.813227,462.895,272.774)">
                    <rect x="190.187" y="11.375" width="19.448" height="388.625"/>
                </g>
                <g transform="matrix(-1.11737,1.36839e-16,-1.36839e-16,-1.11737,425.731,423.475)">
                    <path d="M328.065,318.828L346.545,337.308L338.317,345.535L318.72,325.937C322.382,324.216 325.572,321.778 328.065,318.828ZM291.174,281.937C287.688,283.915 284.717,286.572 282.487,289.704L55.475,62.692L63.702,54.465L291.174,281.937Z" style="fill:rgb(179,0,0);"/>
                </g>
                <g transform="matrix(0.472692,0.472692,-0.813227,0.813227,273.903,-61.7667)">
                    <rect x="190.187" y="11.375" width="19.448" height="388.625"/>
                </g>
                <g transform="matrix(0,0.668488,-1.15008,0,437.685,66.3623)">
                    <rect x="190.187" y="11.375" width="19.448" height="388.625"/>
                </g>
            </g>
        </g>
    </g>
</svg>
