<?xml version="1.0" encoding="UTF-8" standalone="no"?>
<!DOCTYPE svg PUBLIC "-//W3C//DTD SVG 1.1//EN" "http://www.w3.org/Graphics/SVG/1.1/DTD/svg11.dtd">
<svg width="100%" height="100%" viewBox="0 0 400 400" version="1.1" xmlns="http://www.w3.org/2000/svg" xmlns:xlink="http://www.w3.org/1999/xlink" xml:space="preserve" xmlns:serif="http://www.serif.com/" style="fill-rule:evenodd;clip-rule:evenodd;stroke-linecap:round;stroke-linejoin:round;stroke-miterlimit:1.5;">
    <g id="Needle" transform="matrix(9.25463e-17,-1.5114,11.5374,7.06461e-16,-1983.22,446.374)">
        <path d="M163.011,174.949L167.827,189.23L158.194,189.23L163.011,174.949Z" style="fill:rgb(241,230,222);"/>
    </g>
    <g id="Tail">
        <path id="Perfored" d="M251.622,217.255C242.484,212.361 230.13,208.982 216.1,207.774L216.1,192.226C230.13,191.018 242.484,187.639 251.622,182.745L251.622,182.745C253.749,181.606 255.702,180.385 257.461,179.09C258.63,178.218 259.974,177.722 261.404,177.722C265.289,177.722 268.543,181.386 269.361,186.286L269.361,186.286C270.234,190.724 270.691,195.309 270.691,200C270.691,204.691 270.234,209.276 269.361,213.714L269.361,213.714C268.543,218.614 265.289,222.278 261.404,222.278C259.974,222.278 258.63,221.782 257.461,220.91C255.702,219.615 253.749,218.394 251.622,217.255L251.622,217.255ZM250.015,212.601L250.015,212.601C251.884,213.433 253.599,214.325 255.144,215.271C256.171,215.907 257.351,216.269 258.607,216.269C262.02,216.269 264.878,213.593 265.596,210.015L265.597,210.015C266.363,206.774 266.765,203.426 266.765,200C266.765,196.574 266.363,193.226 265.597,189.985L265.596,189.985C264.878,186.407 262.02,183.731 258.607,183.731C257.351,183.731 256.171,184.093 255.144,184.729C253.599,185.675 251.884,186.567 250.015,187.399L250.015,187.399C241.988,190.973 231.137,193.441 218.812,194.323L218.812,205.677C231.137,206.559 241.988,209.027 250.015,212.601ZM250.015,212.601L250.052,212.508L250.015,212.601Z" style="fill:rgb(241,230,222);"/>
        <path id="Details" d="M251.622,182.745C253.749,181.606 255.702,180.385 257.461,179.09C258.63,178.218 259.974,177.722 261.404,177.722C265.289,177.722 268.543,181.386 269.361,186.286L269.361,186.286C270.234,190.724 270.691,195.309 270.691,200C270.691,204.691 270.234,209.276 269.361,213.714L269.361,213.714C268.543,218.614 265.289,222.278 261.404,222.278C259.974,222.278 258.63,221.782 257.461,220.91C255.702,219.615 253.749,218.394 251.622,217.255C253.436,211.834 254.419,206.031 254.419,200C254.419,193.969 253.436,188.166 251.622,182.745Z" style="stroke:black;stroke-width:1px;"/>
    </g>
    <g id="Body" transform="matrix(1.10795,0,0,1.10795,-13.7269,32.7471)">
        <circle cx="192.902" cy="150.956" r="18.09" style="fill:rgb(241,230,222);"/>
    </g>
    <g id="Central-pin" serif:id="Central pin">
        <g transform="matrix(0.3609,0,0,0.3609,130.382,145.52)">
            <circle cx="192.902" cy="150.956" r="18.09"/>
        </g>
        <g transform="matrix(0.121098,0,0,0.121098,176.64,181.719)">
            <circle cx="192.902" cy="150.956" r="18.09" style="fill:rgb(241,230,222);"/>
        </g>
    </g>
</svg>
