<?xml version="1.0" encoding="UTF-8" standalone="no"?>
<!DOCTYPE svg PUBLIC "-//W3C//DTD SVG 1.1//EN" "http://www.w3.org/Graphics/SVG/1.1/DTD/svg11.dtd">
<svg width="100%" height="100%" viewBox="0 0 400 400" version="1.1" xmlns="http://www.w3.org/2000/svg" xmlns:xlink="http://www.w3.org/1999/xlink" xml:space="preserve" xmlns:serif="http://www.serif.com/" style="fill-rule:evenodd;clip-rule:evenodd;stroke-linejoin:round;stroke-miterlimit:2;">
    <g id="Danger-zones" serif:id="Danger zones">
        <g transform="matrix(1.26563,0,0,1.26563,-53.4259,17.4124)">
            <path d="M108.121,237.352C113.919,243.091 120.242,248.275 127.005,252.837L136.525,238.723C130.641,234.754 125.141,230.244 120.096,225.251L108.121,237.352Z" style="fill:rgb(179,0,0);"/>
        </g>
        <g transform="matrix(1.26563,0,0,1.26563,-53.4259,17.4124)">
            <path d="M292.678,237.03C317.336,212.458 331.197,179.078 331.197,144.266L314.172,144.266C314.172,174.553 302.113,203.593 280.66,224.971L292.678,237.03Z" style="fill:rgb(179,0,0);"/>
        </g>
    </g>
    <g id="Labels">
        <g transform="matrix(1,0,0,1,-50.1023,4.90047)">
            <g transform="matrix(0.949602,0.313459,-0.313459,0.949602,115.892,-35.4761)">
                <g transform="matrix(48,0,0,48,168.27,342.664)">
                    <path d="M1.236,-0.599C1.236,-0.582 1.218,-0.567 1.183,-0.554C1.148,-0.542 1.105,-0.536 1.054,-0.536C1.003,-0.536 0.94,-0.543 0.864,-0.557C0.824,-0.536 0.787,-0.505 0.754,-0.465C0.721,-0.424 0.685,-0.366 0.647,-0.291C0.609,-0.216 0.581,-0.166 0.563,-0.141C0.545,-0.116 0.521,-0.092 0.49,-0.069C0.409,-0.008 0.324,0.022 0.236,0.022C0.189,0.022 0.151,0.012 0.121,-0.008C0.091,-0.028 0.076,-0.053 0.076,-0.085C0.076,-0.101 0.081,-0.115 0.09,-0.126C0.1,-0.137 0.111,-0.143 0.124,-0.143C0.145,-0.143 0.156,-0.132 0.156,-0.11C0.156,-0.099 0.153,-0.09 0.146,-0.083C0.139,-0.076 0.132,-0.072 0.122,-0.072C0.107,-0.072 0.099,-0.079 0.099,-0.094C0.099,-0.102 0.098,-0.106 0.095,-0.106C0.09,-0.106 0.087,-0.098 0.087,-0.082C0.087,-0.056 0.101,-0.033 0.128,-0.015C0.155,0.003 0.188,0.012 0.228,0.012C0.315,0.012 0.394,-0.027 0.463,-0.106C0.495,-0.143 0.537,-0.203 0.589,-0.288C0.673,-0.425 0.761,-0.516 0.852,-0.559C0.834,-0.562 0.808,-0.567 0.773,-0.575C0.69,-0.593 0.627,-0.602 0.583,-0.602C0.578,-0.602 0.565,-0.601 0.542,-0.6C0.557,-0.571 0.565,-0.539 0.565,-0.502C0.565,-0.43 0.538,-0.363 0.483,-0.3C0.429,-0.237 0.371,-0.206 0.309,-0.206C0.283,-0.206 0.262,-0.215 0.246,-0.232C0.23,-0.249 0.222,-0.271 0.222,-0.298C0.222,-0.335 0.236,-0.376 0.264,-0.421C0.293,-0.466 0.329,-0.506 0.374,-0.539C0.419,-0.573 0.468,-0.597 0.521,-0.61C0.495,-0.645 0.459,-0.662 0.411,-0.662C0.371,-0.662 0.331,-0.65 0.29,-0.627C0.249,-0.604 0.213,-0.572 0.182,-0.532C0.178,-0.526 0.175,-0.523 0.173,-0.523C0.171,-0.523 0.17,-0.524 0.169,-0.526C0.169,-0.531 0.183,-0.547 0.209,-0.574C0.273,-0.638 0.34,-0.67 0.41,-0.67C0.465,-0.67 0.506,-0.651 0.534,-0.613C0.574,-0.624 0.619,-0.63 0.67,-0.63C0.696,-0.63 0.72,-0.628 0.742,-0.625C0.765,-0.621 0.822,-0.61 0.912,-0.592C0.987,-0.625 1.06,-0.641 1.129,-0.641C1.2,-0.641 1.236,-0.627 1.236,-0.599ZM1.228,-0.598C1.228,-0.608 1.219,-0.616 1.2,-0.622C1.182,-0.629 1.159,-0.632 1.131,-0.632C1.061,-0.632 0.994,-0.617 0.928,-0.588C0.936,-0.587 0.958,-0.583 0.993,-0.576C1.045,-0.566 1.091,-0.561 1.132,-0.561C1.158,-0.561 1.181,-0.565 1.2,-0.572C1.219,-0.579 1.228,-0.588 1.228,-0.598ZM0.546,-0.526C0.546,-0.552 0.54,-0.576 0.528,-0.598C0.455,-0.586 0.387,-0.549 0.324,-0.485C0.261,-0.422 0.23,-0.36 0.23,-0.299C0.23,-0.275 0.237,-0.256 0.252,-0.24C0.266,-0.224 0.284,-0.216 0.305,-0.216C0.36,-0.216 0.414,-0.25 0.467,-0.318C0.52,-0.385 0.546,-0.455 0.546,-0.526Z" style="fill-rule:nonzero;"/>
                </g>
            </g>
            <g transform="matrix(0.960495,0.278297,-0.278297,0.960495,105.583,-40.36)">
                <g transform="matrix(48,0,0,48,194.952,351.717)">
                    <path d="M0.337,-0.153C0.337,-0.152 0.334,-0.147 0.328,-0.14L0.307,-0.114C0.24,-0.03 0.182,0.011 0.134,0.011C0.111,0.011 0.092,0.003 0.076,-0.013C0.061,-0.03 0.053,-0.05 0.053,-0.075C0.053,-0.134 0.094,-0.185 0.176,-0.23C0.219,-0.253 0.254,-0.265 0.281,-0.265C0.292,-0.265 0.302,-0.262 0.311,-0.255C0.319,-0.248 0.323,-0.239 0.323,-0.229C0.323,-0.206 0.308,-0.186 0.277,-0.169C0.247,-0.153 0.196,-0.137 0.124,-0.123C0.102,-0.09 0.091,-0.062 0.091,-0.039C0.091,-0.011 0.106,0.003 0.136,0.003C0.188,0.003 0.251,-0.047 0.325,-0.148C0.329,-0.153 0.333,-0.156 0.335,-0.156C0.337,-0.155 0.337,-0.154 0.337,-0.153ZM0.296,-0.243C0.296,-0.254 0.29,-0.259 0.279,-0.259C0.262,-0.259 0.239,-0.247 0.211,-0.223C0.183,-0.199 0.155,-0.168 0.128,-0.13C0.175,-0.142 0.215,-0.159 0.247,-0.181C0.28,-0.203 0.296,-0.224 0.296,-0.243Z" style="fill-rule:nonzero;"/>
                </g>
            </g>
            <g transform="matrix(0.98626,0.165199,-0.165199,0.98626,61.6111,-29.161)">
                <g transform="matrix(48,0,0,48,206.114,355.809)">
                    <path d="M0.634,-0.153C0.634,-0.152 0.632,-0.149 0.629,-0.145L0.608,-0.116C0.547,-0.031 0.502,0.011 0.472,0.011C0.457,0.011 0.444,0.006 0.435,-0.006C0.425,-0.017 0.42,-0.032 0.42,-0.05C0.42,-0.068 0.426,-0.088 0.438,-0.109C0.441,-0.113 0.453,-0.13 0.474,-0.161C0.501,-0.2 0.515,-0.226 0.515,-0.238C0.515,-0.251 0.508,-0.258 0.495,-0.258C0.452,-0.258 0.378,-0.17 0.274,0.007C0.267,0.006 0.258,0.005 0.247,0.005C0.234,0.005 0.222,0.006 0.213,0.007L0.282,-0.103C0.327,-0.175 0.35,-0.22 0.35,-0.236C0.35,-0.25 0.344,-0.258 0.332,-0.258C0.314,-0.258 0.285,-0.232 0.244,-0.181C0.203,-0.129 0.163,-0.067 0.123,0.007C0.116,0.006 0.106,0.005 0.094,0.005C0.082,0.005 0.07,0.006 0.061,0.007L0.131,-0.103C0.179,-0.179 0.203,-0.225 0.203,-0.243C0.203,-0.253 0.199,-0.258 0.192,-0.258C0.176,-0.258 0.143,-0.223 0.093,-0.153C0.089,-0.149 0.087,-0.146 0.085,-0.146C0.083,-0.147 0.083,-0.148 0.083,-0.149C0.083,-0.152 0.098,-0.172 0.128,-0.21C0.157,-0.247 0.18,-0.265 0.196,-0.265C0.206,-0.265 0.215,-0.26 0.223,-0.25C0.23,-0.24 0.234,-0.229 0.234,-0.215C0.234,-0.196 0.224,-0.17 0.205,-0.136C0.264,-0.222 0.307,-0.265 0.336,-0.265C0.35,-0.265 0.361,-0.26 0.37,-0.249C0.378,-0.237 0.383,-0.224 0.383,-0.207C0.383,-0.188 0.374,-0.165 0.357,-0.136C0.419,-0.222 0.465,-0.265 0.496,-0.265C0.51,-0.265 0.522,-0.259 0.531,-0.247C0.541,-0.235 0.546,-0.22 0.546,-0.203C0.546,-0.183 0.538,-0.159 0.522,-0.132C0.522,-0.132 0.508,-0.111 0.48,-0.07C0.464,-0.046 0.456,-0.028 0.456,-0.016C0.456,-0.003 0.463,0.004 0.476,0.004C0.502,0.004 0.544,-0.037 0.602,-0.119L0.617,-0.14L0.626,-0.151C0.628,-0.154 0.629,-0.156 0.631,-0.156C0.633,-0.156 0.634,-0.155 0.634,-0.153Z" style="fill-rule:nonzero;"/>
                </g>
            </g>
            <g transform="matrix(0.996208,0.0870044,-0.0870044,0.996208,32.1927,-18.8177)">
                <g transform="matrix(48,0,0,48,231.971,359.902)">
                    <path d="M0.323,-0.187C0.323,-0.134 0.29,-0.086 0.224,-0.042C0.17,-0.007 0.128,0.011 0.098,0.011C0.077,0.011 0.067,0.001 0.067,-0.018C0.067,-0.024 0.069,-0.032 0.072,-0.042L-0.115,0.27C-0.127,0.267 -0.136,0.266 -0.143,0.266C-0.154,0.266 -0.164,0.268 -0.175,0.272L0.226,-0.387C0.235,-0.384 0.243,-0.383 0.252,-0.383C0.261,-0.383 0.271,-0.384 0.284,-0.387L0.139,-0.153C0.174,-0.199 0.199,-0.229 0.215,-0.244C0.231,-0.258 0.247,-0.265 0.262,-0.265C0.279,-0.265 0.294,-0.258 0.306,-0.243C0.317,-0.228 0.323,-0.209 0.323,-0.187ZM0.287,-0.226C0.287,-0.247 0.278,-0.258 0.259,-0.258C0.235,-0.258 0.195,-0.22 0.139,-0.143C0.096,-0.084 0.074,-0.043 0.074,-0.021C0.074,-0.004 0.082,0.004 0.097,0.004C0.127,0.004 0.166,-0.025 0.215,-0.084C0.263,-0.142 0.287,-0.19 0.287,-0.226Z" style="fill-rule:nonzero;"/>
                </g>
            </g>
            <g transform="matrix(0.999736,-0.0229867,0.0229867,0.999736,-8.23397,5.7182)">
                <g transform="matrix(48,0,0,48,244.611,361.017)">
                    <path d="M0.337,-0.153C0.337,-0.152 0.334,-0.147 0.328,-0.14L0.307,-0.114C0.24,-0.03 0.182,0.011 0.134,0.011C0.111,0.011 0.092,0.003 0.076,-0.013C0.061,-0.03 0.053,-0.05 0.053,-0.075C0.053,-0.134 0.094,-0.185 0.176,-0.23C0.219,-0.253 0.254,-0.265 0.281,-0.265C0.292,-0.265 0.302,-0.262 0.311,-0.255C0.319,-0.248 0.323,-0.239 0.323,-0.229C0.323,-0.206 0.308,-0.186 0.277,-0.169C0.247,-0.153 0.196,-0.137 0.124,-0.123C0.102,-0.09 0.091,-0.062 0.091,-0.039C0.091,-0.011 0.106,0.003 0.136,0.003C0.188,0.003 0.251,-0.047 0.325,-0.148C0.329,-0.153 0.333,-0.156 0.335,-0.156C0.337,-0.155 0.337,-0.154 0.337,-0.153ZM0.296,-0.243C0.296,-0.254 0.29,-0.259 0.279,-0.259C0.262,-0.259 0.239,-0.247 0.211,-0.223C0.183,-0.199 0.155,-0.168 0.128,-0.13C0.175,-0.142 0.215,-0.159 0.247,-0.181C0.28,-0.203 0.296,-0.224 0.296,-0.243Z" style="fill-rule:nonzero;"/>
                </g>
            </g>
            <g transform="matrix(0.995028,-0.0995931,0.0995931,0.995028,-34.6827,27.3383)">
                <g transform="matrix(48,0,0,48,256.476,361.047)">
                    <path d="M0.369,-0.153C0.369,-0.15 0.36,-0.139 0.34,-0.117C0.315,-0.09 0.292,-0.076 0.27,-0.076C0.245,-0.076 0.233,-0.09 0.233,-0.119C0.233,-0.128 0.235,-0.14 0.239,-0.154C0.218,-0.136 0.202,-0.118 0.189,-0.101C0.176,-0.083 0.154,-0.047 0.122,0.007C0.105,0.006 0.095,0.005 0.092,0.005C0.09,0.005 0.081,0.006 0.062,0.007L0.142,-0.123C0.182,-0.188 0.202,-0.229 0.202,-0.244C0.202,-0.253 0.198,-0.258 0.191,-0.258C0.173,-0.258 0.14,-0.223 0.092,-0.153C0.089,-0.148 0.086,-0.146 0.084,-0.146C0.082,-0.146 0.082,-0.147 0.082,-0.149C0.082,-0.15 0.083,-0.152 0.084,-0.153L0.093,-0.165C0.143,-0.232 0.177,-0.265 0.195,-0.265C0.221,-0.265 0.234,-0.248 0.234,-0.215C0.234,-0.19 0.221,-0.157 0.194,-0.115C0.211,-0.135 0.227,-0.151 0.242,-0.163C0.255,-0.192 0.27,-0.216 0.288,-0.236C0.307,-0.255 0.323,-0.265 0.338,-0.265C0.348,-0.265 0.353,-0.261 0.353,-0.252C0.353,-0.236 0.33,-0.214 0.285,-0.185C0.278,-0.181 0.267,-0.174 0.253,-0.165L0.247,-0.16C0.243,-0.145 0.24,-0.133 0.24,-0.123C0.24,-0.096 0.251,-0.082 0.271,-0.082C0.296,-0.082 0.324,-0.103 0.354,-0.145C0.361,-0.152 0.365,-0.156 0.366,-0.156C0.368,-0.156 0.369,-0.155 0.369,-0.153Z" style="fill-rule:nonzero;"/>
                </g>
            </g>
            <g transform="matrix(0.98239,-0.186842,0.186842,0.98239,-62.5316,56.7459)">
                <g transform="matrix(48,0,0,48,269.77,360.102)">
                    <path d="M0.434,-0.153C0.434,-0.146 0.411,-0.115 0.363,-0.058C0.325,-0.012 0.294,0.011 0.272,0.011C0.257,0.011 0.245,0.006 0.235,-0.006C0.226,-0.017 0.221,-0.031 0.221,-0.048C0.221,-0.065 0.226,-0.084 0.237,-0.105C0.204,-0.059 0.179,-0.029 0.162,-0.013C0.145,0.003 0.128,0.011 0.112,0.011C0.095,0.011 0.08,0.004 0.068,-0.011C0.057,-0.026 0.051,-0.044 0.051,-0.067C0.051,-0.129 0.095,-0.185 0.183,-0.233C0.222,-0.254 0.253,-0.265 0.277,-0.265C0.297,-0.265 0.307,-0.255 0.307,-0.236C0.307,-0.23 0.306,-0.223 0.303,-0.214L0.328,-0.261C0.338,-0.259 0.347,-0.258 0.354,-0.258C0.363,-0.258 0.374,-0.259 0.388,-0.261L0.302,-0.118C0.272,-0.068 0.257,-0.035 0.257,-0.019C0.257,-0.004 0.263,0.004 0.276,0.004C0.289,0.004 0.31,-0.011 0.338,-0.041C0.367,-0.071 0.396,-0.107 0.426,-0.151C0.428,-0.154 0.43,-0.156 0.431,-0.156C0.433,-0.156 0.434,-0.155 0.434,-0.153ZM0.3,-0.234C0.3,-0.25 0.292,-0.258 0.278,-0.258C0.248,-0.258 0.209,-0.229 0.16,-0.17C0.111,-0.111 0.087,-0.064 0.087,-0.028C0.087,-0.007 0.096,0.004 0.115,0.004C0.138,0.004 0.177,-0.033 0.232,-0.108C0.277,-0.169 0.3,-0.211 0.3,-0.234Z" style="fill-rule:nonzero;"/>
                </g>
            </g>
            <g transform="matrix(0.965622,-0.259951,0.259951,0.965622,-82.9926,86.6416)">
                <g transform="matrix(48,0,0,48,286.075,357.096)">
                    <path d="M0.271,-0.265L0.267,-0.258L0.203,-0.258L0.094,-0.072C0.081,-0.049 0.074,-0.031 0.074,-0.018C0.074,-0.003 0.082,0.004 0.097,0.004C0.127,0.004 0.177,-0.048 0.247,-0.151C0.25,-0.154 0.252,-0.156 0.253,-0.156C0.255,-0.156 0.256,-0.155 0.256,-0.153C0.256,-0.152 0.254,-0.149 0.251,-0.145L0.23,-0.116C0.169,-0.031 0.123,0.011 0.092,0.011C0.077,0.011 0.064,0.006 0.053,-0.005C0.043,-0.016 0.038,-0.03 0.038,-0.047C0.038,-0.066 0.047,-0.091 0.064,-0.12L0.146,-0.258L0.096,-0.258L0.101,-0.265L0.15,-0.265L0.207,-0.36C0.217,-0.357 0.226,-0.356 0.235,-0.356C0.244,-0.356 0.253,-0.357 0.263,-0.36L0.207,-0.265L0.271,-0.265Z" style="fill-rule:nonzero;"/>
                </g>
            </g>
            <g transform="matrix(0.945905,-0.324445,0.324445,0.945905,-99.4045,114.547)">
                <g transform="matrix(48,0,0,48,293.802,355.369)">
                    <path d="M0.404,-0.153C0.404,-0.146 0.38,-0.114 0.333,-0.058C0.294,-0.012 0.263,0.011 0.24,0.011C0.226,0.011 0.214,0.005 0.204,-0.006C0.194,-0.018 0.189,-0.032 0.189,-0.048C0.189,-0.061 0.195,-0.078 0.208,-0.101L0.198,-0.088C0.168,-0.049 0.146,-0.024 0.132,-0.011C0.117,0.004 0.103,0.011 0.089,0.011C0.075,0.011 0.063,0.006 0.053,-0.006C0.043,-0.017 0.038,-0.031 0.038,-0.047C0.038,-0.066 0.045,-0.087 0.06,-0.112L0.149,-0.261C0.16,-0.259 0.169,-0.258 0.175,-0.258C0.181,-0.258 0.192,-0.259 0.208,-0.261L0.092,-0.07C0.08,-0.05 0.074,-0.033 0.074,-0.018C0.074,-0.003 0.08,0.004 0.093,0.004C0.126,0.004 0.178,-0.057 0.251,-0.18L0.299,-0.261C0.309,-0.259 0.317,-0.258 0.324,-0.258C0.332,-0.258 0.344,-0.259 0.359,-0.261L0.281,-0.134C0.244,-0.073 0.225,-0.034 0.225,-0.017C0.225,-0.003 0.232,0.004 0.245,0.004C0.271,0.004 0.314,-0.037 0.372,-0.119L0.387,-0.14L0.396,-0.151C0.398,-0.154 0.399,-0.156 0.401,-0.156C0.403,-0.156 0.404,-0.155 0.404,-0.153Z" style="fill-rule:nonzero;"/>
                </g>
            </g>
            <g transform="matrix(0.912972,-0.408023,0.408023,0.912972,-116.288,156.254)">
                <g transform="matrix(48,0,0,48,308.145,350.729)">
                    <path d="M0.369,-0.153C0.369,-0.15 0.36,-0.139 0.34,-0.117C0.315,-0.09 0.292,-0.076 0.27,-0.076C0.245,-0.076 0.233,-0.09 0.233,-0.119C0.233,-0.128 0.235,-0.14 0.239,-0.154C0.218,-0.136 0.202,-0.118 0.189,-0.101C0.176,-0.083 0.154,-0.047 0.122,0.007C0.105,0.006 0.095,0.005 0.092,0.005C0.09,0.005 0.081,0.006 0.062,0.007L0.142,-0.123C0.182,-0.188 0.202,-0.229 0.202,-0.244C0.202,-0.253 0.198,-0.258 0.191,-0.258C0.173,-0.258 0.14,-0.223 0.092,-0.153C0.089,-0.148 0.086,-0.146 0.084,-0.146C0.082,-0.146 0.082,-0.147 0.082,-0.149C0.082,-0.15 0.083,-0.152 0.084,-0.153L0.093,-0.165C0.143,-0.232 0.177,-0.265 0.195,-0.265C0.221,-0.265 0.234,-0.248 0.234,-0.215C0.234,-0.19 0.221,-0.157 0.194,-0.115C0.211,-0.135 0.227,-0.151 0.242,-0.163C0.255,-0.192 0.27,-0.216 0.288,-0.236C0.307,-0.255 0.323,-0.265 0.338,-0.265C0.348,-0.265 0.353,-0.261 0.353,-0.252C0.353,-0.236 0.33,-0.214 0.285,-0.185C0.278,-0.181 0.267,-0.174 0.253,-0.165L0.247,-0.16C0.243,-0.145 0.24,-0.133 0.24,-0.123C0.24,-0.096 0.251,-0.082 0.271,-0.082C0.296,-0.082 0.324,-0.103 0.354,-0.145C0.361,-0.152 0.365,-0.156 0.366,-0.156C0.368,-0.156 0.369,-0.155 0.369,-0.153Z" style="fill-rule:nonzero;"/>
                </g>
            </g>
            <g transform="matrix(0.880051,-0.47488,0.47488,0.880051,-125.648,193.593)">
                <g transform="matrix(48,0,0,48,320.394,345.517)">
                    <path d="M0.337,-0.153C0.337,-0.152 0.334,-0.147 0.328,-0.14L0.307,-0.114C0.24,-0.03 0.182,0.011 0.134,0.011C0.111,0.011 0.092,0.003 0.076,-0.013C0.061,-0.03 0.053,-0.05 0.053,-0.075C0.053,-0.134 0.094,-0.185 0.176,-0.23C0.219,-0.253 0.254,-0.265 0.281,-0.265C0.292,-0.265 0.302,-0.262 0.311,-0.255C0.319,-0.248 0.323,-0.239 0.323,-0.229C0.323,-0.206 0.308,-0.186 0.277,-0.169C0.247,-0.153 0.196,-0.137 0.124,-0.123C0.102,-0.09 0.091,-0.062 0.091,-0.039C0.091,-0.011 0.106,0.003 0.136,0.003C0.188,0.003 0.251,-0.047 0.325,-0.148C0.329,-0.153 0.333,-0.156 0.335,-0.156C0.337,-0.155 0.337,-0.154 0.337,-0.153ZM0.296,-0.243C0.296,-0.254 0.29,-0.259 0.279,-0.259C0.262,-0.259 0.239,-0.247 0.211,-0.223C0.183,-0.199 0.155,-0.168 0.128,-0.13C0.175,-0.142 0.215,-0.159 0.247,-0.181C0.28,-0.203 0.296,-0.224 0.296,-0.243Z" style="fill-rule:nonzero;"/>
                </g>
            </g>
        </g>
        <g transform="matrix(0.588243,-0.808685,0.808685,0.588243,-245.804,162.746)">
            <g transform="matrix(30,0,0,30,89.3213,395.271)">
                <path d="M0.03,-0.206C0.03,-0.259 0.049,-0.306 0.088,-0.347C0.136,-0.397 0.193,-0.422 0.259,-0.422C0.325,-0.422 0.382,-0.397 0.429,-0.347C0.468,-0.306 0.487,-0.258 0.487,-0.206C0.487,-0.153 0.469,-0.107 0.432,-0.066C0.386,-0.016 0.328,0.009 0.259,0.009C0.189,0.009 0.131,-0.016 0.085,-0.066C0.068,-0.086 0.054,-0.108 0.044,-0.132C0.035,-0.156 0.03,-0.181 0.03,-0.206ZM0.119,-0.212C0.119,-0.155 0.131,-0.107 0.157,-0.068C0.185,-0.024 0.22,-0.002 0.262,-0.002C0.279,-0.002 0.296,-0.007 0.313,-0.017C0.33,-0.026 0.344,-0.04 0.356,-0.058C0.369,-0.076 0.379,-0.099 0.387,-0.126C0.395,-0.154 0.398,-0.18 0.398,-0.206C0.398,-0.232 0.394,-0.259 0.386,-0.287C0.378,-0.314 0.367,-0.337 0.353,-0.357C0.326,-0.393 0.293,-0.412 0.254,-0.412C0.218,-0.412 0.186,-0.392 0.159,-0.354C0.132,-0.315 0.119,-0.268 0.119,-0.212Z" style="fill-rule:nonzero;"/>
            </g>
            <g transform="matrix(30,0,0,30,104.849,395.271)">
                <path d="M0.159,-0.396L0.159,-0.141L0.16,-0.104C0.16,-0.082 0.161,-0.066 0.164,-0.056C0.166,-0.046 0.171,-0.037 0.179,-0.03C0.188,-0.021 0.205,-0.015 0.229,-0.01L0.229,-0L0.013,-0L0.013,-0.01C0.033,-0.013 0.047,-0.017 0.055,-0.021C0.064,-0.026 0.07,-0.034 0.076,-0.045C0.079,-0.053 0.082,-0.064 0.083,-0.079C0.085,-0.094 0.085,-0.116 0.085,-0.145L0.085,-0.396L0.015,-0.396L0.015,-0.415L0.085,-0.415L0.085,-0.534C0.085,-0.563 0.089,-0.585 0.097,-0.602C0.104,-0.619 0.117,-0.634 0.136,-0.648C0.153,-0.66 0.174,-0.67 0.198,-0.677C0.223,-0.684 0.249,-0.688 0.276,-0.688C0.302,-0.688 0.322,-0.683 0.337,-0.674C0.353,-0.666 0.36,-0.654 0.36,-0.639C0.36,-0.629 0.357,-0.621 0.351,-0.615C0.344,-0.608 0.337,-0.605 0.328,-0.605C0.319,-0.605 0.311,-0.607 0.305,-0.612C0.298,-0.617 0.292,-0.625 0.285,-0.635C0.276,-0.65 0.269,-0.66 0.263,-0.665C0.257,-0.67 0.249,-0.672 0.239,-0.672C0.226,-0.672 0.215,-0.669 0.204,-0.664C0.193,-0.659 0.184,-0.653 0.178,-0.645C0.171,-0.635 0.166,-0.623 0.164,-0.609C0.161,-0.594 0.16,-0.572 0.16,-0.544L0.16,-0.415L0.256,-0.415L0.256,-0.396L0.159,-0.396Z" style="fill-rule:nonzero;"/>
            </g>
            <g transform="matrix(30,0,0,30,113.242,395.271)">
                <path d="M0.159,-0.396L0.159,-0.141L0.16,-0.104C0.16,-0.082 0.161,-0.066 0.164,-0.056C0.166,-0.046 0.171,-0.037 0.179,-0.03C0.188,-0.021 0.205,-0.015 0.229,-0.01L0.229,-0L0.013,-0L0.013,-0.01C0.033,-0.013 0.047,-0.017 0.055,-0.021C0.064,-0.026 0.07,-0.034 0.076,-0.045C0.079,-0.053 0.082,-0.064 0.083,-0.079C0.085,-0.094 0.085,-0.116 0.085,-0.145L0.085,-0.396L0.015,-0.396L0.015,-0.415L0.085,-0.415L0.085,-0.534C0.085,-0.563 0.089,-0.585 0.097,-0.602C0.104,-0.619 0.117,-0.634 0.136,-0.648C0.153,-0.66 0.174,-0.67 0.198,-0.677C0.223,-0.684 0.249,-0.688 0.276,-0.688C0.302,-0.688 0.322,-0.683 0.337,-0.674C0.353,-0.666 0.36,-0.654 0.36,-0.639C0.36,-0.629 0.357,-0.621 0.351,-0.615C0.344,-0.608 0.337,-0.605 0.328,-0.605C0.319,-0.605 0.311,-0.607 0.305,-0.612C0.298,-0.617 0.292,-0.625 0.285,-0.635C0.276,-0.65 0.269,-0.66 0.263,-0.665C0.257,-0.67 0.249,-0.672 0.239,-0.672C0.226,-0.672 0.215,-0.669 0.204,-0.664C0.193,-0.659 0.184,-0.653 0.178,-0.645C0.171,-0.635 0.166,-0.623 0.164,-0.609C0.161,-0.594 0.16,-0.572 0.16,-0.544L0.16,-0.415L0.256,-0.415L0.256,-0.396L0.159,-0.396Z" style="fill-rule:nonzero;"/>
            </g>
        </g>
        <g transform="matrix(1,0,0,1,11.3147,67.4067)">
            <g transform="matrix(48,0,0,48,166.902,202.862)">
                <path d="M0.237,-0.577C0.237,-0.549 0.227,-0.525 0.208,-0.505C0.188,-0.486 0.165,-0.476 0.137,-0.476C0.125,-0.476 0.113,-0.478 0.101,-0.483C0.089,-0.488 0.078,-0.494 0.069,-0.502C0.059,-0.512 0.051,-0.523 0.045,-0.536C0.039,-0.549 0.037,-0.562 0.037,-0.577C0.037,-0.61 0.05,-0.636 0.076,-0.655C0.094,-0.668 0.115,-0.675 0.138,-0.675C0.165,-0.675 0.188,-0.666 0.208,-0.646C0.227,-0.627 0.237,-0.604 0.237,-0.577ZM0.21,-0.575C0.21,-0.596 0.203,-0.614 0.189,-0.628C0.175,-0.643 0.157,-0.65 0.136,-0.65C0.116,-0.65 0.099,-0.643 0.084,-0.628C0.07,-0.614 0.063,-0.597 0.063,-0.577C0.063,-0.556 0.07,-0.539 0.084,-0.524C0.099,-0.51 0.117,-0.502 0.137,-0.502C0.157,-0.502 0.175,-0.51 0.189,-0.524C0.203,-0.538 0.21,-0.555 0.21,-0.575Z" style="fill-rule:nonzero;"/>
            </g>
            <g transform="matrix(48,0,0,48,180.027,202.862)">
                <path d="M0.625,-0.67L0.63,-0.452L0.619,-0.452C0.616,-0.461 0.613,-0.468 0.611,-0.473C0.599,-0.504 0.59,-0.528 0.583,-0.543C0.57,-0.57 0.552,-0.595 0.528,-0.618C0.51,-0.635 0.491,-0.648 0.471,-0.656C0.452,-0.664 0.43,-0.667 0.405,-0.667C0.368,-0.667 0.337,-0.66 0.31,-0.644C0.286,-0.63 0.264,-0.609 0.243,-0.583C0.223,-0.557 0.206,-0.527 0.193,-0.494C0.174,-0.446 0.165,-0.393 0.165,-0.333C0.165,-0.281 0.171,-0.235 0.184,-0.194C0.197,-0.153 0.215,-0.119 0.24,-0.091C0.285,-0.04 0.344,-0.014 0.418,-0.014C0.456,-0.014 0.489,-0.021 0.519,-0.033C0.548,-0.046 0.571,-0.064 0.587,-0.088C0.606,-0.115 0.62,-0.151 0.628,-0.197L0.64,-0.195C0.633,-0.144 0.619,-0.103 0.598,-0.073C0.577,-0.044 0.548,-0.022 0.511,-0.006C0.475,0.009 0.432,0.017 0.384,0.017C0.339,0.017 0.296,0.01 0.255,-0.003C0.19,-0.025 0.139,-0.064 0.102,-0.12C0.065,-0.176 0.047,-0.243 0.047,-0.321C0.047,-0.38 0.058,-0.435 0.079,-0.486C0.101,-0.536 0.131,-0.576 0.169,-0.607C0.199,-0.63 0.234,-0.649 0.275,-0.663C0.316,-0.677 0.358,-0.684 0.399,-0.684C0.438,-0.684 0.48,-0.676 0.524,-0.661L0.564,-0.648C0.572,-0.645 0.579,-0.644 0.584,-0.644C0.593,-0.644 0.599,-0.647 0.604,-0.654C0.607,-0.657 0.61,-0.662 0.613,-0.67L0.625,-0.67Z" style="fill-rule:nonzero;"/>
            </g>
        </g>
        <g transform="matrix(1,0,0,1,100.935,-20.5571)">
            <g transform="matrix(40.355,0,0,40.355,10.4604,311.7)">
                <path d="M0.415,-0L0.036,-0L0.036,-0.01C0.076,-0.045 0.116,-0.085 0.156,-0.128C0.196,-0.172 0.23,-0.213 0.259,-0.252C0.299,-0.307 0.328,-0.354 0.346,-0.394C0.364,-0.434 0.373,-0.471 0.373,-0.505C0.373,-0.552 0.358,-0.591 0.328,-0.624C0.303,-0.65 0.273,-0.664 0.238,-0.664C0.208,-0.664 0.182,-0.654 0.159,-0.635C0.143,-0.623 0.131,-0.607 0.123,-0.587C0.115,-0.568 0.11,-0.547 0.11,-0.523C0.11,-0.486 0.123,-0.454 0.148,-0.43C0.159,-0.419 0.172,-0.41 0.185,-0.404C0.198,-0.398 0.212,-0.395 0.225,-0.395C0.228,-0.395 0.232,-0.395 0.237,-0.396L0.24,-0.387C0.216,-0.375 0.195,-0.369 0.178,-0.369C0.15,-0.369 0.125,-0.379 0.104,-0.399C0.09,-0.412 0.08,-0.427 0.073,-0.445C0.066,-0.464 0.062,-0.483 0.062,-0.504C0.062,-0.554 0.08,-0.595 0.116,-0.626C0.153,-0.659 0.2,-0.675 0.256,-0.675C0.286,-0.675 0.315,-0.67 0.341,-0.66C0.367,-0.65 0.389,-0.635 0.407,-0.616C0.423,-0.599 0.435,-0.579 0.443,-0.556C0.452,-0.533 0.456,-0.51 0.456,-0.485C0.456,-0.436 0.439,-0.386 0.405,-0.335C0.388,-0.311 0.368,-0.286 0.345,-0.262C0.321,-0.239 0.289,-0.209 0.247,-0.174C0.194,-0.13 0.155,-0.098 0.132,-0.077L0.309,-0.077C0.338,-0.077 0.359,-0.078 0.372,-0.082C0.388,-0.087 0.402,-0.095 0.413,-0.107C0.425,-0.12 0.435,-0.139 0.443,-0.164L0.454,-0.162L0.415,-0Z" style="fill-rule:nonzero;"/>
            </g>
            <g transform="matrix(40.355,0,0,40.355,30.303,311.7)">
                <path d="M0.246,-0.675C0.28,-0.675 0.312,-0.66 0.342,-0.629C0.356,-0.614 0.371,-0.594 0.385,-0.57C0.4,-0.546 0.412,-0.522 0.422,-0.497C0.444,-0.439 0.455,-0.385 0.455,-0.333C0.455,-0.282 0.444,-0.228 0.422,-0.17C0.412,-0.145 0.4,-0.12 0.385,-0.096C0.371,-0.072 0.356,-0.053 0.342,-0.038C0.312,-0.007 0.28,0.009 0.246,0.009C0.212,0.009 0.18,-0.007 0.15,-0.038C0.136,-0.053 0.121,-0.072 0.107,-0.096C0.092,-0.12 0.08,-0.145 0.07,-0.17C0.048,-0.228 0.037,-0.282 0.037,-0.333C0.037,-0.385 0.048,-0.439 0.07,-0.497C0.08,-0.522 0.092,-0.546 0.107,-0.57C0.121,-0.594 0.136,-0.614 0.15,-0.629C0.18,-0.66 0.212,-0.675 0.246,-0.675ZM0.246,-0.664C0.233,-0.664 0.22,-0.659 0.208,-0.649C0.195,-0.639 0.184,-0.625 0.174,-0.607C0.167,-0.594 0.159,-0.576 0.152,-0.553C0.144,-0.531 0.138,-0.508 0.133,-0.486C0.123,-0.435 0.118,-0.384 0.118,-0.333C0.118,-0.283 0.123,-0.232 0.133,-0.181C0.138,-0.158 0.144,-0.135 0.152,-0.113C0.159,-0.09 0.167,-0.073 0.174,-0.06C0.184,-0.041 0.196,-0.027 0.208,-0.018C0.221,-0.008 0.234,-0.003 0.247,-0.003C0.259,-0.003 0.272,-0.008 0.284,-0.018C0.297,-0.028 0.308,-0.042 0.318,-0.06C0.325,-0.073 0.333,-0.09 0.34,-0.113C0.348,-0.135 0.354,-0.158 0.358,-0.181C0.369,-0.232 0.375,-0.283 0.375,-0.333C0.375,-0.384 0.369,-0.435 0.358,-0.486C0.354,-0.508 0.348,-0.531 0.34,-0.553C0.333,-0.576 0.325,-0.594 0.318,-0.607C0.308,-0.625 0.297,-0.639 0.285,-0.649C0.272,-0.659 0.259,-0.664 0.246,-0.664Z" style="fill-rule:nonzero;"/>
            </g>
        </g>
        <g transform="matrix(1,0,0,1,60.2414,-98.2512)">
            <g transform="matrix(40.355,0,0,40.355,10.4604,311.7)">
                <path d="M0.307,-0.358C0.404,-0.332 0.453,-0.277 0.453,-0.193C0.453,-0.164 0.446,-0.137 0.434,-0.11C0.416,-0.073 0.389,-0.044 0.352,-0.023C0.315,-0.002 0.272,0.009 0.223,0.009C0.194,0.009 0.167,0.005 0.141,-0.004C0.116,-0.012 0.095,-0.023 0.079,-0.038C0.067,-0.049 0.057,-0.063 0.05,-0.079C0.043,-0.094 0.04,-0.11 0.04,-0.126C0.04,-0.154 0.049,-0.177 0.067,-0.196C0.086,-0.215 0.109,-0.225 0.136,-0.225L0.138,-0.216C0.123,-0.204 0.112,-0.191 0.106,-0.178C0.099,-0.166 0.096,-0.15 0.096,-0.132C0.096,-0.104 0.104,-0.079 0.12,-0.057C0.132,-0.04 0.148,-0.027 0.167,-0.017C0.186,-0.008 0.207,-0.003 0.229,-0.003C0.273,-0.003 0.308,-0.021 0.335,-0.055C0.347,-0.071 0.357,-0.091 0.365,-0.114C0.372,-0.136 0.375,-0.16 0.375,-0.183C0.375,-0.209 0.371,-0.234 0.362,-0.259C0.353,-0.283 0.341,-0.303 0.327,-0.317C0.309,-0.334 0.29,-0.342 0.27,-0.342C0.264,-0.342 0.258,-0.341 0.253,-0.339C0.248,-0.337 0.241,-0.333 0.232,-0.326C0.215,-0.314 0.201,-0.308 0.188,-0.308C0.179,-0.308 0.171,-0.311 0.165,-0.316C0.158,-0.322 0.155,-0.329 0.155,-0.337C0.155,-0.347 0.159,-0.355 0.167,-0.362C0.175,-0.368 0.185,-0.371 0.198,-0.371C0.204,-0.371 0.209,-0.37 0.214,-0.369L0.233,-0.364C0.239,-0.363 0.245,-0.362 0.252,-0.362C0.274,-0.362 0.296,-0.372 0.316,-0.392C0.344,-0.42 0.358,-0.457 0.358,-0.504C0.358,-0.526 0.355,-0.548 0.348,-0.569C0.341,-0.59 0.331,-0.608 0.318,-0.624C0.295,-0.65 0.268,-0.664 0.235,-0.664C0.208,-0.664 0.185,-0.655 0.168,-0.638C0.15,-0.621 0.142,-0.599 0.142,-0.573C0.142,-0.553 0.146,-0.536 0.156,-0.522C0.165,-0.508 0.178,-0.499 0.194,-0.495L0.196,-0.486C0.184,-0.481 0.172,-0.479 0.161,-0.479C0.138,-0.479 0.119,-0.486 0.104,-0.5C0.09,-0.514 0.083,-0.532 0.083,-0.555C0.083,-0.588 0.098,-0.616 0.129,-0.64C0.16,-0.663 0.198,-0.675 0.242,-0.675C0.268,-0.675 0.294,-0.671 0.318,-0.663C0.343,-0.655 0.364,-0.643 0.381,-0.628C0.397,-0.614 0.41,-0.597 0.419,-0.577C0.428,-0.557 0.433,-0.536 0.433,-0.514C0.433,-0.467 0.415,-0.429 0.379,-0.398C0.362,-0.384 0.338,-0.371 0.307,-0.358Z" style="fill-rule:nonzero;"/>
            </g>
            <g transform="matrix(40.355,0,0,40.355,30.303,311.7)">
                <path d="M0.307,-0.358C0.404,-0.332 0.453,-0.277 0.453,-0.193C0.453,-0.164 0.446,-0.137 0.434,-0.11C0.416,-0.073 0.389,-0.044 0.352,-0.023C0.315,-0.002 0.272,0.009 0.223,0.009C0.194,0.009 0.167,0.005 0.141,-0.004C0.116,-0.012 0.095,-0.023 0.079,-0.038C0.067,-0.049 0.057,-0.063 0.05,-0.079C0.043,-0.094 0.04,-0.11 0.04,-0.126C0.04,-0.154 0.049,-0.177 0.067,-0.196C0.086,-0.215 0.109,-0.225 0.136,-0.225L0.138,-0.216C0.123,-0.204 0.112,-0.191 0.106,-0.178C0.099,-0.166 0.096,-0.15 0.096,-0.132C0.096,-0.104 0.104,-0.079 0.12,-0.057C0.132,-0.04 0.148,-0.027 0.167,-0.017C0.186,-0.008 0.207,-0.003 0.229,-0.003C0.273,-0.003 0.308,-0.021 0.335,-0.055C0.347,-0.071 0.357,-0.091 0.365,-0.114C0.372,-0.136 0.375,-0.16 0.375,-0.183C0.375,-0.209 0.371,-0.234 0.362,-0.259C0.353,-0.283 0.341,-0.303 0.327,-0.317C0.309,-0.334 0.29,-0.342 0.27,-0.342C0.264,-0.342 0.258,-0.341 0.253,-0.339C0.248,-0.337 0.241,-0.333 0.232,-0.326C0.215,-0.314 0.201,-0.308 0.188,-0.308C0.179,-0.308 0.171,-0.311 0.165,-0.316C0.158,-0.322 0.155,-0.329 0.155,-0.337C0.155,-0.347 0.159,-0.355 0.167,-0.362C0.175,-0.368 0.185,-0.371 0.198,-0.371C0.204,-0.371 0.209,-0.37 0.214,-0.369L0.233,-0.364C0.239,-0.363 0.245,-0.362 0.252,-0.362C0.274,-0.362 0.296,-0.372 0.316,-0.392C0.344,-0.42 0.358,-0.457 0.358,-0.504C0.358,-0.526 0.355,-0.548 0.348,-0.569C0.341,-0.59 0.331,-0.608 0.318,-0.624C0.295,-0.65 0.268,-0.664 0.235,-0.664C0.208,-0.664 0.185,-0.655 0.168,-0.638C0.15,-0.621 0.142,-0.599 0.142,-0.573C0.142,-0.553 0.146,-0.536 0.156,-0.522C0.165,-0.508 0.178,-0.499 0.194,-0.495L0.196,-0.486C0.184,-0.481 0.172,-0.479 0.161,-0.479C0.138,-0.479 0.119,-0.486 0.104,-0.5C0.09,-0.514 0.083,-0.532 0.083,-0.555C0.083,-0.588 0.098,-0.616 0.129,-0.64C0.16,-0.663 0.198,-0.675 0.242,-0.675C0.268,-0.675 0.294,-0.671 0.318,-0.663C0.343,-0.655 0.364,-0.643 0.381,-0.628C0.397,-0.614 0.41,-0.597 0.419,-0.577C0.428,-0.557 0.433,-0.536 0.433,-0.514C0.433,-0.467 0.415,-0.429 0.379,-0.398C0.362,-0.384 0.338,-0.371 0.307,-0.358Z" style="fill-rule:nonzero;"/>
            </g>
        </g>
        <g transform="matrix(1,0,0,1,94.9511,-175.664)">
            <g transform="matrix(40.355,0,0,40.355,10.4604,311.7)">
                <path d="M0.279,-0.159L0.035,-0.159L0.035,-0.169L0.338,-0.668L0.36,-0.668L0.36,-0.176C0.382,-0.176 0.397,-0.178 0.406,-0.18C0.415,-0.183 0.423,-0.188 0.43,-0.197C0.435,-0.204 0.439,-0.211 0.442,-0.219C0.444,-0.227 0.446,-0.237 0.447,-0.25L0.447,-0.262L0.458,-0.262L0.458,-0.076L0.447,-0.076C0.446,-0.096 0.444,-0.11 0.441,-0.119C0.439,-0.129 0.435,-0.136 0.429,-0.142C0.422,-0.149 0.415,-0.153 0.407,-0.155C0.399,-0.158 0.387,-0.159 0.371,-0.159L0.36,-0.159L0.36,-0.109C0.36,-0.091 0.361,-0.076 0.365,-0.065C0.368,-0.053 0.373,-0.043 0.38,-0.036C0.387,-0.027 0.394,-0.022 0.403,-0.019C0.411,-0.015 0.425,-0.013 0.443,-0.01L0.443,-0L0.198,-0L0.198,-0.01C0.23,-0.013 0.251,-0.02 0.261,-0.03C0.268,-0.037 0.272,-0.047 0.275,-0.059C0.278,-0.072 0.279,-0.089 0.279,-0.112L0.279,-0.159ZM0.279,-0.176L0.279,-0.535L0.059,-0.176L0.279,-0.176Z" style="fill-rule:nonzero;"/>
            </g>
            <g transform="matrix(40.355,0,0,40.355,30.303,311.7)">
                <path d="M0.441,-0.657L0.204,-0.054L0.194,-0.029C0.188,-0.016 0.182,-0.006 0.175,-0C0.168,0.006 0.159,0.009 0.149,0.009C0.138,0.009 0.128,0.005 0.12,-0.002C0.111,-0.009 0.107,-0.018 0.107,-0.028C0.107,-0.037 0.111,-0.049 0.12,-0.065L0.13,-0.084L0.39,-0.579L0.177,-0.579C0.16,-0.579 0.146,-0.578 0.137,-0.576C0.127,-0.575 0.119,-0.571 0.112,-0.567C0.102,-0.56 0.094,-0.552 0.087,-0.542C0.081,-0.532 0.072,-0.515 0.062,-0.491L0.06,-0.485L0.05,-0.485L0.094,-0.68L0.104,-0.68C0.106,-0.669 0.11,-0.663 0.115,-0.66C0.12,-0.657 0.13,-0.656 0.146,-0.656L0.441,-0.657Z" style="fill-rule:nonzero;"/>
            </g>
        </g>
        <g transform="matrix(1,0,0,1,169.628,-207.383)">
            <g transform="matrix(40.355,0,0,40.355,10.4604,311.7)">
                <path d="M0.129,-0.379C0.151,-0.397 0.172,-0.41 0.192,-0.418C0.212,-0.426 0.233,-0.43 0.256,-0.43C0.281,-0.43 0.306,-0.424 0.331,-0.413C0.369,-0.396 0.399,-0.37 0.42,-0.335C0.442,-0.301 0.453,-0.261 0.453,-0.217C0.453,-0.185 0.447,-0.155 0.436,-0.126C0.425,-0.097 0.408,-0.072 0.388,-0.051C0.349,-0.011 0.302,0.009 0.247,0.009C0.182,0.009 0.13,-0.019 0.092,-0.073C0.057,-0.123 0.04,-0.187 0.04,-0.267C0.04,-0.331 0.051,-0.392 0.072,-0.448C0.093,-0.505 0.122,-0.554 0.161,-0.595C0.187,-0.623 0.214,-0.643 0.241,-0.656C0.269,-0.669 0.298,-0.675 0.329,-0.675C0.363,-0.675 0.392,-0.669 0.414,-0.655C0.436,-0.642 0.448,-0.625 0.448,-0.605C0.448,-0.594 0.445,-0.585 0.438,-0.578C0.432,-0.571 0.424,-0.568 0.414,-0.568C0.407,-0.568 0.401,-0.569 0.395,-0.572C0.39,-0.576 0.385,-0.58 0.381,-0.586C0.377,-0.591 0.373,-0.602 0.367,-0.617C0.361,-0.633 0.353,-0.645 0.344,-0.651C0.336,-0.658 0.323,-0.662 0.308,-0.662C0.266,-0.662 0.228,-0.634 0.194,-0.58C0.159,-0.524 0.138,-0.457 0.129,-0.379ZM0.121,-0.209C0.121,-0.148 0.132,-0.098 0.155,-0.061C0.178,-0.023 0.208,-0.003 0.243,-0.003C0.261,-0.003 0.278,-0.009 0.294,-0.019C0.31,-0.029 0.323,-0.044 0.335,-0.064C0.347,-0.083 0.356,-0.108 0.363,-0.136C0.37,-0.165 0.374,-0.194 0.374,-0.222C0.374,-0.251 0.37,-0.279 0.363,-0.306C0.356,-0.334 0.346,-0.356 0.333,-0.374C0.311,-0.403 0.283,-0.418 0.247,-0.418C0.217,-0.418 0.191,-0.406 0.169,-0.38C0.154,-0.361 0.142,-0.337 0.133,-0.307C0.125,-0.278 0.121,-0.245 0.121,-0.209Z" style="fill-rule:nonzero;"/>
            </g>
            <g transform="matrix(40.355,0,0,40.355,30.303,311.7)">
                <path d="M0.246,-0.675C0.28,-0.675 0.312,-0.66 0.342,-0.629C0.356,-0.614 0.371,-0.594 0.385,-0.57C0.4,-0.546 0.412,-0.522 0.422,-0.497C0.444,-0.439 0.455,-0.385 0.455,-0.333C0.455,-0.282 0.444,-0.228 0.422,-0.17C0.412,-0.145 0.4,-0.12 0.385,-0.096C0.371,-0.072 0.356,-0.053 0.342,-0.038C0.312,-0.007 0.28,0.009 0.246,0.009C0.212,0.009 0.18,-0.007 0.15,-0.038C0.136,-0.053 0.121,-0.072 0.107,-0.096C0.092,-0.12 0.08,-0.145 0.07,-0.17C0.048,-0.228 0.037,-0.282 0.037,-0.333C0.037,-0.385 0.048,-0.439 0.07,-0.497C0.08,-0.522 0.092,-0.546 0.107,-0.57C0.121,-0.594 0.136,-0.614 0.15,-0.629C0.18,-0.66 0.212,-0.675 0.246,-0.675ZM0.246,-0.664C0.233,-0.664 0.22,-0.659 0.208,-0.649C0.195,-0.639 0.184,-0.625 0.174,-0.607C0.167,-0.594 0.159,-0.576 0.152,-0.553C0.144,-0.531 0.138,-0.508 0.133,-0.486C0.123,-0.435 0.118,-0.384 0.118,-0.333C0.118,-0.283 0.123,-0.232 0.133,-0.181C0.138,-0.158 0.144,-0.135 0.152,-0.113C0.159,-0.09 0.167,-0.073 0.174,-0.06C0.184,-0.041 0.196,-0.027 0.208,-0.018C0.221,-0.008 0.234,-0.003 0.247,-0.003C0.259,-0.003 0.272,-0.008 0.284,-0.018C0.297,-0.028 0.308,-0.042 0.318,-0.06C0.325,-0.073 0.333,-0.09 0.34,-0.113C0.348,-0.135 0.354,-0.158 0.358,-0.181C0.369,-0.232 0.375,-0.283 0.375,-0.333C0.375,-0.384 0.369,-0.435 0.358,-0.486C0.354,-0.508 0.348,-0.531 0.34,-0.553C0.333,-0.576 0.325,-0.594 0.318,-0.607C0.308,-0.625 0.297,-0.639 0.285,-0.649C0.272,-0.659 0.259,-0.664 0.246,-0.664Z" style="fill-rule:nonzero;"/>
            </g>
        </g>
        <g transform="matrix(1,0,0,1,242.936,-170.545)">
            <g transform="matrix(40.355,0,0,40.355,10.4604,311.7)">
                <path d="M0.441,-0.657L0.204,-0.054L0.194,-0.029C0.188,-0.016 0.182,-0.006 0.175,-0C0.168,0.006 0.159,0.009 0.149,0.009C0.138,0.009 0.128,0.005 0.12,-0.002C0.111,-0.009 0.107,-0.018 0.107,-0.028C0.107,-0.037 0.111,-0.049 0.12,-0.065L0.13,-0.084L0.39,-0.579L0.177,-0.579C0.16,-0.579 0.146,-0.578 0.137,-0.576C0.127,-0.575 0.119,-0.571 0.112,-0.567C0.102,-0.56 0.094,-0.552 0.087,-0.542C0.081,-0.532 0.072,-0.515 0.062,-0.491L0.06,-0.485L0.05,-0.485L0.094,-0.68L0.104,-0.68C0.106,-0.669 0.11,-0.663 0.115,-0.66C0.12,-0.657 0.13,-0.656 0.146,-0.656L0.441,-0.657Z" style="fill-rule:nonzero;"/>
            </g>
            <g transform="matrix(40.355,0,0,40.355,30.303,311.7)">
                <path d="M0.307,-0.358C0.404,-0.332 0.453,-0.277 0.453,-0.193C0.453,-0.164 0.446,-0.137 0.434,-0.11C0.416,-0.073 0.389,-0.044 0.352,-0.023C0.315,-0.002 0.272,0.009 0.223,0.009C0.194,0.009 0.167,0.005 0.141,-0.004C0.116,-0.012 0.095,-0.023 0.079,-0.038C0.067,-0.049 0.057,-0.063 0.05,-0.079C0.043,-0.094 0.04,-0.11 0.04,-0.126C0.04,-0.154 0.049,-0.177 0.067,-0.196C0.086,-0.215 0.109,-0.225 0.136,-0.225L0.138,-0.216C0.123,-0.204 0.112,-0.191 0.106,-0.178C0.099,-0.166 0.096,-0.15 0.096,-0.132C0.096,-0.104 0.104,-0.079 0.12,-0.057C0.132,-0.04 0.148,-0.027 0.167,-0.017C0.186,-0.008 0.207,-0.003 0.229,-0.003C0.273,-0.003 0.308,-0.021 0.335,-0.055C0.347,-0.071 0.357,-0.091 0.365,-0.114C0.372,-0.136 0.375,-0.16 0.375,-0.183C0.375,-0.209 0.371,-0.234 0.362,-0.259C0.353,-0.283 0.341,-0.303 0.327,-0.317C0.309,-0.334 0.29,-0.342 0.27,-0.342C0.264,-0.342 0.258,-0.341 0.253,-0.339C0.248,-0.337 0.241,-0.333 0.232,-0.326C0.215,-0.314 0.201,-0.308 0.188,-0.308C0.179,-0.308 0.171,-0.311 0.165,-0.316C0.158,-0.322 0.155,-0.329 0.155,-0.337C0.155,-0.347 0.159,-0.355 0.167,-0.362C0.175,-0.368 0.185,-0.371 0.198,-0.371C0.204,-0.371 0.209,-0.37 0.214,-0.369L0.233,-0.364C0.239,-0.363 0.245,-0.362 0.252,-0.362C0.274,-0.362 0.296,-0.372 0.316,-0.392C0.344,-0.42 0.358,-0.457 0.358,-0.504C0.358,-0.526 0.355,-0.548 0.348,-0.569C0.341,-0.59 0.331,-0.608 0.318,-0.624C0.295,-0.65 0.268,-0.664 0.235,-0.664C0.208,-0.664 0.185,-0.655 0.168,-0.638C0.15,-0.621 0.142,-0.599 0.142,-0.573C0.142,-0.553 0.146,-0.536 0.156,-0.522C0.165,-0.508 0.178,-0.499 0.194,-0.495L0.196,-0.486C0.184,-0.481 0.172,-0.479 0.161,-0.479C0.138,-0.479 0.119,-0.486 0.104,-0.5C0.09,-0.514 0.083,-0.532 0.083,-0.555C0.083,-0.588 0.098,-0.616 0.129,-0.64C0.16,-0.663 0.198,-0.675 0.242,-0.675C0.268,-0.675 0.294,-0.671 0.318,-0.663C0.343,-0.655 0.364,-0.643 0.381,-0.628C0.397,-0.614 0.41,-0.597 0.419,-0.577C0.428,-0.557 0.433,-0.536 0.433,-0.514C0.433,-0.467 0.415,-0.429 0.379,-0.398C0.362,-0.384 0.338,-0.371 0.307,-0.358Z" style="fill-rule:nonzero;"/>
            </g>
        </g>
        <g transform="matrix(1,0,0,1,273.837,-98.2512)">
            <g transform="matrix(40.355,0,0,40.355,10.4604,311.7)">
                <path d="M0.301,-0.368C0.326,-0.354 0.346,-0.342 0.361,-0.331C0.375,-0.32 0.388,-0.309 0.399,-0.296C0.431,-0.261 0.446,-0.22 0.446,-0.173C0.446,-0.122 0.429,-0.079 0.395,-0.045C0.359,-0.009 0.312,0.009 0.253,0.009C0.189,0.009 0.136,-0.011 0.096,-0.049C0.063,-0.082 0.046,-0.12 0.046,-0.165C0.046,-0.213 0.065,-0.253 0.102,-0.284C0.118,-0.298 0.146,-0.315 0.187,-0.336C0.149,-0.355 0.12,-0.377 0.1,-0.401C0.074,-0.433 0.061,-0.469 0.061,-0.51C0.061,-0.553 0.076,-0.59 0.105,-0.621C0.122,-0.638 0.142,-0.652 0.165,-0.661C0.189,-0.671 0.214,-0.675 0.241,-0.675C0.266,-0.675 0.289,-0.671 0.312,-0.664C0.334,-0.656 0.354,-0.646 0.37,-0.632C0.402,-0.604 0.418,-0.569 0.418,-0.527C0.418,-0.487 0.404,-0.453 0.376,-0.424C0.363,-0.41 0.338,-0.391 0.301,-0.368ZM0.279,-0.377C0.301,-0.394 0.317,-0.415 0.328,-0.439C0.339,-0.463 0.344,-0.49 0.344,-0.52C0.344,-0.562 0.334,-0.596 0.312,-0.623C0.291,-0.65 0.264,-0.664 0.231,-0.664C0.199,-0.664 0.173,-0.652 0.153,-0.629C0.133,-0.607 0.123,-0.577 0.123,-0.542C0.123,-0.495 0.142,-0.457 0.182,-0.426C0.203,-0.41 0.236,-0.393 0.279,-0.377ZM0.206,-0.327C0.176,-0.304 0.153,-0.278 0.138,-0.25C0.123,-0.222 0.115,-0.191 0.115,-0.155C0.115,-0.112 0.127,-0.076 0.151,-0.048C0.177,-0.018 0.21,-0.003 0.253,-0.003C0.289,-0.003 0.317,-0.015 0.339,-0.038C0.351,-0.05 0.36,-0.066 0.366,-0.083C0.373,-0.101 0.376,-0.12 0.376,-0.14C0.376,-0.185 0.359,-0.224 0.326,-0.256C0.301,-0.281 0.261,-0.304 0.206,-0.327Z" style="fill:rgb(179,0,0);fill-rule:nonzero;"/>
            </g>
            <g transform="matrix(40.355,0,0,40.355,30.303,311.7)">
                <path d="M0.441,-0.657L0.204,-0.054L0.194,-0.029C0.188,-0.016 0.182,-0.006 0.175,-0C0.168,0.006 0.159,0.009 0.149,0.009C0.138,0.009 0.128,0.005 0.12,-0.002C0.111,-0.009 0.107,-0.018 0.107,-0.028C0.107,-0.037 0.111,-0.049 0.12,-0.065L0.13,-0.084L0.39,-0.579L0.177,-0.579C0.16,-0.579 0.146,-0.578 0.137,-0.576C0.127,-0.575 0.119,-0.571 0.112,-0.567C0.102,-0.56 0.094,-0.552 0.087,-0.542C0.081,-0.532 0.072,-0.515 0.062,-0.491L0.06,-0.485L0.05,-0.485L0.094,-0.68L0.104,-0.68C0.106,-0.669 0.11,-0.663 0.115,-0.66C0.12,-0.657 0.13,-0.656 0.146,-0.656L0.441,-0.657Z" style="fill:rgb(179,0,0);fill-rule:nonzero;"/>
            </g>
        </g>
        <g transform="matrix(1,0,0,1,232.916,-23.3542)">
            <g transform="matrix(40.355,0,0,40.355,0.539152,311.7)">
                <path d="M0.274,-0.667L0.286,-0.667L0.286,-0.131C0.286,-0.106 0.288,-0.086 0.292,-0.07C0.297,-0.054 0.303,-0.042 0.313,-0.035C0.328,-0.021 0.353,-0.013 0.387,-0.01L0.387,-0L0.105,-0L0.105,-0.01C0.127,-0.012 0.143,-0.015 0.154,-0.018C0.165,-0.022 0.175,-0.028 0.183,-0.038C0.192,-0.047 0.197,-0.058 0.2,-0.07C0.204,-0.083 0.205,-0.102 0.205,-0.128L0.205,-0.594C0.188,-0.592 0.175,-0.591 0.166,-0.591C0.142,-0.591 0.122,-0.593 0.107,-0.597L0.107,-0.606L0.119,-0.606C0.144,-0.606 0.167,-0.61 0.19,-0.618C0.212,-0.627 0.237,-0.64 0.264,-0.659L0.274,-0.667Z" style="fill:rgb(179,0,0);fill-rule:nonzero;"/>
            </g>
            <g transform="matrix(40.355,0,0,40.355,20.3817,311.7)">
                <path d="M0.246,-0.675C0.28,-0.675 0.312,-0.66 0.342,-0.629C0.356,-0.614 0.371,-0.594 0.385,-0.57C0.4,-0.546 0.412,-0.522 0.422,-0.497C0.444,-0.439 0.455,-0.385 0.455,-0.333C0.455,-0.282 0.444,-0.228 0.422,-0.17C0.412,-0.145 0.4,-0.12 0.385,-0.096C0.371,-0.072 0.356,-0.053 0.342,-0.038C0.312,-0.007 0.28,0.009 0.246,0.009C0.212,0.009 0.18,-0.007 0.15,-0.038C0.136,-0.053 0.121,-0.072 0.107,-0.096C0.092,-0.12 0.08,-0.145 0.07,-0.17C0.048,-0.228 0.037,-0.282 0.037,-0.333C0.037,-0.385 0.048,-0.439 0.07,-0.497C0.08,-0.522 0.092,-0.546 0.107,-0.57C0.121,-0.594 0.136,-0.614 0.15,-0.629C0.18,-0.66 0.212,-0.675 0.246,-0.675ZM0.246,-0.664C0.233,-0.664 0.22,-0.659 0.208,-0.649C0.195,-0.639 0.184,-0.625 0.174,-0.607C0.167,-0.594 0.159,-0.576 0.152,-0.553C0.144,-0.531 0.138,-0.508 0.133,-0.486C0.123,-0.435 0.118,-0.384 0.118,-0.333C0.118,-0.283 0.123,-0.232 0.133,-0.181C0.138,-0.158 0.144,-0.135 0.152,-0.113C0.159,-0.09 0.167,-0.073 0.174,-0.06C0.184,-0.041 0.196,-0.027 0.208,-0.018C0.221,-0.008 0.234,-0.003 0.247,-0.003C0.259,-0.003 0.272,-0.008 0.284,-0.018C0.297,-0.028 0.308,-0.042 0.318,-0.06C0.325,-0.073 0.333,-0.09 0.34,-0.113C0.348,-0.135 0.354,-0.158 0.358,-0.181C0.369,-0.232 0.375,-0.283 0.375,-0.333C0.375,-0.384 0.369,-0.435 0.358,-0.486C0.354,-0.508 0.348,-0.531 0.34,-0.553C0.333,-0.576 0.325,-0.594 0.318,-0.607C0.308,-0.625 0.297,-0.639 0.285,-0.649C0.272,-0.659 0.259,-0.664 0.246,-0.664Z" style="fill:rgb(179,0,0);fill-rule:nonzero;"/>
            </g>
            <g transform="matrix(40.355,0,0,40.355,40.2242,311.7)">
                <path d="M0.246,-0.675C0.28,-0.675 0.312,-0.66 0.342,-0.629C0.356,-0.614 0.371,-0.594 0.385,-0.57C0.4,-0.546 0.412,-0.522 0.422,-0.497C0.444,-0.439 0.455,-0.385 0.455,-0.333C0.455,-0.282 0.444,-0.228 0.422,-0.17C0.412,-0.145 0.4,-0.12 0.385,-0.096C0.371,-0.072 0.356,-0.053 0.342,-0.038C0.312,-0.007 0.28,0.009 0.246,0.009C0.212,0.009 0.18,-0.007 0.15,-0.038C0.136,-0.053 0.121,-0.072 0.107,-0.096C0.092,-0.12 0.08,-0.145 0.07,-0.17C0.048,-0.228 0.037,-0.282 0.037,-0.333C0.037,-0.385 0.048,-0.439 0.07,-0.497C0.08,-0.522 0.092,-0.546 0.107,-0.57C0.121,-0.594 0.136,-0.614 0.15,-0.629C0.18,-0.66 0.212,-0.675 0.246,-0.675ZM0.246,-0.664C0.233,-0.664 0.22,-0.659 0.208,-0.649C0.195,-0.639 0.184,-0.625 0.174,-0.607C0.167,-0.594 0.159,-0.576 0.152,-0.553C0.144,-0.531 0.138,-0.508 0.133,-0.486C0.123,-0.435 0.118,-0.384 0.118,-0.333C0.118,-0.283 0.123,-0.232 0.133,-0.181C0.138,-0.158 0.144,-0.135 0.152,-0.113C0.159,-0.09 0.167,-0.073 0.174,-0.06C0.184,-0.041 0.196,-0.027 0.208,-0.018C0.221,-0.008 0.234,-0.003 0.247,-0.003C0.259,-0.003 0.272,-0.008 0.284,-0.018C0.297,-0.028 0.308,-0.042 0.318,-0.06C0.325,-0.073 0.333,-0.09 0.34,-0.113C0.348,-0.135 0.354,-0.158 0.358,-0.181C0.369,-0.232 0.375,-0.283 0.375,-0.333C0.375,-0.384 0.369,-0.435 0.358,-0.486C0.354,-0.508 0.348,-0.531 0.34,-0.553C0.333,-0.576 0.325,-0.594 0.318,-0.607C0.308,-0.625 0.297,-0.639 0.285,-0.649C0.272,-0.659 0.259,-0.664 0.246,-0.664Z" style="fill:rgb(179,0,0);fill-rule:nonzero;"/>
            </g>
        </g>
    </g>
    <g id="Small-lines" serif:id="Small lines" transform="matrix(1.26563,0,0,1.26563,-53.4259,17.4124)">
        <path d="M291.18,238.499C316.753,213.819 331.197,179.806 331.197,144.266C331.197,71.988 272.516,13.307 200.237,13.307C127.958,13.307 69.277,71.988 69.277,144.266C69.277,191.945 95.19,235.856 136.926,258.906L145.157,244.003C108.846,223.95 86.302,185.747 86.302,144.266C86.302,81.384 137.355,30.331 200.237,30.331C263.119,30.331 314.172,81.384 314.172,144.266C314.172,175.186 301.606,204.777 279.357,226.249L291.18,238.499Z" style="fill:none;"/>
        <clipPath id="_clip1">
            <path d="M291.18,238.499C316.753,213.819 331.197,179.806 331.197,144.266C331.197,71.988 272.516,13.307 200.237,13.307C127.958,13.307 69.277,71.988 69.277,144.266C69.277,191.945 95.19,235.856 136.926,258.906L145.157,244.003C108.846,223.95 86.302,185.747 86.302,144.266C86.302,81.384 137.355,30.331 200.237,30.331C263.119,30.331 314.172,81.384 314.172,144.266C314.172,175.186 301.606,204.777 279.357,226.249L291.18,238.499Z"/>
        </clipPath>
        <g clip-path="url(#_clip1)">
            <g transform="matrix(0.790121,0,0,0.790121,42.2129,-13.7579)">
                <g transform="matrix(0.206673,0,0,1.02927,159.693,-11.7077)">
                    <rect x="190.187" y="11.375" width="19.448" height="388.625"/>
                </g>
                <g transform="matrix(0.14614,0.14614,-0.727803,0.727803,321.495,21.0851)">
                    <rect x="190.187" y="11.375" width="19.448" height="388.625"/>
                </g>
                <g transform="matrix(-0.14614,0.14614,-0.727803,-0.727803,379.925,320.485)">
                    <rect x="190.187" y="11.375" width="19.448" height="388.625"/>
                </g>
                <g transform="matrix(0,0.206673,-1.02927,0,412.717,158.684)">
                    <rect x="190.187" y="11.375" width="19.448" height="388.625"/>
                </g>
                <g transform="matrix(0.206033,0.0162602,-0.0809787,1.02608,176.478,-14.302)">
                    <rect x="190.187" y="11.375" width="19.448" height="388.625"/>
                </g>
                <g transform="matrix(0.134189,0.157185,-0.782808,0.668287,335.197,31.119)">
                    <rect x="190.187" y="11.375" width="19.448" height="388.625"/>
                </g>
                <g transform="matrix(-0.157185,0.134189,-0.668287,-0.782808,369.891,334.188)">
                    <rect x="190.187" y="11.375" width="19.448" height="388.625"/>
                </g>
                <g transform="matrix(-0.0162602,0.206033,-1.02608,-0.0809787,415.312,175.468)">
                    <rect x="190.187" y="11.375" width="19.448" height="388.625"/>
                </g>
                <g transform="matrix(0.204115,0.0324196,-0.161455,1.01653,193.414,-15.5678)">
                    <rect x="190.187" y="11.375" width="19.448" height="388.625"/>
                </g>
                <g transform="matrix(0.121407,0.167255,-0.832959,0.604627,348.068,42.1998)">
                    <rect x="190.187" y="11.375" width="19.448" height="388.625"/>
                </g>
                <g transform="matrix(-0.167255,0.121407,-0.604627,-0.832959,358.81,347.059)">
                    <rect x="190.187" y="11.375" width="19.448" height="388.625"/>
                </g>
                <g transform="matrix(-0.0324196,0.204115,-1.01653,-0.161455,416.577,192.405)">
                    <rect x="190.187" y="11.375" width="19.448" height="388.625"/>
                </g>
                <g transform="matrix(0.200932,0.0483781,-0.240931,1.00067,210.398,-15.4971)">
                    <rect x="190.187" y="11.375" width="19.448" height="388.625"/>
                </g>
                <g transform="matrix(0.107872,0.176289,-0.877947,0.537219,360.028,54.2589)">
                    <rect x="190.187" y="11.375" width="19.448" height="388.625"/>
                </g>
                <g transform="matrix(-0.176289,0.107872,-0.537219,-0.877947,346.751,359.018)">
                    <rect x="190.187" y="11.375" width="19.448" height="388.625"/>
                </g>
                <g transform="matrix(-0.0483781,0.200932,-1.00067,-0.240931,416.507,209.388)">
                    <rect x="190.187" y="11.375" width="19.448" height="388.625"/>
                </g>
                <g transform="matrix(0.196503,0.0640366,-0.318913,0.978616,227.323,-14.0905)">
                    <rect x="190.187" y="11.375" width="19.448" height="388.625"/>
                </g>
                <g transform="matrix(0.0936676,0.184229,-0.917492,0.46648,371.001,67.2216)">
                    <rect x="190.187" y="11.375" width="19.448" height="388.625"/>
                </g>
                <g transform="matrix(-0.184229,0.0936676,-0.46648,-0.917492,333.788,369.991)">
                    <rect x="190.187" y="11.375" width="19.448" height="388.625"/>
                </g>
                <g transform="matrix(-0.0640366,0.196503,-0.978616,-0.318913,415.1,226.313)">
                    <rect x="190.187" y="11.375" width="19.448" height="388.625"/>
                </g>
                <g transform="matrix(0.190855,0.0792981,-0.394918,0.950492,244.085,-11.3567)">
                    <rect x="190.187" y="11.375" width="19.448" height="388.625"/>
                </g>
                <g transform="matrix(0.0788828,0.191027,-0.951348,0.39285,380.921,81.0074)">
                    <rect x="190.187" y="11.375" width="19.448" height="388.625"/>
                </g>
                <g transform="matrix(-0.191027,0.0788828,-0.39285,-0.951348,320.002,379.911)">
                    <rect x="190.187" y="11.375" width="19.448" height="388.625"/>
                </g>
                <g transform="matrix(-0.0792981,0.190855,-0.950492,-0.394918,412.366,243.076)">
                    <rect x="190.187" y="11.375" width="19.448" height="388.625"/>
                </g>
                <g transform="matrix(0.184025,0.094068,-0.468475,0.916475,260.581,-7.31251)">
                    <rect x="190.187" y="11.375" width="19.448" height="388.625"/>
                </g>
                <g transform="matrix(0.0636091,0.196641,-0.979307,0.316784,389.725,95.5309)">
                    <rect x="190.187" y="11.375" width="19.448" height="388.625"/>
                </g>
                <g transform="matrix(-0.196641,0.0636091,-0.316784,-0.979307,305.479,388.715)">
                    <rect x="190.187" y="11.375" width="19.448" height="388.625"/>
                </g>
                <g transform="matrix(-0.094068,0.184025,-0.916475,-0.468475,408.322,259.571)">
                    <rect x="190.187" y="11.375" width="19.448" height="388.625"/>
                </g>
                <path id="off_line" d="M270.034,93.59C270.881,94.71 271.792,95.762 272.76,96.741L91.193,367.165L87.856,364.925L270.034,93.59ZM304.554,42.177L310.827,32.835L314.164,35.075L307.867,44.453C306.812,43.612 305.705,42.852 304.554,42.177Z"/>
                <g transform="matrix(0.047941,0.201036,-1.00119,0.238754,397.359,110.702)">
                    <rect x="190.187" y="11.375" width="19.448" height="388.625"/>
                </g>
                <g transform="matrix(-0.201036,0.047941,-0.238754,-1.00119,290.308,396.349)">
                    <rect x="190.187" y="11.375" width="19.448" height="388.625"/>
                </g>
                <g transform="matrix(-0.108255,0.176054,-0.876777,-0.539127,402.993,275.697)">
                    <rect x="190.187" y="11.375" width="19.448" height="388.625"/>
                </g>
                <g transform="matrix(0.0319757,0.204185,-1.01688,0.159244,403.776,126.427)">
                    <rect x="190.187" y="11.375" width="19.448" height="388.625"/>
                </g>
                <g transform="matrix(-0.204185,0.0319757,-0.159244,-1.01688,274.583,402.766)">
                    <rect x="190.187" y="11.375" width="19.448" height="388.625"/>
                </g>
                <g transform="matrix(-0.12177,0.166991,-0.831642,-0.606437,396.411,291.353)">
                    <rect x="190.187" y="11.375" width="19.448" height="388.625"/>
                </g>
                <g transform="matrix(0.0158121,0.206068,-1.02625,0.0787471,408.936,142.608)">
                    <rect x="190.187" y="11.375" width="19.448" height="388.625"/>
                </g>
                <g transform="matrix(-0.206068,0.0158121,-0.0787471,-1.02625,258.402,407.926)">
                    <rect x="190.187" y="11.375" width="19.448" height="388.625"/>
                </g>
                <g transform="matrix(-0.134531,0.156893,-0.781353,-0.669987,388.618,306.443)">
                    <rect x="190.187" y="11.375" width="19.448" height="388.625"/>
                </g>
                <path d="M90.629,347.961C91.232,349.348 91.925,350.679 92.699,351.944L84.795,362.783L81.548,360.415L90.629,347.961ZM122.691,303.992L317.224,37.217L320.472,39.585L126.662,305.368C125.381,304.807 124.055,304.345 122.691,303.992Z"/>
                <path d="M100.129,360.225C101.199,361.041 102.323,361.777 103.493,362.427L97.962,371.421L94.539,369.316L100.129,360.225ZM131.965,308.45L304.057,28.579L307.481,30.684L135.057,311.094C134.084,310.138 133.052,309.254 131.965,308.45Z"/>
                <path d="M88.421,328.216C88.05,330.232 87.856,332.32 87.856,334.458C87.856,334.653 87.857,334.847 87.861,335.044L72.348,353.135L69.297,350.519L88.421,328.216ZM109.029,304.182L329.671,46.865L332.722,49.481L115.175,303.189C113.059,303.273 111.001,303.613 109.029,304.182Z"/>
            </g>
        </g>
    </g>
    <g id="Medium-lines" serif:id="Medium lines" transform="matrix(1.26563,0,0,1.26563,-53.4259,17.4124)">
        <path d="M287.866,241.588C315.448,216.753 331.197,181.381 331.197,144.266C331.197,71.988 272.516,13.307 200.237,13.307C127.958,13.307 69.277,71.988 69.277,144.266C69.277,181.381 85.026,216.753 112.608,241.588L128.381,224.07C105.764,203.706 92.85,174.701 92.85,144.266C92.85,84.998 140.969,36.879 200.237,36.879C259.506,36.879 307.624,84.998 307.624,144.266C307.624,174.701 294.71,203.706 272.093,224.07L287.866,241.588Z" style="fill:none;"/>
        <clipPath id="_clip2">
            <path d="M287.866,241.588C315.448,216.753 331.197,181.381 331.197,144.266C331.197,71.988 272.516,13.307 200.237,13.307C127.958,13.307 69.277,71.988 69.277,144.266C69.277,181.381 85.026,216.753 112.608,241.588L128.381,224.07C105.764,203.706 92.85,174.701 92.85,144.266C92.85,84.998 140.969,36.879 200.237,36.879C259.506,36.879 307.624,84.998 307.624,144.266C307.624,174.701 294.71,203.706 272.093,224.07L287.866,241.588Z"/>
        </clipPath>
        <g clip-path="url(#_clip2)">
            <g transform="matrix(0.790121,0,0,0.790121,42.2129,-13.7579)">
                <g transform="matrix(0.206673,0,0,1.02927,159.693,-11.7077)">
                    <rect x="190.187" y="11.375" width="19.448" height="388.625"/>
                </g>
                <g transform="matrix(0.14614,0.14614,-0.727803,0.727803,321.495,21.0851)">
                    <rect x="190.187" y="11.375" width="19.448" height="388.625"/>
                </g>
                <g transform="matrix(-0.14614,0.14614,-0.727803,-0.727803,379.925,320.485)">
                    <rect x="190.187" y="11.375" width="19.448" height="388.625"/>
                </g>
                <g transform="matrix(0,0.206673,-1.02927,0,412.717,158.684)">
                    <rect x="190.187" y="11.375" width="19.448" height="388.625"/>
                </g>
                <g transform="matrix(0.204115,0.0324196,-0.161455,1.01653,193.414,-15.5678)">
                    <rect x="190.187" y="11.375" width="19.448" height="388.625"/>
                </g>
                <g transform="matrix(0.121407,0.167255,-0.832959,0.604627,348.068,42.1998)">
                    <rect x="190.187" y="11.375" width="19.448" height="388.625"/>
                </g>
                <g transform="matrix(-0.167255,0.121407,-0.604627,-0.832959,358.81,347.059)">
                    <rect x="190.187" y="11.375" width="19.448" height="388.625"/>
                </g>
                <g transform="matrix(-0.0324196,0.204115,-1.01653,-0.161455,416.577,192.405)">
                    <rect x="190.187" y="11.375" width="19.448" height="388.625"/>
                </g>
                <g transform="matrix(0.196503,0.0640366,-0.318913,0.978616,227.323,-14.0905)">
                    <rect x="190.187" y="11.375" width="19.448" height="388.625"/>
                </g>
                <g transform="matrix(0.0936676,0.184229,-0.917492,0.46648,371.001,67.2216)">
                    <rect x="190.187" y="11.375" width="19.448" height="388.625"/>
                </g>
                <g transform="matrix(-0.184229,0.0936676,-0.46648,-0.917492,333.788,369.991)">
                    <rect x="190.187" y="11.375" width="19.448" height="388.625"/>
                </g>
                <g transform="matrix(-0.0640366,0.196503,-0.978616,-0.318913,415.1,226.313)">
                    <rect x="190.187" y="11.375" width="19.448" height="388.625"/>
                </g>
                <g transform="matrix(0.184025,0.094068,-0.468475,0.916475,260.581,-7.31251)">
                    <rect x="190.187" y="11.375" width="19.448" height="388.625"/>
                </g>
                <g transform="matrix(0.0636091,0.196641,-0.979307,0.316784,389.725,95.5309)">
                    <rect x="190.187" y="11.375" width="19.448" height="388.625"/>
                </g>
                <g transform="matrix(-0.196641,0.0636091,-0.316784,-0.979307,305.479,388.715)">
                    <rect x="190.187" y="11.375" width="19.448" height="388.625"/>
                </g>
                <g transform="matrix(-0.094068,0.184025,-0.916475,-0.468475,408.322,259.571)">
                    <rect x="190.187" y="11.375" width="19.448" height="388.625"/>
                </g>
                <g transform="matrix(0.166991,0.12177,-0.606437,0.831642,292.363,4.5985)">
                    <rect x="190.187" y="11.375" width="19.448" height="388.625"/>
                </g>
                <g transform="matrix(0.0319757,0.204185,-1.01688,0.159244,403.776,126.427)">
                    <rect x="190.187" y="11.375" width="19.448" height="388.625"/>
                </g>
                <g transform="matrix(-0.204185,0.0319757,-0.159244,-1.01688,274.583,402.766)">
                    <rect x="190.187" y="11.375" width="19.448" height="388.625"/>
                </g>
                <g transform="matrix(-0.12177,0.166991,-0.831642,-0.606437,396.411,291.353)">
                    <rect x="190.187" y="11.375" width="19.448" height="388.625"/>
                </g>
            </g>
        </g>
    </g>
    <g id="Big-lines" serif:id="Big lines" transform="matrix(1.13268,0,0,1.13268,-26.8051,36.592)">
        <path d="M284.416,244.587C314.07,219.704 331.197,182.977 331.197,144.266C331.197,71.988 272.516,13.307 200.237,13.307C127.958,13.307 69.277,71.988 69.277,144.266C69.277,184.579 87.843,222.645 119.61,247.464L129.285,235.08C101.331,213.24 84.992,179.741 84.992,144.266C84.992,80.661 136.632,29.022 200.237,29.022C263.842,29.022 315.482,80.661 315.482,144.266C315.482,178.332 300.41,210.652 274.315,232.549L284.416,244.587Z" style="fill:none;"/>
        <clipPath id="_clip3">
            <path d="M284.416,244.587C314.07,219.704 331.197,182.977 331.197,144.266C331.197,71.988 272.516,13.307 200.237,13.307C127.958,13.307 69.277,71.988 69.277,144.266C69.277,184.579 87.843,222.645 119.61,247.464L129.285,235.08C101.331,213.24 84.992,179.741 84.992,144.266C84.992,80.661 136.632,29.022 200.237,29.022C263.842,29.022 315.482,80.661 315.482,144.266C315.482,178.332 300.41,210.652 274.315,232.549L284.416,244.587Z"/>
        </clipPath>
        <g clip-path="url(#_clip3)">
            <g transform="matrix(0.790121,0,0,0.790121,42.2129,-13.7579)">
                <g transform="matrix(0.668488,0,0,1.15008,67.4905,-36.5563)">
                    <rect x="190.187" y="11.375" width="19.448" height="388.625"/>
                </g>
                <g transform="matrix(0.472692,0.472692,-0.813227,0.813227,273.903,-61.7667)">
                    <rect x="190.187" y="11.375" width="19.448" height="388.625"/>
                </g>
                <g transform="matrix(0,0.668488,-1.15008,0,437.685,66.3623)">
                    <rect x="190.187" y="11.375" width="19.448" height="388.625"/>
                </g>
                <g transform="matrix(-0.472692,0.472692,-0.813227,-0.813227,462.895,272.774)">
                    <rect x="190.187" y="11.375" width="19.448" height="388.625"/>
                </g>
            </g>
        </g>
    </g>
</svg>
