<?xml version="1.0" encoding="UTF-8" standalone="no"?>
<!DOCTYPE svg PUBLIC "-//W3C//DTD SVG 1.1//EN" "http://www.w3.org/Graphics/SVG/1.1/DTD/svg11.dtd">
<svg width="100%" height="100%" viewBox="0 0 155 155" version="1.1" xmlns="http://www.w3.org/2000/svg" xmlns:xlink="http://www.w3.org/1999/xlink" xml:space="preserve" xmlns:serif="http://www.serif.com/" style="fill-rule:evenodd;clip-rule:evenodd;stroke-linecap:round;stroke-linejoin:round;stroke-miterlimit:1.5;">
    <g transform="matrix(1.26709,0,0,1.26709,-30.0636,-24.3959)">
        <circle cx="84.89" cy="80.417" r="61.164" style="fill:rgb(245,235,227);"/>
        <clipPath id="_clip1">
            <circle cx="84.89" cy="80.417" r="61.164"/>
        </clipPath>
        <g clip-path="url(#_clip1)">
            <g transform="matrix(0.81288,0,0,0.876759,20.0575,12.4684)">
                <rect x="4.514" y="7.75" width="150.486" height="69.75"/>
            </g>
        </g>
    </g>
    <path d="M77.5,77.512L155.001,0.012L155.001,155.012L77.5,77.512ZM77.501,77.509L0,155.009L0,0.009L77.501,77.509Z" style="fill:none;"/>
    <clipPath id="_clip2">
        <path d="M77.5,77.512L155.001,0.012L155.001,155.012L77.5,77.512ZM77.501,77.509L0,155.009L0,0.009L77.501,77.509Z"/>
    </clipPath>
    <g clip-path="url(#_clip2)">
        <g transform="matrix(1.05756,0,0,-0.963321,-3.47075,82.9144)">
            <rect x="3.281" y="5.621" width="146.564" height="80.451" style="fill:none;"/>
            <clipPath id="_clip3">
                <rect x="3.281" y="5.621" width="146.564" height="80.451"/>
            </clipPath>
            <g clip-path="url(#_clip3)">
                <g transform="matrix(-0.945574,1.27128e-16,-1.15799e-16,-1.03808,149.846,86.0715)">
                    <g transform="matrix(1.26709,0,0,1.26709,-30.0636,-24.3959)">
                        <path d="M84.89,19.253C118.647,19.253 146.054,46.66 146.054,80.417C146.054,114.174 118.647,141.581 84.89,141.581C51.133,141.581 23.726,114.174 23.726,80.417C23.726,46.66 51.133,19.253 84.89,19.253ZM84.89,25.37C115.272,25.37 139.938,50.036 139.938,80.417C139.938,110.799 115.272,135.465 84.89,135.465C54.509,135.465 29.843,110.799 29.843,80.417C29.843,50.036 54.509,25.37 84.89,25.37Z"/>
                    </g>
                    <g transform="matrix(1.14038,0,-2.96744e-32,1.14038,-19.3072,-14.2063)">
                        <path d="M84.89,19.253C118.647,19.253 146.054,46.66 146.054,80.417C146.054,114.174 118.647,141.581 84.89,141.581C51.133,141.581 23.726,114.174 23.726,80.417C23.726,46.66 51.133,19.253 84.89,19.253ZM84.89,25.37C115.272,25.37 139.938,50.036 139.938,80.417C139.938,110.799 115.272,135.465 84.89,135.465C54.509,135.465 29.843,110.799 29.843,80.417C29.843,50.036 54.509,25.37 84.89,25.37Z" style="fill:rgb(245,235,227);stroke:black;stroke-width:0.88px;"/>
                    </g>
                    <g transform="matrix(-1,-1.22465e-16,1.22465e-16,-1,155,155)">
                        <path d="M77.5,140.275C42.854,140.275 14.725,112.146 14.725,77.5C14.725,42.854 42.854,14.725 77.5,14.725C112.146,14.725 140.275,42.854 140.275,77.5C140.275,112.146 112.146,140.275 77.5,140.275ZM77.5,133.997C46.318,133.997 21.003,108.682 21.003,77.5C21.003,46.318 46.318,21.003 77.5,21.003C108.682,21.003 133.997,46.318 133.997,77.5C133.997,108.682 108.682,133.997 77.5,133.997Z" style="stroke:black;stroke-width:1px;"/>
                    </g>
                    <g transform="matrix(-0.9,-1.10218e-16,1.10218e-16,-0.9,147.25,147.25)">
                        <path d="M77.5,140.275C42.854,140.275 14.725,112.146 14.725,77.5C14.725,42.854 42.854,14.725 77.5,14.725C112.146,14.725 140.275,42.854 140.275,77.5C140.275,112.146 112.146,140.275 77.5,140.275ZM77.5,133.997C46.318,133.997 21.003,108.682 21.003,77.5C21.003,46.318 46.318,21.003 77.5,21.003C108.682,21.003 133.997,46.318 133.997,77.5C133.997,108.682 108.682,133.997 77.5,133.997Z" style="fill:rgb(245,235,227);stroke:black;stroke-width:1.11px;"/>
                    </g>
                    <g transform="matrix(-0.81,-9.91964e-17,9.91964e-17,-0.81,140.275,140.275)">
                        <path d="M77.5,140.275C42.854,140.275 14.725,112.146 14.725,77.5C14.725,42.854 42.854,14.725 77.5,14.725C112.146,14.725 140.275,42.854 140.275,77.5C140.275,112.146 112.146,140.275 77.5,140.275ZM77.5,133.997C46.318,133.997 21.003,108.682 21.003,77.5C21.003,46.318 46.318,21.003 77.5,21.003C108.682,21.003 133.997,46.318 133.997,77.5C133.997,108.682 108.682,133.997 77.5,133.997Z" style="stroke:black;stroke-width:1.23px;"/>
                    </g>
                    <g transform="matrix(-0.729,-8.92767e-17,8.9301e-17,-0.729198,133.997,134.025)">
                        <path d="M77.5,140.275C42.854,140.275 14.725,112.146 14.725,77.5C14.725,42.854 42.854,14.725 77.5,14.725C112.146,14.725 140.275,42.854 140.275,77.5C140.275,112.146 112.146,140.275 77.5,140.275ZM77.5,133.997C46.318,133.997 21.003,108.682 21.003,77.5C21.003,46.318 46.318,21.003 77.5,21.003C108.682,21.003 133.997,46.318 133.997,77.5C133.997,108.682 108.682,133.997 77.5,133.997Z" style="fill:rgb(245,235,227);stroke:black;stroke-width:1.37px;"/>
                    </g>
                    <g transform="matrix(0.673374,-1.19591e-32,1.19591e-32,0.673374,20.3378,23.3498)">
                        <path d="M84.89,19.253C118.647,19.253 146.054,46.66 146.054,80.417C146.054,114.174 118.647,141.581 84.89,141.581C51.133,141.581 23.726,114.174 23.726,80.417C23.726,46.66 51.133,19.253 84.89,19.253ZM84.89,25.37C115.272,25.37 139.938,50.036 139.938,80.417C139.938,110.799 115.272,135.465 84.89,135.465C54.509,135.465 29.843,110.799 29.843,80.417C29.843,50.036 54.509,25.37 84.89,25.37Z"/>
                    </g>
                    <g transform="matrix(0.606036,-1.07632e-32,-5.00676e-33,0.606036,26.0541,28.7649)">
                        <path d="M84.89,19.253C118.647,19.253 146.054,46.66 146.054,80.417C146.054,114.174 118.647,141.581 84.89,141.581C51.133,141.581 23.726,114.174 23.726,80.417C23.726,46.66 51.133,19.253 84.89,19.253ZM84.89,25.37C115.272,25.37 139.938,50.036 139.938,80.417C139.938,110.799 115.272,135.465 84.89,135.465C54.509,135.465 29.843,110.799 29.843,80.417C29.843,50.036 54.509,25.37 84.89,25.37Z" style="fill:rgb(245,235,227);stroke:black;stroke-width:1.65px;"/>
                    </g>
                    <g transform="matrix(-0.531433,-6.50818e-17,6.50818e-17,-0.531433,118.687,118.687)">
                        <path d="M77.5,140.275C42.854,140.275 14.725,112.146 14.725,77.5C14.725,42.854 42.854,14.725 77.5,14.725C112.146,14.725 140.275,42.854 140.275,77.5C140.275,112.146 112.146,140.275 77.5,140.275ZM77.5,133.997C46.318,133.997 21.003,108.682 21.003,77.5C21.003,46.318 46.318,21.003 77.5,21.003C108.682,21.003 133.997,46.318 133.997,77.5C133.997,108.682 108.682,133.997 77.5,133.997Z" style="stroke:black;stroke-width:1.88px;"/>
                    </g>
                    <g transform="matrix(-0.47829,-5.85736e-17,5.85736e-17,-0.47829,114.568,114.568)">
                        <path d="M77.5,140.275C42.854,140.275 14.725,112.146 14.725,77.5C14.725,42.854 42.854,14.725 77.5,14.725C112.146,14.725 140.275,42.854 140.275,77.5C140.275,112.146 112.146,140.275 77.5,140.275ZM77.5,133.997C46.318,133.997 21.003,108.682 21.003,77.5C21.003,46.318 46.318,21.003 77.5,21.003C108.682,21.003 133.997,46.318 133.997,77.5C133.997,108.682 108.682,133.997 77.5,133.997Z" style="fill:rgb(245,235,227);stroke:black;stroke-width:2.09px;"/>
                    </g>
                    <g transform="matrix(-0.430461,-5.27162e-17,5.27162e-17,-0.430461,110.861,110.861)">
                        <path d="M77.5,140.275C42.854,140.275 14.725,112.146 14.725,77.5C14.725,42.854 42.854,14.725 77.5,14.725C112.146,14.725 140.275,42.854 140.275,77.5C140.275,112.146 112.146,140.275 77.5,140.275ZM77.5,133.997C46.318,133.997 21.003,108.682 21.003,77.5C21.003,46.318 46.318,21.003 77.5,21.003C108.682,21.003 133.997,46.318 133.997,77.5C133.997,108.682 108.682,133.997 77.5,133.997Z" style="stroke:black;stroke-width:2.32px;"/>
                    </g>
                    <g transform="matrix(-0.387415,-4.74446e-17,4.74575e-17,-0.38752,107.525,107.54)">
                        <path d="M77.5,140.275C42.854,140.275 14.725,112.146 14.725,77.5C14.725,42.854 42.854,14.725 77.5,14.725C112.146,14.725 140.275,42.854 140.275,77.5C140.275,112.146 112.146,140.275 77.5,140.275ZM77.5,133.997C46.318,133.997 21.003,108.682 21.003,77.5C21.003,46.318 46.318,21.003 77.5,21.003C108.682,21.003 133.997,46.318 133.997,77.5C133.997,108.682 108.682,133.997 77.5,133.997Z" style="fill:rgb(245,235,227);stroke:black;stroke-width:2.58px;"/>
                    </g>
                    <g transform="matrix(0.357858,1.04031e-32,-1.04031e-32,0.357858,47.1213,48.728)">
                        <path d="M84.89,19.253C118.647,19.253 146.054,46.66 146.054,80.417C146.054,114.174 118.647,141.581 84.89,141.581C51.133,141.581 23.726,114.174 23.726,80.417C23.726,46.66 51.133,19.253 84.89,19.253ZM84.89,25.37C115.272,25.37 139.938,50.036 139.938,80.417C139.938,110.799 115.272,135.465 84.89,135.465C54.509,135.465 29.843,110.799 29.843,80.417C29.843,50.036 54.509,25.37 84.89,25.37Z"/>
                    </g>
                    <g transform="matrix(0.322072,9.36282e-33,-1.77436e-32,0.322072,50.1592,51.6058)">
                        <path d="M84.89,19.253C118.647,19.253 146.054,46.66 146.054,80.417C146.054,114.174 118.647,141.581 84.89,141.581C51.133,141.581 23.726,114.174 23.726,80.417C23.726,46.66 51.133,19.253 84.89,19.253ZM84.89,25.37C115.272,25.37 139.938,50.036 139.938,80.417C139.938,110.799 115.272,135.465 84.89,135.465C54.509,135.465 29.843,110.799 29.843,80.417C29.843,50.036 54.509,25.37 84.89,25.37Z" style="fill:rgb(245,235,227);stroke:black;stroke-width:3.1px;"/>
                    </g>
                    <g transform="matrix(-0.282425,-3.45871e-17,3.45871e-17,-0.282425,99.388,99.3939)">
                        <path d="M77.5,140.275C42.854,140.275 14.725,112.146 14.725,77.5C14.725,42.854 42.854,14.725 77.5,14.725C112.146,14.725 140.275,42.854 140.275,77.5C140.275,112.146 112.146,140.275 77.5,140.275ZM77.5,133.997C46.318,133.997 21.003,108.682 21.003,77.5C21.003,46.318 46.318,21.003 77.5,21.003C108.682,21.003 133.997,46.318 133.997,77.5C133.997,108.682 108.682,133.997 77.5,133.997Z" style="stroke:black;stroke-width:3.54px;"/>
                    </g>
                    <g transform="matrix(-0.254183,-3.11284e-17,3.11284e-17,-0.254183,97.1992,97.2051)">
                        <path d="M77.5,140.275C42.854,140.275 14.725,112.146 14.725,77.5C14.725,42.854 42.854,14.725 77.5,14.725C112.146,14.725 140.275,42.854 140.275,77.5C140.275,112.146 112.146,140.275 77.5,140.275ZM77.5,133.997C46.318,133.997 21.003,108.682 21.003,77.5C21.003,46.318 46.318,21.003 77.5,21.003C108.682,21.003 133.997,46.318 133.997,77.5C133.997,108.682 108.682,133.997 77.5,133.997Z" style="fill:rgb(245,235,227);stroke:black;stroke-width:3.93px;"/>
                    </g>
                    <g transform="matrix(-0.228764,-2.80156e-17,2.80156e-17,-0.228764,95.2292,95.2352)">
                        <path d="M77.5,140.275C42.854,140.275 14.725,112.146 14.725,77.5C14.725,42.854 42.854,14.725 77.5,14.725C112.146,14.725 140.275,42.854 140.275,77.5C140.275,112.146 112.146,140.275 77.5,140.275ZM77.5,133.997C46.318,133.997 21.003,108.682 21.003,77.5C21.003,46.318 46.318,21.003 77.5,21.003C108.682,21.003 133.997,46.318 133.997,77.5C133.997,108.682 108.682,133.997 77.5,133.997Z" style="stroke:black;stroke-width:4.37px;"/>
                    </g>
                    <g transform="matrix(-0.205888,-2.5214e-17,2.52208e-17,-0.205944,93.4563,93.4701)">
                        <path d="M77.5,140.275C42.854,140.275 14.725,112.146 14.725,77.5C14.725,42.854 42.854,14.725 77.5,14.725C112.146,14.725 140.275,42.854 140.275,77.5C140.275,112.146 112.146,140.275 77.5,140.275ZM77.5,133.997C46.318,133.997 21.003,108.682 21.003,77.5C21.003,46.318 46.318,21.003 77.5,21.003C108.682,21.003 133.997,46.318 133.997,77.5C133.997,108.682 108.682,133.997 77.5,133.997Z" style="fill:rgb(245,235,227);stroke:black;stroke-width:4.86px;"/>
                    </g>
                </g>
            </g>
        </g>
        <g transform="matrix(1.05756,2.59048e-16,-2.35964e-16,0.963475,-3.47075,72.0847)">
            <rect x="3.281" y="5.621" width="146.564" height="80.451" style="fill:none;"/>
            <clipPath id="_clip4">
                <rect x="3.281" y="5.621" width="146.564" height="80.451"/>
            </clipPath>
            <g clip-path="url(#_clip4)">
                <g transform="matrix(-0.945574,3.81342e-16,-3.4738e-16,-1.03791,149.846,86.0586)">
                    <g transform="matrix(1.26709,0,0,1.26709,-30.0636,-24.3959)">
                        <path d="M84.89,19.253C118.647,19.253 146.054,46.66 146.054,80.417C146.054,114.174 118.647,141.581 84.89,141.581C51.133,141.581 23.726,114.174 23.726,80.417C23.726,46.66 51.133,19.253 84.89,19.253ZM84.89,25.37C115.272,25.37 139.938,50.036 139.938,80.417C139.938,110.799 115.272,135.465 84.89,135.465C54.509,135.465 29.843,110.799 29.843,80.417C29.843,50.036 54.509,25.37 84.89,25.37Z" style="fill:rgb(245,235,227);stroke:rgb(245,235,227);stroke-width:0.79px;"/>
                    </g>
                    <g transform="matrix(1.14038,0,-2.96744e-32,1.14038,-19.3072,-14.2063)">
                        <path d="M84.89,19.253C118.647,19.253 146.054,46.66 146.054,80.417C146.054,114.174 118.647,141.581 84.89,141.581C51.133,141.581 23.726,114.174 23.726,80.417C23.726,46.66 51.133,19.253 84.89,19.253ZM84.89,25.37C115.272,25.37 139.938,50.036 139.938,80.417C139.938,110.799 115.272,135.465 84.89,135.465C54.509,135.465 29.843,110.799 29.843,80.417C29.843,50.036 54.509,25.37 84.89,25.37Z" style="fill:rgb(240,56,19);"/>
                    </g>
                    <g transform="matrix(-1,-1.22465e-16,1.22465e-16,-1,155,155)">
                        <path d="M77.5,140.275C42.854,140.275 14.725,112.146 14.725,77.5C14.725,42.854 42.854,14.725 77.5,14.725C112.146,14.725 140.275,42.854 140.275,77.5C140.275,112.146 112.146,140.275 77.5,140.275ZM77.5,133.997C46.318,133.997 21.003,108.682 21.003,77.5C21.003,46.318 46.318,21.003 77.5,21.003C108.682,21.003 133.997,46.318 133.997,77.5C133.997,108.682 108.682,133.997 77.5,133.997Z" style="fill:rgb(245,235,227);stroke:rgb(245,235,227);stroke-width:1px;"/>
                    </g>
                    <g transform="matrix(-0.9,-1.10218e-16,1.10218e-16,-0.9,147.25,147.25)">
                        <path d="M77.5,140.275C42.854,140.275 14.725,112.146 14.725,77.5C14.725,42.854 42.854,14.725 77.5,14.725C112.146,14.725 140.275,42.854 140.275,77.5C140.275,112.146 112.146,140.275 77.5,140.275ZM77.5,133.997C46.318,133.997 21.003,108.682 21.003,77.5C21.003,46.318 46.318,21.003 77.5,21.003C108.682,21.003 133.997,46.318 133.997,77.5C133.997,108.682 108.682,133.997 77.5,133.997Z" style="fill:rgb(240,56,19);"/>
                    </g>
                    <g transform="matrix(-0.81,-9.91964e-17,9.91964e-17,-0.81,140.275,140.275)">
                        <path d="M77.5,140.275C42.854,140.275 14.725,112.146 14.725,77.5C14.725,42.854 42.854,14.725 77.5,14.725C112.146,14.725 140.275,42.854 140.275,77.5C140.275,112.146 112.146,140.275 77.5,140.275ZM77.5,133.997C46.318,133.997 21.003,108.682 21.003,77.5C21.003,46.318 46.318,21.003 77.5,21.003C108.682,21.003 133.997,46.318 133.997,77.5C133.997,108.682 108.682,133.997 77.5,133.997Z" style="fill:rgb(245,235,227);stroke:rgb(245,235,227);stroke-width:1.23px;"/>
                    </g>
                    <g transform="matrix(-0.729,-8.92767e-17,8.9301e-17,-0.729198,133.997,134.025)">
                        <path d="M77.5,140.275C42.854,140.275 14.725,112.146 14.725,77.5C14.725,42.854 42.854,14.725 77.5,14.725C112.146,14.725 140.275,42.854 140.275,77.5C140.275,112.146 112.146,140.275 77.5,140.275ZM77.5,133.997C46.318,133.997 21.003,108.682 21.003,77.5C21.003,46.318 46.318,21.003 77.5,21.003C108.682,21.003 133.997,46.318 133.997,77.5C133.997,108.682 108.682,133.997 77.5,133.997Z" style="fill:rgb(240,56,19);"/>
                    </g>
                    <g transform="matrix(0.673374,-1.19591e-32,1.19591e-32,0.673374,20.3378,23.3498)">
                        <path d="M84.89,19.253C118.647,19.253 146.054,46.66 146.054,80.417C146.054,114.174 118.647,141.581 84.89,141.581C51.133,141.581 23.726,114.174 23.726,80.417C23.726,46.66 51.133,19.253 84.89,19.253ZM84.89,25.37C115.272,25.37 139.938,50.036 139.938,80.417C139.938,110.799 115.272,135.465 84.89,135.465C54.509,135.465 29.843,110.799 29.843,80.417C29.843,50.036 54.509,25.37 84.89,25.37Z" style="fill:rgb(245,235,227);stroke:rgb(245,235,227);stroke-width:1.49px;"/>
                    </g>
                    <g transform="matrix(0.606036,-1.07632e-32,-5.00676e-33,0.606036,26.0541,28.7649)">
                        <path d="M84.89,19.253C118.647,19.253 146.054,46.66 146.054,80.417C146.054,114.174 118.647,141.581 84.89,141.581C51.133,141.581 23.726,114.174 23.726,80.417C23.726,46.66 51.133,19.253 84.89,19.253ZM84.89,25.37C115.272,25.37 139.938,50.036 139.938,80.417C139.938,110.799 115.272,135.465 84.89,135.465C54.509,135.465 29.843,110.799 29.843,80.417C29.843,50.036 54.509,25.37 84.89,25.37Z" style="fill:rgb(240,56,19);"/>
                    </g>
                    <g transform="matrix(-0.531433,-6.50818e-17,6.50818e-17,-0.531433,118.687,118.687)">
                        <path d="M77.5,140.275C42.854,140.275 14.725,112.146 14.725,77.5C14.725,42.854 42.854,14.725 77.5,14.725C112.146,14.725 140.275,42.854 140.275,77.5C140.275,112.146 112.146,140.275 77.5,140.275ZM77.5,133.997C46.318,133.997 21.003,108.682 21.003,77.5C21.003,46.318 46.318,21.003 77.5,21.003C108.682,21.003 133.997,46.318 133.997,77.5C133.997,108.682 108.682,133.997 77.5,133.997Z" style="fill:rgb(245,235,227);stroke:rgb(245,235,227);stroke-width:1.88px;"/>
                    </g>
                    <g transform="matrix(-0.47829,-5.85736e-17,5.85736e-17,-0.47829,114.568,114.568)">
                        <path d="M77.5,140.275C42.854,140.275 14.725,112.146 14.725,77.5C14.725,42.854 42.854,14.725 77.5,14.725C112.146,14.725 140.275,42.854 140.275,77.5C140.275,112.146 112.146,140.275 77.5,140.275ZM77.5,133.997C46.318,133.997 21.003,108.682 21.003,77.5C21.003,46.318 46.318,21.003 77.5,21.003C108.682,21.003 133.997,46.318 133.997,77.5C133.997,108.682 108.682,133.997 77.5,133.997Z" style="fill:rgb(240,56,19);"/>
                    </g>
                    <g transform="matrix(-0.430461,-5.27162e-17,5.27162e-17,-0.430461,110.861,110.861)">
                        <path d="M77.5,140.275C42.854,140.275 14.725,112.146 14.725,77.5C14.725,42.854 42.854,14.725 77.5,14.725C112.146,14.725 140.275,42.854 140.275,77.5C140.275,112.146 112.146,140.275 77.5,140.275ZM77.5,133.997C46.318,133.997 21.003,108.682 21.003,77.5C21.003,46.318 46.318,21.003 77.5,21.003C108.682,21.003 133.997,46.318 133.997,77.5C133.997,108.682 108.682,133.997 77.5,133.997Z" style="fill:rgb(245,235,227);stroke:rgb(245,235,227);stroke-width:2.32px;"/>
                    </g>
                    <g transform="matrix(-0.387415,-4.74446e-17,4.74575e-17,-0.38752,107.525,107.54)">
                        <path d="M77.5,140.275C42.854,140.275 14.725,112.146 14.725,77.5C14.725,42.854 42.854,14.725 77.5,14.725C112.146,14.725 140.275,42.854 140.275,77.5C140.275,112.146 112.146,140.275 77.5,140.275ZM77.5,133.997C46.318,133.997 21.003,108.682 21.003,77.5C21.003,46.318 46.318,21.003 77.5,21.003C108.682,21.003 133.997,46.318 133.997,77.5C133.997,108.682 108.682,133.997 77.5,133.997Z" style="fill:rgb(240,56,19);"/>
                    </g>
                    <g transform="matrix(0.357858,1.04031e-32,-1.04031e-32,0.357858,47.1213,48.728)">
                        <path d="M84.89,19.253C118.647,19.253 146.054,46.66 146.054,80.417C146.054,114.174 118.647,141.581 84.89,141.581C51.133,141.581 23.726,114.174 23.726,80.417C23.726,46.66 51.133,19.253 84.89,19.253ZM84.89,25.37C115.272,25.37 139.938,50.036 139.938,80.417C139.938,110.799 115.272,135.465 84.89,135.465C54.509,135.465 29.843,110.799 29.843,80.417C29.843,50.036 54.509,25.37 84.89,25.37Z" style="fill:rgb(245,235,227);stroke:rgb(245,235,227);stroke-width:2.79px;"/>
                    </g>
                    <g transform="matrix(0.322072,9.36282e-33,-1.77436e-32,0.322072,50.1592,51.6058)">
                        <path d="M84.89,19.253C118.647,19.253 146.054,46.66 146.054,80.417C146.054,114.174 118.647,141.581 84.89,141.581C51.133,141.581 23.726,114.174 23.726,80.417C23.726,46.66 51.133,19.253 84.89,19.253ZM84.89,25.37C115.272,25.37 139.938,50.036 139.938,80.417C139.938,110.799 115.272,135.465 84.89,135.465C54.509,135.465 29.843,110.799 29.843,80.417C29.843,50.036 54.509,25.37 84.89,25.37Z" style="fill:rgb(240,56,19);"/>
                    </g>
                    <g transform="matrix(-0.282425,-3.45871e-17,3.45871e-17,-0.282425,99.388,99.3939)">
                        <path d="M77.5,140.275C42.854,140.275 14.725,112.146 14.725,77.5C14.725,42.854 42.854,14.725 77.5,14.725C112.146,14.725 140.275,42.854 140.275,77.5C140.275,112.146 112.146,140.275 77.5,140.275ZM77.5,133.997C46.318,133.997 21.003,108.682 21.003,77.5C21.003,46.318 46.318,21.003 77.5,21.003C108.682,21.003 133.997,46.318 133.997,77.5C133.997,108.682 108.682,133.997 77.5,133.997Z" style="fill:rgb(245,235,227);stroke:rgb(245,235,227);stroke-width:3.54px;"/>
                    </g>
                    <g transform="matrix(-0.254183,-3.11284e-17,3.11284e-17,-0.254183,97.1992,97.2051)">
                        <path d="M77.5,140.275C42.854,140.275 14.725,112.146 14.725,77.5C14.725,42.854 42.854,14.725 77.5,14.725C112.146,14.725 140.275,42.854 140.275,77.5C140.275,112.146 112.146,140.275 77.5,140.275ZM77.5,133.997C46.318,133.997 21.003,108.682 21.003,77.5C21.003,46.318 46.318,21.003 77.5,21.003C108.682,21.003 133.997,46.318 133.997,77.5C133.997,108.682 108.682,133.997 77.5,133.997Z" style="fill:rgb(240,56,19);"/>
                    </g>
                    <g transform="matrix(-0.228764,-2.80156e-17,2.80156e-17,-0.228764,95.2292,95.2352)">
                        <path d="M77.5,140.275C42.854,140.275 14.725,112.146 14.725,77.5C14.725,42.854 42.854,14.725 77.5,14.725C112.146,14.725 140.275,42.854 140.275,77.5C140.275,112.146 112.146,140.275 77.5,140.275ZM77.5,133.997C46.318,133.997 21.003,108.682 21.003,77.5C21.003,46.318 46.318,21.003 77.5,21.003C108.682,21.003 133.997,46.318 133.997,77.5C133.997,108.682 108.682,133.997 77.5,133.997Z" style="fill:rgb(245,235,227);stroke:rgb(245,235,227);stroke-width:4.37px;"/>
                    </g>
                    <g transform="matrix(-0.205888,-2.5214e-17,2.52208e-17,-0.205944,93.4563,93.4701)">
                        <path d="M77.5,140.275C42.854,140.275 14.725,112.146 14.725,77.5C14.725,42.854 42.854,14.725 77.5,14.725C112.146,14.725 140.275,42.854 140.275,77.5C140.275,112.146 112.146,140.275 77.5,140.275ZM77.5,133.997C46.318,133.997 21.003,108.682 21.003,77.5C21.003,46.318 46.318,21.003 77.5,21.003C108.682,21.003 133.997,46.318 133.997,77.5C133.997,108.682 108.682,133.997 77.5,133.997Z" style="fill:rgb(240,56,19);"/>
                    </g>
                </g>
            </g>
        </g>
    </g>
    <g id="Sun" transform="matrix(1,0,0,1,0.536097,0)">
        <g transform="matrix(0.849817,0,0,0.849817,7.19108,17.6165)">
            <path d="M82.103,108.61C91.321,108.61 98.804,116.093 98.804,125.311C98.804,134.528 91.321,142.011 82.103,142.011C72.886,142.011 65.403,134.528 65.403,125.311C65.403,116.093 72.886,108.61 82.103,108.61ZM82.103,116.125C87.173,116.125 91.289,120.241 91.289,125.311C91.289,130.38 87.173,134.496 82.103,134.496C77.034,134.496 72.918,130.38 72.918,125.311C72.918,120.241 77.034,116.125 82.103,116.125Z" style="fill:rgb(240,56,19);"/>
        </g>
        <g transform="matrix(0.707107,0.707107,-0.707107,0.707107,110.646,-18.4175)">
            <g transform="matrix(-0.842105,-1.03128e-16,8.42488e-17,-0.687943,141.175,215.581)">
                <path d="M76.251,96.212L80.9,107.713L71.602,107.713L76.251,96.212Z" style="fill:rgb(240,56,19);"/>
            </g>
            <g transform="matrix(0.842105,0,0,0.687943,12.7525,33.6125)">
                <path d="M76.251,96.212L80.9,107.713L71.602,107.713L76.251,96.212Z" style="fill:rgb(240,56,19);"/>
            </g>
        </g>
        <g transform="matrix(6.12323e-17,1,-1,6.12323e-17,201.561,47.1437)">
            <g transform="matrix(-0.842105,-1.03128e-16,8.42488e-17,-0.687943,141.175,215.581)">
                <path d="M76.251,96.212L80.9,107.713L71.602,107.713L76.251,96.212Z" style="fill:rgb(240,56,19);"/>
            </g>
            <g transform="matrix(0.842105,0,0,0.687943,12.7525,33.6125)">
                <path d="M76.251,96.212L80.9,107.713L71.602,107.713L76.251,96.212Z" style="fill:rgb(240,56,19);"/>
            </g>
        </g>
        <g transform="matrix(0.707107,-0.707107,0.707107,0.707107,-65.5612,90.4259)">
            <g transform="matrix(-0.842105,-1.03128e-16,8.42488e-17,-0.687943,141.175,215.581)">
                <path d="M76.251,96.212L80.9,107.713L71.602,107.713L76.251,96.212Z" style="fill:rgb(240,56,19);"/>
            </g>
            <g transform="matrix(0.842105,0,0,0.687943,12.7525,33.6125)">
                <path d="M76.251,96.212L80.9,107.713L71.602,107.713L76.251,96.212Z" style="fill:rgb(240,56,19);"/>
            </g>
        </g>
        <g transform="matrix(1,0,0,1,0,-0.489395)">
            <g transform="matrix(-0.842105,-1.03128e-16,8.42488e-17,-0.687943,141.175,215.581)">
                <path d="M76.251,96.212L80.9,107.713L71.602,107.713L76.251,96.212Z" style="fill:rgb(240,56,19);"/>
            </g>
            <g transform="matrix(0.842105,0,0,0.687943,12.7525,33.6125)">
                <path d="M76.251,96.212L80.9,107.713L71.602,107.713L76.251,96.212Z" style="fill:rgb(240,56,19);"/>
            </g>
        </g>
    </g>
    <path id="Moon" d="M97.347,35.241C93.939,42.801 86.33,48.062 77.502,48.062C65.473,48.062 55.708,38.296 55.708,26.268C55.708,17.405 61.009,9.771 68.617,6.383C67.392,9.075 66.716,12.063 66.711,15.205C63.818,18.004 62.028,21.928 62.028,26.268C62.028,34.808 68.961,41.741 77.502,41.741C81.841,41.741 85.765,39.951 88.564,37.058L88.607,37.014C90.43,35.147 91.779,32.817 92.447,30.213C95.069,29.53 97.418,28.173 99.292,26.33C99.285,29.473 98.609,32.462 97.386,35.152L97.347,35.241ZM66.711,15.132C66.729,12.015 67.403,9.052 68.617,6.383C71.309,5.158 74.297,4.482 77.44,4.477C75.594,6.352 74.23,8.698 73.556,11.322L73.539,11.381C73.2,12.619 73.028,13.923 73.028,15.268C73.028,23.808 79.961,30.741 88.502,30.741C89.867,30.741 91.192,30.564 92.447,30.213C91.764,32.835 90.407,35.184 88.564,37.058L88.502,37.062C76.473,37.062 66.708,27.296 66.708,15.268L66.711,15.205L66.711,15.132Z" style="fill:rgb(245,235,227);stroke:rgb(245,235,227);stroke-width:0.13px;"/>
</svg>
